<?xml version="1.0" encoding="UTF-8"?> <svg xmlns="http://www.w3.org/2000/svg" viewBox="0 0 113.93359375 19.828125" fill="none"><path d="M23.656261936334978 0H24.406249805544135C25.38545407586349 0.39583428779468205 25.677034128289474 1.0416678633840462 25.28126480263158 1.9375007267680922L26.421850011992873 1.8593737631064968C28.265525424890352 2.171874122121711 29.18748805852522 2.588541267475329 29.18748805852522 3.109362706448739C29.34364704118695 3.6614659128289477 29.09379266892818 4.0729260930646936 28.437425233004387 4.3437432471559765C28.16658309347588 3.520822886684485 27.57817604680647 3.109362706448739 26.671954238623904 3.109362706448739H26.1719956397341C24.671869988692436 3.109362706448739 21.56770425318668 5.322922532038103 16.859373506030703 9.749992212342379L15.812508671703675 10.484364183285363C16.593753322882403 10.984372753049616 16.776047072882402 11.734385607695998 16.35936493626645 12.73437776178728C16.35936493626645 13.494784558319626 15.38540760776453 15.177079032175165 13.437492950760692 17.781261183353894L13.171872767612392 18.218756189179004C13.4427149071409 18.27082584035773 14.286448136821546 17.98436780256305 15.703122427528783 17.359382075794954C17.13021564555921 16.723952436266448 18.598959587445176 16.10416368044134 20.1093792386239 15.4999908228824C21.63021781712582 14.895842950760692 22.39062461365817 14.802072604851976 22.39062461365817 15.218754741467928C19.067711375239856 16.927084040912828 16.338552067057293 18.24998798571135 14.203121703673245 19.187491561300714C13.578135976905154 19.458333700829222 13.119803116433662 19.614592625239858 12.828123122258772 19.656243349095394C12.536468113521108 19.69791905838816 12.239591148403235 19.520822279331142 11.937492226905153 19.125002982798794C11.64583721816749 18.71873977350603 12.218753293756853 17.48438421823602 13.656240453673245 15.42188634611431C15.093752599026866 13.348969546669409 15.572923314144738 12.130204904228345 15.093752599026866 11.765617404228344C14.625000811232184 11.401029904228345 12.5312461571409 12.552084011787281 8.812488636753015 15.218754741467928C7.843753264631305 15.874997250205592 6.906249689041942 16.56249654091283 6.000002895422149 17.28125261358964C5.104175029125548 18.000008686266447 4.348965203536184 18.61457548571135 3.734373418654057 19.125002982798794C3.130200561095121 19.62501155256305 2.4739580523574562 19.77082656421327 1.765625904091283 19.562497988623903C0.7552073270456415 18.71873977350603 0.20312510843270284 17.73958547406113 0.10937500072813872 16.625010104851974C0.026041571657415025 15.895835104851974 0.29687446657415023 15.0677177734375 0.9218751846045778 14.140633125171327C1.5468759026350056 13.203129549581963 2.2239587645627745 12.687505081551537 2.953128767475329 12.593759721080046C3.692697709361294 12.499989375171328 3.968761805270011 12.755215616433663 3.781246098889803 13.359363488555374C2.104166085783306 13.869790985642817 1.1770839360608554 14.901039921703674 0.9999996497224506 16.453135282175165C1.291667151178728 17.703131721148576 1.6718755465323465 18.390631011855813 2.140624835783306 18.515633154296875C3.5989523488898025 18.276047796737938 5.989583968098959 16.03645314555921 9.312497206517271 11.796874186197918L15.093752599026866 6.515627363452577V5.906257534950658C14.5208365234375 5.5520889622738485 13.786464552494518 4.958335032038103 12.890636686197917 4.124995744243421C11.99478383446409 3.2916564564487394 10.770822221080046 2.734381264562774 9.21875184604578 2.45312519479852C7.666656485574287 2.171874122121711 6.510405407072368 2.0468744782243697 5.749998610540023 2.078123764562774C5.0000107413308665 2.098959120665433 4.166671453536185 2.218749300901179 3.250005732593202 2.4374993023574563C2.3437489447985196 2.656251802357456 1.5781251889734103 3.343751093064693 0.9531244709429825 4.500002171566612C0.8177083982661734 5.395830037863213 1.4374996526350057 6.026037721011514 2.8125107267680924 6.390625221011514C4.197928235505757 6.755212721011514 5.609380569832786 6.4895925378632136 7.046867729749178 5.593739686129386C7.546876299513433 5.28124682274534 7.609364878015351 5.416667892509595 7.234383436129386 6.000002895422149C6.859377008806195 6.583337898334705 6.286460933216831 7.00521700589364 5.515635209361293 7.265615232661733C4.755203427391722 7.5260384448670505 3.9218641395970395 7.588552008806196 3.015617345977248 7.453130939041941C1.0052091133840462 7.046867729749178 0 6.1145861105400225 0 4.656261095977248V4.3437432471559765C0.9479175058251097 2.2708339433422426 2.7916728721217106 1.2343755436197918 5.531251107627467 1.2343755436197918H6.546884145422149C9.651049880927905 1.2343755436197918 11.880200619346217 1.8489573343270287 13.234386331551537 3.0781309099163923C14.588547058319627 4.307289494243421 15.593761168791119 4.859367715186403 16.25000367752878 4.7343655727453395C19.635405494449014 1.5781251889734103 22.104166575863488 0 23.656261936334978 0ZM18.953128160121985 3.562498595977248C18.10936994500411 4.416675738418311 18.000008686266447 4.781238252981085 18.624994413034543 4.656261095977248C20.59374692468476 4.83333288959704 22.60417514562774 3.901051270387884 24.656254090426263 1.8593737631064968C24.56250872995477 1.1406251860608552 24.265631764836897 0.8020825058251096 23.765623195072646 0.8437507194867051C23.27603355263158 0.8750000058251097 22.562499436334978 1.1249992936197917 21.624995860745614 1.5937510814144737C20.697911212479443 2.052083941885965 19.807280317125823 2.7083214535361844 18.953128160121985 3.562498595977248ZM14.625000811232184 8.078116665810033C12.927090439110472 9.671862750137063 12.328114552494519 10.500005066988763 12.828123122258772 10.56249364549068C14.223959558319628 10.56249364549068 16.57291546823602 8.906258982661733 19.87499085200795 5.593739686129386H19.37500726768092C18.31250154965049 5.572926816920231 17.677071910121985 5.583345744243421 17.468743334532622 5.624996468098959C17.270833686266446 5.666672177391722 16.322911183353895 6.484370581483005 14.625000811232184 8.078116665810033ZM9.312497206517271 13.656240453673245H9.562501491399397C11.406251860608554 12.520827229817709 12.328114552494519 11.796874186197918 12.328114552494519 11.48438132281387H12.078135253049616C10.23438488384046 12.35937133446409 9.312497206517271 13.083324378083882 9.312497206517271 13.656240453673245Z" fill="#AA2929"></path><path d="M30.546945697985198 11.671872043756853C32.859347913240136 11.307284543756852 34.07289059930099 11.734385607695998 34.187573756167765 12.953125264699835C34.49989172149123 14.005212055407073 32.80737820381031 15.4166643897341 29.109283640008222 17.187507253118145C25.4114389305784 18.958325131064967 23.19270711948328 19.838537099095397 22.45311319216009 19.828118171772203C21.713544250274122 19.817699244449013 21.234373535156248 19.68750013106497 21.0156260322437 19.43749584618284C20.807297456654332 19.177072633977524 20.76042477641859 18.708345831620065 20.875007991536457 18.031240482798793C20.98959120665433 17.354160119414747 22.052071939247533 16.218746895559214 24.062500160190517 14.625000811232184C26.07280345394737 13.020835799581963 28.234293628358007 12.036459543756854 30.546945697985198 11.671872043756853ZM22.734374259011787 17.156250471148578C21.828127465391997 18.24998798571135 22.083328721217107 18.677089049650494 23.500003011924342 18.43750369209156C24.92709622995477 18.197918334532623 27.82803041906524 16.770825116502195 32.2032303316886 14.156249023437502L32.531289122464365 13.859372058319627C32.958290244654606 13.192710622258772 32.61973757024397 12.78644741296601 31.515631099232458 12.64063240131579C30.411524628220945 12.494792404228344 28.895908006099233 12.937509366433662 26.968781232867325 13.96875830249452C25.052148343270286 14.989588311232183 23.64062105263158 16.052094029262612 22.734374259011787 17.156250471148578Z" fill="#AA2929"></path><path d="M45.23438511684485 11.812490084464091C45.83853298896656 11.583323654228346 46.203070518092105 11.64061526178728 46.32824755859375 11.9843649071409C46.453174744723135 12.317695625171329 44.63023724472314 14.291670093201756 40.859435058593746 17.90623834035773C40.71352010519463 18.343758331620066 40.94788350637336 18.479154415947093 41.56252526212994 18.31250154965049C44.16675738418312 17.437511538000276 45.76032857044956 16.942699939179004 46.3437385296738 16.82811672406113C46.927148488898034 16.703114581620067 47.21872854132402 16.781244043825385 47.21872854132402 17.062505110677083C47.0728135879249 17.552094753118148 45.91149046566612 18.16666155256305 43.73425946580318 18.90625547988624C41.5572783203125 19.635405494449014 40.19782068085252 19.869793881064965 39.65613640179551 19.60937066885965C39.11470197711075 19.338553514768368 39.04174450041119 18.770834410121985 39.437513826069086 17.90623834035773L40.49989461691338 16.218746895559214L36.468744174890354 15.765635991467928C35.489564890008225 16.276038503118148 34.70302332613761 16.885408331620066 34.10936933765077 17.593745476973684C33.515715349163926 18.302082622327305 33.05723257606908 18.682286020593477 32.73442072711075 18.73438065720943C32.42185290741502 18.786450308388158 32.30217266310307 18.510411197916667 32.37488028543037 17.90623834035773C33.312583744517546 16.65624190138432 34.68228541324013 15.302081174616228 36.48448500034265 13.843756160053454C38.29692861670778 12.37501221816749 39.572934895833335 11.578126683285362 40.3125038377193 11.453124540844298C41.06256666324013 11.328122398403236 41.07281069250274 11.708325796669408 40.343735634251644 12.593759721080046C39.937472424958884 12.916671511787282 39.46349868078399 13.255199200760691 38.92181440172698 13.609367773437501L37.812460988898025 14.499998668791118L39.437513826069086 14.984366354851975C41.083304576137614 15.192719915878564 43.01567829118696 14.135411168791117 45.23438511684485 11.812490084464091Z" fill="#AA2929"></path><path d="M47.68745534368147 11.750001505962171L62.718694378769186 12.046878471080046C63.12495758806195 12.328114552494519 63.088478849712175 12.619794546669409 62.60925816371985 12.921868482730263C62.13028733209978 13.223967404228343 60.36456648334704 13.33332866296601 57.312595326206136 13.25000222981771L54.70311626233553 13.187488665878565C54.03650479714912 13.229164375171326 52.30201574492873 13.052092581551536 49.49989896004661 12.656248299581963C50.30218134936952 13.520844369346218 50.703197616844854 14.921877776350055 50.703197616844854 16.859373506030703C52.984368035567435 15.057298846114309 54.58343601802358 14.156249023437502 55.49990185546875 14.156249023437502C55.87493326822917 14.187505805407072 55.979122541461074 14.385415453673247 55.81246967516447 14.750002953673246L49.20307196580318 19.562497988623903C48.78656472724781 19.552079061300713 48.58343312260143 19.35416941303454 48.593677151864036 18.96874405838816L49.49989896004661 17.765620299650493C49.49989896004661 14.963553485642818 48.697866425095945 13.057289552494519 47.093801355194636 12.046878471080046C47.06256955866228 11.786455258874726 47.26045422149123 11.687487942023028 47.68745534368147 11.750001505962171Z" fill="#AA2929"></path><path d="M69.09372868695176 11.65625614549068C70.08340185546875 11.562510785019189 70.76050720429002 12.119785976905153 71.12504473341558 13.328131692023028C70.85420259388707 14.098957415878564 70.38022884971217 14.765618851939418 69.70312350089091 15.328116000205592H69.96871869860198C71.15627652994792 14.421869206585802 71.84887284984923 14.291670093201756 72.04675751267818 14.937493674616228C69.72386141378838 16.239584750205594 68.49482775664748 17.23957690429688 68.35940668688322 17.937495122327302C68.22398561711897 18.624994413034543 68.59377008806196 18.82812601768092 69.46876009971217 18.54686495082922L73.42195597759046 16.953118866502194C73.80723141961349 17.067702081620066 73.89592972176534 17.28644958453262 73.68755117530155 17.609386360677085C71.31243551260965 18.91145245082922 69.54171757641174 19.562497988623903 68.37489765796327 19.562497988623903C67.2917789542215 19.43749584618284 67.11463220429003 18.677089049650494 67.84370726254113 17.28125261358964C64.45843037280702 18.80209119209156 62.2447206345943 19.562497988623903 61.20307775664748 19.562497988623903C60.484496582031255 19.302074776418586 60.21865152994791 18.651029238623902 60.40629216351425 17.609386360677085C62.802145739103615 13.703113133908992 65.69795791358278 11.718744723992598 69.09372868695176 11.65625614549068ZM63.53122079735471 15.42188634611431C61.86469213438871 16.994794575794955 61.171845960115135 17.97394887523986 61.45318198327851 18.35937422988624C61.734268152069625 18.744799584532622 62.88534724506579 18.499992270593477 64.90616940789474 17.62500225894326C66.93748545435855 16.739593319969845 68.3541597450658 15.593761168791119 69.15619228001646 14.187505805407072C69.90625510553728 13.2604211571409 69.65615087890625 12.770831514699836 68.40612945449561 12.718761863521108C66.82280229749178 12.937509366433662 65.19799931469299 13.838534203673246 63.53122079735471 15.42188634611431Z" fill="#AA2929"></path><path d="M80.23448529159813 11.750001505962171C80.81764539645012 11.6354182908443 81.02077700109649 11.869781692023027 80.84363025116502 12.453116694935582L78.37506905324835 14.953134558319627H78.68738701857183C81.1249662743284 13.765626697848136 83.08332484409266 13.171872767612392 84.56246272786458 13.171872767612392C84.94798802425987 13.265618128083883 85.04693035567435 13.500006514699836 84.859289722108 13.874987956585802C79.92191747190242 15.39582653508772 77.45310641961349 16.697917610677084 77.45310641961349 17.781261183353894C77.52606389631306 18.08333511941475 77.76042729749179 18.239594043825385 78.15619662314968 18.24998798571135C80.6250076754386 18.17708047988624 83.37490489651864 17.66667796823602 86.40613814076207 16.718755465323465C86.95831630345396 16.677079756030704 87.06250557668585 16.91666511358964 86.71870596045778 17.437511538000276C85.03118953022204 18.541667979886242 82.04692890796328 19.25000512523986 77.76567423930922 19.562497988623903C76.734275390625 19.41665799153646 76.21882582065516 18.708345831620065 76.21882582065516 17.437511538000276L73.75001476836624 18.499992270593477C73.51040442537007 18.364596186266446 73.40621515213816 18.12501082870751 73.43744694867051 17.781261183353894L80.23448529159813 11.750001505962171Z" fill="#AA2929"></path><path d="M86.84363314658718 11.750001505962171L101.87512203604716 12.046878471080046C102.28113539096766 12.328114552494519 102.24490650699013 12.619794546669409 101.76568582099782 12.921868482730263C101.28646513500549 13.223967404228343 99.52074428625275 13.33332866296601 96.46877312911185 13.25000222981771L93.85929406524123 13.187488665878565C93.19268260005482 13.229164375171326 91.4584434022067 13.052092581551536 88.65632661732457 12.656248299581963C89.45835915227522 13.520844369346218 89.85937541975055 14.921877776350055 89.85937541975055 16.859373506030703C92.14054583847313 15.057298846114309 93.73961382092928 14.156249023437502 94.65632951274671 14.156249023437502C95.03136092550713 14.187505805407072 95.13530034436677 14.385415453673247 94.96864747807018 14.750002953673246L88.35949962308115 19.562497988623903C87.94274253015351 19.552079061300713 87.73961092550714 19.35416941303454 87.750104809142 18.96874405838816L88.65632661732457 17.765620299650493C88.65632661732457 14.963553485642818 87.85404422800164 13.057289552494519 86.24997915810033 12.046878471080046C86.21874736156799 11.786455258874726 86.41663202439693 11.687487942023028 86.84363314658718 11.750001505962171Z" fill="#AA2929"></path><path d="M107.2969619140625 11.671872043756853C107.86987798965187 11.47396239549068 108.1926898386102 11.64583721816749 108.26564731530976 12.18749651178728C106.69281404194079 13.322909735642819 105.8540529142681 14.06250366296601 105.75011349540846 14.406253308319627L105.7031408734238 14.499998668791118L106.79675346080043 14.031246880996436C109.24482660019189 13.187488665878565 111.36983803625274 12.828123122258772 113.17178776898301 12.953125264699835C113.53657515248082 12.963544192023027 113.67199622224507 13.213548476905153 113.57805097827577 13.703113133908992C112.5573958675987 14.661454564144737 111.70314376884595 15.38540760776453 111.01554453638981 15.874997250205592C107.81765842584979 17.72916654673794 106.5364052049068 18.645832267680923 107.17178487356087 18.624994413034543L108.73437411766722 18.42186280838816L112.71880179207785 17.75000440138432C113.93759141995615 17.614583331620064 114.239665356017 17.734363517680922 113.62502360026042 18.10936994500411C113.01038184450384 18.473957445004114 112.04169644325658 18.770834410121985 110.71871754214638 19.000000840357732C109.40623252467105 19.218748343270285 108.17719886753017 19.406239064213267 107.03136671635143 19.562497988623903C106.25007209429825 19.62501155256305 105.79683626302085 19.567719945004114 105.67190907689145 19.390623165947094C105.54698189076207 19.213551372327302 105.58845771655703 18.947906203741777 105.79683626302085 18.59373763106497C106.00521480948464 18.229175116502194 107.08858336759869 17.317706366502193 109.04694193736294 15.859381351939419C109.86971238521109 15.380210636821547 110.43738151898302 15.036460991467928 110.74994933867873 14.828132415878564C111.06251715837446 14.60938491296601 111.48427133874726 14.291670093201756 112.01571158854168 13.874987956585802L111.12498075143915 13.984374200760692C106.73953680955319 14.671873491467927 104.56255566406251 15.557282430441338 104.59378746059485 16.640626003118147C104.77093421052632 18.244791014768367 103.53640375719573 19.114584055475603 100.89069580934759 19.25000512523986C100.15112686746163 19.197910488623904 99.72387589089912 19.026035665947095 99.60944258840462 18.73438065720943C99.49475943153783 18.44270066303454 99.53123816988762 18.140626726973686 99.7186289490817 17.82813386358964C101.98955533854168 15.630214921703674 104.51558304207785 13.578135976905154 107.2969619140625 11.671872043756853ZM101.14055018160636 17.48438421823602C100.67182337924892 17.953136006030704 100.49467662931744 18.255209942091557 100.60935978618421 18.390631011855813C100.73428697231361 18.515633154296875 101.13530323978893 18.515633154296875 101.81240858861021 18.390631011855813C103.35425991981909 18.18230243626645 103.96365473375822 17.45312743626645 103.64059303042762 16.203130997293037C103.43221448396383 15.9635456397341 103.07817083847314 15.999999392646657 102.57821223958334 16.3124922560307C102.08849766995614 16.625010104851974 101.60927698396381 17.015632430441336 101.14055018160636 17.48438421823602Z" fill="#AA2929"></path></svg> 