<?xml version="1.0" encoding="UTF-8"?> <svg xmlns="http://www.w3.org/2000/svg" viewBox="0 0 82.400390625 11.52001953125" fill="none"><path d="M0 0.11450579922213937H2.862653917689127C3.3435790608900486 0.11450579922213937 3.7557955052704717 0.16794200568566975 4.099321125101681 0.27481334615645336C4.4428288706616055 0.3816871890252169 4.725278105511117 0.5305441202887744 4.9466509553789315 0.7213877148013829C5.175673993356833 0.9045972080480612 5.343602772081751 1.1297915771166622 5.450490914367544 1.396972609434314C5.55736118238205 1.656519540486036 5.610787379253661 1.9427902945363338 5.610787379253661 2.255768784741052C5.610787379253661 2.667985229121475 5.496284797400352 3.0229503825752437 5.267279633693736 3.3206642451023587C5.038256595715835 3.6107457937906724 4.755807360866323 3.820679110035927 4.419931929145201 3.950464193838124C4.893224758507321 4.05733446185263 5.267279633693736 4.274882217665401 5.542096554704447 4.603143209819008C5.816895601443871 4.923754013862527 5.954312999084869 5.343602772081751 5.954312999084869 5.862707358747967C5.954312999084869 6.190950476630287 5.900868927941973 6.492489433212445 5.7939986599274675 6.767306354223155C5.68712839191296 7.042123275233866 5.519181738916757 7.282585846834327 5.290176575210141 7.48869406902454C5.0611714115035245 7.687169977375949 4.763439674705125 7.8436592224783075 4.397034987628795 7.958161804331616C4.038244740119984 8.072664386184924 3.603113479951871 8.129915677111578 3.091659081395743 8.129915677111578H0V0.11450579922213937ZM3.091659081395743 7.190980206497423C3.435184701226952 7.190980206497423 3.721441155860222 7.160433076870933 3.950464193838124 7.099374566160521C4.17946935754474 7.030665867340022 4.362680638218547 6.939060227003118 4.50008016158826 6.8245576451498104C4.637497559229257 6.702422749457701 4.732910419349919 6.557373037977902 4.786354490492815 6.389426384981697C4.847413001203226 6.221497606256779 4.8779601308297185 6.034461231527928 4.8779601308297185 5.828353009337717C4.8779601308297185 5.622244787147506 4.847413001203226 5.435208412418655 4.786354490492815 5.267279633693736C4.732910419349919 5.091700666858731 4.637497559229257 4.9466509553789315 4.50008016158826 4.832148373525623C4.362680638218547 4.710013477833514 4.175644263489696 4.61840783749661 3.9390067859442786 4.557331452514913C3.7100016222376624 4.4886406279657 3.423727293333107 4.4542862785554505 3.0802016735018984 4.4542862785554505H1.0763564431094088V7.190980206497423H3.091659081395743ZM2.862653917689127 3.5611268167028203C3.1832647217326464 3.5611268167028203 3.450449328904555 3.530597561347614 3.6641898649335682 3.4695390506372012C3.877930400962581 3.408462665655504 4.049702148013829 3.3206642451023587 4.17946935754474 3.206161663249051C4.309236567075651 3.091659081395743 4.400842207412554 2.958066777809788 4.4542862785554505 2.805402626762473C4.507712475427061 2.652720601443872 4.5344345109985085 2.484773948447668 4.5344345109985085 2.301562667773861C4.5344345109985085 2.1183513871000543 4.507712475427061 1.9504226083751355 4.4542862785554505 1.7977405830565347C4.400842207412554 1.637435181034775 4.309236567075651 1.5038446648759491 4.17946935754474 1.396972609434314C4.049702148013829 1.290100553992679 3.877930400962581 1.2061290149217054 3.6641898649335682 1.1450597796485222C3.450449328904555 1.083990544375339 3.1832647217326464 1.0534541393116188 2.862653917689127 1.0534541393116188H1.0763564431094088V3.5611268167028203H2.862653917689127Z" fill="#322D29"></path><path d="M10.650849276369305 8.24443613323617C10.192821074684788 8.24443613323617 9.750057500677874 8.16809512057687 9.322576428619847 8.01541309525827C8.895077482290537 7.8551166303721525 8.517215387320363 7.6108289647166485 8.188972269438043 7.282585846834327C7.8607112772844365 6.9543248546807215 7.59735176416757 6.534476096461496 7.3988758558161605 6.023021697905368C7.20039994746475 5.5115494250779555 7.101161993289045 4.8970319782910785 7.101161993289045 4.17946935754474V3.950464193838124C7.101161993289045 3.263412954175705 7.20039994746475 2.6718103231765187 7.3988758558161605 2.1756205522979934C7.59735176416757 1.6794200568566973 7.8607112772844365 1.2710161945414182 8.188972269438043 0.950400028216513C8.517215387320363 0.6221497606256778 8.895077482290537 0.3816871890252169 9.322576428619847 0.22901231341513015C9.750057500677874 0.07633725906233053 10.192821074684788 0 10.650849276369305 0C11.108859603782538 0 11.551623177789452 0.07633725906233053 11.979104249847477 0.22901231341513015C12.406603196176789 0.3816871890252169 12.784465291146963 0.6221497606256778 13.112726283300569 0.950400028216513C13.44096940118289 1.2710161945414182 13.704328914299754 1.6794200568566973 13.902804822651165 2.1756205522979934C14.101280731002575 2.6718103231765187 14.200518685178281 3.263412954175705 14.200518685178281 3.950464193838124V4.17946935754474C14.200518685178281 4.8970319782910785 14.101280731002575 5.5115494250779555 13.902804822651165 6.023021697905368C13.704328914299754 6.534476096461496 13.44096940118289 6.9543248546807215 13.112726283300569 7.282585846834327C12.784465291146963 7.6108289647166485 12.406603196176789 7.8551166303721525 11.979104249847477 8.01541309525827C11.551623177789452 8.16809512057687 11.108859603782538 8.24443613323617 10.650849276369305 8.24443613323617ZM10.650849276369305 7.282585846834327C10.963827766574024 7.282585846834327 11.265348848884896 7.225334555907673 11.55543039757321 7.110814099783081C11.845511946261523 6.996311517929772 12.101257019810873 6.816925331311008 12.322629869678687 6.572637665655504C12.544002719546503 6.3207355604324835 12.719581686381508 6.000106882117678 12.849348895912419 5.610787379253661C12.986766293553416 5.21383556255084 13.055474992373915 4.736735513404962 13.055474992373915 4.17946935754474V3.950464193838124C13.055474992373915 3.423727293333107 12.986766293553416 2.973331405487391 12.849348895912419 2.599276530300976C12.719581686381508 2.2176072155470448 12.544002719546503 1.9084359451260844 12.322629869678687 1.6717877430178958C12.101257019810873 1.4275072270709055 11.845511946261523 1.2481156781707565 11.55543039757321 1.1336095214631914C11.265348848884896 1.0191033647556262 10.963827766574024 0.9618502864018438 10.650849276369305 0.9618502864018438C10.337852911893302 0.9618502864018438 10.03633182958243 1.0191033647556262 9.746250280894115 1.1336095214631914C9.456168732205802 1.2481156781707565 9.200441532927739 1.4275072270709055 8.979050808788639 1.6717877430178958C8.757677958920825 1.9084359451260844 8.57829177230206 2.2176072155470448 8.440874374661062 2.599276530300976C8.311107165130151 2.973331405487391 8.246223560364696 3.423727293333107 8.246223560364696 3.950464193838124V4.17946935754474C8.246223560364696 4.736735513404962 8.311107165130151 5.21383556255084 8.440874374661062 5.610787379253661C8.57829177230206 6.000106882117678 8.757677958920825 6.3207355604324835 8.979050808788639 6.572637665655504C9.200441532927739 6.816925331311008 9.456168732205802 6.996311517929772 9.746250280894115 7.110814099783081C10.03633182958243 7.225334555907673 10.337852911893302 7.282585846834327 10.650849276369305 7.282585846834327Z" fill="#322D29"></path><path d="M18.95512846986849 8.24443613323617C18.504875576193058 8.24443613323617 18.07732300704989 8.16809512057687 17.67273887650827 8.01541309525827C17.268154745966648 7.8551166303721525 16.909364498457833 7.6108289647166485 16.59638600825312 7.282585846834327C16.2834075180484 6.946692540841919 16.035312632609138 6.523018688567651 15.85210135193533 6.011564290011524C15.668890071261522 5.500109891455396 15.57728443092462 4.889399664452277 15.57728443092462 4.17946935754474V3.950464193838124C15.57728443092462 3.263412954175705 15.668890071261522 2.6718103231765187 15.85210135193533 2.1756205522979934C16.035312632609138 1.6794200568566973 16.2834075180484 1.2710161945414182 16.59638600825312 0.950400028216513C16.909364498457833 0.6297820744644794 17.268154745966648 0.3931374472105478 17.67273887650827 0.24046257160046094C18.07732300704989 0.08015430969529555 18.504875576193058 0 18.95512846986849 0C19.390366975664318 0 19.787354540909707 0.057252899611069684 20.146091165604663 0.17175869883320904C20.512513726952278 0.2862653917689127 20.83317815380965 0.45039052556433024 21.107905703463935 0.6641346364476003C21.382811995831073 0.8778787473308703 21.60409547434246 1.1412436227291214 21.772113624423806 1.4542256877880964C21.947638968444956 1.7672077528470715 22.05828070770065 2.1221764811550976 22.10403884219089 2.5191282978579177H20.959013023657807C20.852124881372017 2.0000415854629883 20.626909063177873 1.6107167203175838 20.28354431178823 1.3511697892658623C19.94000081768574 1.0916228582141405 19.497255117950107 0.9618502864018438 18.95512846986849 0.9618502864018438C18.67271498356155 0.9618502864018438 18.397987433907268 1.015285420409097 18.130767078192786 1.122157475850732C17.86358247102088 1.2290295312923671 17.623119899420416 1.4007887663537146 17.409379363391405 1.637435181034775C17.203271141201192 1.8664492818770335 17.03532448820499 2.17179545824295 16.905557278674078 2.553482647268167C16.783404508710685 2.9351698362933836 16.72234599800027 3.4008303518167025 16.72234599800027 3.950464193838124V4.17946935754474C16.72234599800027 4.759632454921366 16.791036822549486 5.24818991196109 16.92845422019048 5.645141728663909C17.065853743560194 6.034461231527928 17.241432710395202 6.35126481578769 17.455173246424213 6.595534607171909C17.668913782453227 6.839822272827413 17.909304856968546 7.0154012396624195 18.176525212683025 7.122271507676925C18.443745568397507 7.229141775691432 18.70327998745933 7.282585846834327 18.95512846986849 7.282585846834327C19.550699189093006 7.282585846834327 20.01632395607375 7.1375361353545275 20.35218151352359 6.847454586666214C20.688039070973428 6.557373037977902 20.89037582192245 6.183318162791486 20.959013023657807 5.725289961106969H22.10403884219089C22.04308757710819 6.168053535113883 21.920827561517083 6.5497407241391 21.737616280843277 6.87035152818262C21.554405000169467 7.183347892658623 21.32168198803552 7.442882311720444 21.03926850172858 7.6489905339106565C20.76436220936144 7.8551166303721525 20.447630122186823 8.007780781419468 20.088893497491867 8.107018735595174C19.737664066736713 8.198624375932077 19.35980197176654 8.24443613323617 18.95512846986849 8.24443613323617Z" fill="#322D29"></path><path d="M23.81818145844631 0.11450579922213937H24.894570075244037V3.5611268167028203H25.81044773590022L28.947918574600052 0.11450579922213937H30.230397539316698L26.726504139269252 3.9390067859442786L30.34497161825515 8.129915677111578H28.970976384558025L25.81044773590022 4.4542862785554505H24.894570075244037V8.129915677111578H23.81818145844631V0.11450579922213937Z" fill="#322D29"></path><path d="M31.83586458615781 0.11450579922213937H34.583855053552064C35.110609828328364 0.11450579922213937 35.56872740136931 0.17557574946617407 35.958029029962034 0.2977156499542435C36.34733065855477 0.4198559079277386 36.667995085412144 0.5916133555619577 36.91984356782131 0.8129915677111579C37.17937798688313 1.0267374660215565 37.3702752042096 1.2862843970732782 37.49235647708785 1.5916323608663232C37.61443774996611 1.8893462233934382 37.67556775776166 2.2176072155470448 37.67556775776166 2.5763795887845715C37.67556775776166 2.9351698362933836 37.61443774996611 3.267238048230748 37.49235647708785 3.572584224596665C37.3702752042096 3.8702980871237798 37.17937798688313 4.129850380456888 36.91984356782131 4.351223230324702C36.667995085412144 4.564963766353714 36.34733065855477 4.732910419349919 35.958029029962034 4.855045315042028C35.56872740136931 4.977198085005423 35.110609828328364 5.038256595715835 34.583855053552064 5.038256595715835H32.91207446024268V8.129915677111578H31.83586458615781V0.11450579922213937ZM34.52665738543926 4.099321125101681C34.90827307737934 4.099321125101681 35.22893750423671 4.064966775691432 35.48847192329853 3.996258076870933C35.75569227901301 3.919917064211632 35.9694685635846 3.8168718902521688 36.12980077701329 3.687086806449973C36.29764018438178 3.557319596919062 36.41596786029013 3.397005257761659 36.48478380473834 3.206161663249051C36.561106943126354 3.015318068736442 36.59917914096393 2.805402626762473 36.59917914096393 2.5763795887845715C36.59917914096393 2.3473744250779554 36.561106943126354 2.1374411088327006 36.48478380473834 1.946597514320092C36.41596786029013 1.7557574946617407 36.29764018438178 1.5954503052128524 36.12980077701329 1.4656759459734274C35.9694685635846 1.3359033741611306 35.75569227901301 1.2366636325582971 35.48847192329853 1.1679602960191837C35.22893750423671 1.0916228582141405 34.90827307737934 1.0534541393116188 34.52665738543926 1.0534541393116188H32.91207446024268V4.099321125101681H34.52665738543926Z" fill="#322D29"></path><path d="M39.33912618627983 0.11450579922213937H44.49174236967868V1.0534541393116188H40.415336060364695V3.5382298751864156H44.14837761828905V4.477183220071855H40.415336060364695V7.190980206497423H44.49174236967868V8.129915677111578H39.33912618627983V0.11450579922213937Z" fill="#322D29"></path><path d="M49.19196074684788 8.24443613323617C48.741529110459595 8.24443613323617 48.31397654131643 8.16809512057687 47.90948178213124 8.01541309525827C47.504808280233185 7.8551166303721525 47.14607165553823 7.6108289647166485 46.833093165333516 7.282585846834327C46.52011467512879 6.946692540841919 46.27201978968953 6.523018688567651 46.08880850901573 6.011564290011524C45.90559722834192 5.500109891455396 45.81408095936144 4.889399664452277 45.81408095936144 4.17946935754474V3.950464193838124C45.81408095936144 3.263412954175705 45.90559722834192 2.6718103231765187 46.08880850901573 2.1756205522979934C46.27201978968953 1.6794200568566973 46.52011467512879 1.2710161945414182 46.833093165333516 0.950400028216513C47.14607165553823 0.6297820744644794 47.504808280233185 0.3931374472105478 47.90948178213124 0.24046257160046094C48.31397654131643 0.08015430969529555 48.741529110459595 0 49.19196074684788 0C49.62702050993085 0 50.02400807517624 0.057252899611069684 50.3827446998712 0.17175869883320904C50.749167261218815 0.2862653917689127 51.06983168807619 0.45039052556433024 51.34455923773048 0.6641346364476003C51.61946553009761 0.8778787473308703 51.840749008608995 1.1412436227291214 52.008767158690354 1.4542256877880964C52.18429250271149 1.7672077528470715 52.295112984680046 2.1221764811550976 52.340871119170274 2.5191282978579177H51.1958453006372C51.08895715835141 2.0000415854629883 50.86374134015727 1.6107167203175838 50.52019784605477 1.3511697892658623C50.17665435195228 1.0916228582141405 49.73390865221665 0.9618502864018438 49.19196074684788 0.9618502864018438C48.90954726054094 0.9618502864018438 48.63464096817381 1.015285420409097 48.36742061245933 1.122157475850732C48.100378999457696 1.2290295312923671 47.85979130795824 1.4007887663537146 47.64601502338666 1.637435181034775C47.43992467546773 1.8664492818770335 47.27208526809925 2.17179545824295 47.142318058568335 2.553482647268167C47.020058042977226 2.9351698362933836 46.95910677789452 3.4008303518167025 46.95910677789452 3.950464193838124V4.17946935754474C46.95910677789452 4.759632454921366 47.02774397962988 5.24818991196109 47.16519712581345 5.645141728663909C47.30265027199702 6.034461231527928 47.47817561601816 6.35126481578769 47.69195190058975 6.595534607171909C47.90572818516133 6.839822272827413 48.14613713394794 7.0154012396624195 48.413357489662424 7.122271507676925C48.68039910266404 7.229141775691432 48.940112264438724 7.282585846834327 49.19196074684788 7.282585846834327C49.78735272335954 7.282585846834327 50.25297749034029 7.1375361353545275 50.588835047790134 6.847454586666214C50.924871347952816 6.557373037977902 51.127029356188984 6.183318162791486 51.1958453006372 5.725289961106969H52.340871119170274C52.279741111374726 6.168053535113883 52.15765983849647 6.5497407241391 51.97444855782267 6.87035152818262C51.79123727714886 7.183347892658623 51.55833552230206 7.442882311720444 51.275922035995116 7.6489905339106565C51.001194486340836 7.8551166303721525 50.68428365645336 8.007780781419468 50.325547031758404 8.107018735595174C49.97431760100326 8.198624375932077 49.596455506033074 8.24443613323617 49.19196074684788 8.24443613323617Z" fill="#322D29"></path><path d="M54.05483499271285 0.11450579922213937H59.207629918824566V1.0534541393116188H55.13122360951058V3.5382298751864156H58.86408642472207V4.477183220071855H55.13122360951058V7.190980206497423H59.207629918824566V8.129915677111578H54.05483499271285V0.11450579922213937Z" fill="#322D29"></path><path d="M61.04367506524539 0.11450579922213937H62.12006368204311V3.5382298751864156H66.37968127203091V0.11450579922213937H67.45606988882864V8.129915677111578H66.37968127203091V4.477183220071855H62.12006368204311V8.129915677111578H61.04367506524539V0.11450579922213937Z" fill="#322D29"></path><path d="M69.743440385202 0.11450579922213937H70.81982900199974V3.3206642451023587H72.49160959530911C73.01836437008542 3.3206642451023587 73.47648194312636 3.377933410300298 73.86578357171909 3.4924359921536063C74.25508520031183 3.6069385740069144 74.57574962716919 3.7710601329480746 74.82759810957836 3.984800668977088C75.08713252864018 4.198559079277386 75.27802974596665 4.4542862785554505 75.4001110188449 4.752000141082565C75.52219229172316 5.042081689770878 75.58332229951871 5.366517587869442 75.58332229951871 5.725289961106969C75.58332229951871 6.084080208615782 75.52219229172316 6.4123412007693865 75.4001110188449 6.710055063296503C75.27802974596665 7.000136611984816 75.08713252864018 7.252038717207836 74.82759810957836 7.46577925323685C74.57574962716919 7.679537663537147 74.25508520031183 7.8436592224783075 73.86578357171909 7.958161804331616C73.47648194312636 8.072664386184924 73.01836437008542 8.129915677111578 72.49160959530911 8.129915677111578H69.743440385202V0.11450579922213937ZM72.43441192719632 7.190980206497423C73.19782205378931 7.190980206497423 73.73208402250542 7.065020216750272 74.03755531877034 6.813100237255965C74.35053380897506 6.5535658181941425 74.50693368272098 6.190950476630287 74.50693368272098 5.725289961106969C74.50693368272098 5.259647319854935 74.35053380897506 4.900857072346123 74.03755531877034 4.648937092851817C73.73208402250542 4.389402673789994 73.19782205378931 4.259617589987798 72.43441192719632 4.259617589987798H70.81982900199974V7.190980206497423H72.43441192719632Z" fill="#322D29"></path><path d="M77.24670198532402 0.11450579922213937H82.39949691143573V1.0534541393116188H78.32309060212175V3.5382298751864156H82.05595341733324V4.477183220071855H78.32309060212175V7.190980206497423H82.39949691143573V8.129915677111578H77.24670198532402V0.11450579922213937Z" fill="#322D29"></path></svg> 