<?xml version="1.0" encoding="UTF-8"?> <svg xmlns="http://www.w3.org/2000/svg" viewBox="0 0 49.921875 90.5615234375" fill="none"><path d="M49.778349609375 86.065562109375C49.82852109375 86.46718359375001 49.80356015625 86.592737109375 49.602624609375 86.94418710937501C49.426899609375 87.17008359375 49.251174609375 87.39598007812499 49.2259640625 87.52128398437499C49.2259640625 87.52128398437499 49.201003125 87.6468375 49.050239062500005 87.74743007812499C49.050239062500005 87.74743007812499 49.02527812499999 87.872733984375 48.975106640625 88.123841015625C48.94989609375 88.24939453125 48.77417109375 88.47529101562499 48.62340703125 88.575633984375C48.59844609375 88.7011875 48.44768203125 88.80153046875 48.42272109375 88.92708398437499C48.42272109375 88.92708398437499 48.24699609375 89.15298046875 48.096232031250004 89.2533234375C47.945717578125 89.353916015625 47.794953515625004 89.454258984375 47.769992578125 89.5798125C47.769992578125 89.5798125 47.594267578125 89.805708984375 47.443503515625 89.906051953125C47.267778515625 90.1319484375 47.092053515625004 90.357844921875 47.067092578125 90.4833984375C46.916328515625 90.58374140625 46.790775 90.558530859375 46.790775 90.558530859375C46.4143640625 90.4833984375 46.439325 90.357844921875 46.715642578125 88.97725546875C47.067092578125 87.872733984375 46.99196015625 87.59641640625 47.092303124999994 86.4417234375C46.941788671875 85.23685898437499 46.89186679687499 84.182508984375 46.8416953125 83.7808875C46.86665625 83.65533398437499 46.791523828125 83.37926601562499 46.74135234375 82.97764453125C46.665970312499994 82.70132695312499 46.59058828125 82.42525898437499 46.59058828125 82.42525898437499C46.4902453125 82.27474453125 46.4902453125 82.27474453125 46.515455859375 82.149191015625C46.540416796875 82.02363749999999 46.440073828124994 81.873123046875 46.36494140625 81.59680546875C46.264348828125 81.44629101562501 46.18921640625 81.17022304687501 46.0888734375 81.01945898437499C46.038701953125 80.6178375 45.7374234375 80.16604453125 45.511526953125 79.99031953125C45.3859734375 79.965108984375 45.28563046874999 79.81459453125 45.28563046874999 79.81459453125C45.310591406250005 79.689041015625 45.059733984374994 79.63886953125 45.0345234375 79.76417343749999C44.884008984375 79.864766015625 44.60769140625 79.93989843749999 43.603762499999995 79.73896289062499C42.850691015624996 79.58844843749999 41.94685546875 79.53802734374999 41.545233984375 79.588198828125C41.04326953125 79.487855859375 40.516094531250005 79.51281679687499 40.390541015625 79.487855859375C40.2400265625 79.588198828125 39.863366015625 79.51281679687499 39.7128515625 79.613159765625C39.46174453125 79.56298828125 39.060123046875006 79.613159765625 38.93456953125 79.58794921875C38.532948046875 79.638120703125 37.4533875 79.813845703125 36.9262125 79.83880664062501C36.65014453125 79.914188671875 36.248523046875 79.96436015625 35.8469015625 80.01453164062501C35.445280078124995 80.064703125 35.018448046875 80.240428125 34.89289453125 80.21521757812499C34.6168265625 80.29059960937501 34.34075859375 80.36573203125 34.0896515625 80.31556054687499C33.788373046875 80.51649609374999 33.110683593750004 80.6418 32.8595765625 80.59162851562499C32.734023046874995 80.56641796874999 30.9266015625 81.11855390625 29.94763359375 81.444793359375C29.822080078124998 81.419832421875 29.395248046875 81.59555742187499 28.71755859375 81.720861328125C28.165173046875 81.871625390625 27.738590625 82.04710078125 27.738590625 82.04710078125C27.5878265625 82.147693359375 27.31175859375 82.22282578125 26.8849265625 82.39855078125C25.780405078125 82.69957968749999 25.780405078125 82.699829296875 25.353573046875 82.87530468749999C25.20305859375 82.975897265625 25.05229453125 83.07624023437499 25.05229453125 83.07624023437499C24.9268658203125 83.05102968749999 24.525219375 83.101201171875 24.073351523437502 83.4024796875C23.521065820312497 83.552994140625 22.6675515234375 83.90444414062499 22.0901551171875 84.180512109375C21.412365820312502 84.305816015625 20.8349694140625 84.58188398437501 20.809858710937498 84.7074375C20.6843551171875 84.6824765625 20.3831015625 84.8831625 20.25759796875 84.8582015625C19.981455117187497 84.933333984375 19.705312265624997 85.008716015625 19.55469796875 85.109058984375C18.8266623046875 85.485469921875 16.266094453125 86.53957031249999 16.140590859375 86.514609375C16.140590859375 86.514609375 15.71380875 86.69033437499999 15.2870516015625 86.865809765625C14.985798046874999 87.0667453125 14.157394453125 87.29264179687499 13.7306373046875 87.468366796875C13.303855195312499 87.6438421875 12.6260658984375 87.769395703125 12.3248373046875 87.970081640625C12.048694453125 88.045463671875 11.647048007812499 88.09563515625 11.647048007812499 88.09563515625C11.647048007812499 88.09563515625 11.2202658984375 88.27136015625 10.818619453124999 88.321531640625C10.2663587109375 88.47204609375 9.8646873046875 88.522217578125 9.8646873046875 88.522217578125C9.7391837109375 88.49700703124999 9.6136801171875 88.47204609375 9.463040859374999 88.5723890625C8.7852515625 88.697942578125 7.253997890625 88.52196796874999 5.3964298828125 88.01975390625C5.019894140625 87.94437187499999 4.542965507812499 87.718475390625 4.417436953125 87.69351445312499C3.7397225390625 87.16608984374999 1.4807077734375 84.1033828125 1.530934171875 83.852525390625C1.4305362890625 83.701761328125 1.33013591015625 83.551246875 1.2548512265625 83.27492929687499C1.1544508476562498 83.12441484374999 1.05405296484375 82.973900390625 1.05405296484375 82.973900390625C0.9285418828124999 82.94868984375 0.95365508203125 82.82313632812499 0.9787682812499999 82.6975828125C0.9787682812499999 82.6975828125 0.9034811015624999 82.42151484375 0.80308321875 82.27100039062499C0.50188707421875 81.8189578125 0.025059033984375 80.287604296875 0 79.760429296875C0.050226648046875 79.50957187499999 0.0251676140625 78.98239687499999 0.12562066054687498 78.48018281249999C0.025276194140625 77.67693984375 0.62804963671875 74.01192539062501 0.80378961328125 73.78602890625C0.9293006953124999 73.811239453125 1.05486669140625 73.183721484375 1.33105946484375 72.4556109375C1.90861062890625 70.22160703125 2.23502980078125 69.2426390625 2.3605957968749998 68.61512109374999C2.8627449609375 67.410256640625 3.1891841015624998 66.43128867187501 3.3397983984375 66.33069609374999C3.3649091015625 66.205142578125 3.4151305078125 65.95428515625001 3.4402412109375002 65.828731640625C3.490487578125 65.577624609375 3.6662125781249997 65.351728125 3.7164339843749996 65.100870703125C3.9172946484374997 64.749420703125 4.193487421875 64.02131015625 4.5199016015625 63.0423421875C4.6956515625 62.816445703125 4.796094375 62.31448125 4.996955039062501 61.96303125C5.072287148437501 61.586370703125 5.32336921875 60.98406328125 5.5242298828125 60.632613281249995C5.5995619921875 60.255952734375 5.8506440625 59.6536453125 5.90086546875 59.402538281249996C6.0766154296875 59.176641796874996 6.1268368359375 58.925534765624995 6.1519475390625 58.800230859375C6.3025618359375 58.699638281249996 6.352808203125 58.448780859375 6.528533203125 58.222884375C6.6038653125 57.846223828125005 6.930304453125 56.86725585937499 7.3822222265625 55.913498437499996C7.5579721875 55.687601953125 7.633304296875 55.31094140625 7.8090542578125 55.085044921874996C7.8592756640624994 54.833937890625 8.085247031249999 54.357183984375 8.260972031249999 54.1312875C8.336304140625 53.754626953125 8.562275507812501 53.2776234375 8.73802546875 53.051726953125C8.863578984375 52.424208984375 9.240164648437501 51.84686249999999 9.290411015624999 51.596005078124996C9.466136015625 51.36985898437499 9.7172180859375 50.7675515625 9.7674394921875 50.51644453125C9.91807875 50.416101562499996 9.993410859375 50.039441015625 10.14402515625 49.939098046874996C10.169160820312499 49.81354453125 10.3699965234375 49.462344140625 10.3951072265625 49.336790625C10.445353593750001 49.08568359375 10.470464296875 48.960130078125 10.495575 48.8345765625C10.621078593750001 48.859787109375 10.7215463671875 48.35782265625 10.9223820703125 48.00637265625C11.3492141015625 47.177919140625 11.6002712109375 46.57561171875 11.801131875 46.224161718750004C11.826242578125 46.098608203124996 12.0019925390625 45.87271171875 12.0522139453125 45.621604687499996C12.0773246484375 45.496051171875 12.253074609375 45.2701546875 12.2781853125 45.144601171874996C12.2781853125 45.144601171874996 12.4539103125 44.9187046875 12.479021015625 44.793151171875C12.780349453125 43.93973671875 13.006295859375 43.462982812499995 13.232267226562499 42.985979296874994C13.433127890625 42.634529296875 13.63396359375 42.283079296874995 13.659074296875 42.15752578125C13.7093206640625 41.906668359375004 13.960402734375 41.304111328124996 14.261631328125 41.103175781249995C14.788906171874999 39.773007421875 14.9646561328125 39.546861328125 15.165516796875 39.195660937499994C15.1906275 39.070107421875 15.24084890625 38.819000390625 15.265959609374999 38.693446875C15.265959609374999 38.693446875 15.4919309765625 38.216443359375 15.6927666796875 37.86524296875C15.89362734375 37.513792968749996 16.0944880078125 37.16234296875 16.1195987109375 37.036789453124996C16.1447094140625 36.9112359375 16.3204344140625 36.685339453125 16.3204344140625 36.685339453125C16.3204344140625 36.685339453125 16.471073671874997 36.584996484375 16.521295078124997 36.333889453124996C16.7221557421875 35.982439453125 16.998348515625 35.254578515625 17.174073515624997 35.02868203125C17.3749341796875 34.67723203124999 17.600905546875 34.20022851562499 17.651126953125 33.949371093749996C17.67623765625 33.823817578125 17.9022090234375 33.3468140625 18.103044726562498 32.995364062499995C18.303905390625 32.6439140625 18.5047660546875 32.2924640625 18.5298767578125 32.166910546875C18.5549874609375 32.041606640625 18.7307124609375 31.81571015625 18.7307124609375 31.81571015625C18.755848125 31.690156640625 18.931573125 31.46426015625 19.1073230859375 31.238363671875C19.1575444921875 30.987256640625 19.35840515625 30.635806640625 19.534130156249997 30.40991015625C19.559240859375 30.284356640625 19.8354336328125 29.556495703124998 19.9609621875 29.581456640625C19.9609621875 29.581456640625 19.986072890625 29.456152734375 20.036294296875 29.205045703125C20.061405 29.079492187499998 20.2622656640625 28.728042187499998 20.4631013671875 28.3765921875C20.66396203125 28.0251421875 20.8899333984375 27.54838828125 20.9150441015625 27.422834765624998C20.9401548046875 27.297281249999997 21.090769101562497 27.19693828125 21.115904765625 27.071384765624998C21.115904765625 27.071384765624998 21.5176011328125 26.368484765625 21.5427118359375 26.242931249999998C21.5678225390625 26.117377734374998 21.5929332421875 25.992073828125 21.3670367578125 25.816348828125C20.965440234375 25.213791796875 20.940379453125 24.686566875 21.2668435546875 23.054920312500002C21.49286484375 21.9253130859375 21.7188362109375 21.4483594921875 21.7690576171875 21.1973523046875C21.919671914062498 21.0969594140625 21.96991828125 20.845927265625 22.0201396875 20.594895117187498C22.045250390625 20.4693915234375 22.220975390625 20.243470078125 22.220975390625 20.243470078125C22.220975390625 20.243470078125 22.396725351562498 20.01757359375 22.421836054687496 19.8920450390625C22.497168164062497 19.515509296875 22.9491108984375 18.56165203125 23.099725195312498 18.461259140625C23.099725195312498 18.461259140625 23.250364453125 18.3608412890625 23.300585859375 18.109809140625C23.3256965625 17.984305546875 23.375917968750002 17.7332733984375 23.401028671875 17.6077698046875C23.5265572265625 17.6328805078125 23.5767786328125 17.3818733203125 23.727392929687497 17.28145546875C23.80275 16.9049197265625 24.028646484375 17.0806696875 23.928203671875 17.5827090234375L23.8528715625 17.959244765624998L24.053707265624997 17.6078197265625C24.07881796875 17.4823161328125 24.2545679296875 17.2563946875 24.2545679296875 17.2563946875C24.4051822265625 17.156001796875 24.430317890625 17.030498203125 24.45542859375 16.904994609375002C24.50565 16.6539624609375 24.530760703125 16.52843390625 24.55587140625 16.4029303125C24.681375 16.428041015625 24.8571249609375 16.202119570312497 25.058035546874997 15.8507194921875C25.133417578125 15.47418375 25.334103515625 15.1227587109375 25.45965703125 15.1478694140625C25.484867578125 15.022340859375 25.685553515625 14.67094078125 25.735974609375 14.419908632812499C25.911699609375 14.1939871875 26.689981640625 12.913815585937499 26.740153125 12.6627834375C26.765363671875 12.53727984375 26.790324609375 12.411751289062499 26.941088671875 12.311358398437498C26.966049609375 12.1858548046875 27.292538671874997 11.85954046875 27.744331640625 10.905683203125001C28.321927734375 9.9769116796875 28.522613671875 9.625486640624999 28.698338671875 9.399590156250001C28.8238921875 9.424700859375001 28.849102734375 9.299172304687499 28.874063671875 9.1736687109375C28.89927421875 9.04814015625 29.074999218749998 8.822243671875 29.25072421875 8.596322226562501C29.42644921875 8.3704257421875 29.627384765625 8.019000703124998 29.627384765625 8.019000703124998C29.652345703125 7.8934721484375 29.67755625 7.7679685546875 30.004045312499997 7.441654218749999C30.154559765625 7.341261328125 30.20473125 7.0902541406249995 30.20473125 7.0902541406249995C30.229941796874996 6.9647255859375 30.405666796875 6.738804140625 30.606602343749998 6.3873791015625C30.78232734375 6.1614826171875 30.958052343749998 5.935561171874999 30.98301328125 5.810057578125C31.008223828125 5.684553984375 31.033434375 5.5590254296875 31.15873828125 5.5841361328125005C31.15873828125 5.5841361328125005 31.334463281250002 5.3582396484374994 31.384884375 5.1072074999999995C31.560609375 4.8812860546875 31.736334375000002 4.6553895703125 31.786505859374998 4.404357421875C32.51461640625 3.37521796875 32.740512890625 2.898264375 32.815894921875 2.5217286328125C32.86606640625 2.2707114609375 32.916237890625 2.0196843046875 32.790933984375 1.99457110546875C32.69034140625 1.84394682421875 32.9414484375 1.24149962109375 33.2679375 0.91518528515625C33.569216015624995 0.714392015625 33.744941015625 0.4884755625 33.744941015625 0.4884755625C33.795112499999995 0.23745489609374998 34.623566015625 0.0115951791796875 34.999976953125 0.086935201171875C35.12553046875 0.11204865 35.3766375 0.162275298046875 35.4015984375 0.036764715234375C35.426808984375 -0.088745867578125 36.556291406250004 0.137273424609375 36.53133046875 0.2627837578125C36.4559484375 0.6393244921875 38.087644921875 0.96579608203125 38.213198437500004 0.99090928125C38.439094921875004 1.16664676171875 38.865677343749994 2.29631389453125 38.840466796875 2.4218249765625C38.941059375 2.5724492578125 39.016191796875 2.848592109375 38.9660203125 3.0995992968749997C39.016191796875 3.501270703125 38.915848828125 4.0033100390625 38.6644921875 5.2584458203125C38.363213671875 6.1119101953125 38.087145703124996 6.8398709765625 38.061935156249994 6.9653745703125C37.936381640625 6.9402638671875 37.88621015625 7.191296015624999 37.86124921875 7.316799609375C37.81082812499999 7.5678317578125 37.760656640625 7.8188389453125 37.735695703124996 7.9443675C37.584931640624994 8.044760390625 37.359035156249995 8.5216890234375 37.158099609375 8.873114062500001C37.082717578125 9.2496498046875 36.882031640624994 9.601074843749998 36.85682109374999 9.7266033984375C36.706306640625 9.8269962890625 36.655885546875 10.0780034765625 36.480160546875 10.303924921875C36.32964609375 11.056996406249999 35.651707031250005 12.487807265625001 35.500942968749996 12.58820015625C35.47598203125 12.7137287109375 35.325217968749996 12.8141216015625 35.30025703125 12.9396251953125C35.275046484375 13.065153749999999 35.224875 13.3161609375 35.199664453125 13.44166453125C35.04915 13.5420823828125 34.848214453124996 13.893507421875 34.772832421875 14.2700431640625C34.597107421874995 14.4959396484375 34.396421484375 14.847364687499999 34.371210937499995 14.9728932421875C34.245657421875 14.9477825390625 34.1954859375 15.1987897265625 34.170275390625 15.32431828125C34.145314453124996 15.449821875 33.94437890625 15.8012469140625 33.718482421875 16.278175546875C33.517546875 16.6296005859375 33.316611328125 16.981025625 33.291650390625 17.106529218749998C33.26643984375 17.2320577734375 33.24147890625 17.3575613671875 33.115925390624994 17.3324506640625C33.09071484375 17.4579542578125 32.940200390625 17.558372109375 32.91498984375 17.683875703124997C32.890028906249995 17.809379296875 32.8396078125 18.060411445312496 32.8396078125 18.060411445312496C32.714054296875 18.0353007421875 32.437986328125 18.7632615234375 32.412775781250005 18.8887651171875C32.06132578125 19.340583046875 31.835429296875 19.817536640625 31.7852578125 20.068543828124998C31.760047265625 20.1940723828125 31.735086328125 20.3195759765625 31.584322265624998 20.4199688671875C31.408597265625 20.6458903125 30.981765234374997 21.474243984375 30.93159375 21.7252761328125C30.906383203125 21.8507797265625 30.881422265624998 21.976283320312497 30.730658203125 22.076701171874998C30.705697265625 22.202204765624998 30.479551171875 22.6791333984375 30.128101171875 23.130951328125C29.9022046875 23.607904921875 29.701269140624998 23.959329960937502 29.676308203125 24.0848335546875C29.5507546875 24.059722851562498 29.500583203125 24.310755 29.47537265625 24.436258593749997C29.425201171875 24.6872907421875 29.3750296875 24.9382979296875 29.224265624999997 25.038815624999998C29.023330078125 25.390016015624997 28.79743359375 25.867019531249998 28.62170859375 26.092916015624997C28.571537109375 26.344023046874998 28.521365624999998 26.595130078125 28.3706015625 26.695473046874998C28.345640625 26.8210265625 28.144705078125 27.172476562499998 27.793255078124997 27.62426953125C27.567358593749997 28.1010234375 27.3412125 28.578026953125 27.3412125 28.578026953125C27.190698046875003 28.678369921875 27.115316015624998 29.05503046875 27.065144531250002 29.3061375C26.8389984375 29.78289140625 26.56293046875 30.511001953125 26.412416015625 30.611344921875C26.286862499999998 30.586134375 26.236441406249998 30.83724140625 26.21148046875 30.962794921875C26.186269921875002 31.0883484375 26.161308984374998 31.21365234375 26.010544921875 31.314244921875C25.985583984375 31.439548828124998 25.809858984374998 31.665694921875 25.7846484375 31.790998828124998C25.6089234375 32.0168953125 25.53354140625 32.393555859375 25.35781640625 32.61945234375C25.307644921875 32.870559375 25.106709375 33.222009375 25.081498828125 33.34731328125C25.03132734375 33.598420312500004 24.88076296875 33.69876328125 24.88076296875 33.69876328125C24.755259375 33.67380234375 24.4790666015625 34.40166328125 24.4539558984375 34.527216796874995C24.278205937499997 34.753113281249995 24.253095234375 34.878666796875 24.227984531249998 35.004220312499996C24.202873828124996 35.12952421875 24.077370234375 35.10456328125 24.052259531249998 35.230116796874995C24.052259531249998 35.230116796874995 23.8765095703125 35.456013281249994 23.700759609375 35.681909765625C23.650538203125002 35.9327671875 23.4497025 36.2842171875 23.424591796875 36.409770703125C23.2739525390625 36.510113671875 23.1986204296875 36.88677421875 23.1483740625 37.13788125C22.947538359375002 37.489081640625 22.897316953125 37.740188671874996 22.771788398437497 37.715227734375C22.771788398437497 37.715227734375 22.721566992187498 37.96608515625 22.6964562890625 38.091638671874996C22.671345585937498 38.2171921875 22.520706328124998 38.317535156249996 22.495595625 38.443088671875C22.37009203125 38.417878125 22.344981328125 38.543431640624995 22.319870625 38.66898515625C22.26964921875 38.9200921875 22.2445135546875 39.045645703125 22.2445135546875 39.045645703125C22.093899257812502 39.145988671875 21.692202890625 39.848888671875 21.4662315234375 40.325642578125C21.4160101171875 40.576749609375 21.3908994140625 40.702303125 21.24026015625 40.80264609375C21.215149453124997 40.928199609375 21.164928046874998 41.17905703125 21.014288789062498 41.279649609375C20.9138459765625 41.7816140625 20.48703890625 42.610067578125 20.361510351562497 42.584857031249996C20.3363996484375 42.710410546875 20.311288945312498 42.8359640625 20.2861782421875 42.961517578125004C20.2610675390625 43.086821484374994 20.085317578125 43.31271796875 20.085317578125 43.31271796875C19.959813984375 43.287757031249996 19.934703281250002 43.413310546875 19.909592578125 43.5388640625C19.884481875000002 43.66416796875 19.658510507812498 44.141171484375 19.457649843749998 44.492621484375C19.2316784765625 44.969625 19.030842773437502 45.321075 19.0057320703125 45.44637890625C18.980621367187503 45.571932421875 18.930375 45.823039453125 18.930375 45.823039453125C18.604010742187498 46.14927890625 18.177203671875 46.977732421875004 18.152092968749997 47.1032859375C18.126982265625 47.228839453125005 17.750371640625 47.805936328125 17.599757343750003 47.906528906249996C17.3737859765625 48.3832828125 17.0724825 49.236946875 16.9720396875 49.738911328125C16.7962897265625 49.9648078125 16.6958469140625 50.466772265624996 16.6456255078125 50.717879296875C16.469875546875002 50.94377578125 16.419654140625 51.1948828125 16.294125585937497 51.169672265624996C16.2690148828125 51.295225781250004 16.243904179687497 51.420779296875 16.2187934765625 51.546332812500005C16.168572070312496 51.797190234375 16.017957773437498 51.8977828125 15.992822109374998 52.02308671875C15.817097109375 52.248983203125 15.591125742187499 52.72598671875 15.340043671875 53.328543749999994C15.214490156250001 53.95606171875 14.787658125 54.784515234375 14.411072460937499 55.361612109375C14.3608510546875 55.612719140625 14.159990390625 55.964169140624996 14.109768984375 56.215276171875C13.9340190234375 56.44117265625 13.8837976171875 56.69203007812499 13.7582940234375 56.667069140624996C13.7331833203125 56.79262265625 13.7080726171875 56.918176171875 13.682961914062501 57.043480078125C13.65782625 57.169033593749994 13.48210125 57.394930078125 13.456990546875 57.52048359375C13.43187984375 57.646037109374994 13.2561298828125 57.87193359375 13.055269218749999 58.22338359375C12.979937109375 58.59979453125 12.77910140625 58.95124453125 12.7288550390625 59.2023515625C12.5531300390625 59.428248046875 12.452662265625 59.930212499999996 12.276937265625001 60.156108984375C12.2015801953125 60.53276953125 12.000744492187499 60.88421953125 12.000744492187499 60.88421953125C11.850105234375 60.984562499999996 11.799883828125001 61.23566953125 11.774773125000001 61.361223046875C11.749662421875 61.486526953124994 11.72455171875 61.61208046875 11.5990231640625 61.58711953125C11.5990231640625 61.58711953125 11.4232981640625 61.813016015625 11.3730767578125 62.0638734375C11.322830390625 62.31498046875 11.121994687499999 62.666430468749994 10.9211340234375 63.01788046875C10.870912617187498 63.268737890625 10.64494125 63.74574140625 10.59471984375 63.99684843749999C10.418969882812501 64.222744921875 10.3436377734375 64.59915585937499 10.2181341796875 64.574194921875C10.1930234765625 64.6997484375 10.117666406249999 65.07615937499999 10.042334296875 65.452819921875C9.9670021875 65.82923085937499 9.8665344140625 66.3311953125 9.6908094140625 66.55734140625C9.6656987109375 66.6826453125 9.439727343749999 67.159648828125 9.364395234375 67.53630937499999C9.1635345703125 67.887509765625 8.937563203124999 68.36451328125 8.887341796874999 68.6156203125C8.6362597265625 69.217927734375 8.5860383203125 69.469034765625 8.033652773437499 70.92500625C7.9583206640625 71.3014171875 7.732349296874999 71.778420703125 7.70723859375 71.90397421875C7.5565993359375 72.0043171875 7.154853046875 73.35994570312499 7.12974234375 73.48549921875C6.9037709765625 73.962253125 6.55224609375 75.066774609375 6.2258319140625 76.045742578125C6.125364140625 76.547956640625 6.024921328125 77.04992109375 5.8742820703125 77.1502640625C5.6985570703125 77.376160546875 5.5227571875 78.254785546875 5.0958253125 80.388446484375C4.568450625 83.02432148437501 4.618622109375 83.42594296875 4.693904296875 83.70201093749999C4.769186484375 83.97807890624999 4.8696043359375 84.12884296874999 5.1457222265625004 84.0534609375C6.3004651171875 84.154053515625 7.630908046875 84.028749609375 7.7815473046875 83.92815703125C7.7815473046875 83.92815703125 8.032579453124999 83.978578125 8.158083046875 84.0035390625C8.30869734375 83.90319609375 8.4593366015625 83.802853125 8.584840195312498 83.8278140625C8.710343789062499 83.853024609375 8.986486640625 83.777642578125 9.2626294921875 83.70251015625C9.538772343749999 83.627128125 9.8149151953125 83.551995703125 9.9404187890625 83.576956640625C10.0910330859375 83.47661367187499 10.4927044921875 83.4264421875 10.7688223828125 83.35106015625C11.195604492187499 83.17533515625 11.4717223828125 83.100202734375 11.4717223828125 83.100202734375C11.747865234374999 83.024820703125 11.8985044921875 82.92447773437499 12.0491187890625 82.824134765625C12.325261640625 82.74875273437499 12.4758759375 82.64840976562499 12.601404492187498 82.67362031249999C12.752018789062499 82.573027734375 12.902658046875 82.47268476562499 13.3294151953125 82.29695976562499C13.605558046874998 82.22182734375 13.881675937499999 82.1464453125 13.9068116015625 82.02089179687499C14.032315195312501 82.04610234375 14.308458046875 81.9707203125 14.45907234375 81.87037734375001C14.760325898437499 81.66969140625 15.5887294921875 81.44379492187501 15.86487234375 81.368412890625C16.467379453124998 80.96679140625001 17.998683046874998 80.4900375 18.701583046875 80.23893046875C19.25386875 80.088416015625 19.83126515625 79.812348046875 20.2329116015625 79.7621765625C21.0864258984375 79.41072656249999 22.06546875 79.084487109375 22.1909973046875 79.10969765625C22.64286515625 78.80841914062499 27.06115078125 77.603804296875 28.567293749999997 77.25260390625C30.349504687499998 76.826021484375 30.625822265624997 76.750639453125 30.77633671875 76.650296484375C30.901890234375 76.67550703125 31.429065234375 76.650296484375 31.855897265625 76.47482109375C33.085972265624996 76.198753125 33.487593749999995 76.14858164062501 33.613147265625 76.173542578125C33.738451171875 76.198753125 33.763661718749994 76.073199609375 33.889215234375 76.09841015625C33.914176171875 75.972856640625 34.0397296875 75.997817578125 34.165283203125 76.023028125C34.29083671874999 76.048238671875 34.416390234375 76.073199609375 34.5669046875 75.972856640625C34.843222265625 75.897474609375 36.29919375 75.79738125 36.6756046875 75.872513671875C36.951672656250004 75.79738125 37.077226171875 75.8223421875 37.227990234375 75.72199921875C37.227990234375 75.72199921875 37.353294140624996 75.747209765625 37.604401171875 75.79738125C37.7299546875 75.82259179687499 38.006022656249996 75.747209765625 38.131576171875 75.7724203125C38.834476171875 75.52131328125 42.5244515625 75.99856640625 43.604012109375 76.47556992187499C45.1603265625 77.17871953125 46.189466015625 77.906830078125 46.51570546875 78.23306953125001C46.490744531249995 78.358623046875 46.6160484375 78.38383359375 46.741601953125 78.40879453125C46.86715546875 78.434005078125 46.9674984375 78.58451953125 46.9674984375 78.58451953125C46.9425375 78.71007304687501 47.06784140625 78.73528359375001 47.193394921875 78.76024453125C47.94646640625 78.91100859375 49.55295234374999 81.320987109375 49.6532953125 82.12423007812501C49.628084765625 82.24978359375 49.67825625 82.651405078125 49.75363828125 82.92772265625C49.853981250000004 83.07823710937501 49.803809765625 83.329344140625 49.778599218749996 83.45489765625C49.75363828125 83.5802015625 49.853981250000004 83.730965625 49.853981250000004 83.730965625C49.979534765625 83.7559265625 49.904152734374996 84.132587109375 49.828770703125 84.50899804687499C49.753388671874994 84.88565859375 49.678006640625 85.26206953124999 49.778599218749996 85.41283359375C49.778599218749996 85.41283359375 49.853731640625 85.68890156249999 49.778349609375 86.065562109375ZM30.706196484375 15.675468749999999C30.706196484375 15.675468749999999 30.58064296875 15.650358046874999 30.555432421874997 15.775861640625C30.656025 15.9264759375 30.656025 15.9264759375 30.680985937499997 15.800972343749999L30.706196484375 15.675468749999999ZM30.279364453124998 16.503822421875C30.05346796875 16.980751054687502 30.028257421875 17.1062546484375 30.1538109375 17.1313903125C30.279364453124998 17.156501015625 30.329535937499998 16.905468867187498 30.379707421875 16.65443671875L30.379707421875 16.001758125000002L30.279364453124998 16.503822421875ZM8.0340271875 66.35615625C8.0340271875 66.35615625 8.059137890625 66.23085234375 8.084248593749999 66.10529882812499C8.1093842578125 65.9797453125 8.1344949609375 65.854191796875 8.1344949609375 65.854191796875C7.983855703124999 65.954534765625 7.908523593749999 66.3311953125 8.0340271875 66.35615625ZM8.536191328125 65.15129179687499C8.56130203125 65.02573828125 8.611523437499999 64.774880859375 8.636634140625 64.64932734375C8.561351953125 64.373259375 8.561351953125 64.373259375 8.460909140625 64.87522382812499C8.38557703125 65.251884375 8.511080625 65.2768453125 8.536191328125 65.15129179687499ZM9.490497890624999 60.38200546875C9.51560859375 60.256451953124994 9.540719296875 60.1308984375 9.691358554687499 60.030555468749995C9.691358554687499 60.030555468749995 9.741579960937498 59.779448437499994 9.8169120703125 59.4030375C9.99266203125 59.17689140625 10.0428834375 58.926033984375 10.0428834375 58.926033984375C10.243719140625 58.574583984374996 10.770993984375 57.244166015625 10.9216332421875 57.143823046875C10.9467439453125 57.01826953125 11.4237973828125 55.938958593749994 11.4237973828125 55.938958593749994C11.4489080859375 55.813405078125 11.800432968749998 54.708883593749995 11.925936562499999 54.73384453125C11.951047265624998 54.608540625 12.1016865234375 54.50794804687499 12.1519079296875 54.257090625C12.2021293359375 54.005983593749995 12.227240039062501 53.880430078125 12.227240039062501 53.880430078125C12.377879296875 53.780087109374996 12.402989999999999 53.65453359375 12.453211406249999 53.4034265625C12.5034328125 53.152569140625005 12.553679179687501 52.901462109375004 12.6791827734375 52.92667265625C12.7042934765625 52.801119140625 12.905154140625 52.449669140625 13.131100546875 51.972665625C13.3570719140625 51.49591171875 13.557932578125 51.144461718749994 13.557932578125 51.144461718749994C13.58304328125 51.018908203125 13.733657578125 50.918565234374995 13.758768281250001 50.79301171875C13.783903945312499 50.667458203124994 13.834125351562498 50.416351171875 13.834125351562498 50.416351171875C13.984739648437499 50.316008203125 14.260932421875001 49.588147265625004 14.16053953125 49.437383203125C14.16053953125 49.437383203125 14.0350359375 49.412422265625 13.984789570312499 49.6632796875C13.959678867187499 49.788833203125 13.783953867187499 50.0147296875 13.608203906249999 50.24062617187499C13.583093203125 50.3661796875 13.3822325390625 50.71762968749999 13.1813968359375 51.0690796875C13.106039765624999 51.445490625000005 12.9052040625 51.796940625 12.7545648046875 51.89728359375C12.6039505078125 51.997876171875 12.5537291015625 52.248733593749996 12.5286183984375 52.374287109375C12.453261328124999 52.75094765625 12.227314921875 53.2277015625 12.0515649609375 53.45384765625C12.0515649609375 53.45384765625 12.0013435546875 53.704705078125 11.9762328515625 53.830258593749996C11.9511221484375 53.955812109374996 11.900875781249999 54.206919140625 11.725150781249999 54.432815624999996C11.5494008203125 54.658712109375 11.4740687109375 55.035123046875 11.4238473046875 55.286230078125C11.373600937500001 55.5370875 11.197875937500001 55.763233593749995 11.197875937500001 55.763233593749995C10.896622382812499 55.96391953125 10.645590234375 55.913748046875 10.8213401953125 55.6878515625L10.8464508984375 55.562298046875C10.720947304687499 55.5370875 10.6958366015625 55.662641015625 10.645590234375 55.913748046875C10.62047953125 56.0393015625 10.595368828125 56.16460546875 10.469865234375 56.13964453125C10.344336679687501 56.114433984375 10.2690045703125 56.49109453125 10.494926015625 56.66681953125C10.7208225 56.84254453125 10.670601093750001 57.093401953124996 10.519986796875001 57.19399453125C10.394458242187499 57.168783984375 10.394458242187499 57.168783984375 10.419568945312498 57.04323046875C10.4698153125 56.792373046875 10.2187831640625 56.741951953125 10.0179225 57.093401953124996C9.817086796875 57.444851953125 9.7919511328125 57.570405468749996 10.04298328125 57.620576953124996C10.419519023437498 57.695958984375004 10.243794023437498 57.92185546875 9.666397617187501 58.1979234375L9.5157833203125 58.298266406249994L9.641286914062501 58.323476953124995C9.7667905078125 58.3486875 9.8923190625 58.3736484375 10.017822656249999 58.398858984375C10.14332625 58.423819921875 9.992711953125 58.5244125 9.8420726953125 58.62475546875C9.8420726953125 58.62475546875 9.816961992187501 58.750308984374996 9.791851289062501 58.875862500000004C9.791851289062501 58.875862500000004 9.7667405859375 59.00116640625 9.7416298828125 59.126719921875C9.590990625 59.227062890625 9.590990625 59.227062890625 9.565879921875 59.35261640625C9.565879921875 59.35261640625 9.54076921875 59.478169921875 9.390154921875 59.578512890625C9.390154921875 59.578512890625 9.2144049609375 59.804409375 9.339933515624999 59.829619921875C9.3148228125 59.9551734375 9.289687148437501 60.080726953125 9.139072851562501 60.181069921875C8.963322890625 60.40696640625 9.0386300390625 60.683034375 9.1641336328125 60.708244921875C9.289637226562501 60.733205859375 9.4653871875 60.507309375 9.490497890624999 60.38200546875ZM9.340033359375 58.524162890625C9.31492265625 58.64971640625 9.44042625 58.674926953125 9.44042625 58.674926953125C9.5659548046875 58.699887890625 9.5659548046875 58.699887890625 9.5910655078125 58.574583984374996C9.5910655078125 58.574583984374996 9.5910655078125 58.574583984374996 9.340033359375 58.524162890625ZM9.264301875000001 63.469423828125C9.289437539062499 63.344119921875 9.289437539062499 63.344119921875 9.163908984375 63.318909375C9.038405390625 63.293698828124995 9.038405390625 63.293698828124995 8.96307328125 63.670359375000004C8.8877162109375 64.0467703125 9.03835546875 63.946427343749995 9.264301875000001 63.469423828125ZM9.816687421875 62.013701953125C9.841798125 61.8881484375 10.1179908984375 61.160037890625 9.992487304687499 61.135076953125C9.992487304687499 61.135076953125 9.791626640625001 61.486526953124994 9.5907909375 61.837976953125C9.515433867187499 62.214387890625005 9.4401017578125 62.5910484375 9.4401017578125 62.5910484375C9.4149910546875 62.71635234375 9.5656303125 62.616009375 9.590741015625 62.490455859375004C9.640962421875 62.2395984375 9.691183828125 61.98849140625 9.816687421875 62.013701953125ZM10.419294375 60.3066234375C10.4444300390625 60.181069921875 10.4695407421875 60.055766015625 10.494651445312499 59.930212499999996C10.318901484375 60.156108984375 10.268680078125 60.40696640625 10.268680078125 60.40696640625C10.118065781250001 60.507558984374995 10.218458671875 60.6580734375 10.243569375 60.53251992187499C10.243569375 60.53251992187499 10.36907296875 60.55773046875 10.419294375 60.3066234375ZM9.5905163671875 65.10136992187499C9.7411306640625 65.00077734375 9.7411306640625 65.00077734375 9.7662413671875 64.87522382812499C9.6658484765625 64.72470937499999 9.5152341796875 64.82505234375 9.5905163671875 65.10136992187499ZM10.77084421875 59.202101953125C10.6703764453125 59.704316015625 10.795905 59.729276953124995 10.896347812499998 59.2273125C11.0469870703125 59.12696953125 10.971679921875 58.850651953124995 10.971679921875 58.850651953124995C10.846176328124999 58.825691015625 10.821065625 58.95124453125 10.77084421875 59.202101953125ZM11.574236953125 57.7965515625C11.6997655078125 57.8215125 11.7499869140625 57.570655078125 11.7750976171875 57.44510156249999L11.7249261328125 57.043480078125L11.524065468749999 57.394930078125C11.4738440625 57.6457875 11.2981190625 57.871683984375 11.2478726953125 58.122791015625C11.2227619921875 58.24834453125 11.0470369921875 58.474241015625 11.0470369921875 58.474241015625C10.896397734374998 58.574583984374996 10.9968155859375 58.725348046875 11.1474298828125 58.62475546875C11.1474298828125 58.62475546875 11.32317984375 58.398858984375 11.348290546874999 58.273305468749996C11.524015546874999 58.047408984375 11.549126249999999 57.92210507812499 11.574236953125 57.7965515625ZM12.101511796875 56.466133593749994C12.277261757812498 56.240237109374995 12.3274831640625 55.989130078124994 12.3274831640625 55.989130078124994C12.377704570312499 55.73802304687499 12.2522009765625 55.713062109374995 12.2270902734375 55.838615625C12.201979570312501 55.96391953125 11.9508975 56.5664765625 11.8002582421875 56.66681953125C11.7249261328125 57.043480078125 11.875565390624999 56.9428875 12.101511796875 56.466133593749994ZM12.678808359375001 57.495273046875C12.729029765625 57.244415625 12.75414046875 57.118862109375 12.75414046875 57.118862109375C12.628636875 57.0936515625 12.6035012109375 57.219205078125 12.5783905078125 57.34475859375C12.553279804687499 57.470312109375 12.553279804687499 57.470312109375 12.678808359375001 57.495273046875ZM12.829472578125001 56.7422015625C12.92986546875 56.892965624999995 13.0805047265625 56.792373046875 13.1056154296875 56.667069140624996C13.1307261328125 56.541515625 13.030333242187499 56.3907515625 13.030333242187499 56.3907515625C12.904829648437499 56.365790625 12.7290796875 56.591687109375 12.829472578125001 56.7422015625ZM13.5075364453125 53.3535046875C13.68328640625 53.12760820312499 13.884122109375 52.776158203125 14.084982773437499 52.42470820312499C14.436457734374999 51.972915234375 14.5620362109375 51.345397265625 14.461618359374999 51.194633203124994C14.336114765624998 51.169672265624996 13.432254257812499 53.077187109375 12.9803115234375 54.031194140625C12.930090117187499 54.282301171875 12.8798687109375 54.533158593749995 12.729254414062499 54.6335015625C12.553504453124999 54.859647656250004 12.427925976562499 55.487165624999996 12.402815273437499 55.612719140625C12.503233125 55.763233593749995 12.704068828125 55.41178359375 12.754290234375 55.1606765625C12.65389734375 55.010162109374996 12.8045366015625 54.909819140625 12.8045366015625 54.909819140625C12.9551508984375 54.809476171875 13.130900859375 54.583330078125 13.1560115625 54.458026171875C13.206232968750001 54.206919140625 13.256454375 53.955812109374996 13.407093632812499 53.855469140625C13.407093632812499 53.855469140625 13.4573150390625 53.604362109374996 13.5075364453125 53.3535046875ZM15.0893609765625 49.362250781250005C14.6875897265625 50.71762968749999 14.5118647265625 50.94352617187499 14.486729062499998 51.0690796875C14.6122576171875 51.094290234375 14.7377612109375 51.11950078125 14.7628719140625 50.993947265624996C14.7879826171875 50.86839375 14.838228984375 50.61728671875 14.963732578124999 50.642497265624996C15.08928609375 50.014979296875 15.3152574609375 49.53797578125 15.56633953125 48.93541875C15.817421601562499 48.333111328125 16.04339296875 47.8561078125 16.068503671875 47.730554296875C16.093614375 47.60500078125 16.14383578125 47.354143359374994 16.269339374999998 47.379104296875C16.269339374999998 47.379104296875 16.4199786328125 47.278761328125 16.4450893359375 47.15320781249999C16.4702000390625 47.027654296875 16.495310742187502 46.902350390624996 16.5204214453125 46.776796875C16.64595 46.8017578125 16.671060703125 46.676453906249996 16.545532148437502 46.651243359374995C16.3698071484375 46.877139843749994 16.3446964453125 47.002693359375 16.219167890625 46.9774828125C16.1940571875 47.103036328125 15.7421394140625 48.05679375 15.7170287109375 48.182347265625C15.59150015625 48.157386328125 15.54127875 48.408243750000004 15.491057343749999 48.65935078125C15.465946640624999 48.784904296875 15.415725234375 49.036011328125 15.2901966796875 49.01080078125C15.2901966796875 49.01080078125 15.1395823828125 49.111143750000004 15.0893609765625 49.362250781250005ZM13.5575581640625 55.713062109374995C13.6579510546875 55.863826171875 13.6830617578125 55.73827265625 13.7835045703125 55.236058593749995C13.8337509375 54.985201171875 13.858861640625 54.859647656250004 13.858861640625 54.859647656250004C13.7333330859375 54.834437109375 13.5826688671875 55.58750859375 13.5575581640625 55.713062109374995ZM14.3107794140625 53.905640625000004C14.511640078125 53.554440234375 14.386111523437501 53.5292296875 14.1099936328125 53.60461171874999C13.959354374999998 53.7049546875 13.98441515625 54.2321296875 14.1099437109375 54.257090625C14.2605580078125 54.15674765625 14.2856687109375 54.031194140625 14.3107794140625 53.905640625000004ZM15.01380421875 52.349326171875C15.18952921875 52.1234296875 15.064025625 52.09846875 14.938497070312499 52.073258203125C14.7878827734375 52.17360117187499 14.6372684765625 52.27419375 14.7627720703125 52.2991546875C14.8631649609375 52.449918749999995 14.838054257812498 52.575472265625 14.712550664062501 52.55026171875C14.56191140625 52.65060468749999 14.436357890624999 53.27812265625 14.53675078125 53.42888671875C14.637143671875 53.579401171875 14.687365078125 53.328543749999994 15.01380421875 52.349326171875ZM16.6457253515625 49.412422265625C16.821450351562497 49.18652578125 16.896807421875 48.81011484375 16.7712788671875 48.784904296875C16.6708859765625 48.63438984375 16.645775273437497 48.759943359375 16.6206645703125 48.885496875C16.595553867187498 49.01080078125 16.4700502734375 48.98583984375 16.444914609374997 49.11139335937499C16.444914609374997 49.11139335937499 16.269189609375 49.33728984374999 16.24407890625 49.462593749999996L15.842357578125 50.165493749999996C15.792136171875 50.41660078125 15.641521875 50.516943749999996 15.641521875 50.516943749999996C15.490882617187498 50.61728671875 15.465771914062499 50.742840234374995 15.566189765625 50.893604296875C15.5410541015625 51.0191578125 15.5159433984375 51.144461718749994 15.3653291015625 51.245054296875C15.21468984375 51.345397265625 15.239750625 51.872572265624996 15.3903898828125 51.772229296875004C15.5158934765625 51.797190234375 15.5661148828125 51.546083203125 15.591225585937499 51.420779296875C15.641471953125 51.169672265624996 15.66658265625 51.04411875 15.79208625 51.069329296875004C15.8925540234375 50.567115234375 16.1938575 49.71370078125 16.6457253515625 49.412422265625ZM17.047471640624998 48.057043359375C17.1981108984375 47.956700390625 17.2232216015625 47.831146874999995 17.248332304687498 47.705593359375C17.248332304687498 47.705593359375 17.1228287109375 47.6803828125 16.972189453125 47.780975390625C16.921968046875 48.0318328125 16.921968046875 48.0318328125 17.047471640624998 48.057043359375ZM18.4534962890625 44.944414453125C18.4534962890625 44.944414453125 18.4786069921875 44.8188609375 18.5037176953125 44.693307421875C18.579074765625 44.31689648437499 18.428435507812498 44.417239453125 18.202464140625 44.89424296875C18.026739140625 45.120139453125 17.976517734375 45.370996874999996 17.825878476562497 45.471589453125C17.6752641796875 45.571932421875 17.6501534765625 45.6974859375 17.775657070312498 45.722446874999996C17.901160664062502 45.747657421875 17.926296328125 45.62210390625 17.95140703125 45.496550390624996C18.102021328124998 45.396207421875 18.252660585937498 45.295864453125 18.2777712890625 45.1703109375C18.302881992187498 45.044757421875005 18.3279926953125 44.91920390625 18.4534962890625 44.944414453125ZM20.010135234375 41.731442578125005C20.010135234375 41.731442578125005 20.0352708984375 41.6058890625 20.060381601562497 41.480335546875004L20.135713710937498 41.103674999999996L19.934853046875 41.455125C19.73401734375 41.806575 19.5331566796875 42.158024999999995 19.3825423828125 42.25836796875C19.332296015624998 42.509475 19.282074609374998 42.76058203125 19.256963906249997 42.886135546874996C19.206742499999997 43.13699296875 19.0309925390625 43.362889453125 19.005881835937497 43.48844296875C18.70462828125 43.689378515625 18.604185468749996 44.19134296875 18.7296890625 44.21630390625C18.7296890625 44.21630390625 18.8803283203125 44.1159609375 18.9305497265625 43.865103515625C19.256913984375 43.538614453125 19.307135390625 43.287757031249996 19.6837709765625 42.057682031249996C19.834410234375 41.957339062500004 19.884631640625 41.70623203125 20.010135234375 41.731442578125005ZM21.039524296875 39.8486390625C21.4663313671875 39.020435156249995 21.59190984375 38.392917187500004 21.4663812890625 38.367706640625C21.1651526953125 38.56839257812499 20.6378778515625 39.898810546875 20.56252078125 40.27547109375C20.38679578125 40.501367578125 20.361685078125 40.62692109375 20.336574375 40.75247460937499C20.2863280078125 41.003332031250004 20.436967265625 40.9029890625 20.6378279296875 40.5515390625C20.662938632812498 40.425985546875 20.8637743359375 40.074535546875 21.039524296875 39.8486390625ZM21.617020546874997 38.267363671874996C21.742524140625 38.292324609374994 21.76763484375 38.16677109375 21.8178812109375 37.915913671875C21.8932133203125 37.539253124999995 21.8932133203125 37.539253124999995 21.667241953124996 38.016256640624995C21.64213125 38.14181015625 21.617020546874997 38.267363671874996 21.617020546874997 38.267363671874996ZM22.094073984375 37.187803125C22.24468828125 37.087460156249996 22.2949096875 36.836353124999995 22.16940609375 36.8113921875C22.194516796875 36.685838671875004 22.16940609375 36.8113921875 22.1191846875 37.06249921875C22.094073984375 37.187803125 22.068938320312498 37.313356640624995 22.094073984375 37.187803125ZM23.0230451953125 35.154734765625C23.173659492187497 35.0541421875 23.1987701953125 34.92883828125 23.0983773046875 34.77807421875C23.1234880078125 34.652520703125 23.1234880078125 34.652520703125 22.972873710937503 34.753113281249995C22.9477630078125 34.8784171875 22.92262734375 35.003970703125006 23.0230451953125 35.154734765625ZM23.47496296875 34.200727734375C23.47496296875 34.200727734375 23.500073671875 34.07517421875 23.525184375000002 33.949870312499996C23.525184375000002 33.949870312499996 23.525184375000002 33.949870312499996 23.47496296875 34.200727734375ZM23.876684296875 33.497827734375C23.926905703124998 33.2469703125 23.95201640625 33.121416796875 23.926905703124998 33.2469703125C23.8013771484375 33.221759765625 23.7762664453125 33.34731328125 23.7511557421875 33.472866796874996C23.6758236328125 33.849277734375 23.6758236328125 33.849277734375 23.876684296875 33.497827734375ZM24.152852109375 32.769966796874996C24.2783806640625 32.79517734375 24.3034913671875 32.669623828125005 24.3286020703125 32.5440703125C24.3788234765625 32.292963281249996 24.4039341796875 32.167409765625 24.253319882812498 32.26800234375C24.077569921875 32.493898828125 24.027348515625 32.74475625 24.152852109375 32.769966796874996ZM24.579783984375 30.636305859375C24.7304232421875 30.535962890624997 25.0567875 29.556994921875 24.931333828125 29.531784374999997C24.8058052734375 29.506573828125 23.952166171875 31.163480859375 23.876834062500002 31.539891796875C23.851723359375 31.665445312499997 23.82661265625 31.790998828124998 23.6759733984375 31.891341796875C23.6759733984375 31.891341796875 23.650862695312497 32.0168953125 23.6257519921875 32.142448828125C23.600641289062498 32.267752734375 23.424916289062498 32.493898828125 23.399780625 32.619202734375C23.224055625000002 32.84509921875 22.9980842578125 33.322102734375 22.797223593749997 33.673552734375C22.571277187499998 34.15055625 22.169555859375 34.85345625 21.943609453125 35.33021015625C21.7176380859375 35.807213671875 21.49166671875 36.2842171875 21.466556015625002 36.409770703125C21.4414453125 36.535074609375 21.416334609375 36.660628125 21.290806054687497 36.6356671875C21.290806054687497 36.6356671875 21.2656953515625 36.76097109375 21.2154739453125 37.012078125C21.190363242187498 37.137631640624996 21.0397489453125 37.237974609375 21.0397489453125 37.237974609375C21.0397489453125 37.237974609375 20.863998984375 37.46387109375 20.83888828125 37.589424609374994C20.6631383203125 37.81532109374999 20.6129169140625 38.066428124999995 20.587806210937497 38.191981640625C20.4623026171875 38.16677109375 20.41205625 38.417878125 20.261441953125 38.51822109375C19.909917070312503 39.622742578125 19.70905640625 39.974192578125 19.081388671874997 41.153846484374995C19.031167265624997 41.404953515624996 18.8554173046875 41.630849999999995 18.8051958984375 41.881957031249996C18.378388828125 42.7101609375 18.353278125000003 42.835714453125 18.177528164062497 43.0616109375C18.02688890625 43.16195390625 17.976667499999998 43.4130609375 17.951556796875 43.538614453125C17.92644609375 43.66416796875 17.901335390625 43.789721484375 17.775831796875 43.7645109375C17.775831796875 43.7645109375 17.574971132812497 44.1159609375 17.474528320312498 44.617925390625C17.273667656249998 44.969375390625 17.0476962890625 45.44637890625 16.9221926953125 45.421168359374995C16.7715534375 45.521511328125 16.645999921875 46.14927890625 16.771503515625 46.174239843749994C16.8970320703125 46.199450390624996 16.9221427734375 46.073896875 16.947253476562498 45.948343359374995C16.9723641796875 45.82278984375 16.9974748828125 45.697236328124994 17.1229784765625 45.722446874999996C17.1229784765625 45.722446874999996 17.273617734375 45.62210390625 17.2987284375 45.496550390624996C17.323839140625 45.370996874999996 17.374060546875 45.11988984375 17.499564140624997 45.145100390625C17.5246998046875 45.019546875 17.700424804687497 44.793650390625004 18.026838984375 43.814682421875C18.0770853515625 43.563575390625 18.2276996484375 43.463232421875 18.2276996484375 43.463232421875C18.353203242187497 43.48844296875 18.403424648437497 43.2373359375 18.4285603125 43.111782421875C18.47878171875 42.860924999999995 18.503892421875 42.735371484375 18.629396015625 42.760332421875C18.780035273437502 42.659989453125 19.056228046875 41.932128515625 19.257063749999997 41.580678515624996C19.307310117187498 41.329571484375 19.3826422265625 40.953160546875 19.5081458203125 40.978121484375C19.884731484375 40.400774999999996 20.135813554687502 39.798467578125 20.211170624999998 39.42180703125C20.261392031249997 39.170949609375 20.3116134375 38.919842578125 20.43711703125 38.945053125C20.43711703125 38.945053125 20.462252695312497 38.819499609374994 20.4873633984375 38.69394609375C20.537584804687498 38.4428390625 20.6630883984375 38.468049609375 21.014563359375 38.016256640624995C21.0396740625 37.890703125 21.5167275 36.8113921875 21.5167275 36.8113921875C21.541838203125 36.685838671875004 21.717588164062498 36.459942187500005 21.7426988671875 36.334388671875C21.7929202734375 36.083281640624996 21.9435345703125 35.982938671875004 21.9435345703125 35.982938671875004C21.9435345703125 35.982938671875004 21.968670234375 35.85738515625 21.9937809375 35.731831640625C22.044002343749998 35.48097421875 22.194616640625 35.380381640625 22.219727343749998 35.255077734375C22.420588007812498 34.903627734375 22.77206296875 34.451834765625 22.847395078125 34.07517421875C22.8725307421875 33.949620703125 23.0482557421875 33.72372421875 23.198894999999997 33.62338125C23.349509296875 33.523038281249995 23.5252592578125 33.297141796874996 23.6257020703125 32.794927734374994C23.7010341796875 32.418516796875004 23.90189484375 32.067066796875 23.90189484375 32.067066796875C24.0273984375 32.09227734375 24.052509140625002 31.966723828125 24.0776448046875 31.841170312499997C24.1027555078125 31.715616796875 24.127866210937498 31.59006328125 24.2784805078125 31.4897203125C24.454230468749998 31.263823828125002 24.479341171875 31.1382703125 24.504451875 31.012716796875C24.529562578125 30.88716328125 24.55467328125 30.761859374999997 24.579783984375 30.636305859375ZM24.5545734375 32.067066796875C24.5545734375 32.067066796875 24.705187734375 31.966723828125 24.730298437499997 31.841170312499997C24.7554341015625 31.715616796875 24.7554341015625 31.715616796875 24.629905546874998 31.690655859375C24.629905546874998 31.690655859375 24.629905546874998 31.690655859375 24.60479484375 31.816209375C24.454180546875 31.91655234375 24.42906984375 32.042105859375 24.5545734375 32.067066796875ZM25.759687500000002 29.305887890624998C25.83506953125 29.581955859375 25.83506953125 29.581955859375 25.9104515625 29.205544921875C25.960623046875 28.954437890624998 25.985583984375 28.828884374999998 25.83506953125 28.929476953125C25.83506953125 28.929476953125 25.809858984374998 29.054780859374997 25.759687500000002 29.305887890624998ZM26.563180078124997 26.594880468750002C26.86445859375 26.393944921875 26.965051171874997 25.89198046875 26.83949765625 25.867019531249998C26.688733593749998 25.9673625 26.488047656249996 26.3188125 26.462837109375 26.444116406249996C26.462837109375 26.444116406249996 26.31232265625 26.544708984375 26.287112109375 26.6702625C26.2619015625 26.795566406249996 26.236940625 26.921119921874997 26.111387109375 26.896158984375C26.086176562499997 27.021462890625 26.061215625 27.14701640625 26.036005078125 27.272569921874997C26.011044140624996 27.398123437499997 25.860280078124998 27.49846640625 25.810108593749998 27.749573437499997C25.383276562499997 28.577777343749997 25.182341015625 28.92922734375 25.157380078125 29.054780859374997C25.257723046874997 29.205544921875 25.609173046874997 28.753751953124997 25.65934453125 28.502644921874996C25.709516015625 28.251537890625002 25.9104515625 27.900087890625002 26.086176562499997 27.67419140625C26.287112109375 27.32274140625 26.462837109375 27.096844921875 26.487798046875 26.97129140625C26.51300859375 26.8459875 26.538219140625 26.720433984375003 26.563180078124997 26.594880468750002ZM27.140776171875 25.666083984375C27.140776171875 25.666083984375 27.165737109374998 25.54053046875 27.040183593749997 25.515569531249998C27.01522265625 25.6408734375 26.990012109375 25.766426953125002 27.140776171875 25.666083984375ZM29.701768359375 17.432568984375C29.701768359375 17.432568984375 29.676807421875 17.558097539062498 29.651596875 17.683601132812502C29.726978906249997 17.959743984375002 29.726978906249997 17.959743984375002 29.802360937499998 17.5832082421875C29.852532421874997 17.33217609375 29.852532421874997 17.33217609375 29.701768359375 17.432568984375ZM29.651846484375 16.378243945312498C29.526292968750003 16.3531332421875 29.526292968750003 16.3531332421875 29.501082421874997 16.4786368359375C29.626635937499998 16.503772499999997 29.651846484375 16.378243945312498 29.651846484375 16.378243945312498ZM28.998868359375003 18.9889083984375C28.7979328125 19.340308476562498 28.6222078125 19.566229921875 28.6222078125 19.566229921875C28.597246875 19.691733515624996 28.722550781249996 19.716844218749998 28.873314843750002 19.616451328125C28.873314843750002 19.616451328125 29.274936328125 18.91360125 29.300146875 18.78809765625C29.300146875 18.78809765625 29.450661328124998 18.687704765625 29.501082421874997 18.4366726171875C29.526043359375 18.3111690234375 29.425700390625 18.160529765624997 29.400489843749998 18.286058320312502C29.37552890625 18.4115619140625 29.19980390625 18.637483359375 28.998868359375003 18.9889083984375ZM28.19537578125 20.39458359375C28.044861328125002 20.494976484374998 27.969479296874997 20.8715371875 28.044861328125002 21.147655078125C28.170165234375 21.1727907421875 28.170165234375 21.1727907421875 28.34613984375 20.946869296875C28.396311328125 20.695837148437498 28.446482812499998 20.444805 28.6222078125 20.218908515625C28.69758984375 19.8423727734375 28.722550781249996 19.7168691796875 28.572036328124998 19.817262070312502C28.54682578125 19.9427656640625 28.320929296875 20.419694296875 28.19537578125 20.39458359375ZM27.015721875 18.461558671875C27.040932421875 18.336055078125 27.040932421875 18.336055078125 27.040932421875 18.336055078125C27.015721875 18.461558671875 26.9907609375 18.5870872265625 27.015721875 18.461558671875ZM25.785397265624997 21.34829109375C25.660093359375 21.323180390624998 25.6348828125 21.4487089453125 25.609672265625 21.5742125390625C25.760436328125 21.4738196484375 25.760436328125 21.4738196484375 25.785397265624997 21.34829109375ZM22.320469687499997 31.489470703125C22.320469687499997 31.489470703125 22.1698304296875 31.59006328125 22.1447197265625 31.7153671875C22.1196090234375 31.840920703125 22.245112617187498 31.86613125 22.245112617187498 31.86613125C22.370641171875 31.891341796875 22.395751875000002 31.76578828125 22.420862578125 31.640234765625C22.420862578125 31.640234765625 22.44597328125 31.51468125 22.320469687499997 31.489470703125ZM22.2706726171875 26.519248828124997C22.1451690234375 26.49403828125 21.894086953124997 27.0965953125 21.8187298828125 27.473006249999997C21.9442584375 27.498216796875003 21.99447984375 27.247109765625 22.019590546875 27.12155625C22.04470125 26.996252343749997 22.1953405078125 26.895659765625002 22.1953405078125 26.895659765625002C22.3208441015625 26.9208703125 22.3961762109375 26.544209765625002 22.2706726171875 26.519248828124997ZM23.35075734375 18.511480546875C23.200143046875002 18.611873437499998 23.0494538671875 19.364944921875 23.1749574609375 19.390055625C23.1749574609375 19.390055625 23.200068164062497 19.26455203125 23.375818125000002 19.0386305859375C23.400928828125 18.9131269921875 23.4762609375 18.53659125 23.5265073046875 18.285559101562498C23.7022323046875 18.0596626171875 23.7273430078125 17.9341340625 23.551618007812497 18.1600555078125C23.5265073046875 18.285559101562498 23.4762609375 18.53659125 23.35075734375 18.511480546875ZM22.045125585937498 21.774748710937498C22.045125585937498 21.774748710937498 22.07026125 21.64922015625 21.944732695312503 21.624109453124998C21.9196219921875 21.7496380078125 21.8945112890625 21.8751416015625 22.045125585937498 21.774748710937498ZM22.723039687500002 20.3439378515625C22.898764687499998 20.11801640625 23.0243431640625 19.490448515624998 22.87370390625 19.5908663671875C22.87370390625 19.5908663671875 22.723089609375 19.6912592578125 22.672868203125 19.9422664453125C22.647757499999997 20.067795 22.5975111328125 20.3188271484375 22.4720075390625 20.293691484375C22.4720075390625 20.293691484375 22.4217861328125 20.544723632812502 22.3464540234375 20.921259375L22.245986249999998 21.423323671875L22.3213433203125 21.04676296875C22.497068320312497 20.820866484375 22.572400429687498 20.4443307421875 22.723039687500002 20.3439378515625ZM19.0816632421875 37.890453515625C19.0816632421875 37.890453515625 19.0565525390625 38.01600703125 19.0314418359375 38.141560546875C18.98119546875 38.392667578125 18.98119546875 38.392667578125 19.156945429687497 38.16677109375C19.182056132812498 38.041217578125 19.182056132812498 38.041217578125 19.0816632421875 37.890453515625ZM18.0271135546875 40.551289453125C17.901609960937503 40.526328515625 17.8012170703125 40.375564453125 17.826327773437498 40.2500109375C17.8514384765625 40.12470703125 17.876549179687498 39.999153515625004 17.7510455859375 39.973942968749995C17.62551703125 39.94873242187499 17.675688515625 40.350603515625 17.750970703125 40.626671484374995C18.077285039062502 40.9529109375 17.9768422265625 41.455125 17.8764493359375 41.3043609375C17.75092078125 41.2794 17.725810078125 41.40470390625 17.700699375 41.530257421875C17.675588671875 41.65581093749999 17.5249494140625 41.75615390625 17.3743351171875 41.856746484374995C17.19858515625 42.08264296875 17.173474453125 42.207946875 17.09814234375 42.584607421875C17.17342453125 42.860675390625005 17.022810234375 42.961018359375 16.8721709765625 43.0616109375C16.7215566796875 43.16195390625 16.696445976562497 43.287507421875 16.8219495703125 43.312468359374996C16.7968388671875 43.438021875 16.8972317578125 43.58878593749999 16.7717281640625 43.563575390625C16.7466174609375 43.68912890625 16.3197854296875 44.517582421875 16.3197854296875 44.517582421875C16.294674726562498 44.642886328125 16.1189497265625 44.8687828125 16.0938390234375 44.994336328124994C15.9180890625 45.220232812499994 15.767474765625 45.320825390625004 15.767474765625 45.320825390625004C15.6168355078125 45.421168359374995 15.4913319140625 45.3959578125 15.5666141015625 45.67202578125C15.5415033984375 45.797579296875 15.4912819921875 46.048686328125 15.6167855859375 46.073896875C15.6167855859375 46.073896875 15.5916748828125 46.19920078125 15.415924921875 46.425097265625006C15.0644499609375 46.877139843749994 15.0644499609375 46.877139843749994 14.9640570703125 46.72637578125C14.989167773437499 46.600822265625 14.989167773437499 46.600822265625 14.9389463671875 46.851929296875C14.989117851562499 47.25355078125 14.989117851562499 47.25355078125 14.788257187500001 47.60500078125C14.73803578125 47.8561078125 14.587421484375 47.95645078125 14.4618929296875 47.931240234375004C14.185750078125 48.006622265625 14.185750078125 48.006622265625 14.2610572265625 48.282690234374996C14.361450117187498 48.433454296875 14.286093046875001 48.809865234374996 14.26098234375 48.93541875C14.16053953125 49.437383203125 14.4366823828125 49.362250781250005 14.66265375 48.885247265625004C14.7630965625 48.3832828125 15.139682226562499 47.805936328125 15.415875 47.07782578125C15.8929284375 45.99851484375 15.918039140625 45.872961328125 15.792535546875 45.84775078125C15.6921176953125 45.697236328124994 15.867867656249999 45.471339843749995 15.99337125 45.496550390624996C16.11887484375 45.521511328125 16.2695141015625 45.421168359374995 16.2946248046875 45.29561484375C16.59592828125 44.442200390625 16.771678242187498 44.21630390625 16.9222925390625 44.1159609375C16.9222925390625 44.1159609375 17.098042500000002 43.890064453125 17.123153203125 43.7645109375C17.047871015625 43.488193359374996 17.1984853125 43.387850390625 17.1984853125 43.387850390625C17.3491245703125 43.287507421875 17.5248994921875 42.408882421875 17.5500101953125 42.28332890625C17.650428046875 42.43409296875 17.775931640625 42.45905390625 17.876374453125 41.957089453125C18.0521244140625 41.73119296875 18.1274565234375 41.354532421875 18.27809578125 41.254189453125C18.328317187499998 41.003332031250004 18.378538593749997 40.752225 18.5040421875 40.777435546875004C18.6797921484375 40.551289453125 19.608763359375 38.51822109375 19.8347347265625 38.041217578125C19.8598454296875 37.9156640625 19.9100668359375 37.66455703125 20.035595390624998 37.689767578125C20.085816796874997 37.438660546875 20.5126238671875 36.610456640624996 20.88920953125 36.03311015625C21.391373671874998 34.828245703125 21.6173450390625 34.3512421875 21.7679593359375 34.25089921875C21.793095 34.125345703125 21.818205703125003 33.9997921875 21.818205703125003 33.9997921875C21.868427109375002 33.74868515625 22.3203448828125 32.794927734374994 22.470984140625003 32.694584765625C22.67181984375 32.343134765624995 22.8726805078125 31.991684765625 22.8977912109375 31.86613125C23.023319765624997 31.891341796875 23.073541171874997 31.640234765625 23.098651874999998 31.51468125C23.148873281249998 31.263823828125002 23.173983984375 31.1382703125 23.2995125390625 31.16323125C23.2995125390625 31.16323125 23.3497339453125 30.912373828125 23.374844648437502 30.7868203125C23.3999553515625 30.661266796875 23.5757053125 30.435370312499998 23.600816015625 30.309816796875C23.776541015625 30.0839203125 24.0025123828125 29.606916796874998 24.203373046875 29.255466796874998C24.429319453125 28.778712890625 24.655290820312498 28.301709374999998 24.6804015234375 28.176155859375C24.7306229296875 27.925048828125 24.780869296875 27.67419140625 24.906372890625 27.69915234375L25.333105078124998 26.8709484375C25.333105078124998 26.8709484375 25.483869140625 26.77060546875 25.508830078124998 26.645051953124998C25.559251171875 26.393944921875 25.584212109375 26.26839140625 25.584212109375 26.26839140625C25.734976171875 26.168048437499998 25.935662109375 25.816598437499998 26.136597656249997 25.465148437499998C26.236940625 24.963183984375 26.437876171875 24.611733984375 26.588640234375 24.5113161328125C26.81453671875 24.034387499999998 27.51743671875 22.478073046875 27.567608203124998 22.2270408984375C27.59281875 22.1015373046875 27.618029296874997 21.976008750000002 27.743582812499998 22.0011444140625C27.86888671875 22.0262551171875 27.94426875 21.649719374999997 27.869136328125 21.3735765234375C27.894097265625 21.2480729296875 27.793754296875 21.097433671875 27.793754296875 21.097433671875C27.66820078125 21.07232296875 27.64323984375 21.1978265625 27.59281875 21.4488587109375C27.542647265625 21.699890859375 27.51743671875 21.825394453125 27.492475781249997 21.950898046875C27.34171171875 22.0513158984375 27.291540234375 22.302348046875 27.24136875 22.553355234375C27.191197265625 22.804387382812497 27.165986718750002 22.9298909765625 26.9148796875 22.8796695703125C26.764365234375 22.9800624609375 26.764365234375 22.9800624609375 26.739154687499997 23.105591015625C26.71419375 23.231094609375 26.688983203125 23.356598203125 26.5634296875 23.331487499999998C26.538468749999996 23.4570160546875 26.538468749999996 23.45699109375 26.513258203124998 23.5825196484375C26.513258203124998 23.5825196484375 26.488297265625 23.7080232421875 26.31232265625 23.9339446875C26.28736171875 24.05944828125 25.986083203125 24.912912656249997 25.835319140625 25.01335546875C25.835319140625 25.01335546875 25.634633203125 25.36480546875 25.584212109375 25.615662890625C25.358315625 26.09266640625 24.95664421875 26.795566406249996 24.856201406249998 27.297530859375C24.780869296875 27.67419140625 24.429394335937502 28.125984375 24.1783621875 28.075812890625C23.9273300390625 28.025391796875 23.7516050390625 28.251537890625002 23.9523908203125 28.552566796875C24.0527837109375 28.703330859374997 24.0276730078125 28.828884374999998 23.902169414062502 28.803673828125C23.902169414062502 28.803673828125 23.726419453124997 29.0295703125 23.70130875 29.155123828125C23.65108734375 29.406230859375 23.550644531249997 29.9081953125 23.349783867187497 30.2596453125C23.148923203125 30.611095312499998 22.9229518359375 31.088098828125 22.897841132812502 31.213402734375002C22.8476197265625 31.464509765625 22.697005429687497 31.564852734375 22.697005429687497 31.564852734375C22.571476875 31.539891796875 22.546366171875 31.665195703124997 22.496144765625 31.916302734374998C22.4710340625 32.041856249999995 22.320419765625 32.14219921875 22.320419765625 32.14219921875C22.1948912109375 32.117238281249996 22.1446698046875 32.368095703125 22.0944483984375 32.619202734375C22.0693376953125 32.74475625 21.993980625000003 33.1211671875 21.86847703125 33.09620625C21.717862734375 33.19654921875 21.6676163671875 33.44765625 21.6425056640625 33.572960156250005C21.5922842578125 33.8240671875 21.5922842578125 33.8240671875 21.466780664062497 33.798856640625004C21.341252109375 33.773895703125 21.316141406249997 33.89944921875 21.240809296875 34.275860156250005C21.265870078125 34.803035156250004 21.140366484374997 34.777824609375 21.0148379296875 34.752863671875005C20.8893343359375 34.727653124999996 20.8642236328125 34.853206640625 20.839112929687502 34.97876015625C20.5126737890625 35.957728125 20.286727382812497 36.434731640625 19.960363124999997 36.76097109375C19.6339988671875 37.087210546875 19.6339988671875 37.087210546875 19.7343917578125 37.237974609375C19.6841703515625 37.48883203125 19.6590596484375 37.614385546875 19.60881328125 37.865492578125C19.458198984375 37.965835546875 19.407977578125 38.216942578125 19.382866874999998 38.34249609375C19.3326205078125 38.593353515625004 19.1820062109375 38.69394609375 19.0313919140625 38.7942890625C18.7552490625 38.869421484375 18.7552490625 38.869421484375 18.83053125 39.1457390625C18.95603484375 39.1707 18.9058134375 39.42180703125 18.755199140625 39.52215C18.704952773437498 39.773257031250004 18.704952773437498 39.773257031250004 18.6045598828125 39.62249296875C18.6296705859375 39.4971890625 18.529277695312498 39.346425 18.529277695312498 39.346425C18.278245546875 39.296253515625004 18.25313484375 39.42180703125 18.353527734375 39.572321484375C18.353527734375 39.572321484375 18.428809921875 39.848389453125 18.378588515625 40.099496484375C18.30325640625 40.47615703125 18.152642109374998 40.5765 18.0271135546875 40.551289453125ZM17.5503346875 38.36745703125C17.3746096875 38.593353515625004 17.324388281250002 38.8442109375 17.148638320312497 39.070107421875C17.098416914062497 39.321214453125 17.098416914062497 39.321214453125 17.2239205078125 39.346425C17.3494490625 39.3713859375 17.500063359375 39.27104296875 17.550284765625 39.0199359375C17.7260347265625 38.794039453125 17.8013668359375 38.417628515625 17.977116796875 38.19173203125C18.027338203125 37.940625 18.228198867187498 37.589175000000004 18.2784202734375 37.33831757812499C18.3286416796875 37.087210546875 18.479255976562502 36.986867578125 18.504391640625 36.86131406249999C18.6550059375 36.76097109375 18.554613046874998 36.61020703125 18.403973789062498 36.71055C18.2784701953125 36.6855890625 18.127830937499997 36.78593203125 18.077609531249998 37.0370390625C18.027388124999998 37.287896484375 17.97716671875 37.539003515625 17.97716671875 37.539003515625C17.8516381640625 37.513792968749996 17.8014167578125 37.7649 17.7763060546875 37.890453515625C17.751195351562497 38.01600703125 17.700973945312498 38.266864453124995 17.5503346875 38.36745703125ZM17.902034296875 35.30475C17.927145 35.179446093749995 17.902034296875 35.30475 17.87692359375 35.430303515625C17.8267021875 35.681410546875 17.8267021875 35.681410546875 17.851812890625002 35.55585703125C17.87692359375 35.430303515625 17.902034296875 35.30475 17.902034296875 35.30475ZM16.4707491796875 40.50111796875C15.9686349609375 41.05325390625 15.64222078125 42.032221875 15.767724375 42.057432421875C15.9434743359375 41.8315359375 16.119224296875 41.60538984375 16.294949296875 41.379493359375C16.646424257812498 40.927700390625006 17.0732562890625 40.099496484375 17.1485883984375 39.722835937499994L17.1988098046875 39.471978515625L17.0230848046875 39.697874999999996C16.872445546875 39.79821796875 16.847334843749998 39.923771484374996 16.822224140625 40.049075390625C16.822224140625 40.049075390625 16.646474179687498 40.275221484375 16.4707491796875 40.50111796875ZM15.391138710937499 42.63477890625C15.240524414062499 42.735121875 15.215413710937499 42.860675390625005 15.3409173046875 42.885636328125C15.3409173046875 42.885636328125 15.4915316015625 42.785293359375 15.54177796875 42.534186328124996C15.617110078125 42.157775390625 15.491606484375 42.13256484375 15.391138710937499 42.63477890625ZM1.4561362265625 77.70215039062501C1.4561362265625 77.70215039062501 1.4812494257812499 77.57659687499999 1.5314783203125 77.325739453125C1.4059647421875 77.30052890625 1.38085154296875 77.42608242187501 1.3557383437500001 77.5516359375C1.3306251445312498 77.677189453125 1.3306251445312498 77.677189453125 1.4561362265625 77.70215039062501ZM2.862270703125 73.2843140625C3.012934921875 72.531242578125 3.8164025390625 70.4727140625 4.3687880859375 69.016742578125C4.4190094921875005 68.76588515625001 4.6700915625 68.16332812499999 4.870952226562499 67.811878125C4.971395039062499 67.309913671875 5.19736640625 66.83291015625 5.3480056640625 66.7325671875C5.3731163671874995 66.60701367187501 5.5990627734375 66.13001015625001 5.699530546875 65.628045703125C6.4025803125000005 63.419002734375 6.6285516796875 62.942248828125 6.6536623828125006 62.816695312499995C6.779190937499999 62.84165625 6.82941234375 62.590798828124996 6.904744453125 62.21413828125C6.954965859374999 61.963280859375004 7.0052122265625 61.712173828125 7.130715820312499 61.737134765625C7.1558265234375 61.611830859375 7.3064408203125 61.51123828125 7.6831013671875 60.28141289062499C7.7584334765625 59.90475234375 7.98440484375 59.427748828125 8.160129843750001 59.20185234375C8.360990507812499 58.850651953124995 8.586961875 58.3736484375 8.7878225390625 58.022198437499995C8.863154648437499 57.645537890625 9.0639903515625 57.2943375 9.11423671875 57.04323046875C9.5661544921875 56.089223437499996 9.767015156249998 55.7377734375 9.8172365625 55.486916015625C9.86745796875 55.235808984375 10.0180972265625 55.135466015625 10.043207929687501 55.0099125C10.1687115234375 55.035123046875 10.2189329296875 54.784016015625 10.269179296874999 54.532908984375005C10.444904296875 54.3070125 10.495125703125 54.056155078124995 10.6457649609375 53.9555625C10.6708756640625 53.830258593749996 10.871736328125 53.478808593749996 10.921957734374999 53.2277015625C11.3738755078125 52.273944140625 11.675178984375 51.420280078124996 11.8760396484375 51.068830078124996C11.9262610546875 50.81797265625 12.3530930859375 49.98951914062499 12.5288180859375 49.76362265625C12.604175156250001 49.38721171875 12.855232265624998 48.784654687499994 12.9305893359375 48.408243750000004C13.0310321484375 47.9060296875 13.231892812499998 47.554579687499995 13.257003515625 47.429026171875C13.382507109374998 47.45423671875 13.6084784765625 46.977233203125 13.6335891796875 46.851679687499995C13.6335891796875 46.851679687499995 13.809339140625 46.625783203124996 13.859560546874999 46.37492578125C13.93489265625 45.998265234375 13.9851140625 45.7474078125 14.1106426171875 45.77236875C14.1106426171875 45.77236875 14.160864023437501 45.521511328125 14.1859747265625 45.3959578125C14.2110854296875 45.270404296875 14.386835390625 45.0445078125 14.5374496875 44.944164843749995C14.5374496875 44.944164843749995 14.713199648437499 44.718268359374996 14.763421054687498 44.467161328124995C14.7885317578125 44.3416078125 14.8136424609375 44.216054296874994 14.96428171875 44.115711328125C14.96428171875 44.115711328125 14.989392421875 43.990157812499994 15.039613828125 43.73905078124999C15.089835234375 43.488193359374996 15.240474492187499 43.387850390625 15.265585195312498 43.262296875C15.391088789062499 43.287257812499995 15.416199492187499 43.161704296875 15.3158066015625 43.011189843749996C15.3409173046875 42.885636328125 15.039663749999999 43.086571875000004 14.964331640625 43.462982812499995C14.9392209375 43.588536328125 14.914110234375 43.714089843749996 14.763470976562498 43.8144328125C14.763470976562498 43.8144328125 14.5877459765625 44.040329296875 14.5626103125 44.1658828125C14.537499609374999 44.291436328125 14.33666390625 44.642886328125 14.1860246484375 44.74322929687499C14.0102996484375 44.96912578124999 13.9600782421875 45.220232812499994 13.909831875 45.471090234375005C14.0102497265625 45.621854296875 13.859610468749999 45.722197265625 13.859610468749999 45.722197265625C13.859610468749999 45.722197265625 13.708996171874999 45.822540234375 13.683885468749999 45.948093750000005C13.6336391015625 46.19920078125 13.6085283984375 46.324754296875 13.4830248046875 46.29954375C13.4579141015625 46.425097265625006 13.0310820703125 47.253301171875 12.9306392578125 47.755515234375C12.9055285546875 47.881068750000004 12.754889296875 47.981411718749996 12.72977859375 48.106965234375004C12.579164296875 48.207308203125 12.2527501171875 49.186276171875 12.2276394140625 49.3118296875C12.20250375 49.437383203125 12.02677875 49.6632796875 12.001668046875 49.78858359375C11.951446640625 50.039690625 11.7756966796875 50.265587109375 11.7254752734375 50.516694140625C11.574836015625 50.617037109375 11.399111015625 50.84293359375 11.3740003125 50.968487109375005C11.348889609375 51.094040625 11.1731396484375 51.319937109375 11.0225253515625 51.420280078124996C10.9974146484375 51.54583359375 10.771443281249999 52.022837109375 10.6960862109375 52.399248046875C10.394782734375 53.2526625 10.19394703125 53.6041125 10.1437006640625 53.85521953125C9.81733640625 54.181458984375 9.566279296875 54.784016015625 9.4909222265625 55.160426953125C9.4407008203125 55.411533984375 9.390479414062499 55.662641015625 9.23984015625 55.762983984375005C8.963722265625 55.838116406249995 8.9385866015625 55.963669921875 8.913475898437499 56.089223437499996C8.9887580859375 56.365291406249995 8.9636473828125 56.490844921875 8.8381437890625 56.465883984375004C8.8381437890625 56.465883984375004 8.6624187890625 56.691780468750004 8.612172421875 56.942637890625C8.5368403125 57.319298437499995 8.48661890625 57.570405468749996 8.461508203125 57.695709375C8.461508203125 57.695709375 7.1559263671875 60.306373828125004 7.0805942578125 60.683034375C6.9299799609375 60.783377343750004 6.4027051171875 62.113795312499995 6.30223734375 62.61575976562499C6.12651234375 62.84165625 6.0762909375 63.092763281249994 6.0260445703125 63.343870312499995C6.126462421875 63.494384765625 6.1013267578125 63.61993828124999 5.9507124609375 63.72028125C5.8000981640625 63.82062421875 5.599237499999999 64.17207421875 5.523905390624999 64.548734765625C5.2979340234375005 65.025488671875 4.7204377734375 66.60701367187501 4.444245 67.334874609375C4.39402359375 67.585981640625 4.1429415234375 68.188538671875 4.067584453125 68.564949609375C3.8416380468749995 69.041953125 3.5905559765625 69.64426054687499 3.51519890625 70.02092109374999C2.8121990625 71.577235546875 2.15936321484375 73.535171484375 2.3601614765625 73.83645C2.41033545703125 74.238071484375 2.6111886328125 73.886621484375 2.862270703125 73.2843140625ZM7.9841801953125 62.038662890625C8.0092908984375 61.913109375 8.0092908984375 61.913109375 7.883787304687499 61.887898828124996L7.733148046875001 61.988241796875C7.70803734375 62.113795312499995 7.8335658984375 62.139005859375 7.8335658984375 62.139005859375C7.959069492187499 62.163966796874995 7.9841801953125 62.038662890625 7.9841801953125 62.038662890625ZM5.523506015624999 69.11733515625C5.29760953125 68.94161015625 5.5235808984375 68.464606640625 5.6741951953125 68.364263671875C5.7996987890625 68.38947421875 5.84994515625 68.13836718750001 5.875055859374999 68.012813671875C5.9001665625 67.88726015625 5.925277265625 67.76195625 6.15117375 67.93768125C6.15117375 67.93768125 6.2767023046875 67.9626421875 6.527734453125 68.012813671875C6.55284515625 67.887509765625 6.4273166015625005 67.86229921875001 6.3018130078125 67.83708867187501C6.1763094140625 67.812127734375 6.1763094140625 67.812127734375 6.2265308203125 67.561020703125C6.3520843359375 66.933502734375 5.900216484374999 67.23478125 5.6491344140625 67.83708867187501C5.22232734375 68.6655421875 5.1720809765625 68.91639960937499 5.272498828125 69.06716367187501C5.347781015625 69.343231640625 5.448173906249999 69.493995703125 5.4983953125 69.242888671875L5.523506015624999 69.11733515625ZM5.1218096484375 69.82023515625C5.0967488671875 69.29306015625 5.0967488671875 69.29306015625 4.9712452734375 69.26784960937499C4.9712452734375 69.26784960937499 4.9210238671874995 69.518956640625 4.8707775 69.770063671875C4.795445390625 70.14647460937499 4.7703346875 70.272028125 4.920948984375 70.17168515624999C4.920948984375 70.17168515624999 5.0966989453125 69.945788671875 5.1218096484375 69.82023515625ZM4.5694740234374995 70.62347812499999L4.5945847265625 70.49792460937499C4.4941918359374995 70.34741015624999 4.4690811328125 70.47296367187501 4.4439704296875 70.59826757812499C4.418859726562499 70.72382109375 4.418859726562499 70.72382109375 4.5694740234374995 70.62347812499999ZM3.3391494140624998 74.1629390625C3.2136458203125002 74.137728515625 3.3893208984375 74.564560546875 3.5399351953125002 74.46421757812499C3.5399351953125002 74.46421757812499 3.5650458984375 74.3386640625 3.5901815625 74.213110546875C3.4897637109375 74.062346484375 3.3893708203124997 73.91183203125 3.3391494140624998 74.1629390625ZM3.2888780859374998 75.066525C3.3139887890625 74.940971484375 3.3139887890625 74.940971484375 3.188460234375 74.916010546875C3.188460234375 74.916010546875 3.0378459375 75.016353515625 3.012735234375 75.14190703125C2.9624888671874996 75.392764453125 3.0880174218749996 75.417975 3.113128125 75.292421484375C3.263742421875 75.192078515625 3.2888780859374998 75.066525 3.2888780859374998 75.066525ZM1.73194959375 81.54288984375C1.90763465625 81.96972187499999 1.9829742539062498 81.59331093750001 2.4350143359375 79.33409648437501C2.9372783203125 76.823775 2.9373282421874998 76.171046484375 2.4602897812499998 77.250357421875C2.3096105859375 78.00342890625 1.6315517109375 81.392375390625 1.73194959375 81.54288984375ZM3.0879675 76.070703515625C3.1130782031249997 75.94515 3.13818890625 75.819596484375 3.163299609375 75.69404296875C3.0377960156249997 75.66908203125 3.0126853125 75.794635546875 2.9373282421874998 76.171046484375C2.7616032421875003 76.39694296875 2.8871068359375 76.422153515625 2.8871068359375 76.422153515625C3.0377211328125 76.3215609375 3.062856796875 76.19625703125 3.0879675 76.070703515625ZM3.062257734375 83.375521875C3.062257734375 83.375521875 2.9869755468749997 83.09945390625 3.06230765625 82.72279335937499C3.0372468749999997 82.19586796875 2.7862646484374998 81.49296796875001 2.7109325390624996 81.86937890625C2.6104897265625 82.37134335937499 2.7861148828125 83.45090390625 3.062257734375 83.375521875ZM5.6991561328125 70.196895703125C5.7995989453125 69.69468164062499 6.050681015625 69.09237421875001 6.226406015625 68.866477734375C6.4272666796875 68.515027734375 6.4523773828125 68.38947421875 6.3519844921875 68.238959765625C6.17623453125 68.46485625 6.100902421875 68.8412671875 5.975398828125 68.81605664062499C5.8247595703125 68.91664921875 5.7996488671875 69.042202734375 5.7494274609375 69.29306015625C5.7243167578125 69.418613671875 5.6740953515624994 69.669720703125 5.523456093749999 69.770063671875C5.4732346875 70.02117070312501 5.1217098046875 71.125442578125 4.87067765625 71.07527109374999C4.845566953125 71.200824609375 4.845566953125 71.200824609375 4.795345546875001 71.45193164062499C4.870627734375001 71.72799960937499 4.820406328125 71.979106640625 4.6446563671875 72.20500312499999C4.5191527734375 72.179792578125 4.443795703125 72.556453125 4.343352890625 73.05841757812499C4.26802078125 73.434828515625 4.1926637109375005 73.8114890625 4.1675530078125 73.937042578125C4.1675530078125 73.937042578125 3.9667173046875 74.288492578125 3.86624953125 74.79045703125C3.5900068359375 76.171046484375 3.288703359375 77.0244609375 3.1129533984375 77.25060703125C3.21337125 77.401121484375 3.0626820703125 78.15419296875 2.86182140625 78.50564296875C2.8367107031249996 78.631196484375 2.8116 78.75675 2.7864892968749997 78.88205390625C2.911992890625 78.907264453125 2.8868821875 79.03281796875 2.8617714843749997 79.158371484375C2.83666078125 79.283925 2.811550078125 79.40922890625001 2.786439375 79.534782421875C2.886832265625 79.685546484375 2.8617215625 79.81085039062499 2.711107265625 79.91144296875C2.6608608984375 80.162300390625 2.5101467578125 81.568100390625 2.6356503515625 81.59331093750001C2.6356503515625 81.59331093750001 2.861671640625 80.46357890624999 3.1379143359375 79.082989453125C3.4141570312500003 77.7024 3.6652890234375 76.44736406249999 3.841038984375 76.22121796875001C3.8661496874999997 76.0959140625 4.01681390625 75.342842578125 4.293006679687499 74.61473203125C4.418585156250001 73.98721406249999 4.544138671874999 73.35969609375 4.544138671874999 73.35969609375C4.6947779296875 73.25935312499999 4.7701100390625 72.882692578125 4.9709707031249994 72.531242578125C5.071413515624999 72.02927812499999 5.171881289062499 71.527313671875 5.322495585937499 71.42672109375C5.3476062890625 71.3014171875 5.473184765625 70.673649609375 5.6991561328125 70.196895703125ZM5.422738710937501 73.53542109374999C5.4478494140625005 73.409867578125 5.4980708203125 73.15901015624999 5.523181523437501 73.033456640625C5.5482922265625 72.907903125 5.523181523437501 73.033456640625 5.4729601171875 73.28456367187499C5.422738710937501 73.53542109374999 5.3976280078125 73.660974609375 5.422738710937501 73.53542109374999ZM6.1257884765625 71.326378125C6.1509241406249995 71.20107421875 6.176034843749999 71.07552070312501 6.201145546875 70.94996718750001C6.075616992187499 70.92475664062499 6.075616992187499 70.92475664062499 6.0253955859375 71.17586367187499C5.9500634765625 71.55227460937499 5.9500634765625 71.55227460937499 6.1257884765625 71.326378125ZM7.1303414062499995 66.305984765625C7.255845 66.3311953125 7.306066406249999 66.08008828125 7.406534179687499 65.578123828125C7.5822591796875 65.35222734374999 7.682726953125 64.85001328125 7.83334125 64.7496703125C7.858451953125 64.624116796875 7.9337840625 64.24770585937499 7.9840304296874995 63.996598828125C8.0091411328125 63.871045312499994 8.1848661328125 63.645148828125 8.1848661328125 63.645148828125C8.310394687499999 63.670359375000004 8.335505390624999 63.544805859374996 8.385726796875 63.293698828124995C8.435948203125 63.04284140625 8.6870302734375 62.440284375 8.913001640625 61.963280859375004C9.1389730078125 61.486277343750004 9.2394158203125 60.984312890625 9.2394158203125 60.984312890625C9.289637226562501 60.733205859375 8.88799078125 60.783377343750004 8.862880078124999 60.908930859375C8.812658671874999 61.160037890625 8.6871301171875 61.13482734375 8.712265781249998 61.00952343749999C8.5114550390625 60.708244921875 8.335705078125 60.93414140625 8.134869375000001 61.28559140625C8.0344016015625 61.787555859375 8.0344016015625 61.787555859375 8.2101515625 61.561659375C8.335655156249999 61.586620312499996 8.4862944140625 61.486277343750004 8.4862944140625 61.486277343750004C8.6117980078125 61.511487890625 8.235162421875 62.741562890625 8.0091910546875 63.218316796875C7.833441093749999 63.44421328125 7.7832196875 63.6953203125 7.9087482421874995 63.720530859375C7.883612578125 63.846084375 7.833391171875 64.096941796875 7.63255546875 64.448391796875C7.4568055078125 64.67428828124999 7.255944843749999 65.02573828125 7.230834140624999 65.15129179687499C7.1303913281249995 65.65325625 6.7789163671875 66.10504921875 6.52788421875 66.054877734375C6.2768520703125 66.00470625 6.2768520703125 66.00470625 6.2015199609375 66.3811171875C6.151298554687499 66.63222421875001 6.151298554687499 66.63222421875001 6.4023057421875 66.682395703125C6.527834296875 66.70760625 6.527834296875 66.70760625 6.477612890625 66.95871328125C6.4525021875 67.0840171875 6.552895078125 67.23478125 6.552895078125 67.23478125C6.678398671875001 67.2597421875 6.703509375 67.13443828125 6.728620078125 67.008884765625C6.753730781250001 66.88333125 6.653337890625 66.7325671875 6.67844859375 66.60726328125C6.552945 66.582052734375 6.8793092578125 66.25581328125 7.1303414062499995 66.305984765625ZM7.858626679687499 62.666180859375C7.8335159765624995 62.791734375 7.8083803125 62.91703828125 7.933908867187499 62.942248828125L8.0845231640625 62.841905859375C8.1096338671875 62.71635234375 8.0092409765625 62.565837890625 8.0092409765625 62.565837890625C7.8837373828125 62.540627343749996 7.8837373828125 62.540627343749996 7.858626679687499 62.666180859375ZM4.9203 78.003678515625C4.8951892968749995 78.12923203125 4.87007859375 78.254785546875 4.8951892968749995 78.12923203125C5.0458285546875 78.0288890625 5.0458285546875 78.0288890625 4.945410703125 77.878125C4.9705463671875 77.75282109375 4.945410703125 77.878125 4.9203 78.003678515625ZM4.041275625 83.04928242187499L4.0664112890625 82.92372890624999C3.9408827343749997 82.89876796875 3.9408827343749997 82.89876796875 3.91577203125 83.02432148437501C3.8906613281249998 83.149625390625 3.8906613281249998 83.149625390625 4.041275625 83.04928242187499ZM6.853923984375 69.644759765625C7.00453828125 69.54416718750001 7.0296739453125 69.418613671875 7.1301167578125 68.91664921875C7.2054488671875 68.54023828125 7.2556702734375005 68.28913125 7.2808059375 68.163577734375C7.1552773828125 68.13836718750001 6.8037525 69.242888671875 6.778641796875 69.36844218750001C6.3769454296875 70.0713421875 6.3769454296875 70.0713421875 6.6028419140625 70.2470671875C6.7032348046875 70.39783125 6.7283455078125 70.272277734375 6.778591875 70.02117070312501C6.7033096875 69.745102734375 6.728420390625 69.61954921875 6.853923984375 69.644759765625ZM7.5569987109375 67.435716796875C7.6072201171875005 67.184609765625 7.6574415234375 66.933502734375 7.833191484374999 66.70760625C7.7076629296875 66.6826453125 7.5570486328125 66.78298828125 7.4314701562500005 67.41050625C7.33102734375 67.912470703125 7.40630953125 68.18878828125 7.431420234375 68.063234765625C7.4565309375 67.93768125 7.632280898437499 67.711784765625 7.5569987109375 67.435716796875ZM20.107008632812498 84.305816015625C20.2325371875 84.33102656249999 20.2325371875 84.33102656249999 20.107008632812498 84.305816015625C20.006615742187503 84.1553015625 20.006615742187503 84.1553015625 19.9815050390625 84.28060546875C19.8560014453125 84.25564453125 19.9815050390625 84.28060546875 20.107008632812498 84.305816015625ZM20.9354371875 84.07991953125C20.9354371875 84.07991953125 20.9354371875 84.07991953125 20.860155000000002 83.8038515625C20.860155000000002 83.8038515625 20.8350193359375 83.929405078125 20.9354371875 84.07991953125ZM22.692712148437497 83.12616210937499C22.692712148437497 83.12616210937499 22.8182157421875 83.15137265624999 22.8433264453125 83.02581914062499C22.8433264453125 83.02581914062499 22.7178228515625 83.00060859375 22.692712148437497 83.12616210937499ZM22.015097578125 81.293530078125C22.140601171874998 81.31874062499999 23.1447547265625 80.86694765624999 23.697015468750003 80.71643320312499C24.249301171875 80.56591875 24.97741171875 80.18925820312501 24.7262797265625 80.13908671875C24.7262797265625 80.13908671875 24.4501618359375 80.21446875 24.048515390625 80.264640234375C23.747261835937497 80.465326171875 23.345615390625 80.51549765624999 23.1949761328125 80.615840625C22.91883328125 80.69122265624999 22.6426904296875 80.76660468749999 22.4920761328125 80.86694765624999C22.190822578124997 81.06763359375 22.065318984375 81.04267265624999 21.814286835937498 80.99250117187499C21.7891761328125 81.11780507812499 20.9356618359375 81.469255078125 20.81013328125 81.44404453125C20.659518984374998 81.544637109375 20.508879726562498 81.644980078125 20.232736874999997 81.7201125C19.956618984375 81.79549453125 19.805979726562498 81.8958375 19.805979726562498 81.8958375C19.7808690234375 82.021391015625 20.057011875 81.94625859375 20.4837690234375 81.77053359375C20.609297578125 81.79549453125 21.8644583203125 81.39412265625 22.015097578125 81.293530078125ZM24.0734014453125 82.74975117187499L24.525269296875 82.44847265625L23.9730085546875 82.59923671874999C23.696865703125 82.67436914062499 23.5462264453125 82.774712109375 23.5462264453125 82.774712109375C23.4960050390625 83.02581914062499 23.646644296875 82.925476171875 24.0734014453125 82.74975117187499ZM25.253479687499997 80.11412578125001L25.403994140625002 80.0137828125C25.403994140625002 80.0137828125 25.303651171875 79.86301875 25.278690234375 79.988572265625C24.902029687499997 79.91319023437501 24.876918984375 80.03874375 25.253479687499997 80.11412578125001ZM28.240555078125 81.49496484375C28.391319140624997 81.394621875 28.667387109375 81.31923984375 28.667387109375 81.31923984375C28.692348046874997 81.193686328125 28.315937109375 81.11855390625 28.140212109375 81.344450390625C28.140212109375 81.344450390625 27.989448046874998 81.444793359375 27.864144140625 81.4195828125C27.5878265625 81.49496484375 27.83893359375 81.545136328125 28.240555078125 81.49496484375ZM31.428815625000002 80.56641796874999C31.4537765625 80.440864453125 31.328223046875 80.41590351562499 31.328223046875 80.41590351562499C31.303262109375 80.541207421875 31.303262109375 80.541207421875 31.428815625000002 80.56641796874999ZM32.1566765625 80.19000703125C32.031123046874995 80.164796484375 32.78419453125 80.31556054687499 32.93495859375 80.21521757812499C32.93495859375 80.21521757812499 32.809405078125 80.19000703125 32.558298046875 80.13983554687499C32.432994140625 80.11462499999999 32.181887109375 80.064453515625 32.1566765625 80.19000703125ZM32.909748046875 79.68804257812499C32.884787109375 79.81334648437499 33.010340625 79.83855703124999 33.110683593750004 79.98932109375001C33.110683593750004 79.98932109375001 33.135894140625 79.86376757812499 33.160855078124996 79.73821406249999C33.060512109375004 79.58745 32.93495859375 79.56248906249999 32.909748046875 79.68804257812499ZM34.315548046875 79.83880664062501C34.441101562499995 79.86376757812499 34.692208593749996 79.9139390625 34.71716953125 79.78863515625C34.742380078125 79.663081640625 34.36571953125 79.587699609375 34.215205078124995 79.68804257812499C34.064690625000004 79.788385546875 34.064690625000004 79.788385546875 34.315548046875 79.83880664062501ZM36.625183593749995 79.387013671875C36.9012515625 79.311631640625 36.9012515625 79.311631640625 36.775698046875 79.286670703125C36.675355078125 79.135906640625 36.248523046875 79.311631640625 36.223562109375 79.43718515625C36.323905078125 79.58794921875 36.323905078125 79.587699609375 36.625183593749995 79.387013671875ZM37.67953359375 79.3368421875C37.830048046875 79.23649921875 37.830048046875 79.23649921875 37.578941015625 79.186327734375C37.453637109375 79.1611171875 37.328083593749994 79.13615625 37.302873046875 79.26146015625C37.403216015625 79.41222421875 37.403216015625 79.41222421875 37.67953359375 79.3368421875ZM40.214816015625 79.06102382812499L40.616437499999996 79.01085234375L40.2400265625 78.9354703125C39.7378125 78.83512734375 39.46174453125 78.910259765625 39.43678359375 79.03581328124999C39.5371265625 79.186327734375 39.787983984375 79.23674882812499 40.214816015625 79.06102382812499ZM41.896683984374995 79.136405859375C42.0222375 79.16161640624999 42.147791015624996 79.18657734375 42.172751953125 79.0612734375C42.1979625 78.935719921875 42.1979625 78.935719921875 41.92189453125 79.01085234375C41.6458265625 79.08623437499999 41.6458265625 79.08623437499999 41.896683984374995 79.136405859375ZM42.8759015625 77.504709375C43.001455078125 77.529919921875 43.001455078125 77.529919921875 43.026416015624996 77.40436640624999C43.026416015624996 77.40436640624999 42.926073046875004 77.25385195312501 42.800519531249996 77.22864140625C42.674966015625 77.20368046875 42.549662109375 77.17846992187499 42.549662109375 77.17846992187499C42.574623046875 77.05291640625 42.198212109375 76.97753437499999 41.19403359375 76.77659882812499C40.4157515625 76.751637890625 39.78823359374999 76.62608437499999 39.813444140624995 76.50053085937499C39.813444140624995 76.50053085937499 39.93899765625 76.525491796875 40.089512109375 76.42514882812499C40.340619140625 76.4753203125 40.215065625 76.45035937499999 39.58754765625 76.32480585937499C38.332262109374994 76.073698828125 37.5542296875 76.04848828125 37.403465625 76.14883125C37.403465625 76.14883125 37.12739765625 76.22421328125 37.001844140625 76.199002734375C36.876290624999996 76.1737921875 36.625433203125 76.123620703125 36.474669140625004 76.223963671875C36.349365234375 76.199002734375 35.947494140625 76.24917421875 35.54587265625 76.299345703125C34.767840234374994 76.27413515625 33.26144765625 76.625335546875 32.55854765625 76.87644257812501C32.156926171875 76.9266140625 31.73034375 77.1023390625 31.705133203125 77.227892578125C31.55461875 77.328235546875 30.8766796875 77.45353945312499 30.62557265625 77.40336796875C30.374715234374996 77.35319648437499 30.249161718750003 77.3279859375 30.349504687499998 77.47874999999999C30.449847656249997 77.62926445312499 30.449847656249997 77.62926445312499 30.173779687499998 77.704646484375C30.023265234375 77.804989453125 29.772158203125002 77.75481796874999 29.6466046875 77.72960742187499C29.521051171875 77.704646484375 29.244983203125 77.77977890625 29.09446875 77.880121875C28.9437046875 77.980714453125 28.667636718749996 78.055846875 28.542083203125 78.0308859375C28.4165296875 78.005675390625 27.989947265625002 78.18140039062499 27.563115234374997 78.357125390625C26.860215234374998 78.6079828125 26.584147265625 78.68336484375 26.45859375 78.658154296875C26.232697265625 78.482429296875 26.081933203125 78.582772265625 25.805865234375002 78.658154296875C25.655101171875 78.758497265625 25.529797265625 78.733536328125 25.529797265625 78.733536328125C25.278690234375 78.68311523437501 24.4251509765625 79.034565234375 23.8477545703125 79.310633203125C22.667876015625 79.98832265625 22.391733164062497 80.06370468749999 20.283033164062502 80.8165265625C19.153376015625 81.243108984375 18.2998367578125 81.594558984375 18.149222460937498 81.694901953125C17.998583203124998 81.795244921875 17.998583203124998 81.795244921875 18.2496153515625 81.845666015625C18.375118945312497 81.870626953125 18.525758203124997 81.770283984375 18.6763725 81.66994101562499C18.8270117578125 81.569598046875 19.0780189453125 81.61976953125 19.0780189453125 81.61976953125C19.8311403515625 81.11780507812499 21.7641153515625 80.590630078125 22.5925189453125 80.364983203125C22.868661796875 80.28960117187499 23.1699153515625 80.08891523437501 23.4209475 80.13908671875C23.8477046484375 79.96336171875 24.249351093749997 79.91319023437501 24.274461796875 79.78763671875C24.5506046484375 79.7122546875 25.379033203124997 79.4866078125 25.630140234375 79.536779296875C25.755444140625002 79.561740234375 25.880997656250003 79.58695078125 25.730483203124997 79.68729375C25.579719140625 79.78763671875 25.554758203125 79.91319023437501 25.554758203125 79.91319023437501C25.68031171875 79.93840078125 26.257658203124997 79.66233281250001 26.157315234375 79.51156875C26.157315234375 79.51156875 26.282619140625 79.536779296875 26.40817265625 79.56198984375C26.533726171875 79.58695078125 26.6592796875 79.612161328125 26.684490234375 79.4866078125C26.684490234375 79.4866078125 26.8350046875 79.38626484375 26.960558203124997 79.41122578125C27.086111718749997 79.436436328125 27.236626171875 79.336093359375 27.236626171875 79.336093359375C27.512694140624998 79.260711328125 28.49191171875 78.934471875 28.7679796875 78.85933945312499C29.069258203125 78.65840390624999 32.10675468749999 77.83019999999999 32.508376171875 77.780028515625C32.6339296875 77.80523906250001 32.759483203125 77.83044960937501 32.6339296875 77.80523906250001C32.483165625 77.90558203125 32.03137265625 78.206860546875 32.03137265625 78.206860546875C32.006162109375 78.33241406249999 32.38282265625 78.40754648437499 32.935208203125 78.25703203124999C33.211276171875 78.181899609375 33.487344140625 78.10651757812501 33.61289765625 78.13172812500001C33.738451171875 78.15668906249999 33.888965625 78.05634609375 33.888965625 78.05634609375C34.014519140625 78.081556640625 34.290587109375004 78.006174609375 34.5669046875 77.93079257812501C34.968526171875 77.88062109375 35.244594140625004 77.805488671875 35.244594140625004 77.805488671875C35.37014765625 77.83044960937501 35.922283593749995 77.67993515625 36.323905078125 77.629763671875C37.252951171875 77.55463125 38.18174765625 77.47924921875 39.110544140625 77.404116796875C39.637719140625 77.37915585937499 40.164894140625 77.35394531249999 40.290198046875 77.37915585937499C40.792412109375 77.479498828125 41.595655078125 77.37915585937499 41.746169531250004 77.27881289062499C41.771380078125 77.153259375 41.92189453125 77.05291640625 42.27334453125 77.25385195312501C42.5244515625 77.30402343749999 42.77555859375 77.354194921875 42.8759015625 77.504709375ZM47.54409609375 88.75135898437499C47.54409609375 88.75135898437499 47.694610546875 88.65101601562499 47.745031640625 88.399908984375C47.619478125 88.3746984375 47.4687140625 88.47529101562499 47.443753125 88.600594921875C47.443753125 88.600594921875 47.418542578125 88.72614843749999 47.54409609375 88.75135898437499Z" fill="#AA2929"></path></svg> 