<?xml version="1.0" encoding="UTF-8"?> <svg xmlns="http://www.w3.org/2000/svg" viewBox="0 0 207.990234375 34.763671875" fill="none"><path d="M5.689457866727389 8.349607966496395H4.728527984619141V4.96289198068472C4.251950361046425 5.28320194138747 3.73242475398137 5.443369421151968 3.1699261645977317 5.443369421151968C2.4785161279062122 5.443369421151968 1.933594213256836 5.216805058875451 1.5351554208843525 4.763676334322415C1.1367191283944937 4.3105476097693805 0.9375009821495642 3.6699276883638823 0.9375009821495642 2.841791571279672V0.08203114844689002H1.8984383639056865V2.818367671086238C1.8984383639056865 4.041010265174279 2.361329130108173 4.652331562218299 3.287120662043645 4.652331562218299C3.755848654174805 4.652331562218299 4.2363260946420525 4.484364448664739 4.728527984619141 4.148430221557617V0.08203114844689002H5.689457866727389V8.349607966496395Z" fill="#322D29"></path><path d="M12.9902400780311 3.03515749230018H10.974609716562124V8.349607966496395H10.066402359008789V3.03515749230018H8.050771997539814V2.2441396324275087H12.9902400780311V3.03515749230018Z" fill="#322D29"></path><path d="M17.724617787992035 2.0976565101506157C18.56445335575984 2.0976565101506157 19.232421993079555 2.390625254587027 19.72852369995117 2.976560243577224C20.224600407996544 3.562507731980544 20.472663760845478 4.333996508789062 20.472663760845478 5.291026574002779C20.472663760845478 6.255856273005559 20.224600407996544 7.0331947751558745 19.72852369995117 7.623042080453726C19.232421993079555 8.212889385751577 18.56445335575984 8.50780053898738 17.724617787992035 8.50780053898738C16.880857404503455 8.50780053898738 16.21093885873648 8.214839294198843 15.714837151864858 7.6289168046217695C15.222660260714019 7.039069499323918 14.976571815138598 6.25975608990009 14.976571815138598 5.291026574002779C14.976571815138598 4.330071693068285 15.224610169161283 3.5585829162597657 15.720711876032905 2.976560243577224C16.216788584078273 2.390625254587027 16.884757221397987 2.0976565101506157 17.724617787992035 2.0976565101506157ZM17.724617787992035 7.710937953538161C18.279291744760364 7.710937953538161 18.71679620290903 7.4765739574725805 19.037106163611778 7.007820966515174C19.35741612431453 6.539067975557767 19.517583604079025 5.970694662006085 19.517583604079025 5.302726024686374C19.517583604079025 4.599609037663386 19.359366032761795 4.0214861818753755 19.042980887779823 3.568357457322341C18.726570743971607 3.115228732769306 18.287116377375675 2.8886643704927883 17.724617787992035 2.8886643704927883C17.15819438288762 2.8886643704927883 16.718740016291694 3.11327882432204 16.406254688204253 3.562507731980544C16.093744361290565 4.007811823918269 15.937501697246844 4.587884588153545 15.937501697246844 5.302726024686374C15.937501697246844 5.9824191115159255 16.09569426973783 6.554692241962139 16.41210441354605 7.019520417198768C16.728514557354266 7.480473774367113 17.16601901550293 7.710937953538161 17.724617787992035 7.710937953538161Z" fill="#322D29"></path><path d="M23.267582532912037 2.771494871873122C23.662114008742112 2.3222659642146186 24.21678796551044 2.0976565101506157 24.93162940204327 2.0976565101506157C25.77153996628981 2.0976565101506157 26.43950860360953 2.390625254587027 26.93548531634991 2.976560243577224C27.431712017352766 3.562507731980544 27.67970037372296 4.333996508789062 27.67970037372296 5.291026574002779C27.67970037372296 6.255856273005559 27.431712017352766 7.0331947751558745 26.93548531634991 7.623042080453726C26.43950860360953 8.212889385751577 25.77153996628981 8.50780053898738 24.93162940204327 8.50780053898738C24.087894017380933 8.50780053898738 23.417975471613957 8.214839294198843 22.921873764742337 7.6289168046217695C22.429696873591496 7.039069499323918 22.18358342918983 6.25975608990009 22.18358342918983 5.291026574002779V5.255853225473257C22.18358342918983 1.7519527417461689 23.128914043719952 0 25.019575272780198 0C25.296812255859372 0 25.599548041710488 0.023437499554912863 25.92778263033353 0.07031244866708608C26.197269977276143 0.10937511458411583 26.429759061373197 0.12890619755436825 26.62499989436223 0.12890619755436825C26.925735774113583 0.12890619755436825 27.154225046011117 0.08984378162560096 27.310467710054837 0.011718749777456431V0.802734809734638C27.068479071983923 0.8730465084369367 26.839739811823918 0.9082023577880859 26.62499989436223 0.9082023577880859C26.37101181969276 0.9082023577880859 26.074275752140927 0.8867183665114183 25.73429171518179 0.843750383958083C25.445305283766526 0.8085945346069335 25.21081629356971 0.7910153599900467 25.031324721116285 0.7910153599900467C24.539072833486703 0.7910153599900467 24.15039108299842 0.9433582071392353 23.865229471998948 1.2480464013202375C23.580067860999478 1.5488272789588342 23.38085221463717 2.056640935927171 23.267582532912037 2.771494871873122ZM24.93162940204327 7.710937953538161C25.4863033588116 7.710937953538161 25.923782818134015 7.4765739574725805 26.24401778235802 7.007820966515174C26.564502734844503 6.539067975557767 26.724495222825272 5.970694662006085 26.724495222825272 5.302726024686374C26.724495222825272 4.599609037663386 26.56650264094426 4.0214861818753755 26.2500175006573 3.568357457322341C25.933532360370343 3.115228732769306 25.494052994948166 2.8886643704927883 24.93162940204327 2.8886643704927883C24.365230995765103 2.8886643704927883 23.92577662916917 3.11327882432204 23.61329130108173 3.562507731980544C23.300780974168042 4.007811823918269 23.14453831012432 4.587884588153545 23.14453831012432 5.302726024686374C23.14453831012432 5.9824191115159255 23.30273088261531 6.554692241962139 23.619141026423527 7.019520417198768C23.935551170231747 7.480473774367113 24.373055628380406 7.710937953538161 24.93162940204327 7.710937953538161Z" fill="#322D29"></path><path d="M35.02160565420297 8.349607966496395H34.10739857835036V2.2441396324275087H35.02160565420297V8.349607966496395ZM30.134835099440355 4.546886513108474H30.77355511005108C31.550768618070162 4.546886513108474 32.15424028367262 4.718753443556566 32.58397010685848 5.0625123032789965C33.01769974224384 5.402346347280648 33.23443956580529 5.86914942979079 33.23443956580529 6.462896551983173C33.23443956580529 7.068368123685397 33.023449472280646 7.535146207369291 32.601469285231374 7.86328080068735C32.17973908644456 8.187490578284631 31.57426751474234 8.349607966496395 30.7850545701247 8.349607966496395H29.22662774188702V2.2441396324275087H30.134835099440355V4.546886513108474ZM30.134835099440355 7.558595106388973H30.77355511005108C31.242283102182242 7.558595106388973 31.607515953650843 7.466799416410006 31.86925366445688 7.2832080364520735C32.13074138700045 7.0956918407733625 32.261735236534705 6.822254679283729 32.261735236534705 6.462896551983173C32.261735236534705 6.095713792067308 32.12899146916316 5.816401906409631 31.863253946157602 5.625010892662636C31.601516235351564 5.433594880089393 31.238283289982725 5.337899373215896 30.77355511005108 5.337899373215896H30.134835099440355V7.558595106388973Z" fill="#322D29"></path><path d="M48.89645419781025 8.349607966496395H47.97074766188401V5.337899373215896H45.1288810941256V8.349607966496395H44.214924006535455V2.2441396324275087H45.1288810941256V4.546886513108474H47.97074766188401V2.2441396324275087H48.89645419781025V8.349607966496395Z" fill="#322D29"></path><path d="M56.27935755333533 8.349607966496395H55.371150195782C55.296903681828425 8.103519520920972 55.25965543072041 7.775384927602915 55.25965543072041 7.365229185368465C54.74017982130785 8.12694342111441 54.03321301504282 8.50780053898738 53.13875501192533 8.50780053898738C52.68552629206731 8.50780053898738 52.28504509559045 8.347658058049129 51.93756141075721 8.02734809734638C51.593827549861025 7.703113320922852 51.4218356252817 7.287107853346605 51.4218356252817 6.779306695791392C51.4218356252817 6.478520818387545 51.482332784799425 6.212883290686974 51.60357709209736 5.9824191115159255C51.72457141113281 5.751954932344877 51.90231306574895 5.558589011324369 52.13680205594576 5.402346347280648C52.371041057880106 5.2421788675161505 52.656277665358324 5.117184736281175 52.992261890117945 5.027338954749474C53.32824611487756 4.933593356323242 53.72647741699219 4.869146382258489 54.18745577298678 4.833973033728967L55.21290762563852 4.751951884812575V4.458990640024038C55.21290762563852 3.412114793278621 54.7246805490347 2.8886643704927883 53.74797640756461 2.8886643704927883C53.51748722956731 2.8886643704927883 53.224500985952524 2.9394619854266826 52.86901767672025 3.0410072176419773C52.5175341796875 3.1386776317889877 52.21479839383639 3.255847130408654 51.96106030742939 3.3925657111534706L51.720821587195765 2.7363215233436C52.552782524695765 2.310546514470027 53.326246208777796 2.0976565101506157 54.04096265117939 2.0976565101506157C55.43164735529973 2.0976565101506157 56.12686471322867 2.8339919374906097 56.12686471322867 4.30664779287485V6.931649542940581C56.12686471322867 7.462899599515476 56.177612330510065 7.935552407367413 56.27935755333533 8.349607966496395ZM55.21290762563852 6.539067975557767V5.431644971642127C54.38869632427509 5.505866486769456 53.82222292151818 5.576163186176007 53.51373740563026 5.642585067514273C53.20900171367939 5.705082133131761 52.94326419067382 5.82422653902494 52.716774824876055 5.999993286367563C52.49403528301532 6.175785032536433 52.382790506216196 6.414073844322791 52.382790506216196 6.714834722900391C52.382790506216196 6.9882718843900244 52.47853601074219 7.208986521324745 52.67002701979417 7.376953634878306C52.86126804058369 7.544920748431866 53.105506573016825 7.6289168046217695 53.40224264056866 7.6289168046217695C53.72647741699219 7.6289168046217695 54.04871228731596 7.533196298922025 54.36919723980243 7.34180528517503C54.689432204026446 7.146489455707257 54.97066899930514 6.87890201955942 55.21290762563852 6.539067975557767Z" fill="#322D29"></path><path d="M63.88475046245868 8.349607966496395H58.05477419339693V2.2441396324275087H58.962981550950275V7.558595106388973H60.51565864915115V2.2441396324275087H61.42386600670448V7.558595106388973H62.97079337486854V2.2441396324275087H63.88475046245868V8.349607966496395Z" fill="#322D29"></path><path d="M70.51768903057392 8.349607966496395H69.59173250638521V3.6211049807035005L66.8788598820613 8.349607966496395H65.83590885103666V2.2441396324275087H66.75011592688926V6.996096517005334L69.47448801128681 2.2441396324275087H70.51768903057392V8.349607966496395Z" fill="#322D29"></path><path d="M81.16393916438176 3.03515749230018C81.36717962176982 2.753895698195237 81.64066678091196 2.52733133591872 81.98440064180814 2.355469405235877C82.33213431490384 2.1835949751399113 82.69736716637244 2.0976565101506157 83.08009919621395 2.0976565101506157C83.78331617854192 2.0976565101506157 84.33404032076322 2.3886728462571365 84.73252161114033 2.9707105182354265C85.13475272545448 3.5488333740234377 85.3359932767428 4.302722977154072 85.3359932767428 5.232429325279823C85.3359932767428 6.16991030836839 85.12500318321815 6.951173626239483 84.70302299616887 7.5761692812406105C84.2850426213191 8.197265119347206 83.72081911292443 8.50780053898738 83.00985249445989 8.50780053898738C82.63087028855544 8.50780053898738 82.27538697932317 8.414054940561149 81.94340256676307 8.226563743708684C81.61516797814002 8.035147731135442 81.35543017343375 7.783209560218224 81.16393916438176 7.470699233304537V10.76366962068998H80.24998207679161V2.2441396324275087H81.16393916438176V3.03515749230018ZM81.16393916438176 3.943364849853516V6.480470726834811C81.33593108896109 6.824229586557242 81.56842017305814 7.111316107177735 81.86140641667293 7.34180528517503C82.15439266028771 7.572269464346079 82.45712844613882 7.68748905451848 82.76961377422626 7.68748905451848C83.2618406630296 7.68748905451848 83.65232232900766 7.457024875347431 83.94130876042293 6.996096517005334C84.2342950040377 6.535168158663236 84.3807881258451 5.962895028217022 84.3807881258451 5.279302124492939C84.3807881258451 4.576160138643704 84.24229462843675 4.001962098576473 83.96480765709511 3.5566330078125C83.68757067401593 3.1113289158747746 83.30083883197491 2.8886643704927883 82.80461213097205 2.8886643704927883C82.16014239032452 2.8886643704927883 81.61316807204027 3.2402228640042816 81.16393916438176 3.943364849853516Z" fill="#322D29"></path><path d="M92.43740984872672 2.2441396324275087L90.1230185147799 8.349607966496395C89.78703429002029 9.248040782987154 89.45304997136043 9.875011345261793 89.12106555880032 10.230469655667818C88.79308095843976 10.585927966073843 88.41784857647235 10.76366962068998 87.99611837768555 10.76366962068998C87.62113598398061 10.76366962068998 87.24990341421275 10.695322829730694 86.88292064490685 10.558604248985878L87.03516349675105 9.826163638775165C87.33214955256537 9.919934236027645 87.59763708730844 9.96680703524076 87.83212607750527 9.96680703524076C88.16011067786583 9.96680703524076 88.42959802480844 9.839837996732271 88.64058811833308 9.585949917367788C88.85157821185773 9.332036839177059 89.06456821148211 8.916006372774564 89.27930812894381 8.337883516986553L86.98816570340671 2.2441396324275087H87.98436892934946L89.7127877760667 7.113291014451247L91.44145661104643 2.2441396324275087H92.43740984872672Z" fill="#322D29"></path><path d="M99.9668063260592 8.349607966496395H98.76561272489108L96.17573432570238 5.314450474196215L95.57801239013672 5.830076264366737V8.349607966496395H94.66405530254657V2.2441396324275087H95.57801239013672V4.822273583045373L98.4433778545673 2.2441396324275087H99.60932311072717L96.82620378464918 4.740227435302734L99.9668063260592 8.349607966496395Z" fill="#322D29"></path><path d="M106.55274710083008 8.349607966496395H105.62704056490385V3.6211049807035005L102.91416794057993 8.349607966496395H101.8712169095553V2.2441396324275087H102.78517399714544V6.996096517005334L105.50979606980545 2.2441396324275087H106.55274710083008V8.349607966496395Z" fill="#322D29"></path><path d="M116.95900850266678 2.771494871873122C117.35348998084434 2.3222659642146186 117.90821393526517 2.0976565101506157 118.62293037766678 2.0976565101506157C119.46289093956581 2.0976565101506157 120.13085957688551 2.390625254587027 120.6268362896259 2.976560243577224C121.12306299062875 3.562507731980544 121.37105134699895 4.333996508789062 121.37105134699895 5.291026574002779C121.37105134699895 6.255856273005559 121.12306299062875 7.0331947751558745 120.6268362896259 7.623042080453726C120.13085957688551 8.212889385751577 119.46289093956581 8.50780053898738 118.62293037766678 8.50780053898738C117.77921999183069 8.50780053898738 117.10925144841121 8.214839294198843 116.61327473567083 7.6289168046217695C116.12104784686748 7.039069499323918 115.87505939659705 6.25975608990009 115.87505939659705 5.291026574002779V5.255853225473257C115.87505939659705 1.7519527417461689 116.82026501699595 0 118.71092624605619 0C118.98816322913538 0 119.29089901498648 0.023437499554912863 119.61913360360953 0.07031244866708608C119.88862095055214 0.10937511458411583 120.12111003464919 0.12890619755436825 120.31635086763822 0.12890619755436825C120.61708674738958 0.12890619755436825 120.84582600754958 0.08984378162560096 121.0020686715933 0.011718749777456431V0.802734809734638C120.75983004525992 0.8730465084369367 120.53134077336239 0.9082023577880859 120.31635086763822 0.9082023577880859C120.06261278123122 0.9082023577880859 119.76562672541691 0.8867183665114183 119.42589267672025 0.843750383958083C119.13665625704252 0.8085945346069335 118.90241725510818 0.7910153599900467 118.72267569439228 0.7910153599900467C118.23044880558895 0.7910153599900467 117.84171705744816 0.9433582071392353 117.55673043823244 1.2480464013202375C117.27149383075421 1.5488272789588342 117.07225318556566 2.056640935927171 116.95900850266678 2.771494871873122ZM118.62293037766678 7.710937953538161C119.1776543320876 7.710937953538161 119.61513379141 7.4765739574725805 119.93561874389648 7.007820966515174C120.2558537081205 6.539067975557767 120.41609618436374 5.970694662006085 120.41609618436374 5.302726024686374C120.41609618436374 4.599609037663386 120.25785361422025 4.0214861818753755 119.9413684739333 3.568357457322341C119.62488333364634 3.115228732769306 119.18565395648663 2.8886643704927883 118.62293037766678 2.8886643704927883C118.05670696317233 2.8886643704927883 117.61722759775014 3.11327882432204 117.30474226966271 3.562507731980544C116.99225694157526 4.007811823918269 116.83601427753155 4.587884588153545 116.83601427753155 5.302726024686374C116.83601427753155 5.9824191115159255 116.99425684767503 6.554692241962139 117.31049199969952 7.019520417198768C117.62697713998648 7.480473774367113 118.06445659930888 7.710937953538161 118.62293037766678 7.710937953538161Z" fill="#322D29"></path><path d="M128.71295662747897 8.349607966496395H127.79874955162636V2.2441396324275087H128.71295662747897V8.349607966496395ZM123.82618607271634 4.546886513108474H124.46490608332707C125.24211959134617 4.546886513108474 125.84559125694862 4.718753443556566 126.27532108013446 5.0625123032789965C126.70905071551984 5.402346347280648 126.92579053908128 5.86914942979079 126.92579053908128 6.462896551983173C126.92579053908128 7.068368123685397 126.71480044555663 7.535146207369291 126.29307024676984 7.86328080068735C125.87109005972054 8.187490578284631 125.26561848801833 8.349607966496395 124.47665553166317 8.349607966496395H122.91797871516302V2.2441396324275087H123.82618607271634V4.546886513108474ZM123.82618607271634 7.558595106388973H124.46490608332707C124.93363407545823 7.558595106388973 125.29886692692683 7.466799416410006 125.56060463773288 7.2832080364520735C125.82234234853891 7.0956918407733625 125.9530862098107 6.822254679283729 125.9530862098107 6.462896551983173C125.9530862098107 6.095713792067308 125.82034244243916 5.816401906409631 125.5546049194336 5.625010892662636C125.29286720862756 5.433594880089393 124.92963426325872 5.337899373215896 124.46490608332707 5.337899373215896H123.82618607271634V7.558595106388973Z" fill="#322D29"></path><path d="M135.38089355233998 8.349607966496395H134.45518701641376V3.03515749230018H131.61332044865534V6.6445380234938405C131.61332044865534 7.343755193622296 131.48832631742036 7.820307818368764 131.23833805495042 8.074220896559495C130.99209961641753 8.328133974750227 130.56436969933145 8.455078014432466 129.95514830369217 8.455078014432466H129.72665903179464V7.664065154325045H129.7851562852126C130.156138866718 7.664065154325045 130.40037739915113 7.578119189687876 130.51762189424957 7.406252259239784C130.638616213285 7.234385328791692 130.69911337280274 6.949223717792218 130.69911337280274 6.550792425067608V2.2441396324275087H135.38089355233998V8.349607966496395Z" fill="#322D29"></path><path d="M142.58780517108625 8.349607966496395H141.66209863516V3.6211049807035005L138.94922601083607 8.349607966496395H137.90627497981143V2.2441396324275087H138.8202320674016V6.996096517005334L141.5448541400616 2.2441396324275087H142.58780517108625V8.349607966496395Z" fill="#322D29"></path><path d="M157.00187839684122 8.144542594792293C156.47065333909256 8.386731223473182 155.88668075796275 8.50780053898738 155.24996065345178 8.50780053898738C154.28900577251727 8.50780053898738 153.52154180673452 8.216789202646108 152.94731876784104 7.634766529963567C152.37684555288462 7.048819041560247 152.09185893366887 6.27148053940993 152.09185893366887 5.302726024686374C152.09185893366887 4.333996508789062 152.3788454589844 3.5585829162597657 152.95306849787787 2.976560243577224C153.53129134897085 2.390625254587027 154.28900577251727 2.0976565101506157 155.2264617567796 2.0976565101506157C155.83993295288087 2.0976565101506157 156.4239055340107 2.205078966416579 156.9786294884315 2.4199213790658805L156.73839076819786 3.175775889939528C156.18366681377705 2.984384876192533 155.68369028883714 2.8886643704927883 155.23821120511568 2.8886643704927883C154.56649274385893 2.8886643704927883 154.03326778001053 3.1054791905329777 153.6387863018329 3.5390588329608623C153.2480546475924 3.972663474214994 153.05281381460338 4.560535872239333 153.05281381460338 5.302726024686374C153.05281381460338 5.9824191115159255 153.25580428372896 6.554692241962139 153.66203521024264 7.019520417198768C154.0682661367563 7.480473774367113 154.59774127666765 7.710937953538161 155.24996065345178 7.710937953538161C155.76568643892728 7.710937953538161 156.29691149667593 7.611317630943885 156.84363582669772 7.4121019845815805L157.00187839684122 8.144542594792293Z" fill="#322D29"></path><path d="M163.1368403461163 5.109385102492113C163.5038231154222 5.187506434513972 163.80855880737303 5.357423456514799 164.05079743370644 5.619136168494591C164.2930360600398 5.880848880474384 164.41403037907529 6.158210857684796 164.41403037907529 6.451172102473333C164.41403037907529 7.0566436741755565 164.20304028555063 7.525396665132964 163.78131008676382 7.857431075345553C163.36332971191408 8.185540669837364 162.87685255314753 8.349607966496395 162.3223785869892 8.349607966496395H159.52725982431267V2.2441396324275087H161.95314592332105C162.58986602783202 2.2441396324275087 163.1035919072078 2.390625254587027 163.49407357318583 2.683598998788687C163.88855505136345 2.976560243577224 164.0860457787147 3.369141810960036 164.0860457787147 3.8613187021108772C164.0860457787147 4.154304945725661 163.99405009812574 4.417967566152719 163.81055871347283 4.652331562218299C163.62706732881986 4.8867205571101255 163.40232788085936 5.0390634042593145 163.1368403461163 5.109385102492113ZM160.44146690016527 4.751951884812575H161.97664481999325C162.74210887967624 4.751951884812575 163.12509089778018 4.466790273813101 163.12509089778018 3.8964920506403997C163.12509089778018 3.630854522939829 163.01559603881836 3.421864335514949 162.79685630915714 3.26952148836576C162.57811657949594 3.11327882432204 162.29287997201774 3.03515749230018 161.941396474985 3.03515749230018H160.44146690016527V4.751951884812575ZM160.44146690016527 7.558595106388973H162.15813629854642C162.53311869225135 7.558595106388973 162.839854290302 7.462899599515476 163.07809310443585 7.2714835869422325C163.32033173076923 7.08006757436899 163.4413260498047 6.816404953941932 163.4413260498047 6.480470726834811C163.4413260498047 6.183584666325496 163.30858228243315 5.953120487154448 163.0428447594276 5.789053190495418C162.781357036884 5.625010892662636 162.43762317598782 5.542964744919996 162.01164317673903 5.542964744919996H160.44146690016527V7.558595106388973Z" fill="#322D29"></path><path d="M169.07231166194038 2.0976565101506157C169.91202223557693 2.0976565101506157 170.57999087289664 2.390625254587027 171.0762175738995 2.976560243577224C171.57219428663987 3.562507731980544 171.82043263127252 4.333996508789062 171.82043263127252 5.291026574002779C171.82043263127252 6.255856273005559 171.57219428663987 7.0331947751558745 171.0762175738995 7.623042080453726C170.57999087289664 8.212889385751577 169.91202223557693 8.50780053898738 169.07231166194038 8.50780053898738C168.22860127610429 8.50780053898738 167.5586327326848 8.214839294198843 167.06240603168195 7.6289168046217695C166.57042913114108 7.039069499323918 166.32419069260817 6.25975608990009 166.32419069260817 5.291026574002779C166.32419069260817 4.330071693068285 166.57217904897837 3.5585829162597657 167.06840574998122 2.976560243577224C167.5643824627216 2.390625254587027 168.2323511000413 2.0976565101506157 169.07231166194038 2.0976565101506157ZM169.07231166194038 7.710937953538161C169.62703561636118 7.710937953538161 170.0645150756836 7.4765739574725805 170.3847500399076 7.007820966515174C170.7049850041316 6.539067975557767 170.86522748037487 5.970694662006085 170.86522748037487 5.302726024686374C170.86522748037487 4.599609037663386 170.70698491023137 4.0214861818753755 170.39074975820688 3.568357457322341C170.0742646179199 3.115228732769306 169.63478525249775 2.8886643704927883 169.07231166194038 2.8886643704927883C168.50583825918343 2.8886643704927883 168.06635889376128 3.11327882432204 167.75387356567384 3.562507731980544C167.4413882375864 4.007811823918269 167.28514557354268 4.587884588153545 167.28514557354268 5.302726024686374C167.28514557354268 5.9824191115159255 167.44338814368615 6.554692241962139 167.75987328397312 7.019520417198768C168.0761084359976 7.480473774367113 168.51358789532003 7.710937953538161 169.07231166194038 7.710937953538161Z" fill="#322D29"></path><path d="M174.6153014056866 2.771494871873122C175.00978288386418 2.3222659642146186 175.564506838285 2.0976565101506157 176.2792232806866 2.0976565101506157C177.11918384258564 2.0976565101506157 177.78715247990536 2.390625254587027 178.28312919264576 2.976560243577224C178.77935589364859 3.562507731980544 179.02734425001879 4.333996508789062 179.02734425001879 5.291026574002779C179.02734425001879 6.255856273005559 178.77935589364859 7.0331947751558745 178.28312919264576 7.623042080453726C177.78715247990536 8.212889385751577 177.11918384258564 8.50780053898738 176.2792232806866 8.50780053898738C175.43551289485052 8.50780053898738 174.76554435143106 8.214839294198843 174.26956763869066 7.6289168046217695C173.77734074988734 7.039069499323918 173.53135229961688 6.25975608990009 173.53135229961688 5.291026574002779V5.255853225473257C173.53135229961688 1.7519527417461689 174.47655792001578 0 176.36721914907602 0C176.6444561321552 0 176.94719191800633 0.023437499554912863 177.27542650662934 0.07031244866708608C177.54491385357196 0.10937511458411583 177.77740293766902 0.12890619755436825 177.97264377065804 0.12890619755436825C178.2733796504094 0.12890619755436825 178.50186892230695 0.08984378162560096 178.65811158635069 0.011718749777456431V0.802734809734638C178.41612294827974 0.8730465084369367 178.18738368811975 0.9082023577880859 177.97264377065804 0.9082023577880859C177.7186556959886 0.9082023577880859 177.42191962843674 0.8867183665114183 177.08193559147762 0.843750383958083C176.79294916006236 0.8085945346069335 176.558710158128 0.7910153599900467 176.3789685974121 0.7910153599900467C175.88674170860878 0.7910153599900467 175.49800996046798 0.9433582071392353 175.21277335298979 1.2480464013202375C174.92778673377404 1.5488272789588342 174.7285460885855 2.056640935927171 174.6153014056866 2.771494871873122ZM176.2792232806866 7.710937953538161C176.83394723510744 7.710937953538161 177.27142669442983 7.4765739574725805 177.59191164691632 7.007820966515174C177.91214661114034 6.539067975557767 178.07238908738356 5.970694662006085 178.07238908738356 5.302726024686374C178.07238908738356 4.599609037663386 177.9141465172401 4.0214861818753755 177.5976613769531 3.568357457322341C177.28117623666617 3.115228732769306 176.84169687124398 2.8886643704927883 176.2792232806866 2.8886643704927883C175.71299986619215 2.8886643704927883 175.27352050076996 3.11327882432204 174.96103517268253 3.562507731980544C174.6485498445951 4.007811823918269 174.49230718055136 4.587884588153545 174.49230718055136 5.302726024686374C174.49230718055136 5.9824191115159255 174.6502997624324 6.554692241962139 174.96678490271935 7.019520417198768C175.28327004300633 7.480473774367113 175.72074950232874 7.710937953538161 176.2792232806866 7.710937953538161Z" fill="#322D29"></path><path d="M183.48638488769532 2.0976565101506157C184.3260954613319 2.0976565101506157 184.9940640986516 2.390625254587027 185.49029079965445 2.976560243577224C185.98626751239485 3.562507731980544 186.23425586876502 4.333996508789062 186.23425586876502 5.291026574002779C186.23425586876502 6.255856273005559 185.98626751239485 7.0331947751558745 185.49029079965445 7.623042080453726C184.9940640986516 8.212889385751577 184.3260954613319 8.50780053898738 183.48638488769532 8.50780053898738C182.64267450185923 8.50780053898738 181.97270595843975 8.214839294198843 181.47647925743692 7.6289168046217695C180.98425236863358 7.039069499323918 180.73826391836312 6.25975608990009 180.73826391836312 5.291026574002779C180.73826391836312 4.330071693068285 180.98625227473335 3.5585829162597657 181.4824789757362 2.976560243577224C181.97845568847657 2.390625254587027 182.6464243257963 2.0976565101506157 183.48638488769532 2.0976565101506157ZM183.48638488769532 7.710937953538161C184.04110884211613 7.710937953538161 184.47858830143855 7.4765739574725805 184.79882326566258 7.007820966515174C185.11905822988658 6.539067975557767 185.27930070612982 5.970694662006085 185.27930070612982 5.302726024686374C185.27930070612982 4.599609037663386 185.12105813598635 4.0214861818753755 184.80457299569937 3.568357457322341C184.48833784367488 3.115228732769306 184.04885847825273 2.8886643704927883 183.48638488769532 2.8886643704927883C182.9199114849384 2.8886643704927883 182.48043211951622 3.11327882432204 182.1679467914288 3.562507731980544C181.85546146334136 4.007811823918269 181.69921879929763 4.587884588153545 181.69921879929763 5.302726024686374C181.69921879929763 5.9824191115159255 181.85746136944113 6.554692241962139 182.17394650972807 7.019520417198768C182.49018166175256 7.480473774367113 182.92766112107498 7.710937953538161 183.48638488769532 7.710937953538161Z" fill="#322D29"></path><path d="M193.6114094942533 9.550776568838266H192.6972024184007V8.349607966496395H188.414153517503V9.550776568838266H187.50594615994967V7.558595106388973H187.99792306049054C188.46290122868464 7.160163813664363 188.83988352848934 6.593740408559946 189.12886995990462 5.859374888728215C189.42185620351938 5.125009368896484 189.56834932532678 4.291023526470478 189.56834932532678 3.3574173614501954V2.2441396324275087H192.9374411386343V7.558595106388973H193.6114094942533V9.550776568838266ZM192.029233781081 7.558595106388973V3.03515749230018H190.48230641291693V3.1406275402362533C190.48230641291693 4.058584440025916 190.35931218778168 4.90624464040903 190.11332373751128 5.683583142559344C189.87108511117788 6.4570218278151295 189.55659987699067 7.082042481642503 189.16986803494967 7.558595106388973H192.029233781081Z" fill="#322D29"></path><path d="M200.24409807410606 8.349607966496395H199.31839153817984V5.337899373215896H196.47652497042142V8.349607966496395H195.5625678828313V2.2441396324275087H196.47652497042142V4.546886513108474H199.31839153817984V2.2441396324275087H200.24409807410606V8.349607966496395Z" fill="#322D29"></path><path d="M207.990234375 8.349607966496395H207.07627728740988V2.2441396324275087H207.990234375V8.349607966496395ZM203.10346382023738 4.546886513108474H203.7421838308481C204.51964732712966 4.546886513108474 205.12311899273212 4.718753443556566 205.55284881591797 5.0625123032789965C205.98632846304088 5.402346347280648 206.2030682866023 5.86914942979079 206.2030682866023 6.462896551983173C206.2030682866023 7.068368123685397 205.99207819307767 7.535146207369291 205.57034799429087 7.86328080068735C205.14836780724158 8.187490578284631 204.5428962355394 8.349607966496395 203.7539332791842 8.349607966496395H202.19525646268403V2.2441396324275087H203.10346382023738V4.546886513108474ZM203.10346382023738 7.558595106388973H203.7421838308481C204.21091182297926 7.558595106388973 204.57614467444785 7.466799416410006 204.83788238525392 7.2832080364520735C205.09962009605997 7.0956918407733625 205.23036395733175 6.822254679283729 205.23036395733175 6.462896551983173C205.23036395733175 6.095713792067308 205.0976201899602 5.816401906409631 204.8321326552171 5.625010892662636C204.57039494441108 5.433594880089393 204.20691201077975 5.337899373215896 203.7421838308481 5.337899373215896H203.10346382023738V7.558595106388973Z" fill="#322D29"></path><path d="M6.228507557091346 21.55078814039964H5.314450474196215V20.349619538057766H1.031249080458421V21.55078814039964H0.12304697265859751V19.5585816791241H0.6152336133516753C1.0800792877666767 19.16015038639949 1.457031588979868 18.59375198012132 1.7460930168738733 17.85938646028959C2.039061761310284 17.124995941631614 2.1855473834698014 16.291010099205604 2.1855473834698014 15.357428933011569V14.244131204927884H5.554689194429837V19.5585816791241H6.228507557091346V21.55078814039964ZM4.646481836876503 19.5585816791241V15.035144065035306H3.0996044663649336V15.14061411297138C3.0996044663649336 16.058596011587287 2.976560243577224 16.906256211970405 2.730471798001803 17.68359471412072C2.488280669438289 18.457033399376503 2.17382793372521 19.082029054377628 1.7871085910973181 19.5585816791241H4.646481836876503Z" fill="#322D29"></path><path d="M12.861321131075345 20.349619538057766H11.935539598670372V15.035144065035306H9.093748027390701V18.644524596228965C9.093748027390701 19.343741766357425 8.968753896155723 19.820319389930138 8.718740634859527 20.074207469294624C8.472652189284105 20.32812054748535 8.044922272198017 20.455089585993843 7.4355508836012625 20.455089585993843H7.207036612877479V19.66405172706017H7.265633861600436C7.636716438410833 19.66405172706017 7.880854975538988 19.57813076124925 7.998049472984901 19.40623883197491C8.119143787325346 19.23437190152682 8.179690944495569 18.949210290527343 8.179690944495569 18.550778997802734V14.244131204927884H12.861321131075345V20.349619538057766Z" fill="#322D29"></path><path d="M19.740223150634765 20.349619538057766H18.832040791907676V17.853511736121543H17.83593756126991L16.083994819054237 20.349619538057766H15.029294339693509L16.957028828078048 17.62499746539776C16.55859753535344 17.50390315105732 16.242187391545222 17.291013146737907 16.007823395479644 16.98632745243953C15.777334217482347 16.68164175814115 15.662114627309947 16.3418077141395 15.662114627309947 15.966800321608323C15.662114627309947 15.431650448138898 15.843756098820613 15.011720164841872 16.207039041841945 14.707034470543494C16.570321984863284 14.398448959350587 17.068348601355922 14.244131204927884 17.701168888972358 14.244131204927884H19.740223150634765V20.349619538057766ZM18.832040791907676 17.062498876014125V15.046868514545148H17.812488662250225C17.425781819035457 15.046868514545148 17.124995941631614 15.128914662287787 16.910156028864932 15.292956960120568C16.695316116098258 15.453124439885066 16.58789615971492 15.677738893714318 16.58789615971492 15.966800321608323C16.58789615971492 16.26758619901217 16.712890290949893 16.52539909409743 16.962878553419845 16.74023900686411C17.212891814716045 16.955078919630783 17.511727783672626 17.062498876014125 17.85938646028959 17.062498876014125H18.832040791907676Z" fill="#322D29"></path><path d="M32.13874101139949 14.097663081946742C32.978451585036055 14.097663081946742 33.64642022235577 14.390624326735276 34.142646923358626 14.976571815138598C34.63862363609901 15.562494304715669 34.8866119924692 16.333983081524188 34.8866119924692 17.291013146737907C34.8866119924692 18.255867844566932 34.63862363609901 19.033206346717247 34.142646923358626 19.623053652015102C33.64642022235577 20.21290095731295 32.978451585036055 20.507812110548752 32.13874101139949 20.507812110548752C31.295030625563403 20.507812110548752 30.62506208214393 20.21485086576022 30.128835381141077 19.628903377356895C29.636608492337743 19.039056072059047 29.390620042067308 18.259767661461463 29.390620042067308 17.291013146737907C29.390620042067308 16.33008326462966 29.6386083984375 15.55859448782114 30.134835099440355 14.976571815138598C30.63081181218074 14.390624326735276 31.29878044950045 14.097663081946742 32.13874101139949 14.097663081946742ZM32.13874101139949 19.710949525099533C32.69346496582031 19.710949525099533 33.13094442514273 19.476560530207706 33.451179389366736 19.0078075392503C33.77141435359075 18.539054548292896 33.93165682983398 17.97070623356746 33.93165682983398 17.30273759624775C33.93165682983398 16.59962060922476 33.773414259690504 16.0214727546105 33.45692911940355 15.568369028883716C33.14069396737906 15.11524030433068 32.701214601956885 14.888675942054162 32.13874101139949 14.888675942054162C31.57226760864258 14.888675942054162 31.132788243220404 15.113290395883414 30.820302915132963 15.562494304715669C30.507817587045526 16.007823395479644 30.351574923001806 16.58789615971492 30.351574923001806 17.30273759624775C30.351574923001806 17.982430683077297 30.509817493145285 18.554678814697265 30.826052645169774 19.01953198876014C31.142537785456728 19.480460347102238 31.580017244779146 19.710949525099533 32.13874101139949 19.710949525099533Z" fill="#322D29"></path><path d="M37.681730755145736 14.771481444608249C38.07621223332332 14.322277535775992 38.63093618774414 14.097663081946742 39.34565263014573 14.097663081946742C40.18561319204477 14.097663081946742 40.85358182936449 14.390624326735276 41.34955854210487 14.976571815138598C41.84578524310772 15.562494304715669 42.09377359947792 16.333983081524188 42.09377359947792 17.291013146737907C42.09377359947792 18.255867844566932 41.84578524310772 19.033206346717247 41.34955854210487 19.623053652015102C40.85358182936449 20.21290095731295 40.18561319204477 20.507812110548752 39.34565263014573 20.507812110548752C38.501942244309646 20.507812110548752 37.831973700890174 20.21485086576022 37.33599698814979 19.628903377356895C36.84377009934646 19.039056072059047 36.59753166081355 18.259767661461463 36.59753166081355 17.291013146737907V17.255864797034633C36.59753166081355 13.751954313777043 37.542987269474914 12.000011571561373 39.433648498535156 12.000011571561373C39.71088548161433 12.000011571561373 40.013621267465446 12.023435471754807 40.34185585608849 12.070308270967923C40.611343203031105 12.109381436391978 40.84383228712816 12.12890551969088 41.03907312011719 12.12890551969088C41.33980899986854 12.12890551969088 41.568298271766075 12.089832354266829 41.7245409358098 12.011711022244969V12.802723882352389C41.48230230947642 12.873045580585186 41.25381303757887 12.90819393028846 41.03907312011719 12.90819393028846C40.785085045447715 12.90819393028846 40.48834897789589 12.886719938542294 40.14836494093675 12.843746956223708C39.859378509521484 12.808598606520434 39.62488951932467 12.791024431668795 39.44539794687124 12.791024431668795C38.95317105806791 12.791024431668795 38.56443930992713 12.943367278817984 38.27920270244892 13.248052973116362C37.99421608323318 13.548838850520207 37.794975438044624 14.056640008075421 37.681730755145736 14.771481444608249ZM39.34565263014573 19.710949525099533C39.90037658456656 19.710949525099533 40.337856043888976 19.476560530207706 40.658091008112976 19.0078075392503C40.97857596059946 18.539054548292896 41.13856844858023 17.97070623356746 41.13856844858023 17.30273759624775C41.13856844858023 16.59962060922476 40.98057586669922 16.0214727546105 40.664090726412255 15.568369028883716C40.3476055861253 15.11524030433068 39.908126220703124 14.888675942054162 39.34565263014573 14.888675942054162C38.77917922738882 14.888675942054162 38.33994985022912 15.113290395883414 38.02746452214168 15.562494304715669C37.71472920579177 16.007823395479644 37.55848654174805 16.58789615971492 37.55848654174805 17.30273759624775C37.55848654174805 17.982430683077297 37.716729111891524 18.554678814697265 38.03321425217848 19.01953198876014C38.349699392465446 19.480460347102238 38.787178851787864 19.710949525099533 39.34565263014573 19.710949525099533Z" fill="#322D29"></path><path d="M45.990340646597055 16.5468730858436H46.62881066894531C47.41402380136343 16.5468730858436 48.01949537306565 16.71484019939716 48.44522538405198 17.050774426504283C48.874955207237825 17.386708653611404 49.08994511296199 17.857411553016078 49.08994511296199 18.4628831247183C49.08994511296199 19.06055506263146 48.880954925537104 19.525383237868088 48.46297455068735 19.85741764808068C48.04499417583759 20.18555224139874 47.43752269803561 20.349619538057766 46.6405601172814 20.349619538057766H45.07613357074444V15.035144065035306H43.19522188392052V14.244131204927884H45.990340646597055V16.5468730858436ZM45.990340646597055 19.5585816791241H46.62881066894531C47.09753866107647 19.5585816791241 47.46477141864483 19.464836080697868 47.73050894165039 19.2773448838454C47.99599647639348 19.08985368699294 48.1289902320275 18.818366433950573 48.1289902320275 18.4628831247183C48.1289902320275 18.06055201509916 47.9824971102201 17.77344049565242 47.68951086660532 17.601573565204326C47.40027444692759 17.425781819035457 47.046791043795075 17.337885945951022 46.62881066894531 17.337885945951022H45.990340646597055V19.5585816791241Z" fill="#322D29"></path><path d="M55.77538121619591 20.349619538057766H54.86717385864258V17.853511736121543H53.87097063269982L52.119052889310396 20.349619538057766H51.06435240994967L52.992261890117945 17.62499746539776C52.59378059974083 17.50390315105732 52.277295459453875 17.291013146737907 52.043056457519526 16.98632745243953C51.812567279522234 16.68164175814115 51.69732269052359 16.3418077141395 51.69732269052359 15.966800321608323C51.69732269052359 15.431650448138898 51.878814169076776 15.011720164841872 52.242297102708086 14.707034470543494C52.60553004807692 14.398448959350587 53.10350666691707 14.244131204927884 53.73622695922852 14.244131204927884H55.77538121619591V20.349619538057766ZM54.86717385864258 17.062498876014125V15.046868514545148H53.84772172429012C53.4609898822491 15.046868514545148 53.16025400249775 15.128914662287787 52.945264096773585 15.292956960120568C52.7305241793119 15.453124439885066 52.62302922644982 15.677738893714318 52.62302922644982 15.966800321608323C52.62302922644982 16.26758619901217 52.7480233576848 16.52539909409743 52.99801162015475 16.74023900686411C53.247999882624704 16.955078919630783 53.54698584453877 17.062498876014125 53.894469529371996 17.062498876014125H54.86717385864258Z" fill="#322D29"></path><path d="M63.439521366999706 15.035144065035306H61.42386600670448V20.349619538057766H60.51565864915115V15.035144065035306H58.50000328885592V14.244131204927884H63.439521366999706V15.035144065035306Z" fill="#322D29"></path><path d="M70.51768903057392 20.349619538057766H69.59173250638521V15.621091553438626L66.8788598820613 20.349619538057766H65.83590885103666V14.244131204927884H66.75011592688926V18.99608308974046L69.47448801128681 14.244131204927884H70.51768903057392V20.349619538057766Z" fill="#322D29"></path><path d="M77.72460064932017 20.349619538057766H76.79889411339393V15.621091553438626L74.08602148907002 20.349619538057766H73.04307045804536V14.244131204927884H73.95702754563551V18.99608308974046L76.68164961829552 14.244131204927884H77.72460064932017V20.349619538057766ZM77.42586467566858 11.771472302011343C77.21887439434344 12.74805144935021 76.53315659038837 13.23632852360652 75.36921124032827 13.23632852360652C74.8299865581806 13.23632852360652 74.37900773268478 13.109384483924279 74.0155247990535 12.85547140573355C73.65629166588417 12.597658510648287 73.42380258178711 12.236325476074219 73.31830753502479 11.771472302011343H74.14451874248797C74.3165106670673 12.216801392775317 74.72449151141826 12.439440939331055 75.36921124032827 12.439440939331055C75.79894106351412 12.439440939331055 76.08992740102916 12.380868689434344 76.24217025287335 12.263674191988432C76.39441310471754 12.142579877647988 76.5079077758789 11.978512580988957 76.58215428983249 11.771472302011343H77.42586467566858Z" fill="#322D29"></path><path d="M82.5996217557467 20.507812110548752C82.39638129835862 20.48436321152907 82.2286391742413 20.400392154165417 82.09564541860728 20.255848940805286C81.96290165123574 20.11133072627141 81.89640477341872 19.94726342961238 81.89640477341872 19.76367204965445C81.89640477341872 19.56445640329214 81.96090174513597 19.396489289738582 82.08989568857046 19.259770708993763C82.21863964374249 19.12305212824895 82.38088202608549 19.054680338463417 82.57612285907452 19.054680338463417C82.79486258873573 19.054680338463417 82.98435369168794 19.144526119995117 83.14459616793118 19.324217683058517C83.30458865591196 19.500009429227386 83.38483488816482 19.7128994335468 83.38483488816482 19.962887696016754C83.38483488816482 20.728526747483475 82.95910487717848 21.32617368657039 82.10739486694335 21.75585351210374L81.88465532508263 21.33397332035945C82.36138294161283 21.09960932429387 82.5996217557467 20.82422225435697 82.5996217557467 20.507812110548752Z" fill="#322D29"></path><path d="M95.3377736699031 14.771481444608249C95.73250513634315 14.322277535775992 96.28722909076397 14.097663081946742 97.00194553316557 14.097663081946742C97.84190609506462 14.097663081946742 98.50987473238432 14.390624326735276 99.00585144512469 14.976571815138598C99.50182815786509 15.562494304715669 99.75006650249775 16.333983081524188 99.75006650249775 17.291013146737907C99.75006650249775 18.255867844566932 99.50182815786509 19.033206346717247 99.00585144512469 19.623053652015102C98.50987473238432 20.21290095731295 97.84190609506462 20.507812110548752 97.00194553316557 20.507812110548752C96.15823514732948 20.507812110548752 95.48826660391 20.21485086576022 94.99228989116963 19.628903377356895C94.50006300236628 19.039056072059047 94.25382456383339 18.259767661461463 94.25382456383339 17.291013146737907V17.255864797034633C94.25382456383339 13.751954313777043 95.19928017249474 12.000011571561373 97.08994140155498 12.000011571561373C97.36717838463417 12.000011571561373 97.66991417048527 12.023435471754807 97.99814875910833 12.070308270967923C98.26763610605093 12.109381436391978 98.49987520188552 12.12890551969088 98.69536602313703 12.12890551969088C98.99610190288837 12.12890551969088 99.2245911747859 12.089832354266829 99.38083383882962 12.011711022244969V12.802723882352389C99.13859521249624 12.873045580585186 98.91010594059871 12.90819393028846 98.69536602313703 12.90819393028846C98.44137794846755 12.90819393028846 98.14464188091571 12.886719938542294 97.80465784395659 12.843746956223708C97.51567141254132 12.808598606520434 97.2811824223445 12.791024431668795 97.1014408616286 12.791024431668795C96.60946396108774 12.791024431668795 96.22073221294697 12.943367278817984 95.93549560546874 13.248052973116362C95.650508986253 13.548838850520207 95.45126834106445 14.056640008075421 95.3377736699031 14.771481444608249ZM97.00194553316557 19.710949525099533C97.55666948758639 19.710949525099533 97.99414894690881 19.476560530207706 98.31438391113282 19.0078075392503C98.63486886361929 18.539054548292896 98.79486135160006 17.97070623356746 98.79486135160006 17.30273759624775C98.79486135160006 16.59962060922476 98.63661878145658 16.0214727546105 98.3203836294321 15.568369028883716C98.00389848914513 15.11524030433068 97.56441912372296 14.888675942054162 97.00194553316557 14.888675942054162C96.43547213040866 14.888675942054162 95.99599276498648 15.113290395883414 95.68350743689905 15.562494304715669C95.3710221088116 16.007823395479644 95.21477944476788 16.58789615971492 95.21477944476788 17.30273759624775C95.21477944476788 17.982430683077297 95.37302201491136 18.554678814697265 95.68950715519833 19.01953198876014C96.0057423072228 19.480460347102238 96.44347175480769 19.710949525099533 97.00194553316557 19.710949525099533Z" fill="#322D29"></path><path d="M106.85148307448166 14.244131204927884L104.53709174053486 20.349619538057766C104.20110751577525 21.248052354548527 103.86712319711539 21.874997917996918 103.5351387845553 22.230481227229195C103.20715418419472 22.585939537635216 102.83192180222731 22.76368119225135 102.41019160344051 22.76368119225135C102.03520920973558 22.76368119225135 101.6639766399677 22.69530940246582 101.29699387066181 22.558590821721005L101.449236722506 21.82617521033654C101.74597279005783 21.91992080876277 102.0117103130634 21.966793607975887 102.24619930326023 21.966793607975887C102.57418390362079 21.966793607975887 102.8436712505634 21.839849568293644 103.05466134408805 21.585936490102917C103.26565143761268 21.332023411912186 103.4783914489746 20.91601794433594 103.69338135469877 20.337895088547928L101.40223892916165 14.244131204927884H102.39844215510442L104.12686100182167 19.113277587186374L105.85552983680138 14.244131204927884H106.85148307448166Z" fill="#322D29"></path><path d="M114.33388175846981 21.55078814039964H113.41992467087967V20.349619538057766H109.1366257817195V21.55078814039964H108.22841842416618V19.5585816791241H108.72064531296951C109.1856234811636 19.16015038639949 109.56260578096831 18.59375198012132 109.85159221238357 17.85938646028959C110.14457845599834 17.124995941631614 110.29107157780574 16.291010099205604 110.29107157780574 15.357428933011569V14.244131204927884H113.66016339111327V19.5585816791241H114.33388175846981V21.55078814039964ZM112.75195603355995 19.5585816791241V15.035144065035306H111.20502866539589V15.14061411297138C111.20502866539589 16.058596011587287 111.08203444026067 16.906256211970405 110.83604598999024 17.68359471412072C110.59380736365685 18.457033399376503 110.27932212946965 19.082029054377628 109.89259028742865 19.5585816791241H112.75195603355995Z" fill="#322D29"></path><path d="M121.17181070181039 17.32616149644118H116.98250739933894C116.98250739933894 18.017579032780574 117.1817480445275 18.58790225477952 117.57997934664212 19.037106163611778C117.98246044921875 19.486335071270283 118.47468733802208 19.710949525099533 119.05666001305214 19.710949525099533C119.61138396747296 19.710949525099533 120.18360710026668 19.611329202505257 120.7733294114333 19.412113556142955L120.93157198157678 20.14452916752742C120.39259728769156 20.38671779620831 119.76362681931715 20.507812110548752 119.04491056471605 20.507812110548752C118.13870311326247 20.507812110548752 117.40823741032527 20.21680077420748 116.85351345590445 19.63477810152494C116.29878950148363 19.05273043001615 116.02155251840445 18.267567295250526 116.02155251840445 17.279288697228065C116.02155251840445 16.310559181330756 116.26954087477465 15.539070404522235 116.76551758751502 14.964847365628756C117.2657441007174 14.386724509840745 117.91021384136494 14.097663081946742 118.69917679772011 14.097663081946742C119.40239378004809 14.097663081946742 119.99011618511494 14.36522551926833 120.46284398944562 14.900400391564002C120.93557179377629 15.435550265033429 121.17181070181039 16.14844179311899 121.17181070181039 17.039074975820686V17.32616149644118ZM120.1758574641301 16.582021435546874C120.1758574641301 16.105468810800403 120.02736443622295 15.705087609628531 119.73037838040867 15.380852833205003C119.43364231285682 15.052743238713191 119.10165790029671 14.888675942054162 118.73442514272836 14.888675942054162C118.2616973383977 14.888675942054162 117.86921576631987 15.04491860609788 117.55673043823244 15.357428933011569C117.24799493408203 15.66991426109901 117.07625299776518 16.07812009488619 117.04100465275691 16.582021435546874H120.1758574641301Z" fill="#322D29"></path><path d="M128.74795498422475 20.349619538057766H127.81049899996245V14.98827126582219L126.27532108013446 20.349619538057766H125.32611564753606L123.80268717604417 14.98827126582219V20.349619538057766H122.91797871516302V14.244131204927884H124.49990444007287L125.83009198467548 19.125002036696216L127.22452651273288 14.244131204927884H128.74795498422475V20.349619538057766Z" fill="#322D29"></path><path d="M138.8202320674016 15.035144065035306C139.02347252478967 14.753907269756612 139.29695968393182 14.527342907480094 139.640693544828 14.355475977032C139.98817722966123 14.183584047757662 140.35341008112982 14.097663081946742 140.73639209923377 14.097663081946742C141.4393590932993 14.097663081946742 141.99033322378307 14.388674418288012 142.3885645258977 14.970697090970551C142.7910456284743 15.548819946758565 142.99228617976263 16.302734548715446 142.99228617976263 17.23241589801495C142.99228617976263 18.169921879929763 142.781296086238 18.95116019897461 142.35931589918872 19.576180852801986C141.94133552433894 20.19727669090858 141.3768620276818 20.507812110548752 140.66589540921726 20.507812110548752C140.28716319157527 20.507812110548752 139.93167988234302 20.41406651212252 139.5996954697829 20.22655031644381C139.27146088115984 20.035159302696815 139.01172307645356 19.78319613295335 138.8202320674016 19.47071080486591V22.76368119225135H137.90627497981143V14.244131204927884H138.8202320674016V15.035144065035306ZM138.8202320674016 15.943351422588643V18.480457299569935C138.99222399198092 18.824216159292366 139.22471307607796 19.111327678739105 139.51769931969275 19.341791857910156C139.8104355750451 19.572256037081203 140.1131713608962 19.687500626079853 140.42565668898365 19.687500626079853C140.91788357778697 19.687500626079853 141.30861523202748 19.457036446908806 141.59760166344276 18.99608308974046C141.89058790705755 18.53515473139836 142.03708102886492 17.962881600952148 142.03708102886492 17.279288697228065C142.03708102886492 16.576171710205077 141.89833754319412 16.0019486713116 141.62110056011494 15.556644579373874C141.34386357703576 15.111340487436149 140.95713173499476 14.888675942054162 140.46090503399188 14.888675942054162C139.81643529334437 14.888675942054162 139.2694609750601 15.240234435565656 138.8202320674016 15.943351422588643Z" fill="#322D29"></path><path d="M149.9707085266113 20.349619538057766H149.062501169058C148.9882546551044 20.1035060936561 148.95125639225887 19.775396499164287 148.95125639225887 19.36524075692984C148.43153079458384 20.12695499267578 147.72456398831883 20.507812110548752 146.8301059852013 20.507812110548752C146.3768772653433 20.507812110548752 145.9766460571289 20.347644630784256 145.6289123840332 20.027334670081505C145.28517852313703 19.703124892484222 145.1131865985577 19.287119424907978 145.1131865985577 18.77929326852652C145.1131865985577 18.478507391122672 145.1739337463379 18.212894862248348 145.29492806537334 17.982430683077297C145.41592238440882 17.75194150508 145.59366403902496 17.558600582885745 145.82815302922177 17.402332920015777C146.06239203115612 17.242190439077522 146.34762863863432 17.117196307842548 146.68361286339393 17.027350526310848C147.01959708815355 16.933604927884616 147.41807837853065 16.869132954993614 147.87880674626277 16.83398460529034L148.9042585989145 16.751963456373947V16.458977212759166C148.9042585989145 15.412101366013747 148.4160315223107 14.888675942054162 147.43957736910306 14.888675942054162C147.2090881911058 14.888675942054162 146.916101947491 14.939448558161809 146.56061863825872 15.041018789203351C146.20888515296352 15.138664204524114 145.9061493671124 15.255858701970027 145.65241128070537 15.392577282714845L145.41217256047176 14.736333094904973C146.24413349797177 14.310553086266152 147.01759718205378 14.097663081946742 147.73231362445537 14.097663081946742C149.12299832857573 14.097663081946742 149.81846567476714 14.833978510225737 149.81846567476714 16.306634365609977V18.931636115675705C149.81846567476714 19.4628861722506 149.86921329204853 19.935538980102542 149.9707085266113 20.349619538057766ZM148.9042585989145 18.539054548292896V17.431631544377254C148.08004729755106 17.505853059504584 147.51357389479418 17.57617475773738 147.20508837890625 17.6425716402494C146.9003526869554 17.705068705866886 146.63486515221229 17.824213111760066 146.40812579815204 18.000004857928936C146.1856362445538 18.17577160527156 146.07414147949217 18.414060417057918 146.07414147949217 18.714846294461765C146.07414147949217 18.988283455951397 146.16988698401818 19.20897309405987 146.36137799307016 19.376965206439678C146.5526190138597 19.54493231999324 146.79685754629284 19.628903377356895 147.09384360210714 19.628903377356895C147.41807837853065 19.628903377356895 147.74031324885442 19.5332078704834 148.06054821307842 19.341791857910156C148.38078317730245 19.146476028442382 148.66201997258113 18.878913591120792 148.9042585989145 18.539054548292896Z" fill="#322D29"></path><path d="M157.57610143573467 21.55078814039964H156.66214434814452V20.349619538057766H152.3788454589844V21.55078814039964H151.47063810143104V19.5585816791241H151.96286499023438C152.4278431584285 19.16015038639949 152.8045754699707 18.59375198012132 153.09381188964844 17.85938646028959C153.38679813326323 17.124995941631614 153.53329125507062 16.291010099205604 153.53329125507062 15.357428933011569V14.244131204927884H156.90238306837816V19.5585816791241H157.57610143573467V21.55078814039964ZM155.9941757108248 19.5585816791241V15.035144065035306H154.44724834266074V15.14061411297138C154.44724834266074 16.058596011587287 154.32425411752556 16.906256211970405 154.07801567899264 17.68359471412072C153.83602704092175 18.457033399376503 153.52154180673452 19.082029054377628 153.13480996469352 19.5585816791241H155.9941757108248Z" fill="#322D29"></path><path d="M164.74801469773513 20.349619538057766H163.83405761014498V14.244131204927884H164.74801469773513V20.349619538057766ZM159.8612441429725 16.5468730858436H160.49996415358322C161.2774276498648 16.5468730858436 161.88089931546725 16.718740016291694 162.3106291386531 17.062498876014125C162.74410878577598 17.402332920015777 162.96084860933746 17.869136002525916 162.96084860933746 18.4628831247183C162.96084860933746 19.068354696420524 162.75010850407526 19.535157778930664 162.32812831702597 19.863292372248726C161.9061481299767 20.187502149846004 161.3006765582745 20.349619538057766 160.51171360191933 20.349619538057766H158.95303678541916V14.244131204927884H159.8612441429725V16.5468730858436ZM159.8612441429725 19.5585816791241H160.49996415358322C160.96869214571439 19.5585816791241 161.333924997183 19.466785989145134 161.59566270798905 19.2831946091872C161.8574004187951 19.095703412334736 161.98839426832933 18.8222662508451 161.98839426832933 18.4628831247183C161.98839426832933 18.095700364802436 161.85540051269533 17.816413477971004 161.58991297795222 17.62499746539776C161.32817526714618 17.43358145282452 160.96494232177733 17.337885945951022 160.49996415358322 17.337885945951022H159.8612441429725V19.5585816791241Z" fill="#322D29"></path><path d="M5.654284518197867 32.34973110492413H4.728527984619141V27.03523063307542H1.8867189141610952V30.644561166616587C1.8867189141610952 31.343778336745043 1.76171978316087 31.820255965012773 1.5117190212777945 32.07424403968224C1.2656255759371244 32.328232114351714 0.8378906590857872 32.45497616342398 0.2285155206650954 32.45497616342398H0V31.664013300969053H0.05859374888728216C0.4296873251812275 31.664013300969053 0.6738283621920073 31.578017338679388 0.7910153599900467 31.40627540236253C0.9121096743304913 31.234283477783205 0.9726568315007137 30.949296858567457 0.9726568315007137 30.550815568190355V26.24401778235802H5.654284518197867V32.34973110492413Z" fill="#322D29"></path><path d="M13.066411501605694 29.32612307035006H8.87695820617676C8.87695820617676 30.017590604341947 9.076173852539062 30.58781383103591 9.474605145263672 31.03704273869441C9.87696125370906 31.486271646352915 10.3691381448599 31.7110110943134 10.951160817542442 31.7110110943134C11.505859773137018 31.7110110943134 12.078132903583233 31.61126577758789 12.667980208881085 31.41202513239934L12.82617278137207 32.1444907414363C12.287098092181866 32.38672936776968 11.658202620286207 32.50772368680514 10.93946136685885 32.50772368680514C10.03320391775278 32.50772368680514 9.30273821481558 32.21673734929011 8.748039259221004 31.63476467426007C8.193365302452674 31.052791999230017 7.916003325242263 30.2675788668119 7.916003325242263 29.279375265268182C7.916003325242263 28.31067074819712 8.164066678091196 27.538956981952374 8.660168384962816 26.964733943058896C9.16014490990272 26.386761080228368 9.804689647028995 26.0977746488131 10.593752598689154 26.0977746488131C11.29686958571214 26.0977746488131 11.884766982562725 26.36526208965595 12.357419790414664 26.900486959604116C12.830072598266602 27.435461841289815 13.066411501605694 28.14842836585412 13.066411501605694 29.03913654503456V29.32612307035006ZM12.070308270967923 28.581908012977014C12.070308270967923 28.105430384709287 11.921865240713267 27.70519917649489 11.6250041790302 27.380964400071363C11.328118118520884 27.052729811448316 10.996083708308294 26.88873751126803 10.62890094839243 26.88873751126803C10.15624814054049 26.88873751126803 9.763666573157677 27.04498017531175 9.451181245070238 27.35746550339919C9.142570735051082 27.66995083148663 8.97070380460299 28.07818166410006 8.935555454899713 28.581908012977014H12.070308270967923Z" fill="#322D29"></path><path d="M19.54100750427246 27.03523063307542H17.138670299588718V32.34973110492413H16.224613216693584V26.24401778235802H19.54100750427246V27.03523063307542Z" fill="#322D29"></path><path d="M27.896440197284402 32.34973110492413H26.695246596116288L24.10546819223257 29.314373622013974L23.50782125314566 29.83009940748948V32.34973110492413H22.59373917142428V26.24401778235802H23.50782125314566V28.822146733210637L26.37301172579252 26.24401778235802H27.538956981952374L24.755862654700646 28.740150583120492L27.896440197284402 32.34973110492413Z" fill="#322D29"></path><path d="M34.48238097205529 32.34973110492413H33.55667443612906V27.621203120304987L30.84380181180514 32.34973110492413H29.8008507807805V26.24401778235802H30.71480786837064V30.99604466364934L33.43942994103065 26.24401778235802H34.48238097205529V32.34973110492413Z" fill="#322D29"></path><path d="M42.26376561795748 32.34973110492413H41.32605964543269V26.98823283973107L39.79113171386719 32.34973110492413H38.84167629300631L37.318247821514426 26.98823283973107V32.34973110492413H36.43353936063327V26.24401778235802H38.01571507380559L39.34565263014573 31.125038607083834L40.74033714646559 26.24401778235802H42.26376561795748V32.34973110492413Z" fill="#322D29"></path><path d="M56.103615804818965 32.34973110492413H55.17765928063026V27.03523063307542H52.33604270113432V32.34973110492413H51.4218356252817V26.24401778235802H56.103615804818965V32.34973110492413Z" fill="#322D29"></path><path d="M60.966887462909405 26.0977746488131C61.80659803654598 26.0977746488131 62.47456667386569 26.390510904165414 62.97079337486854 26.976483391394982C63.46677008760892 27.562455878624547 63.71475844397912 28.33391965660682 63.71475844397912 29.29112471360427C63.71475844397912 30.255829418475813 63.46677008760892 31.03329291475736 62.97079337486854 31.62301522592398C62.47456667386569 32.212987525353064 61.80659803654598 32.50772368680514 60.966887462909405 32.50772368680514C60.12292708881085 32.50772368680514 59.45320853365385 32.21473744319036 58.95698183265099 31.629014944223258C58.46475494384766 31.039042644794172 58.21876649357722 30.259829230675333 58.21876649357722 29.29112471360427C58.21876649357722 28.33016983266977 58.466754849947414 27.558706054687498 58.962981550950275 26.976483391394982C59.45895826369066 26.390510904165414 60.12692690101037 26.0977746488131 60.966887462909405 26.0977746488131ZM60.966887462909405 31.7110110943134C61.52136142906776 31.7110110943134 61.959090876652645 31.47652210411659 62.27932584087665 31.00779411198543C62.59956080510066 30.53906611985427 62.7598032813439 29.970592810997598 62.7598032813439 29.302624173677884C62.7598032813439 28.59965717961238 62.60156071120042 28.02143432851938 62.285075570913456 27.568455596923826C61.96884041888897 27.115226877065805 61.52936105346679 26.88873751126803 60.966887462909405 26.88873751126803C60.40041406015249 26.88873751126803 59.96093469473032 27.113226970966046 59.64844936664288 27.562455878624547C59.33596403855544 28.007934962346006 59.179721374511715 28.587907731276292 59.179721374511715 29.302624173677884C59.179721374511715 29.982342259333684 59.3379639446552 30.554565392127405 59.65419909667968 31.019543560321516C59.97068423696665 31.480521916316107 60.408163696289066 31.7110110943134 60.966887462909405 31.7110110943134Z" fill="#322D29"></path><path d="M71.0919120694674 33.55067471782978H70.17770499361478V32.34973110492413H65.8946560927171V33.55067471782978H64.98644873516378V31.55851825420673H65.47842563570462C65.94340380389873 31.16003696382963 66.32038610370343 30.593813549335188 66.6093725351187 29.85934803419847C66.90235877873347 29.12488251906175 67.04885190054087 28.290921675461988 67.04885190054087 27.35746550339919V26.24401778235802H70.41794371384842V31.55851825420673H71.0919120694674V33.55067471782978ZM69.50973635629508 31.55851825420673V27.03523063307542H67.962808988131V27.14072567983774C67.962808988131 28.0586825796274 67.8398147629958 28.90614278940054 67.59382631272535 29.68360628568209C67.35158768639198 30.457069969764124 67.03710245220478 31.082040625939005 66.65037061016376 31.55851825420673H69.50973635629508Z" fill="#322D29"></path><path d="M77.90034239783654 32.34973110492413H76.9921350402832C76.91788852632962 32.103492666391226 76.88089026348408 31.77550806603065 76.88089026348408 31.365277327317457C76.36141465407151 32.126991563063406 75.65419785954401 32.50772368680514 74.75973985642653 32.50772368680514C74.30676112483097 32.50772368680514 73.90627992835412 32.34773119882437 73.5585462552584 32.027246246337896C73.21481239436223 31.70301146991436 73.04307045804536 31.28703100116436 73.04307045804536 30.779304840087892C73.04307045804536 30.47856896033654 73.1035676175631 30.21283143733098 73.22456193659855 29.982342259333684C73.34580624389649 29.75185308133639 73.52354789851262 29.558612154447115 73.75778690044697 29.402369490403395C73.99227589064378 29.242127014160157 74.27726250985953 29.117132882925183 74.61324673461914 29.027387096698465C74.94923095937875 28.933641498272234 75.34771224975586 28.869144526554987 75.80869060575046 28.833896181546724L76.83389247013973 28.751900031456582V28.458913787841794C76.83389247013973 27.41221293288011 76.34566539353591 26.88873751126803 75.36921124032827 26.88873751126803C75.13872206233098 26.88873751126803 74.8457358187162 26.939485128549432 74.49025250948394 27.04098036311223C74.13876901245118 27.13872577373798 73.83603322660007 27.25597026883639 73.58204515193059 27.392463860144982L73.34180643169697 26.73624467116136C74.17376736919697 26.31051466017503 74.947231053279 26.0977746488131 75.66219748394306 26.0977746488131C77.05263219980094 26.0977746488131 77.74809954599235 26.833990081787107 77.74809954599235 28.306670935997598V30.931547691932092C77.74809954599235 31.462772749680738 77.79884716327373 31.93550055401142 77.90034239783654 32.34973110492413ZM76.83389247013973 30.53906611985427V29.43161811711238C76.0096811687763 29.505864631065954 75.44345775428185 29.576111332820012 75.13472225013146 29.642608210637018C74.8299865581806 29.705105276254507 74.5644990234375 29.824099689190206 74.33800965763972 30.00009142596905C74.115270115779 30.17583317448543 74.00402533897986 30.41407198861929 74.00402533897986 30.71480786837064C74.00402533897986 30.988295027512773 74.09952085524338 31.209034663273737 74.29101186429537 31.377026775653544C74.48250287334736 31.545018888033354 74.72649141751803 31.629014944223258 75.02347747333233 31.629014944223258C75.34771224975586 31.629014944223258 75.66994712007963 31.533269439697264 75.99018208430364 31.341778430645284C76.31066703679012 31.146537597656252 76.59190383206881 30.87880016855093 76.83389247013973 30.53906611985427Z" fill="#322D29"></path><path d="M81.16393916438176 27.03523063307542C81.36717962176982 26.753993837796724 81.64066678091196 26.52725448373648 81.98440064180814 26.355512547419625C82.33213431490384 26.183520622840295 82.69736716637244 26.0977746488131 83.08009919621395 26.0977746488131C83.78331617854192 26.0977746488131 84.33404032076322 26.388760986328126 84.73252161114033 26.970733661358175C85.13475272545448 27.548706524188702 85.3359932767428 28.302671123798074 85.3359932767428 29.23237747192383C85.3359932767428 30.169833456186147 85.12500318321815 30.95129676466722 84.70302299616887 31.5762674208421C84.2850426213191 32.19723826481746 83.72081911292443 32.50772368680514 83.00985249445989 32.50772368680514C82.63087028855544 32.50772368680514 82.27538697932317 32.41397808837891 81.94340256676307 32.22648689152644C81.61516797814002 32.03524587073693 81.35543017343375 31.783257702167216 81.16393916438176 31.47077237407978V34.76361776733399H80.24998207679161V26.24401778235802H81.16393916438176V27.03523063307542ZM81.16393916438176 27.943437990628755V30.480568866436297C81.33593108896109 30.824302727332483 81.56842017305814 31.111289252647985 81.86140641667293 31.341778430645284C82.15439266028771 31.57226760864258 82.45712844613882 31.687512197641226 82.76961377422626 31.687512197641226C83.2618406630296 31.687512197641226 83.65232232900766 31.45702301964393 83.94130876042293 30.99604466364934C84.2342950040377 30.53506630765475 84.3807881258451 29.962843174861028 84.3807881258451 29.279375265268182C84.3807881258451 28.576158282940206 84.24229462843675 28.001935244046727 83.96480765709511 27.55670614858774C83.68757067401593 27.111227064866288 83.30083883197491 26.88873751126803 82.80461213097205 26.88873751126803C82.16014239032452 26.88873751126803 81.61316807204027 27.24022100830078 81.16393916438176 27.943437990628755Z" fill="#322D29"></path><path d="M92.75964471905048 32.34973110492413H91.55870110614484L88.96882270695613 29.314373622013974L88.37110077139047 29.83009940748948V32.34973110492413H87.45714368380034V26.24401778235802H88.37110077139047V28.822146733210637L91.23621624755859 26.24401778235802H92.40241149198093L89.61904217764048 28.740150583120492L92.75964471905048 32.34973110492413Z" fill="#322D29"></path><path d="M99.52157723060022 32.34973110492413H98.61336987304688C98.53912335909331 32.103492666391226 98.50187510798528 31.77550806603065 98.50187510798528 31.365277327317457C97.98239949857272 32.126991563063406 97.27543269230769 32.50772368680514 96.3809746891902 32.50772368680514C95.92774596933218 32.50772368680514 95.52726477285532 32.34773119882437 95.1797810880221 32.027246246337896C94.8360472271259 31.70301146991436 94.66405530254657 31.28703100116436 94.66405530254657 30.779304840087892C94.66405530254657 30.47856896033654 94.72455246206431 30.21283143733098 94.84579676936224 29.982342259333684C94.96679108839768 29.75185308133639 95.14453274301383 29.558612154447115 95.37902173321064 29.402369490403395C95.61326073514499 29.242127014160157 95.8984973426232 29.117132882925183 96.23448156738282 29.027387096698465C96.57021580387996 28.933641498272234 96.96869709425705 28.869144526554987 97.42967545025166 28.833896181546724L98.45512730290339 28.751900031456582V28.458913787841794C98.45512730290339 27.41221293288011 97.96690022629959 26.88873751126803 96.99019608482948 26.88873751126803C96.75970690683219 26.88873751126803 96.4667206632174 26.939485128549432 96.11123735398513 27.04098036311223C95.75975385695239 27.13872577373798 95.45701807110126 27.25597026883639 95.2030299964318 27.392463860144982L94.96279127619817 26.73624467116136C95.79500220196063 26.31051466017503 96.56846588604266 26.0977746488131 97.28318232844427 26.0977746488131C98.6738670325646 26.0977746488131 99.36908439049354 26.833990081787107 99.36908439049354 28.306670935997598V30.931547691932092C99.36908439049354 31.462772749680738 99.41983200777494 31.93550055401142 99.52157723060022 32.34973110492413ZM98.45512730290339 30.53906611985427V29.43161811711238C97.63091600153996 29.505864631065954 97.06444259878306 29.576111332820012 96.75595708289512 29.642608210637018C96.45122139094426 29.705105276254507 96.1854838679387 29.824099689190206 95.95899450214092 30.00009142596905C95.7362549602802 30.17583317448543 95.62501018348107 30.41407198861929 95.62501018348107 30.71480786837064C95.62501018348107 30.988295027512773 95.72075568800706 31.209034663273737 95.91199670879658 31.377026775653544C96.10348771784857 31.545018888033354 96.3477262502817 31.629014944223258 96.64446231783353 31.629014944223258C96.96869709425705 31.629014944223258 97.29093196458084 31.533269439697264 97.6114169170673 31.341778430645284C97.93165188129132 31.146537597656252 98.21288867657002 30.87880016855093 98.45512730290339 30.53906611985427Z" fill="#322D29"></path><path d="M107.12697013972357 32.34973110492413H106.18951415546124V26.98823283973107L104.65433623563327 32.34973110492413H103.70513080303485L102.18170233154297 26.98823283973107V32.34973110492413H101.29699387066181V26.24401778235802H102.87891959557167L104.20910714017428 31.125038607083834L105.60354166823168 26.24401778235802H107.12697013972357V32.34973110492413Z" fill="#322D29"></path><path d="M119.89462066885142 29.10938324678861C120.26160343815731 29.187379584679235 120.56633913010818 29.357371603158803 120.80857775644157 29.619109313964845C121.05081638277494 29.880847024770883 121.17181070181039 30.15808400785006 121.17181070181039 30.451070251464845C121.17181070181039 31.056541823167066 120.96082060828576 31.525269815298227 120.53909040949894 31.857504216120795C120.12111003464919 32.18548881648137 119.63488286414514 32.34973110492413 119.08015890972432 32.34973110492413H116.28504014704777V26.24401778235802H118.71092624605619C119.34764635056716 26.24401778235802 119.86137222994292 26.390510904165414 120.25185389592097 26.6834971477802C120.64658536236102 26.976483391394982 120.84382610144982 27.369214951735277 120.84382610144982 27.86144184053861C120.84382610144982 28.154178095890927 120.75183042086087 28.417915712796727 120.56833903620793 28.65240470299354C120.38484765155499 28.886643704927888 120.1601082035945 29.03913654503456 119.89462066885142 29.10938324678861ZM117.1992472229004 28.751900031456582H118.73442514272836C119.49988920241135 28.751900031456582 119.88287122051533 28.46691341224084 119.88287122051533 27.896440197284402C119.88287122051533 27.630952662541315 119.77337636155349 27.421962475116437 119.55463663189228 27.269469635009767C119.33589690223107 27.113226970966046 119.05066029475286 27.03523063307542 118.69917679772011 27.03523063307542H117.1992472229004V28.751900031456582ZM117.1992472229004 31.55851825420673H118.91591662128155C119.29089901498648 31.55851825420673 119.59763461303712 31.462772749680738 119.83587342717097 31.271531728891226C120.07811205350436 31.080040719839243 120.19910637253982 30.816303102933443 120.19910637253982 30.480568866436297C120.19910637253982 30.183582810621996 120.06636260516828 29.9530936326247 119.80087507042518 29.789101332444414C119.53913735961913 29.625109032264124 119.19540349872295 29.54286289391151 118.76942349947417 29.54286289391151H117.1992472229004V31.55851825420673Z" fill="#322D29"></path><path d="M136.00186439631537 32.34973110492413H134.80067079514723L132.211042384221 29.314373622013974L131.61332044865534 29.83009940748948V32.34973110492413H130.69911337280274V26.24401778235802H131.61332044865534V28.822146733210637L134.47843592482346 26.24401778235802H135.6446311692458L132.86126185490536 28.740150583120492L136.00186439631537 32.34973110492413Z" fill="#322D29"></path><path d="M140.24416521043045 26.0977746488131C141.083875784067 26.0977746488131 141.75184442138672 26.390510904165414 142.24807112238958 26.976483391394982C142.74404783512998 27.562455878624547 142.99228617976263 28.33391965660682 142.99228617976263 29.29112471360427C142.99228617976263 30.255829418475813 142.74404783512998 31.03329291475736 142.24807112238958 31.62301522592398C141.75184442138672 32.212987525353064 141.083875784067 32.50772368680514 140.24416521043045 32.50772368680514C139.40045482459436 32.50772368680514 138.73048628117488 32.21473744319036 138.23425958017202 31.629014944223258C137.74228267963116 31.039042644794172 137.49604424109825 30.259829230675333 137.49604424109825 29.29112471360427C137.49604424109825 28.33016983266977 137.74403259746845 27.558706054687498 138.2402592984713 26.976483391394982C138.7362360112117 26.390510904165414 139.40420464853142 26.0977746488131 140.24416521043045 26.0977746488131ZM140.24416521043045 31.7110110943134C140.79888916485126 31.7110110943134 141.23636862417368 31.47652210411659 141.5566035883977 31.00779411198543C141.8768385526217 30.53906611985427 142.03708102886492 29.970592810997598 142.03708102886492 29.302624173677884C142.03708102886492 28.59965717961238 141.87883845872148 28.02143432851938 141.56260330669699 27.568455596923826C141.24611816641 27.115226877065805 140.80663880098786 26.88873751126803 140.24416521043045 26.88873751126803C139.6776918076735 26.88873751126803 139.23821244225135 27.113226970966046 138.92572711416392 27.562455878624547C138.6132417860765 28.007934962346006 138.45699912203276 28.587907731276292 138.45699912203276 29.302624173677884C138.45699912203276 29.982342259333684 138.61524169217623 30.554565392127405 138.9317268324632 31.019543560321516C139.2479619844877 31.480521916316107 139.6854414438101 31.7110110943134 140.24416521043045 31.7110110943134Z" fill="#322D29"></path><path d="M149.79496677809496 32.34973110492413H148.86926024216874V29.337872518686147H146.0273936744103V32.34973110492413H145.1131865985577V26.24401778235802H146.0273936744103V28.54690965623122H148.86926024216874V26.24401778235802H149.79496677809496V32.34973110492413Z" fill="#322D29"></path><path d="M155.92967873910757 29.10938324678861C156.29691149667593 29.187379584679235 156.60164718862683 29.357371603158803 156.84363582669772 29.619109313964845C157.08587445303112 29.880847024770883 157.20711876032902 30.15808400785006 157.20711876032902 30.451070251464845C157.20711876032902 31.056541823167066 156.9961286668044 31.525269815298227 156.5741484797551 31.857504216120795C156.15616810490536 32.18548881648137 155.66994093440127 32.34973110492413 155.11521697998046 32.34973110492413H152.3203482055664V26.24401778235802H154.74598431631236C155.3827044208233 26.24401778235802 155.89643030019909 26.390510904165414 156.2871619544396 26.6834971477802C156.6816434326172 26.976483391394982 156.87888417170598 27.369214951735277 156.87888417170598 27.86144184053861C156.87888417170598 28.154178095890927 156.7871384793795 28.417915712796727 156.6033971064641 28.65240470299354C156.41990572181115 28.886643704927888 156.19541626211316 29.03913654503456 155.92967873910757 29.10938324678861ZM153.23430529315655 28.751900031456582H154.7694832129845C155.53519726092998 28.751900031456582 155.9179292907715 28.46691341224084 155.9179292907715 27.896440197284402C155.9179292907715 27.630952662541315 155.80868442007213 27.421962475116437 155.5899446904109 27.269469635009767C155.3712049607497 27.113226970966046 155.0859683532715 27.03523063307542 154.73448485623874 27.03523063307542H153.23430529315655V28.751900031456582ZM153.23430529315655 31.55851825420673H154.95122467980016C155.3262070735051 31.55851825420673 155.63269268329327 31.462772749680738 155.87118148568962 31.271531728891226C156.1131701237605 31.080040719839243 156.23441443105844 30.816303102933443 156.23441443105844 30.480568866436297C156.23441443105844 30.183582810621996 156.10167066368692 29.9530936326247 155.83593314068136 29.789101332444414C155.57419542987532 29.625109032264124 155.23046156897914 29.54286289391151 154.8047315579928 29.54286289391151H153.23430529315655V31.55851825420673Z" fill="#322D29"></path><path d="M164.41403037907529 29.32612307035006H160.2247270766038C160.2247270766038 30.017590604341947 160.4237177335299 30.58781383103591 160.822199023907 31.03704273869441C161.22468012648363 31.486271646352915 161.71690701528698 31.7110110943134 162.29887969031702 31.7110110943134C162.85360364473786 31.7110110943134 163.42582677753157 31.61126577758789 164.01554908869815 31.41202513239934L164.17379165884165 32.1444907414363C163.63481696495646 32.38672936776968 163.00584649658202 32.50772368680514 162.28713024198092 32.50772368680514C161.38092279052734 32.50772368680514 160.65045708759013 32.21673734929011 160.09573313316932 31.63476467426007C159.54100917874848 31.052791999230017 159.26377219566933 30.2675788668119 159.26377219566933 29.279375265268182C159.26377219566933 28.31067074819712 159.5117605520395 27.538956981952374 160.0077372647799 26.964733943058896C160.50771378971982 26.386761080228368 161.1524335186298 26.0977746488131 161.941396474985 26.0977746488131C162.64461345731297 26.0977746488131 163.2323358623798 26.36526208965595 163.7050636667105 26.900486959604116C164.17779147104116 27.435461841289815 164.41403037907529 28.14842836585412 164.41403037907529 29.03913654503456V29.32612307035006ZM163.41807714139497 28.581908012977014C163.41807714139497 28.105430384709287 163.26958411348784 27.70519917649489 162.97259805767354 27.380964400071363C162.67586199012172 27.052729811448316 162.34362758929913 26.88873751126803 161.97664481999325 26.88873751126803C161.50391701566258 26.88873751126803 161.11143544358472 27.04498017531175 160.7989501154973 27.35746550339919C160.49021461134691 27.66995083148663 160.31847267503005 28.07818166410006 160.2832243300218 28.581908012977014H163.41807714139497Z" fill="#322D29"></path><path d="M167.6483785189115 27.03523063307542C167.8516189762996 26.753993837796724 168.1251061354417 26.52725448373648 168.4688399963379 26.355512547419625C168.81632368117113 26.183520622840295 169.18155653263975 26.0977746488131 169.5645385507437 26.0977746488131C170.26750554480918 26.0977746488131 170.818479675293 26.388760986328126 171.21671097740762 26.970733661358175C171.61919207998423 27.548706524188702 171.82043263127252 28.302671123798074 171.82043263127252 29.23237747192383C171.82043263127252 30.169833456186147 171.6094425377479 30.95129676466722 171.18746235069864 31.5762674208421C170.76948197584886 32.19723826481746 170.2050084791917 32.50772368680514 169.49404186072718 32.50772368680514C169.1153096430852 32.50772368680514 168.7598263338529 32.41397808837891 168.42784192129284 32.22648689152644C168.09960733266976 32.03524587073693 167.8398695279635 31.783257702167216 167.6483785189115 31.47077237407978V34.76361776733399H166.73442143132138V26.24401778235802H167.6483785189115V27.03523063307542ZM167.6483785189115 27.943437990628755V30.480568866436297C167.82037044349084 30.824302727332483 168.0526095393254 31.111289252647985 168.3455957829402 31.341778430645284C168.63858202655499 31.57226760864258 168.9413178124061 31.687512197641226 169.25380314049355 31.687512197641226C169.74603002929686 31.687512197641226 170.1367616835374 31.45702301964393 170.42574811495268 30.99604466364934C170.71873435856747 30.53506630765475 170.86522748037487 29.962843174861028 170.86522748037487 29.279375265268182C170.86522748037487 28.576158282940206 170.72648399470404 28.001935244046727 170.44924701162483 27.55670614858774C170.17176004028323 27.111227064866288 169.78527818650466 26.88873751126803 169.2890514855018 26.88873751126803C168.64458174485426 26.88873751126803 168.09760742657002 27.24022100830078 167.6483785189115 27.943437990628755Z" fill="#322D29"></path><path d="M178.7518571847769 27.03523063307542H176.73645181274415V32.34973110492413H175.8282444551908V27.03523063307542H173.8125890948956V26.24401778235802H178.7518571847769V27.03523063307542Z" fill="#322D29"></path><path d="M186.0057665968675 32.34973110492413H185.09755923931414C185.0233127253606 32.103492666391226 184.98631446251503 31.77550806603065 184.98631446251503 31.365277327317457C184.46683885310247 32.126991563063406 183.75987204683744 32.50772368680514 182.86516405545748 32.50772368680514C182.41218532386193 32.50772368680514 182.0117041273851 32.34773119882437 181.66397045428937 32.027246246337896C181.3202365933932 31.70301146991436 181.14849465707633 31.28703100116436 181.14849465707633 30.779304840087892C181.14849465707633 30.47856896033654 181.20899181659405 30.21283143733098 181.32998613562953 29.982342259333684C181.45123044292745 29.75185308133639 181.62897209754357 29.558612154447115 181.86321109947792 29.402369490403395C182.09770008967473 29.242127014160157 182.38293669715296 29.117132882925183 182.7186709336501 29.027387096698465C183.05465515840973 28.933641498272234 183.4531364487868 28.869144526554987 183.9141148047814 28.833896181546724L184.93956665743315 28.751900031456582V28.458913787841794C184.93956665743315 27.41221293288011 184.4510895925669 26.88873751126803 183.47463543935922 26.88873751126803C183.24414626136192 26.88873751126803 182.95116001774716 26.939485128549432 182.59567670851487 27.04098036311223C182.24419321148213 27.13872577373798 181.941457425631 27.25597026883639 181.68746935096155 27.392463860144982L181.44723063072792 26.73624467116136C182.2791915682279 26.31051466017503 183.05265525230996 26.0977746488131 183.767621682974 26.0977746488131C185.15830638709434 26.0977746488131 185.85352374502327 26.833990081787107 185.85352374502327 28.306670935997598V30.931547691932092C185.85352374502327 31.462772749680738 185.9042713623047 31.93550055401142 186.0057665968675 32.34973110492413ZM184.93956665743315 30.53906611985427V29.43161811711238C184.1153553560697 29.505864631065954 183.54888195331282 29.576111332820012 183.2401464491624 29.642608210637018C182.93566074547402 29.705105276254507 182.66992322246847 29.824099689190206 182.44343385667068 30.00009142596905C182.22069431480995 30.17583317448543 182.1094495380108 30.41407198861929 182.1094495380108 30.71480786837064C182.1094495380108 30.988295027512773 182.20519504253681 31.209034663273737 182.39643606332632 31.377026775653544C182.5879270723783 31.545018888033354 182.83191561654897 31.629014944223258 183.12890167236327 31.629014944223258C183.4531364487868 31.629014944223258 183.77537131911058 31.533269439697264 184.0956062833346 31.341778430645284C184.41609123582106 31.146537597656252 184.69732803109974 30.87880016855093 184.93956665743315 30.53906611985427Z" fill="#322D29"></path><path d="M193.27742517559344 32.34973110492413H192.24597360464242L190.61130035635142 29.95909335092398L188.91787986637996 32.34973110492413H187.94542552537186L190.11907346754808 29.29112471360427L187.94542552537186 26.24401778235802H188.99412628643327L190.6347992530236 28.617156357985277L192.30472084632288 26.24401778235802H193.27742517559344L191.11527669349084 29.255876368596002L193.27742517559344 32.34973110492413Z" fill="#322D29"></path><path d="M198.33393776057318 26.77149301616962L198.05870068359377 29.865347752497748H197.55472434645432L197.27923728121243 26.77149301616962V24.08201929321289H198.33393776057318V26.77149301616962ZM197.82996142343373 31.00779411198543C198.03720169302136 31.00779411198543 198.21094353543793 31.078040813739484 198.35168692720853 31.218784205510065C198.49218033071665 31.35927760901818 198.5624270324707 31.533269439697264 198.5624270324707 31.740259721022387C198.5624270324707 31.947250002347506 198.4901804246169 32.126991563063406 198.34568720890925 32.2792344149076C198.20519380540114 32.43172725501427 198.03320188082182 32.50772368680514 197.82996142343373 32.50772368680514C197.6309707665077 32.50772368680514 197.46097874802808 32.43347717285157 197.3202353562575 32.28523413320688C197.1797419527494 32.13274129310021 197.10949525099537 31.951249814547026 197.10949525099537 31.740259721022387C197.10949525099537 31.529269627497747 197.17774204664966 31.35552778508113 197.3144856262207 31.218784205510065C197.4549790297288 31.078040813739484 197.62697095430815 31.00779411198543 197.82996142343373 31.00779411198543Z" fill="#322D29"></path></svg> 