<?xml version="1.0" encoding="UTF-8"?> <svg xmlns="http://www.w3.org/2000/svg" viewBox="0 0 185.09765625 57.4521484375" fill="none"><path d="M4.751963918585526 8.267570415296051H3.7910048314144738V0.8378903782894737H0.960936605674342V8.267570415296051H0V0H4.751963918585526V8.267570415296051Z" fill="#322D29"></path><path d="M9.580090152138158 2.015626048519737C10.419923930921051 2.015626048519737 11.087899157072368 2.3085949218749997 11.583990851151315 2.894542660361842C12.080082545230264 3.4804604235197365 12.328128392269736 4.251950452302631 12.328128392269736 5.208987767269737C12.328128392269736 6.1738186677631575 12.080082545230264 6.9511788651315785 11.583990851151315 7.541018400493421C11.087899157072368 8.130857935855262 10.419923930921051 8.425790193256578 9.580090152138158 8.425790193256578C8.736334601151315 8.425790193256578 8.066410978618421 8.132806332236841 7.570319284539473 7.546863589638157C7.078124383223684 6.9570240542763155 6.832026932565789 6.177740439967105 6.832026932565789 5.208987767269737C6.832026932565789 4.248053659539473 7.0800727796052625 3.476563630756579 7.57616447368421 2.894542660361842C8.07225616776316 2.3085949218749997 8.740231393914474 2.015626048519737 9.580090152138158 2.015626048519737ZM9.580090152138158 7.6288960731907896C10.13475863486842 7.6288960731907896 10.572273540296052 7.394538959703947 10.892584909539474 6.9257747738486835C11.212896278782894 6.45703556743421 11.37303947368421 5.888678351151316 11.37303947368421 5.220703124999999C11.37303947368421 4.517581825657895 11.214844675164473 3.9394576480263157 10.89843009868421 3.4863305921052627C10.582040501644736 3.0332035361842102 10.142577199835527 2.806640008223684 9.580090152138158 2.806640008223684C9.013681332236843 2.806640008223684 8.57421803042763 3.0312551398026315 8.261725226151317 3.4804604235197365C7.9492074424342105 3.925768914473684 7.792961040296053 4.505866467927631 7.792961040296053 5.220703124999999C7.792961040296053 5.9003937088815785 7.951180818256579 6.472647717927631 8.267570415296051 6.937490131578947C8.583984991776315 7.398435752467105 9.021474917763157 7.6288960731907896 9.580090152138158 7.6288960731907896Z" fill="#322D29"></path><path d="M25.265705180921053 5.027337273848684C25.632902960526316 5.105472964638158 25.937402343749998 5.275383120888158 26.179702919407895 5.537117701480263C26.421753700657895 5.7988273026315795 26.54290398848684 6.0761740337171055 26.54290398848684 6.369132915296052C26.54290398848684 6.974609580592105 26.332077508223684 7.443348787006578 25.91017475328947 7.775400493421052C25.49226870888158 8.10350544819079 25.005918996710523 8.267570415296051 24.451175575657892 8.267570415296051H21.65625092516447V2.1621104851973683H24.08202939967105C24.718755345394737 2.1621104851973683 25.232482524671052 2.3085949218749997 25.62316097861842 2.601558799342105C26.017586348684212 2.894542660361842 26.214923930921053 3.2871195518092104 26.214923930921053 3.7792894736842104C26.214923930921053 4.072273334703947 26.12299958881579 4.335931332236842 25.93940069901316 4.570313425164473C25.755801809210528 4.804695518092105 25.531236636513157 4.957020148026316 25.265705180921053 5.027337273848684ZM22.570323601973683 4.669931435032894H24.105460115131578C24.871104954769734 4.669931435032894 25.25396484375 4.384766138980263 25.25396484375 3.8144605263157896C25.25396484375 3.5488291529605265 25.144554893092106 3.3398511513157896 24.925784950657896 3.1875015419407897C24.707039987664473 3.0312551398026315 24.42187469161184 2.953119449013158 24.07031404194079 2.953119449013158H22.570323601973683V4.669931435032894ZM22.570323601973683 7.476571443256579H24.28711060855263C24.662101973684212 7.476571443256579 24.96874958881579 7.380850226151315 25.207003495065788 7.189457750822369C25.449304070723684 6.998040296052632 25.570204564144735 6.734382298519737 25.570204564144735 6.398433799342105C25.570204564144735 6.101553145559211 25.437563733552633 5.871092824835526 25.17178248355263 5.707027857730264C24.910147820723683 5.542962890625 24.56640573601974 5.460930407072368 24.140631167763157 5.460930407072368H22.570323601973683V7.476571443256579Z" fill="#322D29"></path><path d="M33.54489103618421 8.062489206414472C33.013578330592104 8.30468986430921 32.429808799342105 8.425790193256578 31.793082853618422 8.425790193256578C30.83212376644737 8.425790193256578 30.06450555098684 8.134754728618422 29.490228207236843 7.552733758223685C28.919947574013158 6.966791015625 28.634682360197367 6.189455797697367 28.634682360197367 5.220703124999999C28.634682360197367 4.251950452302631 28.921945929276315 3.476563630756579 29.49597347861842 2.894542660361842C30.074247532894738 2.3085949218749997 30.83212376644737 2.015626048519737 31.769602179276315 2.015626048519737C32.3828474506579 2.015626048519737 32.96686677631579 2.1230476356907895 33.5214103618421 2.337890810032895L33.28135793585527 3.0937537006578943C32.72656455592105 2.902336245888158 32.22647615131579 2.806640008223684 31.781342516447367 2.806640008223684C31.109395559210526 2.806640008223684 30.576084498355264 3.023436574835526 30.18165912828947 3.4570297080592103C29.790980674342105 3.890622841282895 29.595641447368422 4.478513980263157 29.595641447368422 5.220703124999999C29.595641447368422 5.9003937088815785 29.798724300986844 6.472647717927631 30.205139802631578 6.937490131578947C30.611305509868423 7.398435752467105 31.14061986019737 7.6288960731907896 31.793082853618422 7.6288960731907896C32.30865851151316 7.6288960731907896 32.83972142269737 7.529303042763158 33.386771175986844 7.330067023026316L33.54489103618421 8.062489206414472Z" fill="#322D29"></path><path d="M40.957040501644734 5.244133840460527H36.76748869243421C36.76748869243421 5.935539782072369 36.96682462993421 6.505870374177631 37.365246710526314 6.955075657894737C37.767665501644736 7.404305921052631 38.25976048519737 7.6288960731907896 38.841781455592105 7.6288960731907896C39.396574835526316 7.6288960731907896 39.96885382401316 7.529303042763158 40.55861842105263 7.330067023026316L40.71673828125 8.062489206414472C40.177681949013156 8.30468986430921 39.548949424342105 8.425790193256578 38.83004111842105 8.425790193256578C37.92378700657895 8.425790193256578 37.19338815789473 8.134754728618422 36.63859477796053 7.552733758223685C36.08405119243421 6.970712787828947 35.80652960526316 6.18555900493421 35.80652960526316 5.197272409539473C35.80652960526316 4.228519736842105 36.05457545230263 3.4570297080592103 36.55066714638158 2.882802323190789C37.050755550986835 2.3046881373355266 37.695225123355264 2.015626048519737 38.484325657894736 2.015626048519737C39.18749691611842 2.015626048519737 39.775512952302634 2.2832033203125 40.24812397203947 2.8183553659539475C40.72073499177631 3.3535149054276316 40.957040501644734 4.066403166118421 40.957040501644734 4.957020148026316V5.244133840460527ZM39.96086040296053 4.499996299342105C39.96086040296053 4.0234385279605265 39.812482524671054 3.623043071546052 39.51572676809211 3.298834909539474C39.21872121710526 2.9707049753289474 38.88674444901316 2.806640008223684 38.519546669407895 2.806640008223684C38.04693564967105 2.806640008223684 37.65425884046053 2.962886410361842 37.34176603618421 3.2753792146381575C37.03326994243421 3.587896998355263 36.86141138980263 3.9960860402960527 36.82619037828947 4.499996299342105H39.96086040296053Z" fill="#322D29"></path><path d="M48.53330489309211 8.267570415296051H47.595826480263156V2.9062580180921054L46.0605900493421 8.267570415296051H45.1113712993421L43.587875205592105 2.9062580180921054V8.267570415296051H42.703103412828945V2.1621104851973683H44.28505139802631L45.615206620065784 7.042978310032894L47.0098087993421 2.1621104851973683H48.53330489309211V8.267570415296051Z" fill="#322D29"></path><path d="M61.300796669407895 5.027337273848684C61.66799444901316 5.105472964638158 61.972743626644736 5.275383120888158 62.214794407894736 5.537117701480263C62.45709498355263 5.7988273026315795 62.578245271381576 6.0761740337171055 62.578245271381576 6.369132915296052C62.578245271381576 6.974609580592105 62.367168996710525 7.443348787006578 61.94526624177632 7.775400493421052C61.527360197368424 8.10350544819079 61.04101048519737 8.267570415296051 60.48621710526316 8.267570415296051H57.691517269736835V2.1621104851973683H60.11727076480263C60.753996710526316 2.1621104851973683 61.26757401315789 2.3085949218749997 61.658252467105264 2.601558799342105C62.052677837171046 2.894542660361842 62.250015419407895 3.2871195518092104 62.250015419407895 3.7792894736842104C62.250015419407895 4.072273334703947 62.15809107730263 4.335931332236842 61.9744921875 4.570313425164473C61.790893297697366 4.804695518092105 61.566328125 4.957020148026316 61.300796669407895 5.027337273848684ZM58.60551500822368 4.669931435032894H60.14050164473684C60.906371299342105 4.669931435032894 61.28905633223684 4.384766138980263 61.28905633223684 3.8144605263157896C61.28905633223684 3.5488291529605265 61.17964638157894 3.3398511513157896 60.96082648026316 3.1875015419407897C60.74225637335527 3.0312551398026315 60.45699115953947 2.953119449013158 60.10553042763158 2.953119449013158H58.60551500822368V4.669931435032894ZM58.60551500822368 7.476571443256579H60.322351973684206C60.69729337993421 7.476571443256579 61.003791118421056 7.380850226151315 61.242094983552626 7.189457750822369C61.48439555921052 6.998040296052632 61.60554584703947 6.734382298519737 61.60554584703947 6.398433799342105C61.60554584703947 6.101553145559211 61.47265522203947 5.871092824835526 61.20712376644737 5.707027857730264C60.94533922697368 5.542962890625 60.60162212171053 5.460930407072368 60.17572265625 5.460930407072368H58.60551500822368V7.476571443256579Z" fill="#322D29"></path><path d="M67.23641138980263 2.015626048519737C68.07622018914473 2.015626048519737 68.74417043585525 2.3085949218749997 69.24026212993421 2.894542660361842C69.73635382401316 3.4804604235197365 69.98439967105263 4.251950452302631 69.98439967105263 5.208987767269737C69.98439967105263 6.1738186677631575 69.73635382401316 6.9511788651315785 69.24026212993421 7.541018400493421C68.74417043585525 8.130857935855262 68.07622018914473 8.425790193256578 67.23641138980263 8.425790193256578C66.39260587993421 8.425790193256578 65.72265727796054 8.132806332236841 65.22656558388157 7.546863589638157C64.73447060032895 6.9570240542763155 64.48817331414475 6.177740439967105 64.48817331414475 5.208987767269737C64.48817331414475 4.248053659539473 64.73621916118421 3.476563630756579 65.23231085526315 2.894542660361842C65.7284025493421 2.3085949218749997 66.39660259046053 2.015626048519737 67.23641138980263 2.015626048519737ZM67.23641138980263 7.6288960731907896C67.79095497532894 7.6288960731907896 68.22859477796052 7.394538959703947 68.54883120888158 6.9257747738486835C68.86906763980262 6.45703556743421 69.02918585526315 5.888678351151316 69.02918585526315 5.220703124999999C69.02918585526315 4.517581825657895 68.87106599506579 3.9394576480263157 68.55457648026317 3.4863305921052627C68.23833675986842 3.0332035361842102 67.79894839638158 2.806640008223684 67.23641138980263 2.806640008223684C66.66987767269737 2.806640008223684 66.23048930921053 3.0312551398026315 65.91799650493421 3.4804604235197365C65.60550370065789 3.925768914473684 65.4491324013158 4.505866467927631 65.4491324013158 5.220703124999999C65.4491324013158 5.9003937088815785 65.60750205592106 6.472647717927631 65.92374177631578 6.937490131578947C66.24023129111842 7.398435752467105 66.6776212993421 7.6288960731907896 67.23641138980263 7.6288960731907896Z" fill="#322D29"></path><path d="M76.78705078125 8.267570415296051H75.8613127055921V2.953119449013158H73.01965152138158V8.267570415296051H72.10540398848684V2.1621104851973683H76.78705078125V8.267570415296051Z" fill="#322D29"></path><path d="M80.22646998355263 2.953119449013158C80.42980263157894 2.671875925164474 80.70307771381579 2.4453123972039474 81.04679481907895 2.2734363589638154C81.39450863486842 2.101562818667763 81.75970805921052 2.015626048519737 82.14264288651316 2.015626048519737C82.84581414473683 2.015626048519737 83.39636101973684 2.3066415296052627 83.79503289473685 2.888672491776316C84.19720189144736 3.466796669407895 84.39853618421053 4.220701171875 84.39853618421053 5.150385999177631C84.39853618421053 6.087889391447368 84.18745990953947 6.869146381578947 83.76555715460526 7.494131990131579C83.34765111019738 8.115245785361841 82.78311574835526 8.425790193256578 82.07220086348684 8.425790193256578C81.69326274671052 8.425790193256578 81.33780530427632 8.332042351973685 81.00582853618421 8.144521689967105C80.67784847861842 7.953129214638158 80.41806229440789 7.701161595394736 80.22646998355263 7.3886687911184215V10.681633532072368H79.31247224506579V2.1621104851973683H80.22646998355263V2.953119449013158ZM80.22646998355263 3.861321957236842V6.398433799342105C80.39832853618421 6.742175884046053 80.63088712993421 7.029289576480263 80.92389597039474 7.2597748766447365C81.21690481085525 7.490235197368421 81.51965563322368 7.605465357730263 81.8321484375 7.605465357730263C82.32424342105263 7.605465357730263 82.714921875 7.375005037006579 83.00393400493421 6.914059416118421C83.29694284539474 6.453113795230263 83.44332236842105 5.88085978618421 83.44332236842105 5.197272409539473C83.44332236842105 4.494151110197368 83.30468647203946 3.9199237253289474 83.0274146792763 3.474615234375C82.74989309210525 3.0293067434210528 82.3632113486842 2.806640008223684 81.86711965460526 2.806640008223684C81.22265008223684 2.806640008223684 80.67585012335526 3.158200657894737 80.22646998355263 3.861321957236842Z" fill="#322D29"></path><path d="M88.85736636513157 2.015626048519737C89.69717516447368 2.015626048519737 90.36512541118421 2.3085949218749997 90.86121710526317 2.894542660361842C91.3573087993421 3.4804604235197365 91.60535464638158 4.251950452302631 91.60535464638158 5.208987767269737C91.60535464638158 6.1738186677631575 91.3573087993421 6.9511788651315785 90.86121710526317 7.541018400493421C90.36512541118421 8.130857935855262 89.69717516447368 8.425790193256578 88.85736636513157 8.425790193256578C88.01356085526315 8.425790193256578 87.34386204769737 8.132806332236841 86.84777035361843 7.546863589638157C86.3554255756579 6.9570240542763155 86.10937808388158 6.177740439967105 86.10937808388158 5.208987767269737C86.10937808388158 4.248053659539473 86.35742393092104 3.476563630756579 86.853515625 2.894542660361842C87.34960731907894 2.3085949218749997 88.01755756578947 2.015626048519737 88.85736636513157 2.015626048519737ZM88.85736636513157 7.6288960731907896C89.41215974506578 7.6288960731907896 89.84954975328948 7.394538959703947 90.17003597861842 6.9257747738486835C90.49027240953947 6.45703556743421 90.65039062499999 5.888678351151316 90.65039062499999 5.220703124999999C90.65039062499999 4.517581825657895 90.49227076480263 3.9394576480263157 90.17578125 3.4863305921052627C89.85929173519737 3.0332035361842102 89.41990337171052 2.806640008223684 88.85736636513157 2.806640008223684C88.2910824424342 2.806640008223684 87.85144428453947 3.0312551398026315 87.53895148026317 3.4804604235197365C87.22645867598683 3.925768914473684 87.07033717105263 4.505866467927631 87.07033717105263 5.220703124999999C87.07033717105263 5.9003937088815785 87.22845703125 6.472647717927631 87.54494654605263 6.937490131578947C87.86143606085527 7.398435752467105 88.29882606907894 7.6288960731907896 88.85736636513157 7.6288960731907896Z" fill="#322D29"></path><path d="M98.40825555098684 8.062489206414472C97.87694284539474 8.30468986430921 97.29292351973685 8.425790193256578 96.65619757401315 8.425790193256578C95.6952384868421 8.425790193256578 94.92762027138158 8.134754728618422 94.35359272203948 7.552733758223685C93.78331208881579 6.966791015625 93.498046875 6.189455797697367 93.498046875 5.220703124999999C93.498046875 4.251950452302631 93.78506064967105 3.476563630756579 94.35933799342105 2.894542660361842C94.93761204769736 2.3085949218749997 95.6952384868421 2.015626048519737 96.63271689967105 2.015626048519737C97.24621196546053 2.015626048519737 97.82998149671052 2.1230476356907895 98.38477487664474 2.337890810032895L98.14447265625 3.0937537006578943C97.58992907072368 2.902336245888158 97.0898406661184 2.806640008223684 96.6444572368421 2.806640008223684C95.97276007401315 2.806640008223684 95.4394490131579 3.023436574835526 95.04502364309211 3.4570297080592103C94.65434518914473 3.890622841282895 94.45900596217105 4.478513980263157 94.45900596217105 5.220703124999999C94.45900596217105 5.9003937088815785 94.66208881578946 6.472647717927631 95.06825452302631 6.937490131578947C95.47467002467106 7.398435752467105 96.003984375 7.6288960731907896 96.65619757401315 7.6288960731907896C97.17177323190789 7.6288960731907896 97.7030859375 7.529303042763158 98.24988589638157 7.330067023026316L98.40825555098684 8.062489206414472Z" fill="#322D29"></path><path d="M105.7909292763158 8.267570415296051H104.88292660361842C104.80848787006579 8.021472964638157 104.77151829769736 7.693368009868421 104.77151829769736 7.283205592105263C104.25194592927632 8.044928659539474 103.54502775493421 8.425790193256578 102.65051398026316 8.425790193256578C102.1973869243421 8.425790193256578 101.79696648848685 8.265622018914474 101.44925267269736 7.945310649671053C101.1055355674342 7.621102487664474 100.93367701480263 7.20506990131579 100.93367701480263 6.697262849506579C100.93367701480263 6.396485402960526 100.99412726151316 6.130854029605263 101.1152775493421 5.9003937088815785C101.23642783717105 5.669933388157895 101.41403166118421 5.476567537006579 101.64833881578947 5.320321134868421C101.88289576480264 5.1601529605263154 102.16791118421052 5.035155838815789 102.50388466282895 4.945304790296053C102.83985814144737 4.851556949013157 103.23828022203948 4.787109991776316 103.69915090460526 4.751963918585526L104.72455694901315 4.669931435032894V4.376947574013158C104.72455694901315 3.3300841899671054 104.23620888157895 2.806640008223684 103.25976254111842 2.806640008223684C103.02920230263157 2.806640008223684 102.73644325657894 2.857423211348684 102.38073601973684 2.9589896175986845C102.02927528782894 3.0566342516447365 101.72652446546051 3.173837787828947 101.47273334703948 3.3105502672697367L101.23243112664473 2.654290398848684C102.0644962993421 2.228515830592105 102.83785978618421 2.015626048519737 103.55277138157895 2.015626048519737C104.94337685032895 2.015626048519737 105.63855468749999 2.7519600123355263 105.63855468749999 4.224597964638157V6.8496124588815785C105.63855468749999 7.380850226151315 105.68951274671052 7.853511204769737 105.7909292763158 8.267570415296051ZM104.72455694901315 6.45703556743421V5.349597039473684C103.90048519736843 5.4238359375 103.33395148026315 5.4941530633223685 103.02545538651314 5.560548416940789C102.72070620888158 5.623046977796053 102.45517475328947 5.742198910361842 102.22861122532893 5.917979235197369C102.00579461348684 6.093759560032894 101.89463610197367 6.3320384457236845 101.89463610197367 6.632815892269737C101.89463610197367 6.906240851151316 101.99030736019738 7.126959189967105 102.18164987664473 7.294920949835526C102.3729923930921 7.462882709703948 102.61729132401317 7.546863589638157 102.9140470805921 7.546863589638157C103.23828022203948 7.546863589638157 103.56051500822369 7.451167351973684 103.88075143914473 7.2597748766447365C104.2012376644737 7.064460629111841 104.48250616776316 6.796880859375 104.72455694901315 6.45703556743421Z" fill="#322D29"></path><path d="M113.39641961348684 8.267570415296051H112.45894120065789V2.9062580180921054L110.92370476973684 8.267570415296051H109.97448601973684L108.45123972039472 2.9062580180921054V8.267570415296051H107.56646792763158V2.1621104851973683H109.14841591282894L110.47857113486842 7.042978310032894L111.87292351973684 2.1621104851973683H113.39641961348684V8.267570415296051Z" fill="#322D29"></path><path d="M125.88863795230263 3.732428042763158C126.43943462171052 3.861321957236842 126.87107935855262 4.111316200657894 127.18357216282895 4.4824107730263165C127.49606496710526 4.853505345394737 127.65243626644735 5.294917043585526 127.65243626644735 5.806645867598684C127.65243626644735 6.556628597861843 127.37891138980262 7.154286698190789 126.83211143092105 7.599620168585527C126.2890583881579 8.044928659539474 125.63484683388157 8.267570415296051 124.8692269736842 8.267570415296051H122.51941097861841V0H124.81052528782895C125.60736944901316 0 126.23035670230263 0.17578132401315788 126.67973684210527 0.5273434724506579C127.1288671875 0.8749998355263158 127.35343236019737 1.3671872430098684 127.35343236019737 2.003905694901316C127.35343236019737 2.394531692023026 127.22254009046053 2.742193050986842 126.96100534539474 3.0468672902960523C126.70321751644737 3.3515665090460525 126.34576171875 3.5722598684210527 125.88863795230263 3.708972347861842V3.732428042763158ZM123.48037006578946 3.2871195518092104H124.60544407894736C125.7812263569079 3.2871195518092104 126.3692423930921 2.8671901726973683 126.3692423930921 2.027343904194079C126.3692423930921 1.644531476151316 126.22461143092106 1.3515626027960528 125.93559930098684 1.1484372841282895C125.64658717105263 0.9414051809210526 125.22268606085525 0.8378903782894737 124.66414576480263 0.8378903782894737H123.48037006578946V3.2871195518092104ZM123.48037006578946 7.429685032894737H124.5702230674342C125.2069490131579 7.429685032894737 125.71103412828947 7.285153988486842 126.08197882401315 6.996091899671052C126.45692023026317 6.707029810855263 126.6445158305921 6.310556126644737 126.6445158305921 5.806645867598684C126.6445158305921 5.271486328125 126.46091694078947 4.857427117598684 126.09371916118421 4.564443256578947C125.72652138157895 4.271484375 125.19520867598683 4.125004934210526 124.50003083881579 4.125004934210526H123.48037006578946V7.429685032894737Z" fill="#322D29"></path><path d="M134.98240337171052 8.267570415296051H134.06840563322368V2.1621104851973683H134.98240337171052V8.267570415296051ZM130.0956753700658 4.464850226151316H130.73439967105264C131.51175986842105 4.464850226151316 132.11526315789473 4.636708778782895 132.54490953947368 4.980475842927632C132.97855263157894 5.320321134868421 133.19537417763158 5.787111944901316 133.19537417763158 6.380848273026316C133.19537417763158 6.986324938322368 132.98429790296052 7.453115748355263 132.56239514802633 7.78124568256579C132.1407421875 8.105478824013158 131.53524054276315 8.267570415296051 130.74614000822368 8.267570415296051H129.18742290296052V2.1621104851973683H130.0956753700658V4.464850226151316ZM130.0956753700658 7.476571443256579H130.73439967105264C131.20301398026317 7.476571443256579 131.56846319901317 7.384771998355263 131.82999794407894 7.201173108552631C132.09178248355263 7.013677425986842 132.22267475328948 6.740227487664473 132.22267475328948 6.380848273026316C132.22267475328948 6.013675472861842 132.08978412828947 5.734380345394737 131.82425267269736 5.542962890625C131.5624681332237 5.351570415296052 131.19926706414475 5.2558491981907896 130.73439967105264 5.2558491981907896H130.0956753700658V7.476571443256579Z" fill="#322D29"></path><path d="M149.43176089638158 8.267570415296051H148.49403268914475V2.9062580180921054L146.95904605263158 8.267570415296051H146.00982730263158L144.48633120888158 2.9062580180921054V8.267570415296051H143.60155941611842V2.1621104851973683H145.18350740131578L146.51366262335526 7.042978310032894L147.90826480263158 2.1621104851973683H149.43176089638158V8.267570415296051Z" fill="#322D29"></path><path d="M153.72073087993422 2.015626048519737C154.5605396792763 2.015626048519737 155.22848992598682 2.3085949218749997 155.72458162006578 2.894542660361842C156.22067331414473 3.4804604235197365 156.4687191611842 4.251950452302631 156.4687191611842 5.208987767269737C156.4687191611842 6.1738186677631575 156.22067331414473 6.9511788651315785 155.72458162006578 7.541018400493421C155.22848992598682 8.130857935855262 154.5605396792763 8.425790193256578 153.72073087993422 8.425790193256578C152.87692537006578 8.425790193256578 152.2069767680921 8.132806332236841 151.71088507401313 7.546863589638157C151.21879009046054 6.9570240542763155 150.97274259868422 6.177740439967105 150.97274259868422 5.208987767269737C150.97274259868422 4.248053659539473 151.22078844572368 3.476563630756579 151.7168801398026 2.894542660361842C152.21297183388157 2.3085949218749997 152.88092208059211 2.015626048519737 153.72073087993422 2.015626048519737ZM153.72073087993422 7.6288960731907896C154.27527446546054 7.6288960731907896 154.7129142680921 7.394538959703947 155.03315069901316 6.9257747738486835C155.3536369243421 6.45703556743421 155.51375513980264 5.888678351151316 155.51375513980264 5.220703124999999C155.51375513980264 4.517581825657895 155.35538548519736 3.9394576480263157 155.03914576480264 3.4863305921052627C154.72265625 3.0332035361842102 154.28326788651316 2.806640008223684 153.72073087993422 2.806640008223684C153.15419716282895 2.806640008223684 152.71480879934208 3.0312551398026315 152.40231599506578 3.4804604235197365C152.08982319078947 3.925768914473684 151.93370168585525 4.505866467927631 151.93370168585525 5.220703124999999C151.93370168585525 5.9003937088815785 152.09182154605264 6.472647717927631 152.40831106085525 6.937490131578947C152.72455078124997 7.398435752467105 153.16219058388157 7.6288960731907896 153.72073087993422 7.6288960731907896Z" fill="#322D29"></path><path d="M164.51959292763158 8.267570415296051H163.4881918174342L161.97668585526316 5.279304893092105L161.38467310855265 6.023442434210526V8.267570415296051H160.47667043585525V6.023442434210526L159.88465768914475 5.279304893092105L158.37315172697367 8.267570415296051H157.34175061677632L159.32237047697367 4.546882709703947L157.43542351973684 2.1621104851973683H158.39638260690788L160.47667043585525 4.810540707236842V2.1621104851973683H161.38467310855265V4.810540707236842L163.4649609375 2.1621104851973683H164.41992495888158L162.55071340460526 4.546882709703947L164.51959292763158 8.267570415296051Z" fill="#322D29"></path><path d="M170.6835197368421 5.244133840460527H166.49421772203945C166.49421772203945 5.935539782072369 166.69330386513158 6.505870374177631 167.09172594572368 6.955075657894737C167.49414473684212 7.404305921052631 167.98623972039474 7.6288960731907896 168.56826069078946 7.6288960731907896C169.12305407072367 7.6288960731907896 169.69533305921053 7.529303042763158 170.28509765625 7.330067023026316L170.44346731085525 8.062489206414472C169.90441097861842 8.30468986430921 169.27542865953947 8.425790193256578 168.5565203536184 8.425790193256578C167.6502662417763 8.425790193256578 166.91986739309212 8.134754728618422 166.3653238075658 7.552733758223685C165.8105304276316 6.970712787828947 165.53325863486842 6.18555900493421 165.53325863486842 5.197272409539473C165.53325863486842 4.228519736842105 165.7813044819079 3.4570297080592103 166.27739617598684 2.882802323190789C166.7772347861842 2.3046881373355266 167.42195415296052 2.015626048519737 168.2110546875 2.015626048519737C168.91397615131578 2.015626048519737 169.5019921875 2.2832033203125 169.97460320723684 2.8183553659539475C170.4472142269737 3.3535149054276316 170.6835197368421 4.066403166118421 170.6835197368421 4.957020148026316V5.244133840460527ZM169.68758943256577 4.499996299342105C169.68758943256577 4.0234385279605265 169.53896175986844 3.623043071546052 169.24220600328945 3.298834909539474C168.94520045230263 2.9707049753289474 168.61322368421054 2.806640008223684 168.24602590460526 2.806640008223684C167.7734148848684 2.806640008223684 167.3807380756579 2.962886410361842 167.06824527138156 3.2753792146381575C166.75974917763156 3.587896998355263 166.587890625 3.9960860402960527 166.55266961348684 4.499996299342105H169.68758943256577Z" fill="#322D29"></path><path d="M177.81440069901313 2.953119449013158H175.79880962171052V8.267570415296051H174.89055715460526V2.953119449013158H172.87496607730262V2.1621104851973683H177.81440069901313V2.953119449013158Z" fill="#322D29"></path><path d="M185.09765625 5.244133840460527H180.90810444078946C180.90810444078946 5.935539782072369 181.10744037828945 6.505870374177631 181.50586245888158 6.955075657894737C181.90828125 7.404305921052631 182.40037623355263 7.6288960731907896 182.9823972039474 7.6288960731907896C183.5371905838816 7.6288960731907896 184.10946957236843 7.529303042763158 184.69923416940787 7.330067023026316L184.85735402960526 8.062489206414472C184.31829769736842 8.30468986430921 183.68956517269737 8.425790193256578 182.97065686677632 8.425790193256578C182.0644027549342 8.425790193256578 181.33400390625 8.134754728618422 180.77921052631578 7.552733758223685C180.22466694078946 6.970712787828947 179.9471453536184 6.18555900493421 179.9471453536184 5.197272409539473C179.9471453536184 4.228519736842105 180.1951912006579 3.4570297080592103 180.69128289473684 2.882802323190789C181.19137129934208 2.3046881373355266 181.83584087171053 2.015626048519737 182.62494140625 2.015626048519737C183.3281126644737 2.015626048519737 183.91612870065788 2.2832033203125 184.38873972039474 2.8183553659539475C184.86135074013157 3.3535149054276316 185.09765625 4.066403166118421 185.09765625 4.957020148026316V5.244133840460527ZM184.10147615131578 4.499996299342105C184.10147615131578 4.0234385279605265 183.9530982730263 3.623043071546052 183.65634251644738 3.298834909539474C183.35933696546053 2.9707049753289474 183.0273601973684 2.806640008223684 182.66016241776313 2.806640008223684C182.18755139802633 2.806640008223684 181.7948745888158 2.962886410361842 181.48238178453948 3.2753792146381575C181.1738856907895 3.587896998355263 181.0020271381579 3.9960860402960527 180.9668061266447 4.499996299342105H184.10147615131578Z" fill="#322D29"></path><path d="M27.59753597861842 14.015614514802632C28.43759457236842 14.015614514802632 29.105544819078947 14.308598375822369 29.601636513157896 14.894541118421053C30.09772820723684 15.480458881578947 30.345774054276315 16.251948910361843 30.345774054276315 17.208986225328946C30.345774054276315 18.173817125822367 30.09772820723684 18.951177323190787 29.601636513157896 19.54101685855263C29.105544819078947 20.13085639391447 28.43759457236842 20.425788651315788 27.59753597861842 20.425788651315788C26.753980263157892 20.425788651315788 26.08403166118421 20.132804790296053 25.587939967105264 19.54688702713816C25.09559518914474 18.957022512335527 24.849597656249998 18.177738898026313 24.849597656249998 17.208986225328946C24.849597656249998 16.248052117598682 25.097593544407893 15.47656208881579 25.59368523848684 14.894541118421053C26.089776932565787 14.308598375822369 26.757727179276316 14.015614514802632 27.59753597861842 14.015614514802632ZM27.59753597861842 19.62889453125C28.15232935855263 19.62889453125 28.589719366776315 19.394537417763157 28.910205592105264 18.925773231907893C29.230442023026317 18.45703402549342 29.39056023848684 17.888676809210526 29.39056023848684 17.22070158305921C29.39056023848684 16.517580283717106 29.23244037828947 15.939456106085526 28.91595086348684 15.486329050164473C28.599711143092104 15.03320199424342 28.16007298519737 14.806638466282894 27.59753597861842 14.806638466282894C27.03125205592105 14.806638466282894 26.59186369243421 15.031253597861841 26.279370888157892 15.480458881578947C25.96687808388158 15.925792351973683 25.810506784539474 16.50586492598684 25.810506784539474 17.22070158305921C25.810506784539474 17.90039216694079 25.96862664473684 18.472646175986842 26.285116159539474 18.937488589638157C26.601605674342103 19.398434210526315 27.03899568256579 19.62889453125 27.59753597861842 19.62889453125Z" fill="#322D29"></path><path d="M33.14072368421053 14.689459909539472C33.53514905427632 14.240229646381579 34.08994243421053 14.015614514802632 34.80460423519737 14.015614514802632C35.64441303453947 14.015614514802632 36.31261307565789 14.308598375822369 36.80870476973684 14.894541118421053C37.30479646381579 15.480458881578947 37.55284231085526 16.251948910361843 37.55284231085526 17.208986225328946C37.55284231085526 18.173817125822367 37.30479646381579 18.951177323190787 36.80870476973684 19.54101685855263C36.31261307565789 20.13085639391447 35.64441303453947 20.425788651315788 34.80460423519737 20.425788651315788C33.96104851973684 20.425788651315788 33.291099917763155 20.132804790296053 32.79500822368421 19.54688702713816C32.30266344572369 18.957022512335527 32.056615953947365 18.177738898026313 32.056615953947365 17.208986225328946V17.17384015213816C32.056615953947365 13.669924033717104 33.001837993421056 11.91796597450658 34.89253186677632 11.91796597450658C35.16980365953947 11.91796597450658 35.47255448190789 11.941396689967107 35.80078433388158 11.988283100328948C36.0703125 12.027350945723684 36.30262129934211 12.046884868421053 36.49796052631579 12.046884868421053C36.798712993421056 12.046884868421053 37.02727487664473 12.007817023026314 37.183646175986844 11.929681332236843V12.720705283717106C36.941345600328944 12.791022409539474 36.71278371710527 12.826168482730262 36.49796052631579 12.826168482730262C36.24416940789474 12.826168482730262 35.9471638569079 12.804686163651315 35.60744346217105 12.76172152549342C35.31843133223684 12.726550472861842 35.08387438322368 12.708989925986842 34.904272203947365 12.708989925986842C34.41217722039474 12.708989925986842 34.02349712171052 12.861339535361841 33.738231907894736 13.166013774671052C33.453216488486845 13.466791221217104 33.25388055098684 13.974598273026317 33.14072368421053 14.689459909539472ZM34.80460423519737 19.62889453125C35.35939761513158 19.62889453125 35.796787623355264 19.394537417763157 36.117273848684206 18.925773231907893C36.43751027960526 18.45703402549342 36.597628495065784 17.888676809210526 36.597628495065784 17.22070158305921C36.597628495065784 16.517580283717106 36.43950863486842 15.939456106085526 36.123019120065784 15.486329050164473C35.80652960526316 15.03320199424342 35.36714124177632 14.806638466282894 34.80460423519737 14.806638466282894C34.2383203125 14.806638466282894 33.79893194901315 15.031253597861841 33.48643914473684 15.480458881578947C33.173946340460525 15.925792351973683 33.01757504111842 16.50586492598684 33.01757504111842 17.22070158305921C33.01757504111842 17.90039216694079 33.175694901315794 18.472646175986842 33.49218441611842 18.937488589638157C33.80867393092105 19.398434210526315 34.24606393914474 19.62889453125 34.80460423519737 19.62889453125Z" fill="#322D29"></path><path d="M40.58784436677632 14.953117907072368C40.790927220394735 14.671874383223683 41.06445209703947 14.445310855263157 41.40816920230263 14.27342732319079C41.755883018092106 14.10156877055921 42.12108244243421 14.015614514802632 42.50401726973684 14.015614514802632C43.20693873355263 14.015614514802632 43.75773540296053 14.306649979440788 44.15615748355263 14.888670949835527C44.558576274671054 15.466795127467105 44.75966077302632 16.22069962993421 44.75966077302632 17.150384457236843C44.75966077302632 18.08788784950658 44.54883429276316 18.86914483963816 44.126931537828945 19.494130448190788C43.70902549342105 20.11524424342105 43.14449013157895 20.425788651315788 42.433575246710525 20.425788651315788C42.05463712993421 20.425788651315788 41.6991796875 20.332040810032893 41.367202919407895 20.144520148026317C41.038973067434206 19.95312767269737 40.77918688322369 19.701160053453947 40.58784436677632 19.38866724917763V22.681631990131578H39.67384662828947V14.162118935032893H40.58784436677632V14.953117907072368ZM40.58784436677632 15.861320415296053V18.398432257401318C40.75970291940789 18.742199321546053 40.9922615131579 19.029288034539473 41.285270353618415 19.259773334703947C41.57802939967105 19.49023365542763 41.880780222039476 19.605463815789474 42.193273026315794 19.605463815789474C42.68561780427632 19.605463815789474 43.076296258223685 19.37500349506579 43.3653083881579 18.914057874177633C43.658317228618415 18.453137232730263 43.804696751644734 17.88085824424342 43.804696751644734 17.197270867598682C43.804696751644734 16.494149568256578 43.666060855263154 15.919922183388158 43.3887890625 15.47461369243421C43.111267475328944 15.029305201480263 42.724585731907894 14.806638466282894 42.228494037828945 14.806638466282894C41.58402446546053 14.806638466282894 41.037224506578944 15.158199115953947 40.58784436677632 15.861320415296053Z" fill="#322D29"></path><path d="M51.73816714638158 20.267568873355263H50.830164473684206C50.75597553453947 20.02149640213816 50.71875616776316 19.693366467927632 50.71875616776316 19.28320405016447C50.1991837993421 20.044927117598682 49.492265625 20.425788651315788 48.59775185032894 20.425788651315788C48.14462479440789 20.425788651315788 47.74420435855263 20.265620476973684 47.39649054276315 19.945309107730264C47.0527734375 19.621100945723686 46.88091488486842 19.205068359374998 46.88091488486842 18.69726130756579C46.88091488486842 18.39648386101974 46.94136513157894 18.130852487664473 47.062515419407895 17.90039216694079C47.18366570723684 17.669931846217104 47.361269531249995 17.47656599506579 47.595826480263156 17.320319592927632C47.830133634868425 17.160151418585528 48.115149054276316 17.035154296875 48.451122532894736 16.945303248355263C48.78709601151316 16.851555407072368 49.18551809210526 16.787108449835525 49.64638877467105 16.751962376644737L50.67179481907895 16.669929893092107V16.376946032072368C50.67179481907895 15.330082648026316 50.18369654605263 14.806638466282894 49.20700041118421 14.806638466282894C48.976440172697366 14.806638466282894 48.683681126644736 14.857421669407895 48.32822368421053 14.958988075657894C47.976513157894736 15.056632709703948 47.67376233552631 15.173836245888157 47.419971217105264 15.310548725328948L47.179668996710525 14.654288856907893C48.011734169407895 14.228514288651317 48.785097656249995 14.015614514802632 49.50000925164474 14.015614514802632C50.89061472039473 14.015614514802632 51.58604235197369 14.751958470394735 51.58604235197369 16.224621402138155V18.849610916940787C51.58604235197369 19.380848684210523 51.63675061677632 19.853509662828948 51.73816714638158 20.267568873355263ZM50.67179481907895 18.45703402549342V17.349620476973683C49.84772306743421 17.42383439555921 49.28118935032895 17.49415152138158 48.97269325657894 17.560546875C48.667944078947365 17.623045435855264 48.40241262335526 17.74219736842105 48.17584909539473 17.91797769325658C47.95303248355263 18.093758018092107 47.84187397203947 18.332036903782893 47.84187397203947 18.63281435032895C47.84187397203947 18.906239309210527 47.937545230263154 19.126957648026316 48.128887746710525 19.294919407894735C48.320230263157896 19.462881167763157 48.56452919407895 19.54688702713816 48.86128495065789 19.54688702713816C49.18551809210526 19.54688702713816 49.50775287828947 19.451165810032894 49.82823910361842 19.259773334703947C50.14847553453947 19.064459087171052 50.42974403782895 18.796879317434207 50.67179481907895 18.45703402549342Z" fill="#322D29"></path><path d="M59.103605057565794 20.267568873355263H53.51370579769737V14.162118935032893H54.421958264802626V19.476569901315788H55.97468030427631V14.162118935032893H56.882932771381576V19.476569901315788H58.42965974506579V14.162118935032893H59.343657483552626V19.476569901315788H60.02934313322368V21.597649157072365H59.103605057565794V20.267568873355263Z" fill="#322D29"></path><path d="M66.15230365953947 20.267568873355263H65.2440511924342C65.16986225328948 20.02149640213816 65.13289268092105 19.693366467927632 65.13289268092105 19.28320405016447C64.6133203125 20.044927117598682 63.90615234375 20.425788651315788 63.01163856907895 20.425788651315788C62.558511513157896 20.425788651315788 62.15809107730263 20.265620476973684 61.81062705592105 19.945309107730264C61.46690995065789 19.621100945723686 61.29480160361842 19.205068359374998 61.29480160361842 18.69726130756579C61.29480160361842 18.39648386101974 61.35550164473684 18.130852487664473 61.47665193256579 17.90039216694079C61.59755242598684 17.669931846217104 61.775406044407895 17.47656599506579 62.009713199013156 17.320319592927632C62.244020353618424 17.160151418585528 62.52928556743421 17.035154296875 62.86525904605263 16.945303248355263C63.20123252467105 16.851555407072368 63.599654605263154 16.787108449835525 64.06052528782894 16.751962376644737L65.08593133223684 16.669929893092107V16.376946032072368C65.08593133223684 15.330082648026316 64.59758326480264 14.806638466282894 63.6211369243421 14.806638466282894C63.39057668585526 14.806638466282894 63.097567845394735 14.857421669407895 62.74211040296053 14.958988075657894C62.39064967105263 15.056632709703948 62.08789884868421 15.173836245888157 61.834107730263156 15.310548725328948L61.59380550986842 14.654288856907893C62.42587068256579 14.228514288651317 63.199234169407895 14.015614514802632 63.914145764802626 14.015614514802632C65.30475123355264 14.015614514802632 65.99992907072368 14.751958470394735 65.99992907072368 16.224621402138155V18.849610916940787C65.99992907072368 19.380848684210523 66.05088712993421 19.853509662828948 66.15230365953947 20.267568873355263ZM65.08593133223684 18.45703402549342V17.349620476973683C64.26160978618421 17.42383439555921 63.69532586348684 17.49415152138158 63.38682976973684 17.560546875C63.082080592105264 17.623045435855264 62.81629934210526 17.74219736842105 62.58973581414473 17.91797769325658C62.367168996710525 18.093758018092107 62.25576069078947 18.332036903782893 62.25576069078947 18.63281435032895C62.25576069078947 18.906239309210527 62.35168174342105 19.126957648026316 62.54302425986842 19.294919407894735C62.73436677631579 19.462881167763157 62.97841591282895 19.54688702713816 63.27542146381579 19.54688702713816C63.599654605263154 19.54688702713816 63.921889391447365 19.451165810032894 64.24212582236842 19.259773334703947C64.56261204769737 19.064459087171052 64.84363075657895 18.796879317434207 65.08593133223684 18.45703402549342Z" fill="#322D29"></path><path d="M73.3124105674342 14.953117907072368H71.29681949013158V20.267568873355263H70.38856702302631V14.953117907072368H68.37297594572368V14.162118935032893H73.3124105674342V14.953117907072368Z" fill="#322D29"></path><path d="M77.22069387335526 16.464848684210526H77.85941817434211C78.64851870888158 16.464848684210526 79.25402035361842 16.632810444078945 79.67567331414473 16.968758943256578C80.10157277960526 17.300785670230262 80.31439761513157 17.771473273026317 80.31439761513157 18.380871710526318C80.31439761513157 18.994141961348685 80.10556949013157 19.462881167763157 79.6874136513158 19.787114309210526C79.27350431743422 20.10742567845395 78.66800267269737 20.267568873355263 77.87115851151316 20.267568873355263H76.30669613486842V14.162118935032893H77.22069387335526V16.464848684210526ZM77.22069387335526 19.476569901315788H77.85941817434211C78.85934518914473 19.476569901315788 79.35943359375 19.111320518092107 79.35943359375 18.380871710526318C79.35943359375 17.63086400082237 78.85934518914473 17.25584765625 77.85941817434211 17.25584765625H77.22069387335526V19.476569901315788Z" fill="#322D29"></path><path d="M87.5976531661184 20.062487664473686C87.06634046052632 20.30468832236842 86.48232113486841 20.425788651315788 85.84559518914475 20.425788651315788C84.88488589638158 20.425788651315788 84.11726768092105 20.13475318667763 83.54299033717105 19.552732216282894C82.97270970394736 18.96678947368421 82.68744449013157 18.18945425575658 82.68744449013157 17.22070158305921C82.68744449013157 16.251948910361843 82.97470805921053 15.47656208881579 83.54873560855263 14.894541118421053C84.12700966282895 14.308598375822369 84.88488589638158 14.015614514802632 85.82236430921053 14.015614514802632C86.4356095805921 14.015614514802632 87.01962890625 14.123051089638157 87.57417249177631 14.33789925986842L87.33387027138157 15.093752158717106C86.77932668585527 14.902334703947368 86.27923828125 14.806638466282894 85.83410464638159 14.806638466282894C85.16215768914473 14.806638466282894 84.62884662828947 15.023435032894737 84.23442125822368 15.45702816611842C83.84374280427632 15.890621299342106 83.64840357730263 16.47851243832237 83.64840357730263 17.22070158305921C83.64840357730263 17.90039216694079 83.85148643092106 18.472646175986842 84.2579019325658 18.937488589638157C84.66406763980262 19.398434210526315 85.19338199013157 19.62889453125 85.84559518914475 19.62889453125C86.36142064144737 19.62889453125 86.89248355263157 19.529301500822367 87.43953330592105 19.330090460526314L87.5976531661184 20.062487664473686Z" fill="#322D29"></path><path d="M94.47649157072368 20.267568873355263H93.56823910361842V17.771473273026317H92.5723087993421L90.82025082236842 20.267568873355263H89.76561883223684L91.69328227796052 17.542961348684212C91.29486019736842 17.421885999177633 90.97862047697369 17.208986225328946 90.74406352796052 16.904287006578947C90.51375308388158 16.59961276726974 90.39834806743421 16.25976747532895 90.39834806743421 15.884776110197368C90.39834806743421 15.349616570723683 90.58019839638159 14.92968719161184 90.94339946546052 14.624987972861842C91.30660053453947 14.316416940789473 91.80469058388158 14.162118935032893 92.43741981907894 14.162118935032893H94.47649157072368V20.267568873355263ZM93.56823910361842 16.98047430098684V14.964833264802632H92.548828125C92.16214638157895 14.964833264802632 91.86139391447368 15.046865748355263 91.6465707236842 15.210930715460526C91.43174753289475 15.37109888980263 91.3243359375 15.595714021381578 91.3243359375 15.884776110197368C91.3243359375 16.18555355674342 91.44923314144737 16.44336636513158 91.69927734375 16.658214535361843C91.94932154605263 16.873037726151317 92.24807565789473 16.98047430098684 92.5957894736842 16.98047430098684H93.56823910361842Z" fill="#322D29"></path><path d="M109.83984683388158 20.267568873355263H108.63858552631578L106.04871710526315 17.232416940789474L105.45120888157894 17.74804255756579V20.267568873355263H104.53721114309211V14.162118935032893H105.45120888157894V16.740222039473686L108.31635074013158 14.162118935032893H109.48239103618421L106.69918174342105 16.658214535361843L109.83984683388158 20.267568873355263Z" fill="#322D29"></path><path d="M123.63274465460526 20.267568873355263H122.70700657894737V17.25584765625H119.86534539473683V20.267568873355263H118.95109786184211V14.162118935032893H119.86534539473683V16.464848684210526H122.70700657894737V14.162118935032893H123.63274465460526V20.267568873355263Z" fill="#322D29"></path><path d="M131.0156681743421 20.267568873355263H130.10741570723684C130.0332267680921 20.02149640213816 129.9960074013158 19.693366467927632 129.9960074013158 19.28320405016447C129.47668482730262 20.044927117598682 128.7695168585526 20.425788651315788 127.87500308388158 20.425788651315788C127.42187602796054 20.425788651315788 127.02145559210527 20.265620476973684 126.6737417763158 19.945309107730264C126.33002467105263 19.621100945723686 126.15816611842105 19.205068359374998 126.15816611842105 18.69726130756579C126.15816611842105 18.39648386101974 126.21886615953947 18.130852487664473 126.33976665296052 17.90039216694079C126.46091694078947 17.669931846217104 126.63877055921051 17.47656599506579 126.87307771381579 17.320319592927632C127.10738486842105 17.160151418585528 127.39265008223684 17.035154296875 127.72862356085525 16.945303248355263C128.0643472450658 16.851555407072368 128.4627693256579 16.787108449835525 128.92388980263158 16.751962376644737L129.94929584703948 16.669929893092107V16.376946032072368C129.94929584703948 15.330082648026316 129.46094777960525 14.806638466282894 128.48425164473684 14.806638466282894C128.2539412006579 14.806638466282894 127.96093236019736 14.857421669407895 127.60547491776315 14.958988075657894C127.25401418585525 15.056632709703948 126.95126336348685 15.173836245888157 126.69722245065789 15.310548725328948L126.45692023026317 14.654288856907893C127.28898540296052 14.228514288651317 128.06259868421054 14.015614514802632 128.77726048519736 14.015614514802632C130.16786595394737 14.015614514802632 130.86329358552632 14.751958470394735 130.86329358552632 16.224621402138155V18.849610916940787C130.86329358552632 19.380848684210523 130.91400185032893 19.853509662828948 131.0156681743421 20.267568873355263ZM129.94929584703948 18.45703402549342V17.349620476973683C129.12497430098682 17.42383439555921 128.55869037828947 17.49415152138158 128.24994449013158 17.560546875C127.94519531249999 17.623045435855264 127.6796638569079 17.74219736842105 127.45310032894737 17.91797769325658C127.23053351151316 18.093758018092107 127.1191252055921 18.332036903782893 127.1191252055921 18.63281435032895C127.1191252055921 18.906239309210527 127.21479646381579 19.126957648026316 127.40613898026315 19.294919407894735C127.59773129111841 19.462881167763157 127.84178042763158 19.54688702713816 128.13878597861842 19.54688702713816C128.4627693256579 19.54688702713816 128.78525390625 19.451165810032894 129.10549033717103 19.259773334703947C129.42572676809212 19.064459087171052 129.70699527138157 18.796879317434207 129.94929584703948 18.45703402549342Z" fill="#322D29"></path><path d="M138.62115851151316 20.267568873355263H132.79095703125V14.162118935032893H133.69920949835526V19.476569901315788H135.25193153782894V14.162118935032893H136.16018400493422V19.476569901315788H137.7069109786184V14.162118935032893H138.62115851151316V20.267568873355263Z" fill="#322D29"></path><path d="M145.4590306332237 17.244132298519737H141.26947882401316C141.26947882401316 17.935538240131578 141.46881476151316 18.505868832236843 141.86723684210526 18.95507411595395C142.2696556332237 19.404304379111842 142.76175061677634 19.62889453125 143.34377158717103 19.62889453125C143.89831517269738 19.62889453125 144.47059416118418 19.529301500822367 145.06060855263158 19.330090460526314L145.21872841282894 20.062487664473686C144.67967208059213 20.30468832236842 144.05068976151315 20.425788651315788 143.33203124999997 20.425788651315788C142.4257771381579 20.425788651315788 141.6953782894737 20.13475318667763 141.14058490953948 19.552732216282894C140.58604132401317 18.970711245888157 140.3085197368421 18.18555746299342 140.3085197368421 17.197270867598682C140.3085197368421 16.228518194901316 140.55656558388156 15.45702816611842 141.05265727796052 14.88280078125C141.55274568256579 14.30467660361842 142.1972152549342 14.015614514802632 142.9863157894737 14.015614514802632C143.68948704769736 14.015614514802632 144.27725328947366 14.283194284539473 144.75011410361842 14.818353824013158C145.22272512335527 15.353513363486842 145.4590306332237 16.06640162417763 145.4590306332237 16.957043585526314V17.244132298519737ZM144.46285053453946 16.499994757401314C144.46285053453946 16.02343698601974 144.31447265625 15.623041529605262 144.01746710526314 15.298833367598684C143.7207113486842 14.970703433388158 143.38873458059211 14.806638466282894 143.02153680098684 14.806638466282894C142.54892578124998 14.806638466282894 142.15624897203946 14.962884868421051 141.84375616776316 15.275402652138157C141.53526007401314 15.587895456414474 141.36340152138158 15.996084498355264 141.32818050986842 16.499994757401314H144.46285053453946Z" fill="#322D29"></path><path d="M153.03504523026317 20.267568873355263H152.0975668174342V14.906256476151317L150.56258018092103 20.267568873355263H149.61336143092106L148.08986533717103 14.906256476151317V20.267568873355263H147.20509354440787V14.162118935032893H148.78704152960526L150.1171967516447 19.042976768092103L151.51179893092106 14.162118935032893H153.03504523026317V20.267568873355263Z" fill="#322D29"></path><path d="M159.9668400493421 14.162118935032893L157.6522450657895 20.267568873355263C157.31652138157895 21.166004420230262 156.9825462582237 21.792963404605263 156.65031969572368 22.148445826480263C156.32233963815787 22.50390326891447 155.9471484375 22.681631990131578 155.5254954769737 22.681631990131578C155.15030427631578 22.681631990131578 154.7793595805921 22.61328824013158 154.41216180098684 22.476550781249998L154.56453638980264 21.74412859786184C154.86129214638157 21.837901418585528 155.12707339638158 21.884762849506576 155.36138055098684 21.884762849506576C155.68936060855262 21.884762849506576 155.95888877467107 21.757817331414476 156.1699650493421 21.503901315789474C156.38079152960526 21.25001027960526 156.59386615953946 20.83397769325658 156.80868935032893 20.255853515625002L154.5175750411184 14.162118935032893H155.51375513980264L157.2420826480263 19.031261410361843L158.97065995065788 14.162118935032893H159.9668400493421Z" fill="#322D29"></path><path d="M11.923836143092105 32.06261101973684C11.392573396381579 32.304661800986835 10.808604029605263 32.42581208881579 10.171878083881579 32.42581208881579C9.210943976151315 32.42581208881579 8.44335074013158 32.13480160361842 7.869148334703947 31.552780633223684C7.298817742598684 30.96676295230263 7.013677425986842 30.18940275493421 7.013677425986842 29.22070004111842C7.013677425986842 28.251997327302632 7.300791118421053 27.476635485197367 7.874993523848684 26.89461451480263C8.453117701480263 26.308596833881577 9.210943976151315 26.01558799342105 10.148447368421053 26.01558799342105C10.76171761924342 26.01558799342105 11.345711965460527 26.12299958881579 11.90038044819079 26.337822779605265L11.660153166118421 27.093700657894736C11.105459703947368 26.902358141447365 10.605471217105263 26.806686883223684 10.160162726151317 26.806686883223684C9.488290707236843 26.806686883223684 8.955079564144738 27.023508429276315 8.56055427631579 27.457151521381576C8.16992578125 27.890544819078947 7.9746115337171055 28.478560855263154 7.9746115337171055 29.22070004111842C7.9746115337171055 29.900390625 8.177744346217105 30.47266961348684 8.583984991776315 30.937537006578946C8.990225637335525 31.398407689144737 9.519539987664473 31.628967927631578 10.171878083881579 31.628967927631578C10.687503700657896 31.628967927631578 11.218741467927632 31.52929995888158 11.765616365131578 31.329964021381578L11.923836143092105 32.06261101973684Z" fill="#322D29"></path><path d="M18.058586965460528 29.027359169407895C18.42578474506579 29.105544819078947 18.730458984375 29.275405016447365 18.972659642269736 29.53718955592105C19.214835320723683 29.798724300986844 19.33593564967105 30.076245888157892 19.33593564967105 30.36925472861842C19.33593564967105 30.974506578947366 19.125009251644737 31.44337068256579 18.703131476151317 31.775347450657893C18.285150493421053 32.10357730263158 17.79882576069079 32.267692228618415 17.244132298519737 32.267692228618415H14.449207648026315V26.16221731085526H16.875011101973683C17.51171206825658 26.16221731085526 18.025389288651315 26.308596833881577 18.416017783717106 26.601605674342103C18.810543071546054 26.89461451480263 19.007805715460528 27.28704152960526 19.007805715460528 27.77938630756579C19.007805715460528 28.07214535361842 18.91600627055921 28.335928248355263 18.732432360197368 28.570235402960524C18.548833470394737 28.80479235197368 18.32421833881579 28.956917146381578 18.058586965460528 29.027359169407895ZM15.363280324835527 28.669903371710525H16.89844181743421C17.66406167763158 28.669903371710525 18.04687160773026 28.38488795230263 18.04687160773026 27.814357524671053C18.04687160773026 27.54882606907895 17.937511615953948 27.339748149671053 17.718741673519737 27.18762335526316C17.499996710526315 27.03125205592105 17.214831414473682 26.95306640625 16.863270764802632 26.95306640625H15.363280324835527V28.669903371710525ZM15.363280324835527 31.47659333881579H17.080067331414472C17.45508367598684 31.47659333881579 17.76170631167763 31.380922080592104 18.00001017680921 31.18932976973684C18.24218585526316 30.997987253289473 18.363286184210526 30.734454152960527 18.363286184210526 30.398480674342107C18.363286184210526 30.10147512335526 18.23047049753289 29.871164679276315 17.96483912417763 29.707049753289475C17.703129523026316 29.54293482730263 17.359387438322365 29.46100226151316 16.933587890625 29.46100226151316H15.363280324835527V31.47659333881579Z" fill="#322D29"></path><path d="M26.513678042763157 32.267692228618415H25.605425575657893C25.531236636513157 32.02139494243421 25.49401726973684 31.69341488486842 25.49401726973684 31.283252467105264C24.974619757401314 32.04487561677632 24.26757668585526 32.42581208881579 23.373037931743422 32.42581208881579C22.919910875822367 32.42581208881579 22.519540398848683 32.26569387335527 22.171876541940787 31.945207648026315C21.828134457236843 31.620974506578946 21.65625092516447 31.20506681743421 21.65625092516447 30.69723478618421C21.65625092516447 30.39648231907895 21.716801089638157 30.13095086348684 21.837901418585528 29.900390625C21.958976768092104 29.66983038651316 22.13673046875 29.47648951480263 22.371087582236843 29.32036800986842C22.605469675164475 29.160249794407893 22.890634971217104 29.03510279605263 23.226558490953945 28.94542660361842C23.56250699013158 28.851503906250002 23.960929070723683 28.787056949013156 24.42187469161184 28.7518359375L25.447305715460526 28.669903371710525V28.37689453125C25.447305715460526 27.330006167763155 24.958982627467105 26.806686883223684 23.982411389802632 26.806686883223684C23.751951069078945 26.806686883223684 23.4589921875 26.857395148026317 23.103509765625 26.959061472039473C22.75194911595395 27.056731085526316 22.449223273026316 27.173884662828947 22.195307257401314 27.310522203947365L21.955079975328946 26.654312294407895C22.787120168585528 26.228412828947366 23.56055859375 26.01558799342105 24.275395250822367 26.01558799342105C25.666125616776313 26.01558799342105 26.361303453947368 26.751981907894738 26.361303453947368 28.22451994243421V30.849609375C26.361303453947368 31.380922080592104 26.412011718749998 31.85353310032895 26.513678042763157 32.267692228618415ZM25.447305715460526 30.456932565789472V29.349593955592105C24.623059107730263 29.423782894736842 24.056650287828948 29.494224917763155 23.74805427631579 29.56067023026316C23.44335505756579 29.62311883223684 23.177723684210527 29.74227076480263 22.95116015625 29.91787623355263C22.72851840049342 30.093731496710525 22.617185032894735 30.332035361842102 22.617185032894735 30.632787828947368C22.617185032894735 30.906312705592107 22.71288127055921 31.126881167763155 22.904298725328946 31.294992804276315C23.095691200657892 31.46285464638158 23.33984025493421 31.54678556743421 23.636720908717106 31.54678556743421C23.960929070723683 31.54678556743421 24.283213815789473 31.451114309210524 24.603525185032893 31.259771792763157C24.923836554276317 31.064432565789474 25.205005139802633 30.79690275493421 25.447305715460526 30.456932565789472Z" fill="#322D29"></path><path d="M34.11916837993421 33.46870374177632H33.20517064144737V32.267692228618415H28.921945929276315V33.46870374177632H28.01369346217105V31.47659333881579H28.505788445723685C28.970655838815787 31.078171258223684 29.347595600328944 30.51163754111842 29.636607730263158 29.777241981907892C29.92961657072368 29.042846422697366 30.076245888157892 28.20903268914474 30.076245888157892 27.27530119243421V26.16221731085526H33.445223067434206V31.47659333881579H34.11916837993421V33.46870374177632ZM32.53722039473684 31.47659333881579V26.95306640625H30.990243626644737V27.058479646381578C30.990243626644737 27.97647409539474 30.86709498355263 28.824276315789472 30.621047491776313 29.601636513157896C30.378996710526316 30.374999999999996 30.06450555098684 30.99998560855263 29.677823807565787 31.47659333881579H32.53722039473684Z" fill="#322D29"></path><path d="M40.957040501644734 29.244180715460523H36.76748869243421C36.76748869243421 29.935611636513155 36.96682462993421 30.50589226973684 37.365246710526314 30.95502261513158C37.767665501644736 31.40440275493421 38.25976048519737 31.628967927631578 38.841781455592105 31.628967927631578C39.396574835526316 31.628967927631578 39.96885382401316 31.52929995888158 40.55861842105263 31.329964021381578L40.71673828125 32.06261101973684C40.177681949013156 32.304661800986835 39.548949424342105 32.42581208881579 38.83004111842105 32.42581208881579C37.92378700657895 32.42581208881579 37.19338815789473 32.13480160361842 36.63859477796053 31.552780633223684C36.08405119243421 30.970759662828947 35.80652960526316 30.185655838815787 35.80652960526316 29.197219366776316C35.80652960526316 28.228516652960526 36.05457545230263 27.457151521381576 36.55066714638158 26.882874177631578C37.050755550986835 26.304600123355264 37.695225123355264 26.01558799342105 38.484325657894736 26.01558799342105C39.18749691611842 26.01558799342105 39.775512952302634 26.283117804276312 40.24812397203947 26.818427220394735C40.72073499177631 27.353486842105262 40.957040501644734 28.066400082236843 40.957040501644734 28.956917146381578V29.244180715460523ZM39.96086040296053 28.500043174342103C39.96086040296053 28.02343544407895 39.812482524671054 27.623015008223682 39.51572676809211 27.298781866776313C39.21872121710526 26.970801809210524 38.88674444901316 26.806686883223684 38.519546669407895 26.806686883223684C38.04693564967105 26.806686883223684 37.65425884046053 26.962808388157892 37.34176603618421 27.27530119243421C37.03326994243421 27.587793996710523 36.86141138980263 27.99620785361842 36.82619037828947 28.500043174342103H39.96086040296053Z" fill="#322D29"></path><path d="M43.95107627467105 26.689533305921053C44.345751439144735 26.240153166118418 44.90029502467105 26.01558799342105 45.615206620065784 26.01558799342105C46.4550154194079 26.01558799342105 47.12296566611842 26.308596833881577 47.61905736019737 26.89461451480263C48.115149054276316 27.48038240131579 48.36319490131579 28.251997327302632 48.36319490131579 29.208959703947368C48.36319490131579 30.173915501644736 48.115149054276316 30.951275699013156 47.61905736019737 31.541040296052632C47.12296566611842 32.130804893092105 46.4550154194079 32.42581208881579 45.615206620065784 32.42581208881579C44.77140111019737 32.42581208881579 44.10145250822368 32.13280324835526 43.60536081414474 31.54678556743421C43.113265830592105 30.957020970394737 42.86721833881579 30.17766241776316 42.86721833881579 29.208959703947368V29.17373869243421C42.86721833881579 25.669872532894736 43.81244037828947 23.91796443256579 45.703134251644734 23.91796443256579C45.98040604440789 23.91796443256579 46.28315686677632 23.941395148026313 46.61138671875 23.988281558388156C46.88091488486842 24.027349403782896 47.113223684210524 24.046883326480263 47.308562911184204 24.046883326480263C47.60931537828947 24.046883326480263 47.83787726151316 24.007815481085526 47.99424856085526 23.929679790296053V24.720703741776315C47.75194798519737 24.791020867598682 47.523386101973685 24.82616694078947 47.308562911184204 24.82616694078947C47.054771792763155 24.82616694078947 46.75776624177632 24.804684621710525 46.41804584703947 24.76171998355263C46.128783922697366 24.726573910361843 45.894476768092105 24.70898838404605 45.71487458881579 24.70898838404605C45.222779605263156 24.70898838404605 44.83409950657895 24.86133799342105 44.54883429276316 25.16603721217105C44.26356907894736 25.466789679276314 44.06448293585526 25.974621710526314 43.95107627467105 26.689533305921053ZM45.615206620065784 31.628967927631578C46.169999999999995 31.628967927631578 46.60739000822368 31.39441097861842 46.92762643914474 30.925796669407895C47.24811266447368 30.456932565789472 47.40823087993421 29.88865028782895 47.40823087993421 29.22070004111842C47.40823087993421 28.517528782894736 47.25011101973684 27.939504523026315 46.93362150493421 27.486377467105264C46.61713199013158 27.03325041118421 46.177743626644734 26.806686883223684 45.615206620065784 26.806686883223684C45.04892269736842 26.806686883223684 44.609284539473684 27.03125205592105 44.29679173519737 27.48038240131579C43.98429893092105 27.925765830592105 43.82817742598684 28.505788445723685 43.82817742598684 29.22070004111842C43.82817742598684 29.900390625 43.98629728618421 30.47266961348684 44.302786800986844 30.937537006578946C44.61902652138158 31.398407689144737 45.05666632401316 31.628967927631578 45.615206620065784 31.628967927631578Z" fill="#322D29"></path><path d="M55.16609580592105 32.267692228618415H54.240357730263156V29.255921052631578H51.398446751644734V32.267692228618415H50.4844490131579V26.16221731085526H51.398446751644734V28.46482216282895H54.240357730263156V26.16221731085526H55.16609580592105V32.267692228618415Z" fill="#322D29"></path><path d="M60.02934313322368 26.01558799342105C60.869151932565785 26.01558799342105 61.53710217927632 26.308596833881577 62.03319387335526 26.89461451480263C62.52928556743421 27.48038240131579 62.777331414473686 28.251997327302632 62.777331414473686 29.208959703947368C62.777331414473686 30.173915501644736 62.52928556743421 30.951275699013156 62.03319387335526 31.541040296052632C61.53710217927632 32.130804893092105 60.869151932565785 32.42581208881579 60.02934313322368 32.42581208881579C59.185537623355266 32.42581208881579 58.51558902138158 32.13280324835526 58.01949732730263 31.54678556743421C57.52740234375 30.957020970394737 57.28135485197368 30.17766241776316 57.28135485197368 29.208959703947368C57.28135485197368 28.248000616776313 57.52940069901315 27.476635485197367 58.02549239309211 26.89461451480263C58.52158408717105 26.308596833881577 59.189534333881575 26.01558799342105 60.02934313322368 26.01558799342105ZM60.02934313322368 31.628967927631578C60.583886718749994 31.628967927631578 61.02152652138158 31.39441097861842 61.34176295230263 30.925796669407895C61.66199938322368 30.456932565789472 61.8223673930921 29.88865028782895 61.8223673930921 29.22070004111842C61.8223673930921 28.517528782894736 61.66399773848684 27.939504523026315 61.3477580180921 27.486377467105264C61.03126850328947 27.03325041118421 60.59188013980263 26.806686883223684 60.02934313322368 26.806686883223684C59.46280941611842 26.806686883223684 59.02342105263158 27.03125205592105 58.710928248355266 27.48038240131579C58.39843544407895 27.925765830592105 58.24206414473684 28.505788445723685 58.24206414473684 29.22070004111842C58.24206414473684 29.900390625 58.4004337993421 30.47266961348684 58.716673519736844 30.937537006578946C59.03316303453947 31.398407689144737 59.47080283717105 31.628967927631578 60.02934313322368 31.628967927631578Z" fill="#322D29"></path><path d="M70.15425986842105 32.267692228618415H69.21678145559211V26.906354851973685L67.68154502467105 32.267692228618415H66.73232627467105L65.20907997532895 26.906354851973685V32.267692228618415H64.32430818256579V26.16221731085526H65.90625616776315L67.23641138980263 31.042950246710525L68.63076377467105 26.16221731085526H70.15425986842105V32.267692228618415Z" fill="#322D29"></path><path d="M77.0860546875 26.16221731085526L74.77145970394737 32.267692228618415C74.43548622532896 33.16595291940789 74.10151110197367 33.79293688322368 73.76953433388158 34.14839432565789C73.44130448190789 34.503851768092105 73.06636307565789 34.68170538651316 72.64446032072368 34.68170538651316C72.26951891447368 34.68170538651316 71.89832442434209 34.61326171875 71.53112664473684 34.47662417763158L71.68350123355263 33.744226973684206C71.98050678453947 33.837899876644734 72.24603824013157 33.88486122532895 72.48034539473684 33.88486122532895C72.80857524671052 33.88486122532895 73.07810341282895 33.75771587171052 73.28917968750001 33.503924753289475C73.50000616776316 33.24988384046053 73.71283100328947 32.83397615131579 73.92765419407895 32.25595189144737L71.63678967927632 26.16221731085526H72.63271998355262L74.36129728618421 31.031209909539474L76.08987458881579 26.16221731085526H77.0860546875Z" fill="#322D29"></path><path d="M88.85736636513157 26.01558799342105C89.69717516447368 26.01558799342105 90.36512541118421 26.308596833881577 90.86121710526317 26.89461451480263C91.3573087993421 27.48038240131579 91.60535464638158 28.251997327302632 91.60535464638158 29.208959703947368C91.60535464638158 30.173915501644736 91.3573087993421 30.951275699013156 90.86121710526317 31.541040296052632C90.36512541118421 32.130804893092105 89.69717516447368 32.42581208881579 88.85736636513157 32.42581208881579C88.01356085526315 32.42581208881579 87.34386204769737 32.13280324835526 86.84777035361843 31.54678556743421C86.3554255756579 30.957020970394737 86.10937808388158 30.17766241776316 86.10937808388158 29.208959703947368C86.10937808388158 28.248000616776313 86.35742393092104 27.476635485197367 86.853515625 26.89461451480263C87.34960731907894 26.308596833881577 88.01755756578947 26.01558799342105 88.85736636513157 26.01558799342105ZM88.85736636513157 31.628967927631578C89.41215974506578 31.628967927631578 89.84954975328948 31.39441097861842 90.17003597861842 30.925796669407895C90.49027240953947 30.456932565789472 90.65039062499999 29.88865028782895 90.65039062499999 29.22070004111842C90.65039062499999 28.517528782894736 90.49227076480263 27.939504523026315 90.17578125 27.486377467105264C89.85929173519737 27.03325041118421 89.41990337171052 26.806686883223684 88.85736636513157 26.806686883223684C88.2910824424342 26.806686883223684 87.85144428453947 27.03125205592105 87.53895148026317 27.48038240131579C87.22645867598683 27.925765830592105 87.07033717105263 28.505788445723685 87.07033717105263 29.22070004111842C87.07033717105263 29.900390625 87.22845703125 30.47266961348684 87.54494654605263 30.937537006578946C87.86143606085527 31.398407689144737 88.29882606907894 31.628967927631578 88.85736636513157 31.628967927631578Z" fill="#322D29"></path><path d="M94.64060649671053 26.95306640625C94.84368935032894 26.671797902960527 95.11721422697367 26.445234375 95.46093133223684 26.273375822368422C95.80864514802632 26.101517269736842 96.17384457236842 26.01558799342105 96.55652960526315 26.01558799342105C97.25970086348684 26.01558799342105 97.81049753289474 26.306598478618422 98.20891961348684 26.888619449013156C98.61133840460526 27.466893503289473 98.81242290296052 28.22077302631579 98.81242290296052 29.1505078125C98.81242290296052 30.087986225328944 98.60159642269737 30.86909333881579 98.17969366776315 31.49407894736842C97.76178762335527 32.11531763980263 97.19725226151316 32.42581208881579 96.48633737664473 32.42581208881579C96.10739925986842 32.42581208881579 95.7519418174342 32.33213918585526 95.41996504934211 32.144543585526314C95.09173519736842 31.953201069078947 94.8319490131579 31.70115851151316 94.64060649671053 31.388665707236843V34.68170538651316H93.72660875822368V26.16221731085526H94.64060649671053V26.95306640625ZM94.64060649671053 27.861318873355263V30.398480674342107C94.81246504934211 30.74219777960526 95.04502364309211 31.029211554276312 95.33778268914475 31.259771792763157C95.63079152960526 31.49033203125 95.93354235197368 31.60548725328947 96.24603515624999 31.60548725328947C96.73837993421053 31.60548725328947 97.12880859375 31.37492701480263 97.41807051809211 30.91405633223684C97.71082956414475 30.453185649671052 97.85745888157895 29.88090666118421 97.85745888157895 29.197219366776316C97.85745888157895 28.49404810855263 97.71882298519736 27.920020559210528 97.44130139802631 27.474637129934212C97.16402960526315 27.029253700657893 96.7773478618421 26.806686883223684 96.28125616776316 26.806686883223684C95.63678659539474 26.806686883223684 95.08973684210527 27.158147615131575 94.64060649671053 27.861318873355263Z" fill="#322D29"></path><path d="M105.0880078125 26.95306640625H102.68548519736841V32.267692228618415H101.77148745888158V26.16221731085526H105.0880078125V26.95306640625Z" fill="#322D29"></path><path d="M112.99799753289473 32.267692228618415H112.08974506578947C112.01555612664473 32.02139494243421 111.97858655427632 31.69341488486842 111.97858655427632 31.283252467105264C111.45901418585525 32.04487561677632 110.75184621710527 32.42581208881579 109.85733244243421 32.42581208881579C109.40420538651315 32.42581208881579 109.0037849506579 32.26569387335527 108.65632092927632 31.945207648026315C108.31260382401317 31.620974506578946 108.14074527138158 31.20506681743421 108.14074527138158 30.69723478618421C108.14074527138158 30.39648231907895 108.2011955180921 30.13095086348684 108.32234580592106 29.900390625C108.4432462993421 29.66983038651316 108.62109991776315 29.47648951480263 108.85540707236841 29.32036800986842C109.08996402138158 29.160249794407893 109.37497944078947 29.03510279605263 109.71095291940789 28.94542660361842C110.04692639802632 28.851503906250002 110.44534847861841 28.787056949013156 110.90621916118421 28.7518359375L111.93162520559211 28.669903371710525V28.37689453125C111.93162520559211 27.330006167763155 111.44327713815788 26.806686883223684 110.46683079769737 26.806686883223684C110.23627055921052 26.806686883223684 109.94326171875 26.857395148026317 109.58780427631578 26.959061472039473C109.23634354440789 27.056731085526316 108.93359272203948 27.173884662828947 108.67980160361842 27.310522203947365L108.43949938322369 26.654312294407895C109.27156455592106 26.228412828947366 110.04492804276315 26.01558799342105 110.75983963815789 26.01558799342105C112.1504451069079 26.01558799342105 112.84562294407895 26.751981907894738 112.84562294407895 28.22451994243421V30.849609375C112.84562294407895 31.380922080592104 112.89658100328948 31.85353310032895 112.99799753289473 32.267692228618415ZM111.93162520559211 30.456932565789472V29.349593955592105C111.10730365953947 29.423782894736842 110.5410197368421 29.494224917763155 110.23252364309211 29.56067023026316C109.92777446546052 29.62311883223684 109.66199321546053 29.74227076480263 109.43542968749999 29.91787623355263C109.21286287006579 30.093731496710525 109.10145456414473 30.332035361842102 109.10145456414473 30.632787828947368C109.10145456414473 30.906312705592107 109.19737561677631 31.126881167763155 109.38871813322369 31.294992804276315C109.58006064967104 31.46285464638158 109.82410978618421 31.54678556743421 110.12111533717105 31.54678556743421C110.44534847861841 31.54678556743421 110.76758326480262 31.451114309210524 111.08781969572368 31.259771792763157C111.40830592105263 31.064432565789474 111.6895744243421 30.79690275493421 111.93162520559211 30.456932565789472Z" fill="#322D29"></path><path d="M120.0292105263158 32.267692228618415H119.10347245065789V29.255921052631578H116.26181126644737V32.267692228618415H115.34756373355262V26.16221731085526H116.26181126644737V28.46482216282895H119.10347245065789V26.16221731085526H120.0292105263158V32.267692228618415Z" fill="#322D29"></path><path d="M127.23627878289473 32.267692228618415H126.31054070723684V27.53908408717105L123.5977734375 32.267692228618415H122.55463199013158V26.16221731085526H123.46862972861842V30.91405633223684L126.19338712993421 26.16221731085526H127.23627878289473V32.267692228618415Z" fill="#322D29"></path><path d="M133.01377364309212 29.00387849506579C133.3847183388158 29.058583470394737 133.7032062088816 29.226445312499997 133.96873766447368 29.507713815789472C134.2342691200658 29.785235402960527 134.36715974506578 30.10147512335526 134.36715974506578 30.456932565789472C134.36715974506578 31.027462993421054 134.10737356085525 31.498075657894738 133.58780119243423 31.86902035361842C133.06847861842104 32.24021484375 132.44923828125 32.42581208881579 131.73057976973683 32.42581208881579C131.03115542763157 32.42581208881579 130.34372121710524 32.232471217105264 129.66802734375 31.84578947368421L130.02548314144735 31.16609888980263C130.6035074013158 31.47459498355263 131.17578638980262 31.628967927631578 131.7420703125 31.628967927631578C132.21867804276314 31.628967927631578 132.6153515625 31.5235546875 132.93159128289474 31.312478412828945C133.2520775082237 31.09765522203947 133.4121957236842 30.820383429276315 133.4121957236842 30.48041324013158C133.4121957236842 30.15618009868421 133.26356805098686 29.908134251644736 132.96681229440787 29.73627569901316C132.66980674342105 29.56067023026316 132.26563939144737 29.47274259868421 131.75381064967104 29.47274259868421H131.09185546875V28.646422697368422H131.66013774671052C132.14848581414472 28.646422697368422 132.53117084703948 28.558495065789472 132.80869243421054 28.382889597039473C133.0899609375 28.20703433388158 133.23034539473684 27.962985197368422 133.23034539473684 27.650492393092104C133.23034539473684 27.419932154605263 133.1034498355263 27.222594572368422 132.84965871710526 27.058479646381578C132.59561780427632 26.890617804276314 132.29486533717105 26.806686883223684 131.94715152138156 26.806686883223684C131.34564658717107 26.806686883223684 130.7928515625 26.902358141447365 130.28901624177632 27.093700657894736L129.91982010690788 26.402269736842104C130.13864000822366 26.29285978618421 130.44139083059213 26.201185238486843 130.82807257401316 26.126996299342103C131.21475431743423 26.052807360197367 131.57620682565792 26.01558799342105 131.91218030427632 26.01558799342105C132.63083881578947 26.01558799342105 133.19912109375 26.163965871710527 133.61727693256577 26.460971422697366C134.0391796875 26.753980263157892 134.25000616776316 27.150403988486843 134.25000616776316 27.650492393092104C134.25000616776316 27.9355078125 134.13285259046052 28.211031044407893 133.89854543585525 28.4765625C133.6679851973684 28.738347039473684 133.37297800164475 28.910205592105264 133.01377364309212 28.992138157894736V29.00387849506579Z" fill="#322D29"></path><path d="M141.82627055921054 32.267692228618415H140.91801809210526C140.84382915296052 32.02139494243421 140.80660978618423 31.69341488486842 140.80660978618423 31.283252467105264C140.28703741776314 32.04487561677632 139.58011924342105 32.42581208881579 138.68560546875 32.42581208881579C138.23247841282895 32.42581208881579 137.8320579769737 32.26569387335527 137.4843441611842 31.945207648026315C137.14062705592104 31.620974506578946 136.96876850328948 31.20506681743421 136.96876850328948 30.69723478618421C136.96876850328948 30.39648231907895 137.02921874999998 30.13095086348684 137.15036903782894 29.900390625C137.2715193256579 29.66983038651316 137.44912314967107 29.47648951480263 137.6836800986842 29.32036800986842C137.91798725328945 29.160249794407893 138.20300267269738 29.03510279605263 138.53897615131578 28.94542660361842C138.8749496299342 28.851503906250002 139.2733717105263 28.787056949013156 139.7344921875 28.7518359375L140.75964843749998 28.669903371710525V28.37689453125C140.75964843749998 27.330006167763155 140.2715501644737 26.806686883223684 139.29485402960526 26.806686883223684C139.0645435855263 26.806686883223684 138.7715347450658 26.857395148026317 138.41607730263158 26.959061472039473C138.06436677631578 27.056731085526316 137.76161595394737 27.173884662828947 137.50782483552632 27.310522203947365L137.26752261513158 26.654312294407895C138.09958778782894 26.228412828947366 138.87295127467104 26.01558799342105 139.5878628700658 26.01558799342105C140.9784683388158 26.01558799342105 141.67389597039474 26.751981907894738 141.67389597039474 28.22451994243421V30.849609375C141.67389597039474 31.380922080592104 141.72460423519738 31.85353310032895 141.82627055921054 32.267692228618415ZM140.75964843749998 30.456932565789472V29.349593955592105C139.93557668585527 29.423782894736842 139.36904296875 29.494224917763155 139.060546875 29.56067023026316C138.75579769736842 29.62311883223684 138.4902662417763 29.74227076480263 138.26370271381577 29.91787623355263C138.04113589638158 30.093731496710525 137.92972759046052 30.332035361842102 137.92972759046052 30.632787828947368C137.92972759046052 30.906312705592107 138.0253988486842 31.126881167763155 138.21674136513158 31.294992804276315C138.40808388157893 31.46285464638158 138.6523828125 31.54678556743421 138.94913856907894 31.54678556743421C139.2733717105263 31.54678556743421 139.59560649671053 31.451114309210524 139.91609272203948 31.259771792763157C140.23632915296054 31.064432565789474 140.51759765625 30.79690275493421 140.75964843749998 30.456932565789472Z" fill="#322D29"></path><path d="M148.98637746710526 26.95306640625H146.9707863898026V32.267692228618415H146.06253392269736V26.95306640625H144.04694284539474V26.16221731085526H148.98637746710526V26.95306640625Z" fill="#322D29"></path><path d="M153.72073087993422 26.01558799342105C154.5605396792763 26.01558799342105 155.22848992598682 26.308596833881577 155.72458162006578 26.89461451480263C156.22067331414473 27.48038240131579 156.4687191611842 28.251997327302632 156.4687191611842 29.208959703947368C156.4687191611842 30.173915501644736 156.22067331414473 30.951275699013156 155.72458162006578 31.541040296052632C155.22848992598682 32.130804893092105 154.5605396792763 32.42581208881579 153.72073087993422 32.42581208881579C152.87692537006578 32.42581208881579 152.2069767680921 32.13280324835526 151.71088507401313 31.54678556743421C151.21879009046054 30.957020970394737 150.97274259868422 30.17766241776316 150.97274259868422 29.208959703947368C150.97274259868422 28.248000616776313 151.22078844572368 27.476635485197367 151.7168801398026 26.89461451480263C152.21297183388157 26.308596833881577 152.88092208059211 26.01558799342105 153.72073087993422 26.01558799342105ZM153.72073087993422 31.628967927631578C154.27527446546054 31.628967927631578 154.7129142680921 31.39441097861842 155.03315069901316 30.925796669407895C155.3536369243421 30.456932565789472 155.51375513980264 29.88865028782895 155.51375513980264 29.22070004111842C155.51375513980264 28.517528782894736 155.35538548519736 27.939504523026315 155.03914576480264 27.486377467105264C154.72265625 27.03325041118421 154.28326788651316 26.806686883223684 153.72073087993422 26.806686883223684C153.15419716282895 26.806686883223684 152.71480879934208 27.03125205592105 152.40231599506578 27.48038240131579C152.08982319078947 27.925765830592105 151.93370168585525 28.505788445723685 151.93370168585525 29.22070004111842C151.93370168585525 29.900390625 152.09182154605264 30.47266961348684 152.40831106085525 30.937537006578946C152.72455078124997 31.398407689144737 153.16219058388157 31.628967927631578 153.72073087993422 31.628967927631578Z" fill="#322D29"></path><path d="M159.50397101151316 26.95306640625C159.7070538651316 26.671797902960527 159.9805787417763 26.445234375 160.32429584703948 26.273375822368422C160.67175986842105 26.101517269736842 161.03720908717105 26.01558799342105 161.41989412006578 26.01558799342105C162.12306537828945 26.01558799342105 162.67386204769736 26.306598478618422 163.07228412828948 26.888619449013156C163.4747029194079 27.466893503289473 163.67578741776313 28.22077302631579 163.67578741776313 29.1505078125C163.67578741776313 30.087986225328944 163.4649609375 30.86909333881579 163.04305818256577 31.49407894736842C162.62490234375 32.11531763980263 162.06061677631578 32.42581208881579 161.34970189144735 32.42581208881579C160.97076377467104 32.42581208881579 160.61530633223683 32.33213918585526 160.28307976973684 32.144543585526314C159.95509971217103 31.953201069078947 159.69531352796054 31.70115851151316 159.50397101151316 31.388665707236843V34.68170538651316H158.58972347861842V26.16221731085526H159.50397101151316V26.95306640625ZM159.50397101151316 27.861318873355263V30.398480674342107C159.67582956414475 30.74219777960526 159.90813836348684 31.029211554276312 160.20114720394736 31.259771792763157C160.4941560444079 31.49033203125 160.7969068667763 31.60548725328947 161.1093996710526 31.60548725328947C161.60149465460526 31.60548725328947 161.9921731085526 31.37492701480263 162.28118523848684 30.91405633223684C162.57419407894736 30.453185649671052 162.72082339638158 29.88090666118421 162.72082339638158 29.197219366776316C162.72082339638158 28.49404810855263 162.5819377055921 27.920020559210528 162.30466591282897 27.474637129934212C162.0273941200658 27.029253700657893 161.64071237664473 26.806686883223684 161.1446206825658 26.806686883223684C160.4999013157895 26.806686883223684 159.9531013569079 27.158147615131575 159.50397101151316 27.861318873355263Z" fill="#322D29"></path><path d="M170.77744243421054 26.16221731085526L168.46284745065788 32.267692228618415C168.12687397203948 33.16595291940789 167.79289884868422 33.79293688322368 167.4609220805921 34.14839432565789C167.13269222861842 34.503851768092105 166.75775082236842 34.68170538651316 166.3358480674342 34.68170538651316C165.9609066611842 34.68170538651316 165.5899619654605 34.61326171875 165.22276418585525 34.47662417763158L165.37488898026314 33.744226973684206C165.67189453125 33.837899876644734 165.9374259868421 33.88486122532895 166.17198293585525 33.88486122532895C166.49996299342104 33.88486122532895 166.76949115953946 33.75771587171052 166.9805674342105 33.503924753289475C167.19139391447368 33.24988384046053 167.40421874999998 32.83397615131579 167.6190419407895 32.25595189144737L165.32817742598684 26.16221731085526H166.32410773026317L168.05268503289474 31.031209909539474L169.7812623355263 26.16221731085526H170.77744243421054Z" fill="#322D29"></path><path d="M175.29497430098684 26.074289679276315C175.49406044407894 26.074289679276315 175.6621720805921 26.142483552631578 175.79880962171052 26.279370888157892C175.93544716282895 26.412011718749998 176.0038908305921 26.576126644736842 176.0038908305921 26.77146587171053C176.0038908305921 26.966805098684212 175.93544716282895 27.13291837993421 175.79880962171052 27.269555921052632C175.6621720805921 27.40244654605263 175.49406044407894 27.46864206414474 175.29497430098684 27.46864206414474C175.09963507401315 27.46864206414474 174.93352179276314 27.40244654605263 174.79688425164474 27.269555921052632C174.66399362664473 27.13291837993421 174.59754831414475 26.966805098684212 174.59754831414475 26.77146587171053C174.59754831414475 26.576126644736842 174.66399362664473 26.412011718749998 174.79688425164474 26.279370888157892C174.93352179276314 26.142483552631578 175.09963507401315 26.074289679276315 175.29497430098684 26.074289679276315ZM175.29497430098684 30.972758018092104C175.49406044407894 30.972758018092104 175.6621720805921 31.03895353618421 175.79880962171052 31.17184416118421C175.93544716282895 31.30473478618421 176.0038908305921 31.470598273026315 176.0038908305921 31.669934210526318C176.0038908305921 31.8652734375 175.93544716282895 32.029388363486845 175.79880962171052 32.16202919407895C175.6621720805921 32.29491981907895 175.49406044407894 32.36136513157894 175.29497430098684 32.36136513157894C175.09963507401315 32.36136513157894 174.93352179276314 32.29491981907895 174.79688425164474 32.16202919407895C174.66399362664473 32.029388363486845 174.59754831414475 31.8652734375 174.59754831414475 31.669934210526318C174.59754831414475 31.470598273026315 174.66399362664473 31.30473478618421 174.79688425164474 31.17184416118421C174.93352179276314 31.03895353618421 175.09963507401315 30.972758018092104 175.29497430098684 30.972758018092104Z" fill="#322D29"></path><path d="M78.4531794819079 51.935504728618426C78.53511204769737 48.9367228618421 79.38291426809211 47.4374568256579 80.9960865542763 47.4374568256579C81.85737767269737 47.4374568256579 82.49760074013157 47.849867393092104 82.91700555098683 48.67468852796053C83.33616056743422 49.49975945723684 83.54598787006579 50.75747430098684 83.54598787006579 52.448332648026316C83.54598787006579 55.784087171052626 82.6959375 57.45221422697368 80.9960865542763 57.45221422697368C80.16676912006578 57.45221422697368 79.54228310032894 57.07852179276316 79.12312808388157 56.331136924342104C78.70821957236842 55.57900596217105 78.48490337171052 54.43969366776315 78.4531794819079 52.91320004111842H77.38680715460526V57.26761615953947H76.26572985197369V47.622054893092105H77.38680715460526V51.935504728618426H78.4531794819079ZM80.9960865542763 56.46777446546052C81.46545024671052 56.46777446546052 81.80966694078947 56.18300884046052 82.02823704769736 55.61322779605263C82.24705694901316 55.04369654605263 82.35646689967105 53.98856496710526 82.35646689967105 52.448332648026316C82.35646689967105 51.36372532894737 82.30850637335526 50.547896792763154 82.21283511513158 50.00109683388158C82.1171638569079 49.454047080592105 81.96903577302632 49.05537520559211 81.76845086348685 48.80458162006578C81.57261204769738 48.549541529605264 81.3150740131579 48.421896587171055 80.9960865542763 48.421896587171055C80.53121916118421 48.421896587171055 80.18950041118421 48.70891036184211 79.97068050986843 49.2831877055921C79.75186060855262 49.852968749999995 79.64270045230263 50.90785053453948 79.64270045230263 52.448332648026316C79.64270045230263 53.98856496710526 79.75186060855262 55.04369654605263 79.97068050986843 55.61322779605263C80.18950041118421 56.18300884046052 80.53121916118421 56.46777446546052 80.9960865542763 56.46777446546052Z" fill="#322D29"></path><path d="M90.99011101973684 57.26761615953947H89.91024979440789V51.067469161184206H86.59472861842104V55.27825349506578C86.59472861842104 56.094082031250004 86.44884868421052 56.650124383223684 86.15733861019737 56.946380550986845C85.87007504111841 57.2423869243421 85.37098581414473 57.39051500822369 84.66007092927632 57.39051500822369H84.39354029605262V56.46777446546052H84.46198396381578C84.89487767269736 56.46777446546052 85.17964329769737 56.36760690789474 85.31653063322369 56.16702199835527C85.45766447368422 55.96643708881579 85.52835629111841 55.6337109375 85.52835629111841 55.16884354440789V50.144478824013156H90.99011101973684V57.26761615953947Z" fill="#322D29"></path><path d="M99.39844058388158 57.26761615953947H98.31832956414473V51.75090666118421L95.15343441611843 57.26761615953947H93.93643606085526V50.144478824013156H95.0028083881579V55.68841591282895L98.18169202302632 50.144478824013156H99.39844058388158V57.26761615953947Z" fill="#322D29"></path><path d="M107.42383532072368 57.26761615953947H106.3642074424342V54.35551295230263H105.20216385690789L103.15809621710525 57.26761615953947H101.92785875822369L104.1767578125 54.088982319078944C103.7118904194079 53.947598684210526 103.34269428453948 53.699303042763155 103.06941920230264 53.34384560032894C102.800390625 52.98838815789473 102.66600123355263 52.59171463815789 102.66600123355263 52.15432462993421C102.66600123355263 51.529838610197366 102.87782689144737 51.03999177631579 103.30172800164475 50.68453433388158C103.72562911184211 50.324580592105264 104.30665090460526 50.144478824013156 105.04504317434211 50.144478824013156H107.42383532072368V57.26761615953947ZM106.3642074424342 53.43252261513158V51.08095805921052H105.17468647203947C104.72355777138156 51.08095805921052 104.37259662828947 51.176879111842105 104.12205283717105 51.36822162828947C103.87150904605262 51.55506784539473 103.74611225328948 51.81710217927631 103.74611225328948 52.15432462993421C103.74611225328948 52.50528577302631 103.89199218750001 52.80603824013158 104.18350226151315 53.05658203125C104.47526212993421 53.30737561677631 104.82397512335527 53.43252261513158 105.22939144736841 53.43252261513158H106.3642074424342Z" fill="#322D29"></path></svg> 