<?xml version="1.0" encoding="UTF-8"?> <svg xmlns="http://www.w3.org/2000/svg" viewBox="0 0 232.484375 42.4619140625" fill="none"><path d="M53.0741829469086 11.477528608870967H51.96000782930108V9.645501737231182H45.992158921370965V11.477528608870967H44.870984274193546V8.667967436155914H45.78017316868279C46.500374764784944 8.043609398521506 47.07008647513441 7.100247800739247 47.48930829973118 5.83788264280914C47.90853012432795 4.570967790658602 48.118266028225804 3.0784431014784945 48.118266028225804 1.3603510724126344V0H51.89851196236559V8.667967436155914H53.0741829469086V11.477528608870967ZM50.78408686155914 8.667967436155914V0.9775393007392472H49.225691599462365V1.1757809771505374C49.225691599462365 2.8802064247311825 49.02970477150537 4.400054277553764 48.63773111559139 5.735339534610215C48.24575745967742 7.070649789986559 47.7512906922043 8.048184091061827 47.15433081317204 8.667967436155914H50.78408686155914Z" fill="#322D29"></path><path d="M60.11520972782258 9.645501737231182H59.035032325268816V3.4453184442204297H55.71975514112903V7.656260431787634C55.71975514112903 8.472005606518819 55.57401493615591 9.027993239247312 55.28228454301075 9.324223329973117C54.995053847446236 9.620453420698924 54.49608738239247 9.768543467741935 53.785135164650534 9.768543467741935H53.51865307459677V8.845705490591397H53.58689848790322C54.01986938844085 8.845705490591397 54.30460025201613 8.745437229502688 54.441341061827956 8.544925705645161C54.58258156922043 8.344389183467742 54.65332681451612 8.011711542338709 54.65332681451612 7.546867783938171V2.52245546875H60.11520972782258V9.645501737231182Z" fill="#322D29"></path><path d="M68.14067034610216 9.645501737231182H67.0809915658602V6.7333974563172045H65.91906965725806L63.87495703965053 9.645501737231182H62.64453973454301L64.89363857526881 6.4667903746639785C64.42866982526883 6.325524868951613 64.0596946236559 6.0771415625 63.786213004032255 5.721690451948925C63.517231081989245 5.3662143430779565 63.38274012096774 4.96971599126344 63.38274012096774 4.532220394825268C63.38274012096774 3.9078873555107525 63.59472587365591 3.4179702822580644 64.01844739583333 3.0624941733870967C64.44241890120966 2.702468370295699 65.02337985551074 2.52245546875 65.7618302251344 2.52245546875H68.14067034610216V9.645501737231182ZM67.0809915658602 5.810534480846774V3.4589925252016127H65.89157150537635C65.4403518313172 3.4589925252016127 65.0896254032258 3.5546860937499996 64.83889225470429 3.7460982291666665C64.5881591061828 3.93293567204301 64.46291752352151 4.194993059475806 64.46291752352151 4.532220394825268C64.46291752352151 4.883146809475806 64.60865772849462 5.183926594422043 64.90038812163979 5.434559749663978C65.19211851478494 5.685217903225806 65.54059509408602 5.810534480846774 65.94631782594085 5.810534480846774H67.0809915658602Z" fill="#322D29"></path><path d="M85.33976441532258 9.645501737231182H84.25983699596775V3.4453184442204297H80.94430982862902V9.645501737231182H79.87788150201612V2.52245546875H85.33976441532258V9.645501737231182Z" fill="#322D29"></path><path d="M91.0136330813172 2.351561954301075C91.99356722110215 2.351561954301075 92.77276485215053 2.6933689818548388 93.35147595766128 3.3769480393145157C93.93043704637097 4.060552095094086 94.21966760752687 4.960616602822581 94.21966760752687 6.0771415625C94.21966760752687 7.202790908938171 93.93043704637097 8.109704956317204 93.35147595766128 8.797858706317205C92.77276485215053 9.486012456317203 91.99356722110215 9.830089331317204 91.0136330813172 9.830089331317204C90.02919924395161 9.830089331317204 89.24775176411289 9.48828730342742 88.66904065860214 8.80468324764785C88.09482925067205 8.116529497647848 87.80759855510753 7.207365601478494 87.80759855510753 6.0771415625C87.80759855510753 4.956066908602151 88.09707909946236 4.055977402553763 88.67579020497311 3.3769480393145157C89.25450131048386 2.6933689818548388 90.03394892473118 2.351561954301075 91.0136330813172 2.351561954301075ZM91.0136330813172 8.900401814516128C91.66083958333333 8.900401814516128 92.17130527553762 8.626945193212366 92.5450301579301 8.080081947244622C92.91850505712365 7.533193702956988 93.10549248991936 6.870113267809139 93.10549248991936 6.090815643481182C93.10549248991936 5.270495776209677 92.9210048891129 4.596041105510753 92.55177970430108 4.067376636424731C92.18255451948924 3.538737165658602 91.66983897849462 3.274404931115591 91.0136330813172 3.274404931115591C90.35292748655912 3.274404931115591 89.8402119455645 3.536462318548387 89.47548645833332 4.060552095094086C89.11101095430108 4.580067179099462 88.92877320228493 5.256846693548387 88.92877320228493 6.090815643481182C88.92877320228493 6.883787348790322 89.11326080309139 7.551442476478494 89.48248598790322 8.093756028225807C89.85146118951613 8.631519885752688 90.36192688172042 8.900401814516128 91.0136330813172 8.900401814516128Z" fill="#322D29"></path><path d="M102.82608918010752 11.046882552083332H101.75966085349461V9.645501737231182H96.76274669018817V11.046882552083332H95.70306790994624V8.722663760080644H96.27727931787634C96.81974285954301 8.257820001680106 97.25946330645161 7.597014413642473 97.59669064180108 6.74022199764785C97.93841767473117 5.883454579973118 98.1094061827957 4.910469973118279 98.1094061827957 3.8212931754032256V2.52245546875H102.04014200268817V8.722663760080644H102.82608918010752V11.046882552083332ZM100.98046322244623 8.722663760080644V3.4453184442204297H99.1758345094086V3.5683601747311826C99.1758345094086 4.639313197244623 99.03234415322581 5.628246732190861 98.74511345766129 6.535160779569892C98.46263244287634 7.437500134408602 98.09565710685483 8.16667612735215 97.64443743279568 8.722663760080644H100.98046322244623Z" fill="#322D29"></path><path d="M110.71480898857527 3.4453184442204297H108.36321703629032V9.645501737231182H107.30378823924731V3.4453184442204297H104.95219628696236V2.52245546875H110.71480898857527V3.4453184442204297Z" fill="#322D29"></path><path d="M117.72158807123655 5.865230804771505C118.15005927419354 5.956374679099462 118.5055353830645 6.154611355846774 118.78801639784946 6.4599658333333325C119.07074739583332 6.765295312499999 119.2119879032258 7.088873565188171 119.2119879032258 7.430675593077956C119.2119879032258 8.137053118279571 118.96575445228494 8.683916364247311 118.47353753360214 9.071290329301075C117.98607029569892 9.454089601814516 117.41860843413978 9.645501737231182 116.77140193212365 9.645501737231182H113.51062108534946V2.52245546875H116.34093086357525C117.08363094758063 2.52245546875 117.68284067540321 2.6933689818548388 118.13856004704301 3.035146011424731C118.59902909946236 3.3769480393145157 118.82901364247311 3.834967256384408 118.82901364247311 4.409178664314515C118.82901364247311 4.7509806922043 118.72202083333333 5.058585018481183 118.50778523185483 5.332041639784946C118.29354963037635 5.605473262768817 118.03156723790322 5.783211317204301 117.72158807123655 5.865230804771505ZM114.57704941196236 5.448233830645161H116.36817903225807C117.26136900201612 5.448233830645161 117.70808897849462 5.115556189516129 117.70808897849462 4.450200907258064C117.70808897849462 4.140296735551075 117.58034756384409 3.8964881216397846 117.32511471774193 3.718750067204301C117.06988187163978 3.536462318548387 116.73740421706988 3.4453184442204297 116.3271817876344 3.4453184442204297H114.57704941196236V5.448233830645161ZM114.57704941196236 8.722663760080644H116.58016478494622C117.0176353830645 8.722663760080644 117.3753613407258 8.610996265120967 117.6533426579301 8.387686273521505C117.93582367271505 8.164376281922042 118.07706418010751 7.856771955645161 118.07706418010751 7.464848296370968C118.07706418010751 7.118496574260752 117.92232457997311 6.8496146454973115 117.61234541330644 6.658202510080645C117.30686594422043 6.4667903746639785 116.90589289314515 6.371096806115591 116.40917627688172 6.371096806115591H114.57704941196236V8.722663760080644Z" fill="#322D29"></path><path d="M127.62017279905913 6.118163805443548H122.7325012936828C122.7325012936828 6.924809591733871 122.96473568548386 7.590164873991935 123.42970443548387 8.114254650537635C123.89917288306451 8.638344427083334 124.47338429099462 8.900401814516128 125.15233865927418 8.900401814516128C125.79954516129033 8.900401814516128 126.46700030241935 8.784184625336021 127.15520404905912 8.551750246975805L127.33994163306451 9.406242817540322C126.71098390456989 9.688798827284947 125.97728321572579 9.830089331317204 125.13858958333333 9.830089331317204C124.08141063508063 9.830089331317204 123.22921790994623 9.490562150537633 122.5820114079301 8.811532787298386C121.93480490591396 8.132478425739247 121.61132664650538 7.216464989919354 121.61132664650538 6.063467481518817C121.61132664650538 4.933268440860215 121.90080719086022 4.033203933131721 122.47951829637097 3.3632739583333335C123.06272909946236 2.688794289314516 123.81467856182795 2.351561954301075 124.73536668346775 2.351561954301075C125.55556155913978 2.351561954301075 126.24151545698925 2.663745972782258 126.79297839381721 3.288079012096774C127.34444133064515 3.9124370497311824 127.62017279905913 4.744131152553763 127.62017279905913 5.783211317204301V6.118163805443548ZM126.45800090725805 5.24999715389785C126.45800090725805 4.694009521169355 126.28476255040322 4.226890915658601 125.93853581989246 3.848641337365591C125.59205910618279 3.465817066532258 125.20483513104838 3.274404931115591 124.7763639280914 3.274404931115591C124.22490099126344 3.274404931115591 123.76693177083332 3.4567176780913975 123.40245626680107 3.8212931754032256C123.04223047715053 4.185868672715054 122.8417439516129 4.662111664986559 122.80074670698924 5.24999715389785H126.45800090725805Z" fill="#322D29"></path><path d="M131.39366918682796 3.4453184442204297C131.6306532594086 3.1171904973118276 131.94963182123655 2.8528582627688173 132.3506048723118 2.65234673891129C132.75607762096772 2.451822715893817 133.1822989751344 2.351561954301075 133.6290189516129 2.351561954301075C134.44921382728492 2.351561954301075 135.09192063172043 2.6910691364247312 135.5566393985215 3.370123497983871C136.02610784610212 4.0446031670026885 136.26084206989248 4.924144054099462 136.26084206989248 6.008796155913978C136.26084206989248 7.102547646169354 136.01460861895163 8.013986389448926 135.5223917002688 8.743162382392473C135.0349244623656 9.467763682795699 134.37621873319893 9.830089331317204 133.54677447916666 9.830089331317204C133.10480418346773 9.830089331317204 132.69008205645162 9.720696683467741 132.3028580813172 9.5019613844086C131.9198838205645 9.27865139280914 131.61690418346774 8.984696149193548 131.39366918682796 8.62012065188172V12.461912449596774H130.32724086021506V2.52245546875H131.39366918682796V3.4453184442204297ZM131.39366918682796 4.504872232862903V7.464848296370968C131.5941557123656 7.865896342405913 131.86513749999997 8.20084883064516 132.20711451612902 8.469730759408602C132.54884154905912 8.738612688172044 132.90206780913977 8.873053652553763 133.26654331317204 8.873053652553763C133.84075472110214 8.873053652553763 134.29647409274193 8.604171723790321 134.6337014280914 8.066407866263441C134.97567844422042 7.528644008736558 135.146416969086 6.861013879368279 135.146416969086 6.063467481518817C135.146416969086 5.2431726125672045 134.98467783938173 4.573242637768817 134.66119957997313 4.053702555443548C134.33747133736557 3.534187471438172 133.88650164650537 3.274404931115591 133.30754055779568 3.274404931115591C132.55559109543012 3.274404931115591 131.9176339717742 3.68457736391129 131.39366918682796 4.504872232862903Z" fill="#322D29"></path><path d="M145.65321081989248 9.645501737231182H144.45029166666666L142.68641021505374 6.159186048387097L141.99620660282258 7.027352699932796V9.645501737231182H140.93652782258064V7.027352699932796L140.24607422715053 6.159186048387097L138.48244275873654 9.645501737231182H137.27927362231182L139.58986832997311 5.30469347782258L137.38876626344086 2.52245546875H138.50969092741934L140.93652782258064 5.612297804099462V2.52245546875H141.99620660282258V5.612297804099462L144.42279351478496 2.52245546875H145.5372186155914L143.35636518817205 5.30469347782258L145.65321081989248 9.645501737231182Z" fill="#322D29"></path><path d="M153.27544853830645 11.046882552083332H152.20902021169354V9.645501737231182H147.21185606518816V11.046882552083332H146.15242726814515V8.722663760080644H146.72663867607525C147.268852234543 8.257820001680106 147.7085726814516 7.597014413642473 148.04580001680105 6.74022199764785C148.3877770329301 5.883454579973118 148.5585155577957 4.910469973118279 148.5585155577957 3.8212931754032256V2.52245546875H152.48925137768816V8.722663760080644H153.27544853830645V11.046882552083332ZM151.42957259744622 8.722663760080644V3.4453184442204297H149.6249438844086V3.5683601747311826C149.6249438844086 4.639313197244623 149.4814535282258 5.628246732190861 149.1942228326613 6.535160779569892C148.91174181787633 7.437500134408602 148.54501646505375 8.16667612735215 148.09379679099462 8.722663760080644H151.42957259744622Z" fill="#322D29"></path><path d="M161.25291238239245 6.118163805443548H156.36524087701613C156.36524087701613 6.924809591733871 156.59772525201612 7.590164873991935 157.06244401881722 8.114254650537635C157.53191246639784 8.638344427083334 158.10612387432795 8.900401814516128 158.7850782426075 8.900401814516128C159.43228474462367 8.900401814516128 160.0999898689516 8.784184625336021 160.7881936155914 8.551750246975805L160.97268121639783 9.406242817540322C160.34372348790322 9.688798827284947 159.61002279905912 9.830089331317204 158.7715791498656 9.830089331317204C157.71415021841398 9.830089331317204 156.86195749327956 9.490562150537633 156.21475099126343 8.811532787298386C155.56779447244622 8.132478425739247 155.24406622983872 7.216464989919354 155.24406622983872 6.063467481518817C155.24406622983872 4.933268440860215 155.53354677419355 4.033203933131721 156.1122578797043 3.3632739583333335C156.69571866599463 2.688794289314516 157.4476681283602 2.351561954301075 158.36810626680108 2.351561954301075C159.18855112567203 2.351561954301075 159.87425504032257 2.663745972782258 160.42571797715053 3.288079012096774C160.9771809139785 3.9124370497311824 161.25291238239245 4.744131152553763 161.25291238239245 5.783211317204301V6.118163805443548ZM160.09074049059137 5.24999715389785C160.09074049059137 4.694009521169355 159.9177521169355 4.226890915658601 159.5712754032258 3.848641337365591C159.22504867271505 3.465817066532258 158.83757471438173 3.274404931115591 158.40910351142472 3.274404931115591C157.85764057459676 3.274404931115591 157.39967135416666 3.4567176780913975 157.0351958501344 3.8212931754032256C156.6752200436828 4.185868672715054 156.47473351814517 4.662111664986559 156.43348629032255 5.24999715389785H160.09074049059137Z" fill="#322D29"></path><path d="M169.42186335685483 9.645501737231182H168.34168595430108V6.131837886424731H165.02640877016128V9.645501737231182H163.95998044354837V2.52245546875H165.02640877016128V5.208974910954301H168.34168595430108V2.52245546875H169.42186335685483V9.645501737231182Z" fill="#322D29"></path><path d="M177.8300482526882 9.645501737231182H176.7501208333333V4.1288975016801075L173.5850835517473 9.645501737231182H172.3681653393817V2.52245546875H173.4345936659946V8.066407866263441L176.6133800235215 2.52245546875H177.8300482526882V9.645501737231182Z" fill="#322D29"></path><path d="M185.85550887096772 9.645501737231182H184.7958300907258V6.7333974563172045H183.63390818212366L181.58979556451612 9.645501737231182H180.3593782594086L182.6084771001344 6.4667903746639785C182.14350835013443 6.325524868951613 181.7745331485215 6.0771415625 181.50105152889785 5.721690451948925C181.23206960685482 5.3662143430779565 181.09757864583332 4.96971599126344 181.09757864583332 4.532220394825268C181.09757864583332 3.9078873555107525 181.3095643985215 3.4179702822580644 181.7332859206989 3.0624941733870967C182.15725742607526 2.702468370295699 182.7382183803763 2.52245546875 183.47666875 2.52245546875H185.85550887096772V9.645501737231182ZM184.7958300907258 5.810534480846774V3.4589925252016127H183.60641003024193C183.15519035618277 3.4589925252016127 182.8044639280914 3.5546860937499996 182.5537307795699 3.7460982291666665C182.30299763104836 3.93293567204301 182.1777560483871 4.194993059475806 182.1777560483871 4.532220394825268C182.1777560483871 4.883146809475806 182.3234962533602 5.183926594422043 182.61522664650536 5.434559749663978C182.90695703965054 5.685217903225806 183.2554336189516 5.810534480846774 183.66115635080644 5.810534480846774H184.7958300907258Z" fill="#322D29"></path><path d="M5.461907911626343 24.645518603830645H4.381830502352151V18.4453103125H1.066405828125V24.645518603830645H0V17.522472335349462H5.461907911626343V24.645518603830645Z" fill="#322D29"></path><path d="M9.474613222446237 18.4453103125C9.71159729502688 18.117182365591397 10.03060085517473 17.85287512936828 10.431648901209677 17.652338607190856C10.837246641465054 17.45182708333333 11.263343004032256 17.351558822244623 11.709962987231183 17.351558822244623C12.530282854502687 17.351558822244623 13.172839669018815 17.691086003024193 13.637683427419354 18.37011536626344C14.107101878360215 19.044595035282256 14.341786105510753 19.924160920698924 14.341786105510753 21.00878802419355C14.341786105510753 22.102539514448925 14.095702644489247 23.014003256048387 13.603510724126345 23.743154250672042C13.115893496303764 24.46778054939516 12.457362755376343 24.830081199596773 11.627918501344086 24.830081199596773C11.185873210685482 24.830081199596773 10.771151083669354 24.720713550067202 10.38377711861559 24.50195325268817C10.000977846102149 24.278643261088707 9.697923214045698 23.98471301579301 9.474613222446237 23.62011252016129V27.461904317876343H8.408209894153226V17.522472335349462H9.474613222446237V18.4453103125ZM9.474613222446237 19.504889099462364V22.464840164650536C9.675124746303762 22.865888210685483 9.946281522177419 23.20084069892473 10.288083550067203 23.46972262768817C10.629885577956989 23.738604556451612 10.98306184139785 23.87304552083333 11.34766233702957 23.87304552083333C11.921873744959676 23.87304552083333 12.377593116599462 23.60416359206989 12.714845450268816 23.06639973454301C13.056647478158602 22.52863587701613 13.227535992943547 21.861005747647848 13.227535992943547 21.06348434811828C13.227535992943547 20.243164480846772 13.065746866599461 19.573234506048383 12.742193612231182 19.05371942204301C12.41861535954301 18.534179339717742 11.967445682123655 18.274421797715053 11.388659581653224 18.274421797715053C10.636710119287635 18.274421797715053 9.998702998991936 18.68456923219086 9.474613222446237 19.504889099462364Z" fill="#322D29"></path><path d="M22.27832769993279 24.645518603830645H21.1982502906586V19.128914368279567L18.03321300907258 24.645518603830645H16.816394789986557V17.522472335349462H17.88282311659946V23.06639973454301L21.061534479166667 17.522472335349462H22.27832769993279V24.645518603830645Z" fill="#322D29"></path><path d="M30.68643760080645 24.406259684139787C30.066729250672044 24.688790695564514 29.38552503360215 24.830081199596773 28.64257496639785 24.830081199596773C27.52140031922043 24.830081199596773 26.62596050067204 24.490554018817203 25.956005527553764 23.811524655577955C25.290800235215052 23.127920599798387 24.957997602486557 22.221031550739248 24.957997602486557 21.090832510080645C24.957997602486557 19.96060847110215 25.293050084005376 19.055994269153224 25.963005057123652 18.376964905913976C26.63745972782258 17.693360850134408 27.52140031922043 17.351558822244623 28.61532679771505 17.351558822244623C29.330778713037635 17.351558822244623 30.011982930107525 17.476900398185485 30.659189432123654 17.72753355342742L30.378958266129032 18.6093742859543C29.731751764112904 18.38606429435484 29.148540961021506 18.274421797715053 28.628825890456987 18.274421797715053C27.845128561827956 18.274421797715053 27.2229203797043 18.527354798387098 26.762701310483873 19.03319580141129C26.306981938844086 19.539061802755377 26.07899726142473 20.22494070564516 26.07899726142473 21.090832510080645C26.07899726142473 21.88377921706989 26.315981334005375 22.551434344758064 26.789949479166665 23.093747896505377C27.263917624327956 23.631511754032257 27.881626108870968 23.9003936827957 28.64257496639785 23.9003936827957C29.24403454301075 23.9003936827957 29.863992876344085 23.78417649361559 30.50195 23.551767113575266L30.68643760080645 24.406259684139787Z" fill="#322D29"></path><path d="M39.443349059139784 17.522472335349462L36.743280527553765 24.645518603830645C36.35130687163978 25.693773151881718 35.96158306451613 26.425223991935482 35.574109106182796 26.839946118951612C35.19138482862903 27.25466824596774 34.75391423051075 27.461904317876343 34.26169731182796 27.461904317876343C33.82422671370968 27.461904317876343 33.391255813172044 27.382159677419352 32.96278461021505 27.222670396505375L33.14052266465053 26.368227822580646C33.48699937836021 26.477470480510753 33.79697854502688 26.532216801075265 34.07021018145161 26.532216801075265C34.4531844422043 26.532216801075265 34.76766330645162 26.384226747311825 35.013646774193546 26.087996656586018C35.25988022513441 25.791766565860215 35.50811354166667 25.306299193548387 35.758846690188165 24.631844522849462L33.08602632728495 17.522472335349462H34.247948235887094L36.2645627016129 23.203115546034947L38.281177167338704 17.522472335349462H39.443349059139784Z" fill="#322D29"></path><path d="M47.65329727822581 18.4453103125H45.30170532594086V24.645518603830645H44.24227652889785V18.4453103125H41.890684576612905V17.522472335349462H47.65329727822581V18.4453103125Z" fill="#322D29"></path><path d="M55.91124227150537 24.406259684139787C55.29128393817204 24.688790695564514 54.61007972110215 24.830081199596773 53.86712965389785 24.830081199596773C52.74620498991935 24.830081199596773 51.85051518817204 24.490554018817203 51.18056021505376 23.811524655577955C50.51535492271505 23.127920599798387 50.182627284946236 22.221031550739248 50.182627284946236 21.090832510080645C50.182627284946236 19.96060847110215 50.517604771505376 19.055994269153224 51.187559744623655 18.376964905913976C51.86201441532258 17.693360850134408 52.74620498991935 17.351558822244623 53.83988148521505 17.351558822244623C54.55533340053763 17.351558822244623 55.236537617607524 17.476900398185485 55.88374411962366 17.72753355342742L55.60351295362903 18.6093742859543C54.9563064516129 18.38606429435484 54.373095648521506 18.274421797715053 53.85363056115591 18.274421797715053C53.06968324932796 18.274421797715053 52.4474750672043 18.527354798387098 51.987255997983866 19.03319580141129C51.53153662634408 19.539061802755377 51.303801932123655 20.22494070564516 51.303801932123655 21.090832510080645C51.303801932123655 21.88377921706989 51.540786004704294 22.551434344758064 52.01475414986559 23.093747896505377C52.488722295026875 23.631511754032257 53.106180796370964 23.9003936827957 53.86712965389785 23.9003936827957C54.46883921370967 23.9003936827957 55.08854756384408 23.78417649361559 55.7265046875 23.551767113575266L55.91124227150537 24.406259684139787Z" fill="#322D29"></path><path d="M64.46966706989248 18.4453103125H62.118075117607525V24.645518603830645H61.05864632056451V18.4453103125H58.707054368279564V17.522472335349462H64.46966706989248V18.4453103125Z" fill="#322D29"></path><path d="M71.47644615255376 20.865222673051072C71.90491735551075 20.956391545698924 72.2603934643817 21.154628222446235 72.54287447916666 21.459957701612904C72.82560547715053 21.765287180779566 72.96684598454301 22.088865433467742 72.96684598454301 22.430667461357526C72.96684598454301 23.13704498655914 72.72061253360215 23.683908232526882 72.22839561491935 24.071282197580643C71.74092837701613 24.454106468413976 71.173466515457 24.645518603830645 70.52626001344086 24.645518603830645H67.26572914986559V17.522472335349462H70.09578894489246C70.83848902889784 17.522472335349462 71.43794873991935 17.693360850134408 71.89366811155914 18.03516287802419C72.35388718077957 18.376964905913976 72.58387172379032 18.834959124663975 72.58387172379032 19.409170532594086C72.58387172379032 19.75097256048387 72.47687891465054 20.058601885080645 72.26264331317203 20.332033508064516C72.04840771169356 20.605465131048387 71.78642531922043 20.78320318548387 71.47644615255376 20.865222673051072ZM68.33190749327957 20.448250697244625H70.12303711357526C71.01622708333333 20.448250697244625 71.46294705981182 20.1155480577957 71.46294705981182 19.450192775537634C71.46294705981182 19.140288603830644 71.3352056451613 18.896479989919353 71.07997279905914 18.71874193548387C70.82498993615592 18.536454186827957 70.49226229838709 18.4453103125 70.08203986895161 18.4453103125H68.33190749327957V20.448250697244625ZM68.33190749327957 23.722655628360215H70.33502286626343C70.77249346438171 23.722655628360215 71.13021942204301 23.61101313172043 71.4082007392473 23.38770314012097C71.69068175403225 23.1643931485215 71.83192226142472 22.85676382392473 71.83192226142472 22.464840164650536C71.83192226142472 22.118488442540322 71.67718266129032 21.849606513776884 71.36720349462365 21.658194378360214C71.06197400873656 21.466807241263442 70.66075097446236 21.37108867439516 70.16403435819892 21.37108867439516H68.33190749327957V23.722655628360215Z" fill="#322D29"></path><path d="M81.13579695900538 24.645518603830645H80.05561955645162V19.128914368279567L76.8905822748656 24.645518603830645H75.67391404569892V17.522472335349462H76.74034237231183V23.06639973454301L79.91887874663978 17.522472335349462H81.13579695900538V24.645518603830645Z" fill="#322D29"></path><path d="M89.16125757728494 24.645518603830645H88.101578797043V21.733389324596775H86.93940690524194L84.89554427083333 24.645518603830645H83.6651269657258L85.91397582325267 21.466807241263442C85.4492570564516 21.325516737231183 85.08003187163979 21.077158429099462 84.80655025201614 20.721682320228496C84.53781831317204 20.366206211357525 84.40332735215054 19.9697328578629 84.40332735215054 19.532237261424733C84.40332735215054 18.90787922379032 84.6153131048387 18.417962150537633 85.03903462701612 18.06251103998656C85.46300613239247 17.70248523689516 86.04396708669354 17.522472335349462 86.78216747311828 17.522472335349462H89.16125757728494V24.645518603830645ZM88.101578797043 20.810551347446236V18.458984393481185H86.91215873655914C86.4609390625 18.458984393481185 86.10996265120968 18.55467796202957 85.85947948588709 18.746090097446235C85.60874633736559 18.932952538642475 85.4835047547043 19.194984927755375 85.4835047547043 19.532237261424733C85.4835047547043 19.883138677755372 85.62924495967742 20.183918462701612 85.92097535282258 20.43457661626344C86.21245576276881 20.685209771505374 86.5611823252688 20.810551347446236 86.96690505712365 20.810551347446236H88.101578797043Z" fill="#322D29"></path><path d="M104.69246374327956 20.837899509408604C105.12543464381719 20.90169522177419 105.49665969422043 21.09765705141129 105.80663886088709 21.42578499831989C106.11661802755376 21.749338252688172 106.27160761088709 22.118488442540322 106.27160761088709 22.533210569556452C106.27160761088709 23.198565851814514 105.96837799059139 23.747728943212362 105.36241871639784 24.180674845430108C104.75620945900538 24.613595749327956 104.0337580141129 24.830081199596773 103.19531436491935 24.830081199596773C102.37961918682795 24.830081199596773 101.57742310147849 24.604496360887094 100.78897609206989 24.15332668346774L101.20594806787634 23.3603549781586C101.8806527217742 23.72038078125 102.54810786290322 23.9003936827957 103.2090634408602 23.9003936827957C103.76502607526882 23.9003936827957 104.22749499327956 23.777351952284942 104.5967201780914 23.531243492943545C104.97044506048387 23.28061033770161 105.15718251008063 22.957032085013438 105.15718251008063 22.560558731518817C105.15718251008063 22.182284154905915 104.9839441532258 21.892903603830643 104.63771742271506 21.692392079973118C104.29124070900536 21.487305863575266 103.81977239583333 21.384762755376343 103.22256253360214 21.384762755376343H102.45011444892472V20.420902535282256H103.11331987567203C103.6830315860215 20.420902535282256 104.12950157930106 20.31835942708333 104.4532298219086 20.113273210685485C104.78120777889785 19.908211992607526 104.94519675739248 19.623381135752687 104.94519675739248 19.258780640120968C104.94519675739248 18.989898711357526 104.79720670362903 18.759764178427417 104.50097661290322 18.56835204301075C104.20474652217742 18.372390213373656 103.85377011088708 18.274421797715053 103.44829736223119 18.274421797715053C102.74634453965052 18.274421797715053 102.10163786962366 18.38606429435484 101.51367738575269 18.6093742859543L101.08295633400536 17.802728499663978C101.33818918010752 17.675137074932792 101.69141544018817 17.56804427251344 102.14263511424731 17.48145009240591C102.59385478830644 17.39485591229839 103.01532646169355 17.351558822244623 103.40730011760752 17.351558822244623C104.24574376680107 17.351558822244623 104.90894919354838 17.524747182459677 105.3964164314516 17.87109890456989C105.88863335013441 18.212900932459675 106.13486680107526 18.675444845430107 106.13486680107526 19.258780640120968C106.13486680107526 19.59145828125 105.99812599126344 19.912761686827956 105.72464437163978 20.222665858534945C105.45566244959677 20.527995337701615 105.11168556787635 20.72850686155914 104.69246374327956 20.824225428427418V20.837899509408604Z" fill="#322D29"></path><path d="M114.97352276545699 24.645518603830645H113.91409396841398C113.82759978158602 24.358387901545697 113.78410270497311 23.975588629032256 113.78410270497311 23.49707078965054C113.17814343077956 24.385736063508062 112.35319887432794 24.830081199596773 111.3095190188172 24.830081199596773C110.7808045530914 24.830081199596773 110.3138359375 24.643218758400536 109.90811320564515 24.269518874327954C109.50714015456988 23.891269296034945 109.30665362903224 23.405926915322578 109.30665362903224 22.813466733870968C109.30665362903224 22.46256531754032 109.37739887432795 22.152661145833335 109.51863938172042 21.88377921706989C109.65987988911289 21.61489728830645 109.8671159610215 21.389312449596773 110.14059758064515 21.20702470094086C110.4140792002688 21.020187258064514 110.74680683803763 20.87434705981183 111.1387804939516 20.769529104502684C111.53050416666666 20.660161454973114 111.99547291666666 20.584966508736557 112.53318677755377 20.54394426579301L113.72960636760753 20.448250697244625V20.10644866935484C113.72960636760753 18.885080756048385 113.15989465725806 18.274421797715053 112.02047123655915 18.274421797715053C111.75173929771505 18.274421797715053 111.40976228158601 18.333667815860217 110.99504015456988 18.452159852150537C110.58506770833333 18.566077195900537 110.23184144825268 18.702793007392472 109.93561135752688 18.862307286626343L109.65538019153226 18.09668374327957C110.62606495295698 17.599942128696235 111.52825431787633 17.351558822244623 112.36219826948924 17.351558822244623C113.98458923051075 17.351558822244623 114.7957847110215 18.21060108702957 114.7957847110215 19.928710614919357V22.99120478830645C114.7957847110215 23.61101313172043 114.85503072916667 24.1624260719086 114.97352276545699 24.645518603830645ZM113.72960636760753 22.533210569556452V21.241222402553763C112.76792100134408 21.327791584341398 112.10721540658602 21.409836070228494 111.74698961693547 21.487305863575266C111.3915135080645 21.56022596270161 111.08178432459678 21.699216621303762 110.8173021001344 21.90430283770161C110.55756955645161 22.10936405577957 110.42782827620967 22.38737037130376 110.42782827620967 22.738271787634407C110.42782827620967 23.05730034610215 110.5393207829301 23.314783040994623 110.76280576276882 23.51074487063172C110.9860407594086 23.706706700268818 111.27077162298387 23.804675115927417 111.61724833669355 23.804675115927417C111.99547291666666 23.804675115927417 112.37144764784946 23.69303261928763 112.74517253024193 23.46972262768817C113.1188974126344 23.241862941868277 113.44687536962364 22.929683923051076 113.72960636760753 22.533210569556452Z" fill="#322D29"></path><path d="M123.17672143817204 24.645518603830645H122.0967940188172V18.4453103125H118.78126685147848V24.645518603830645H117.71483852486558V17.522472335349462H123.17672143817204V24.645518603830645Z" fill="#322D29"></path><path d="M131.58490633400538 24.645518603830645H130.5049789146505V19.128914368279567L127.33994163306451 24.645518603830645H126.12302342069893V17.522472335349462H127.18945174731182V23.06639973454301L130.36823810483872 17.522472335349462H131.58490633400538V24.645518603830645Z" fill="#322D29"></path><path d="M140.663046202957 24.645518603830645H133.86125334341398V17.522472335349462H134.92093212365592V23.722655628360215H136.73231038306452V17.522472335349462H137.79198916330645V23.722655628360215H139.59661787634408V17.522472335349462H140.663046202957V24.645518603830645Z" fill="#322D29"></path><path d="M148.40127612567204 24.645518603830645H147.3213487063172V19.128914368279567L144.15631142473117 24.645518603830645H142.9393932123656V17.522472335349462H144.0058215389785V23.06639973454301L147.18460789650538 17.522472335349462H148.40127612567204V24.645518603830645Z" fill="#322D29"></path><path d="M156.95995090725805 18.4453103125H154.6083589549731V24.645518603830645H153.5489301579301V18.4453103125H151.19733820564517V17.522472335349462H156.95995090725805V18.4453103125Z" fill="#322D29"></path><path d="M165.4571298219086 21.11815567372312H160.56945831653226C160.56945831653226 21.92480146001344 160.80169270833332 22.590181740591397 161.26666145833332 23.114246518817204C161.736129905914 23.638336295362905 162.31034131384408 23.9003936827957 162.98929568212364 23.9003936827957C163.63650218413977 23.9003936827957 164.3039573252688 23.78417649361559 164.9921610719086 23.551767113575266L165.17664867271503 24.406259684139787C164.54794092741935 24.688790695564514 163.81424023857528 24.830081199596773 162.9755466061828 24.830081199596773C161.9183676579301 24.830081199596773 161.0661749327957 24.490554018817203 160.41896843077959 23.811524655577955C159.77176192876342 23.132495292338707 159.44828366935482 22.216481856518815 159.44828366935482 21.06348434811828C159.44828366935482 19.933260309139783 159.73751423051075 19.03319580141129 160.31647531922042 18.363290824932797C160.89968612231183 17.688811155913978 161.6516355846774 17.351558822244623 162.57232370631718 17.351558822244623C163.39251858198924 17.351558822244623 164.0784724798387 17.663737841061828 164.62993541666665 18.288095878696236C165.18139835349461 18.91242891801075 165.4571298219086 19.744148019153222 165.4571298219086 20.78320318548387V21.11815567372312ZM164.29495793010753 20.249989022177417C164.29495793010753 19.694001389448925 164.12171957325268 19.226882783938173 163.77549284274193 18.84863320564516C163.42901612903225 18.46580893481183 163.04179215389783 18.274421797715053 162.61332095094085 18.274421797715053C162.06185801411291 18.274421797715053 161.60388879368278 18.456709546370966 161.23916330645162 18.821285043682796C160.87918749999997 19.18586054099462 160.67870097446237 19.662103533266126 160.6377037298387 20.249989022177417H164.29495793010753Z" fill="#322D29"></path><path d="M182.70422066532257 26.046999411962364H181.6377923387097V24.645518603830645H176.6406281922043V26.046999411962364H175.58094941196237V23.722655628360215H176.15516081989247C176.69762436155912 23.257811869959674 177.13734480846773 22.59700628192204 177.4745721438172 21.740238864247313C177.8162991767473 20.88347144657258 177.9872876848118 19.91048683971774 177.9872876848118 18.821285043682796V17.522472335349462H181.91802350470428V23.722655628360215H182.70422066532257V26.046999411962364ZM180.85834472446234 23.722655628360215V18.4453103125H179.05371601142474V18.56835204301075C179.05371601142474 19.639330063844085 178.91022565524193 20.628263598790323 178.6229949596774 21.53515264784946C178.34051394489245 22.43749200268817 177.97353860887097 23.16666799563172 177.52256891801076 23.722655628360215H180.85834472446234Z" fill="#322D29"></path><path d="M190.44245058803764 24.645518603830645H189.36227318548387V18.4453103125H186.0469960013441V22.656252300067205C186.0469960013441 23.471997474798385 185.90100581317202 24.027985107526877 185.60927542002688 24.324215198252688C185.32229470766129 24.620445288978495 184.82332824260752 24.768560334341398 184.1123760248656 24.768560334341398H183.84564395161289V23.845697358870968H183.91413934811828C184.3471102486559 23.845697358870968 184.63184111223117 23.74545409610215 184.768581922043 23.54491757392473C184.90982242943548 23.344406050067203 184.98056767473116 23.011728408938172 184.98056767473116 22.546884650537635V17.522472335349462H190.44245058803764V24.645518603830645Z" fill="#322D29"></path><path d="M198.46766122311826 24.645518603830645H197.40823242607527V21.733389324596775H196.2460605342742L194.20219789986558 24.645518603830645H192.97178059475806L195.22062945228492 21.466807241263442C194.75591068548385 21.325516737231183 194.38668550067206 21.077158429099462 194.11320388104838 20.721682320228496C193.84447194220428 20.366206211357525 193.7099809811828 19.9697328578629 193.7099809811828 19.532237261424733C193.7099809811828 18.90787922379032 193.92196673387096 18.417962150537633 194.34568825604836 18.06251103998656C194.7694097782258 17.70248523689516 195.3506207157258 17.522472335349462 196.08882110215052 17.522472335349462H198.46766122311826V24.645518603830645ZM197.40823242607527 20.810551347446236V18.458984393481185H196.2188123655914C195.76759269153226 18.458984393481185 195.41661628024193 18.55467796202957 195.16613311491935 18.746090097446235C194.91539996639784 18.932952538642475 194.79015838373655 19.194984927755375 194.79015838373655 19.532237261424733C194.79015838373655 19.883138677755372 194.93589858870968 20.183918462701612 195.22762898185482 20.43457661626344C195.51910939180107 20.685209771505374 195.86783595430106 20.810551347446236 196.27355868615592 20.810551347446236H197.40823242607527Z" fill="#322D29"></path><path d="M215.66700527553763 24.645518603830645H214.58682787298386V21.1318297547043H211.2715506888441V24.645518603830645H210.20512236223115V17.522472335349462H211.2715506888441V20.20899177755376H214.58682787298386V17.522472335349462H215.66700527553763V24.645518603830645Z" fill="#322D29"></path><path d="M224.28017639448925 24.645518603830645H223.22074759744623C223.13400342741934 24.358387901545697 223.09075633400536 23.975588629032256 223.09075633400536 23.49707078965054C222.48479705981183 24.385736063508062 221.65985250336018 24.830081199596773 220.61617264784945 24.830081199596773C220.08745818212364 24.830081199596773 219.62048956653226 24.643218758400536 219.21476683467742 24.269518874327954C218.81379378360214 23.891269296034945 218.61330725806448 23.405926915322578 218.61330725806448 22.813466733870968C218.61330725806448 22.46256531754032 218.68380252016127 22.152661145833335 218.8252930107527 21.88377921706989C218.96653351814513 21.61489728830645 219.17376959005375 21.389312449596773 219.4472512096774 21.20702470094086C219.72073282930106 21.020187258064514 220.0534604670699 20.87434705981183 220.44543412298387 20.769529104502684C220.83715779569891 20.660161454973114 221.3021265456989 20.584966508736557 221.839840406586 20.54394426579301L223.03601001344083 20.448250697244625V20.10644866935484C223.03601001344083 18.885080756048385 222.46654828629033 18.274421797715053 221.3271248655914 18.274421797715053C221.0583929267473 18.274421797715053 220.71641591061825 18.333667815860217 220.30169378360213 18.452159852150537C219.89172133736557 18.566077195900537 219.53849507728492 18.702793007392472 219.24226498655912 18.862307286626343L218.96203382056453 18.09668374327957C219.93271858198923 17.599942128696235 220.8349079469086 17.351558822244623 221.6688518985215 17.351558822244623C223.29124285954302 17.351558822244623 224.10243834005377 18.21060108702957 224.10243834005377 19.928710614919357V22.99120478830645C224.10243834005377 23.61101313172043 224.16168435819893 24.1624260719086 224.28017639448925 24.645518603830645ZM223.03601001344083 22.533210569556452V21.241222402553763C222.07457463037633 21.327791584341398 221.41361905241936 21.409836070228494 221.05364324596772 21.487305863575266C220.69816713709676 21.56022596270161 220.38843795362902 21.699216621303762 220.12395572916665 21.90430283770161C219.86422318548384 22.10936405577957 219.73448190524192 22.38737037130376 219.73448190524192 22.738271787634407C219.73448190524192 23.05730034610215 219.84597441196235 23.314783040994623 220.06945939180108 23.51074487063172C220.29269438844085 23.706706700268818 220.57742525201613 23.804675115927417 220.9239019657258 23.804675115927417C221.3021265456989 23.804675115927417 221.67810127688173 23.69303261928763 222.05182615927419 23.46972262768817C222.42555104166664 23.241862941868277 222.7535289986559 22.929683923051076 223.03601001344083 22.533210569556452Z" fill="#322D29"></path><path d="M232.4833750672043 24.406259684139787C231.8636667170699 24.688790695564514 231.1822125168011 24.830081199596773 230.4395124327957 24.830081199596773C229.31833778561827 24.830081199596773 228.4228979670699 24.490554018817203 227.7529429939516 23.811524655577955C227.08748771841394 23.127920599798387 226.75476008064516 22.221031550739248 226.75476008064516 21.090832510080645C226.75476008064516 19.96060847110215 227.08973756720428 19.055994269153224 227.75969254032256 18.376964905913976C228.4341472110215 17.693360850134408 229.31833778561827 17.351558822244623 230.41201428091398 17.351558822244623C231.12771617943548 17.351558822244623 231.80892039650536 17.476900398185485 232.4561268985215 17.72753355342742L232.17589573252687 18.6093742859543C231.52868923051074 18.38606429435484 230.94522844422042 18.274421797715053 230.42576335685482 18.274421797715053C229.64181604502687 18.274421797715053 229.01985784610213 18.527354798387098 228.55963877688168 19.03319580141129C228.10391940524192 19.539061802755377 227.8759347278226 20.22494070564516 227.8759347278226 21.090832510080645C227.8759347278226 21.88377921706989 228.11291880040324 22.551434344758064 228.58688694556452 23.093747896505377C229.0608550907258 23.631511754032257 229.67831359206988 23.9003936827957 230.4395124327957 23.9003936827957C231.0409720094086 23.9003936827957 231.66093034274192 23.78417649361559 232.29888746639784 23.551767113575266L232.4833750672043 24.406259684139787Z" fill="#322D29"></path><path d="M10.390626658266129 39.645585467069886H8.989245843413979L5.967773912970429 36.104573454301075L5.270495776209677 36.70603303091398V39.645585467069886H4.204092447916667V32.5225641969086H5.270495776209677V35.53036204637097L8.613271112231182 32.5225641969086H9.973629684139784L6.726572914986559 35.43461848118279L10.390626658266129 39.645585467069886Z" fill="#322D29"></path><path d="M13.678705670362902 33.44525218413978C13.915689742943547 33.11727422715054 14.234693303091397 32.85279200268817 14.635741349126343 32.652305477150534C15.04133908938172 32.4518189516129 15.467460450268817 32.35157568884408 15.914055435147848 32.35157568884408C16.734375302419352 32.35157568884408 17.376957115255376 32.69105287298387 17.841800873655913 33.37000724126344C18.311194326276883 34.044711895161285 18.54590355174731 34.92415278897849 18.54590355174731 36.008829889112896C18.54590355174731 37.1025063844086 18.299795092405912 38.01394512768817 17.8076281703629 38.743146118951614C17.319985944220427 39.467847412634406 16.66145520329301 39.83007306787634 15.832035947580644 39.83007306787634C15.389965658602149 39.83007306787634 14.975268529905913 39.72058042674731 14.58789456485215 39.50184512768817C14.205070294018817 39.27861013104839 13.902015661962366 38.9846298891129 13.678705670362902 38.620154385080646V42.46189618615591H12.61230234206989V32.5225641969086H13.678705670362902V33.44525218413978ZM13.678705670362902 34.50493096438172V37.464732039650535C13.879242192540321 37.865955073924724 14.15039896841398 38.20093256048387 14.49217599798387 38.469664499327955C14.833978025873655 38.738646421370966 15.187179287634407 38.873137382392464 15.551754784946235 38.873137382392464C16.125966192876344 38.873137382392464 16.58171056283602 38.60415546034946 16.918937898185483 38.066441599462365C17.260739926075267 37.52872773857527 17.431628440860216 36.86102261424731 17.431628440860216 36.06357620967742C17.431628440860216 35.24313135080645 17.269864312836024 34.57317637768817 16.946286060147848 34.053711290322575C16.62273280577957 33.534246202956986 16.17153813004032 33.27451365927419 15.592777027889785 33.27451365927419C14.840827565524194 33.27451365927419 14.2027954469086 33.68448610551076 13.678705670362902 34.50493096438172Z" fill="#322D29"></path><path d="M26.830946723790323 32.5225641969086L24.130853193884406 39.645585467069886C23.738929534610214 40.69376502016129 23.349280722446238 41.42521586021505 22.961906757392473 41.83993798723118C22.57910748487903 42.25466011424731 22.14161188844086 42.46189618615591 21.649419968077954 42.46189618615591C21.211924371639782 42.46189618615591 20.778978469422043 42.38215154569892 20.35058226142473 42.222662264784944L20.528320315860213 41.368219690860215C20.87467203797043 41.47746234879032 21.184576209677417 41.53220866935483 21.45800783266129 41.53220866935483C21.840832103494623 41.53220866935483 22.155260971102148 41.384218615591394 22.40136943044355 41.08798852486559C22.647452891465054 40.79175843413978 22.895836197916665 40.306291061827956 23.146494351478495 39.631836391129035L20.473623991935483 32.5225641969086H21.635745887096775L23.65233535450269 38.20318240927419L25.669024815188173 32.5225641969086H26.830946723790323Z" fill="#322D29"></path><path d="M36.34655719086021 39.645585467069886H35.14363803763441L33.38000656922043 36.15906979166666L32.68955297379032 37.027261441532254V39.645585467069886H31.629874193548385V37.027261441532254L30.93942059811828 36.15906979166666L29.1757891297043 39.645585467069886H27.97261999327957L30.28321470094086 35.30462721774194L28.0821126344086 32.5225641969086H29.203037298387095L31.629874193548385 35.612356535618275V32.5225641969086H32.68955297379032V35.612356535618275L35.11613988575268 32.5225641969086H36.23056498655914L34.04971155913978 35.30462721774194L36.34655719086021 39.645585467069886Z" fill="#322D29"></path><path d="M40.5645237063172 32.35157568884408C41.54420786290322 32.35157568884408 42.32365547715054 32.693302721774195 42.90236658266129 33.37700677083333C43.48107768817204 34.06046083669355 43.77055823252688 34.9606503360215 43.77055823252688 36.07707530241936C43.77055823252688 37.20274964717742 43.48107768817204 38.10968869287635 42.90236658266129 38.797892439516126C42.32365547715054 39.48609618615591 41.54420786290322 39.83007306787634 40.5645237063172 39.83007306787634C39.58008986895161 39.83007306787634 38.79839240591398 39.48834603494623 38.219681300403224 38.804641985887095C37.645469892473116 38.11643823924731 37.35848918010752 37.20724934475806 37.35848918010752 36.07707530241936C37.35848918010752 34.95615063844086 37.64771974126344 34.0559611391129 38.22668082997312 33.37700677083333C38.80539193548387 32.693302721774195 39.58458956653225 32.35157568884408 40.5645237063172 32.35157568884408ZM40.5645237063172 38.90038555107527C41.21148022513441 38.90038555107527 41.72194591733871 38.62690393145161 42.09567079973118 38.08019067540322C42.469395682123654 37.53322743615591 42.65613313172042 36.8700220094086 42.65613313172042 36.09082437836021C42.65613313172042 35.27062950268817 42.471645530913975 34.59592484879032 42.10242034610215 34.06746036626344C41.733445144489245 33.53874590053763 41.220729603494625 33.27451365927419 40.5645237063172 33.27451365927419C39.90356812836021 33.27451365927419 39.39085258736559 33.536496051747314 39.02637708333334 34.06046083669355C38.66190157930107 34.58017590725807 38.47941384408602 35.25688042674731 38.47941384408602 36.09082437836021C38.47941384408602 36.88377108534946 38.664151428091394 37.55147620967742 39.0331266297043 38.093689768145154C39.40235181451613 38.631403629032256 39.91281750672043 38.90038555107527 40.5645237063172 38.90038555107527Z" fill="#322D29"></path><path d="M51.70702483198925 39.645585467069886H50.62684742943548V36.39855369623656C49.78390408266129 37.19150040322581 48.947710282258065 37.58797375672043 48.118266028225804 37.58797375672043C47.41181350806451 37.58797375672043 46.871849798387096 37.38048770161291 46.49812491599462 36.96576557459677C46.12440003360214 36.54654375 45.93741260080645 35.938084643817206 45.93741260080645 35.14063823924731V32.5225641969086H47.00384092741935V34.826159374999996C47.00384092741935 35.45961680107527 47.12008311491935 35.92458555107527 47.35256748991935 36.220815641801074C47.58505186491936 36.51704573252688 47.949527368951614 36.66503578629032 48.446243985215055 36.66503578629032C49.08895078965053 36.66503578629032 49.81565194892473 36.2685624327957 50.62684742943548 35.47561572580645V32.5225641969086H51.70702483198925V39.645585467069886Z" fill="#322D29"></path><path d="M60.35444364919354 36.118072547043006H55.4667721438172C55.4667721438172 36.92476832997312 55.69925651881721 37.59022360551075 56.16397528561828 38.11418839045699C56.633443733198924 38.638403158602145 57.20765514112903 38.90038555107527 57.8866095094086 38.90038555107527C58.53381601142473 38.90038555107527 59.201521135752685 38.78414336357527 59.889724882392464 38.55165898857527L60.07421248319892 39.406351545698925C59.445254754704294 39.68883256048387 58.71155406586021 39.83007306787634 57.87311041666667 39.83007306787634C56.81568148521505 39.83007306787634 55.963488760080644 39.49059588373656 55.31628225806451 38.81164151545699C54.66932573924731 38.132437163978494 54.34559749663978 37.21649872311828 54.34559749663978 36.06357620967742C54.34559749663978 34.93315218413978 54.63507804099462 34.03321266801075 55.21378914650538 33.36325769489247C55.7972499327957 32.68880302419355 56.54919939516128 32.35157568884408 57.469637533602146 32.35157568884408C58.29008239247311 32.35157568884408 58.975786307123656 32.66380470430107 59.52724924395161 33.28801275201613C60.07871218077956 33.91247078293011 60.35444364919354 34.74416488575268 60.35444364919354 35.783095060483866V36.118072547043006ZM59.19227175739247 35.24988089717741C59.19227175739247 34.69391826276881 59.01928338373656 34.22694964717742 58.67280667002688 33.8487250672043C58.32657993951613 33.46575080645162 57.93910598118279 33.27451365927419 57.5106347782258 33.27451365927419C56.959421824596774 33.27451365927419 56.50120262096774 33.45675141129033 56.13672711693548 33.82122691532258C55.776751310483874 34.18595240255376 55.57626478494623 34.662170396505374 55.53526754032258 35.24988089717741H59.19227175739247Z" fill="#322D29"></path><path d="M69.24809591733872 39.645585467069886H67.84669010416665L64.82514317876344 36.104573454301075L64.12794003696236 36.70603303091398V39.645585467069886H63.061511710349464V32.5225641969086H64.12794003696236V35.53036204637097L67.47071537298388 32.5225641969086H68.83112394153225L65.58409217069892 35.43461848118279L69.24809591733872 39.645585467069886Z" fill="#322D29"></path><path d="M85.33976441532258 39.406351545698925C84.72005606518817 39.68883256048387 84.03885184811827 39.83007306787634 83.29590178091398 39.83007306787634C82.17472713373655 39.83007306787634 81.27928731518817 39.49059588373656 80.60933234206989 38.81164151545699C79.94412704973118 38.127937466397846 79.61139941196235 37.220998420698926 79.61139941196235 36.09082437836021C79.61139941196235 34.9606503360215 79.9463768985215 34.0559611391129 80.61633187163979 33.37700677083333C81.29078654233871 32.693302721774195 82.17472713373655 32.35157568884408 83.26865361223118 32.35157568884408C83.98410552755377 32.35157568884408 84.66530974462366 32.476817271505375 85.31251624663979 32.72755042002688L85.03228508064515 33.60949114583333C84.38507857862902 33.38600616599462 83.80186777553763 33.27451365927419 83.28215270497311 33.27451365927419C82.49845537634408 33.27451365927419 81.87624719422043 33.5272466733871 81.416028125 34.03321266801075C80.96030875336021 34.539178662634406 80.73232407594087 35.224882577284944 80.73232407594087 36.09082437836021C80.73232407594087 36.88377108534946 80.9693081485215 37.55147620967742 81.4432762936828 38.093689768145154C81.91724443884408 38.631403629032256 82.53495292338708 38.90038555107527 83.29590178091398 38.90038555107527C83.89736135752689 38.90038555107527 84.5173196908602 38.78414336357527 85.15527681451613 38.55165898857527L85.33976441532258 39.406351545698925Z" fill="#322D29"></path><path d="M99.95503214045698 33.44525218413978C100.28326008064516 32.71605119287634 100.77322715053764 32.35157568884408 101.42468336693548 32.35157568884408C102.66884974798386 32.35157568884408 103.29105793010753 33.55924452284946 103.29105793010753 35.97458219086021C103.29105793010753 38.5449094422043 102.68709852150538 39.83007306787634 101.47942968749999 39.83007306787634C101.13770265456988 39.83007306787634 100.84822211021505 39.743578881048386 100.6112380376344 39.57034052419355C100.37900364583334 39.39710216733871 100.16026834677419 39.080373454301075 99.95503214045698 38.620154385080646V42.46189618615591H98.89560334341397V38.620154385080646C98.68586743951612 39.080373454301075 98.46488229166667 39.39710216733871 98.23239791666667 39.57034052419355C97.99991354166666 39.743578881048386 97.71068298051075 39.83007306787634 97.36420626680108 39.83007306787634C96.16103713037634 39.83007306787634 95.55957755376343 38.5449094422043 95.55957755376343 35.97458219086021C95.55957755376343 33.55924452284946 96.18153575268816 32.35157568884408 97.42570213373655 32.35157568884408C98.07740833333334 32.35157568884408 98.5673754032258 32.71605119287634 98.89560334341397 33.44525218413978V29.999983736559138H99.95503214045698V33.44525218413978ZM98.89560334341397 37.464732039650535V34.50493096438172C98.74961315524193 34.12195670362903 98.57187510080645 33.82122691532258 98.36238918010753 33.60249161626344C98.15265327620968 33.3837563172043 97.9476670530914 33.27451365927419 97.74718052755375 33.27451365927419C97.39170441868279 33.27451365927419 97.12497234543011 33.46125110887097 96.94723429099461 33.834975991263434C96.76949623655914 34.208700873655914 96.68075220094086 34.942401562499995 96.68075220094086 36.0360780577957C96.68075220094086 36.82002536962365 96.71474991599462 37.400986323924734 96.7832453125 37.77921090389785C96.85624040658602 38.15743548387096 96.96323321572581 38.43566678427419 97.10447372311828 38.61340483870968C97.24571423051076 38.78639321236559 97.42570213373655 38.873137382392464 97.64443743279568 38.873137382392464C97.83592456317204 38.873137382392464 98.00916292002687 38.81164151545699 98.16415250336021 38.688399798387096C98.3236417842742 38.56090836693548 98.48538091397849 38.33292368951613 98.64936989247312 38.00494573252688C98.81335887096773 37.672218094758065 98.89560334341397 37.49223019153226 98.89560334341397 37.464732039650535ZM99.95503214045698 37.464732039650535C100.2057652889785 38.05719222110215 100.4222507392473 38.44016648185483 100.60448849126344 38.61340483870968C100.78672624327956 38.78639321236559 100.98496292002687 38.873137382392464 101.19919852150538 38.873137382392464C101.52267678091397 38.873137382392464 101.76441053427418 38.674900705645165 101.92389981518816 38.27842735215054C102.0878887936828 37.881953998655916 102.1698832829301 37.13450423387096 102.1698832829301 36.0360780577957C102.1698832829301 35.24763104838709 102.13113588709678 34.675669489247305 102.05364109543011 34.32019338037634C101.97614630376344 33.96021757392473 101.85765426747312 33.69598533266129 101.69816498655914 33.5272466733871C101.5431754032258 33.35875799731183 101.34493872647849 33.27451365927419 101.1034549563172 33.27451365927419C100.83472301747311 33.27451365927419 100.57499047379032 33.45225171370968 100.32425732526882 33.807727822580645C100.07802387432795 34.158454250672044 99.95503214045698 34.39093862567204 99.95503214045698 34.50493096438172V37.464732039650535Z" fill="#322D29"></path><path d="M106.16886451612903 33.44525218413978C106.40584858870967 33.11727422715054 106.72482715053764 32.85279200268817 107.12605018481183 32.652305477150534C107.53152293346773 32.4518189516129 107.95774428763441 32.35157568884408 108.40421428091398 32.35157568884408C109.22465913978495 32.35157568884408 109.8671159610215 32.69105287298387 110.3320847110215 33.37000724126344C110.80155315860215 34.044711895161285 111.03603739919353 34.92415278897849 111.03603739919353 36.008829889112896C111.03603739919353 37.1025063844086 110.79005393145161 38.01394512768817 110.29783701276881 38.743146118951614C109.81011979166665 39.467847412634406 109.15166404569892 39.83007306787634 108.32221979166665 39.83007306787634C107.88024949596775 39.83007306787634 107.46552736895161 39.72058042674731 107.07805341061828 39.50184512768817C106.6953291330645 39.27861013104839 106.39234949596774 38.9846298891129 106.16886451612903 38.620154385080646V42.46189618615591H105.10243618951613V32.5225641969086H106.16886451612903V33.44525218413978ZM106.16886451612903 34.50493096438172V37.464732039650535C106.36935104166666 37.865955073924724 106.6405828125 38.20093256048387 106.98230984543011 38.469664499327955C107.32428686155914 38.738646421370966 107.67751312163978 38.873137382392464 108.04198862567203 38.873137382392464C108.61620003360215 38.873137382392464 109.07191940524193 38.60415546034946 109.4091467405914 38.066441599462365C109.7508737735215 37.52872773857527 109.92186228158602 36.86102261424731 109.92186228158602 36.06357620967742C109.92186228158602 35.24313135080645 109.76012315188171 34.57317637768817 109.43664489247311 34.053711290322575C109.11291664986558 33.534246202956986 108.66169697580645 33.27451365927419 108.08298587029569 33.27451365927419C107.3310364079301 33.27451365927419 106.69307928427419 33.68448610551076 106.16886451612903 34.50493096438172Z" fill="#322D29"></path><path d="M119.1777402049731 39.645585467069886H118.11806142473118C118.03156723790322 39.35835477150537 117.98832014448925 38.97563049395161 117.98832014448925 38.49716265120968C117.38211088709677 39.3858529233871 116.55716633064516 39.83007306787634 115.51373645833333 39.83007306787634C114.98502199260753 39.83007306787634 114.51780339381719 39.64333561827957 114.1123306451613 39.26961073588709C113.71135759408601 38.89138615591398 113.51062108534946 38.40591878360215 113.51062108534946 37.81345860215054C113.51062108534946 37.462482190860214 113.58136633064515 37.15275300739248 113.72260683803762 36.88377108534946C113.8638473454301 36.61478916330645 114.07133340053763 36.389304317876345 114.34481502016129 36.20706656586021C114.61804665658602 36.02007913306451 114.95077429435483 35.8743389280914 115.3427479502688 35.769595967741935C115.7347216061828 35.660103326612905 116.19944037298387 35.58485838373655 116.73740421706988 35.5438611391129L117.93357382392473 35.448117573924726V35.106390540994624C117.93357382392473 33.884972631048385 117.36386211357527 33.27451365927419 116.22468867607526 33.27451365927419C115.95570675403225 33.27451365927419 115.61397972110215 33.33375967741935 115.199257594086 33.45225171370968C114.78903516465053 33.56599406922043 114.43580890456988 33.702734879032256 114.13957881384408 33.86222415994624L113.85934764784946 33.096775604838705C114.83003240927418 32.599809005376336 115.73247175739247 32.35157568884408 116.56641570900538 32.35157568884408C118.18880667002686 32.35157568884408 119.00000215053763 33.21051796034946 119.00000215053763 34.92865248655914V37.99119665658602C119.00000215053763 38.61090500672043 119.05924816868279 39.16236794354838 119.1777402049731 39.645585467069886ZM117.93357382392473 37.53322743615591V36.2413142641129C116.97188845766128 36.32780845094086 116.31118286290322 36.40980294018817 115.95120705645161 36.48729773185484C115.59573094758063 36.56029282594086 115.28575178091397 36.699283484543 115.02151953965054 36.90426970766129C114.76178699596773 37.10925593077957 114.63179573252687 37.387487231182796 114.63179573252687 37.73821365927419C114.63179573252687 38.05719222110215 114.74353822244623 38.31467491599462 114.96677321908602 38.51066174395161C115.1900082157258 38.706648571908595 115.47498906249999 38.804641985887095 115.82121579301074 38.804641985887095C116.19944037298387 38.804641985887095 116.57541510416667 38.693149479166664 116.94913998655913 38.469664499327955C117.3228648689516 38.241929805107524 117.65109280913978 37.92970078965054 117.93357382392473 37.53322743615591Z" fill="#322D29"></path><path d="M125.71280099126344 35.837841381048385C126.14577189180108 35.90158709677419 126.51724692540323 36.09757392473118 126.82722609206989 36.42580186491935C127.13695527553763 36.74928012432795 127.29194485887096 37.118505309139785 127.29194485887096 37.53322743615591C127.29194485887096 38.19868271169355 126.9889652217742 38.747645816532255 126.38275596438172 39.18061671706989C125.77679669018816 39.61358761760753 125.05434524529569 39.83007306787634 124.21590159610214 39.83007306787634C123.39995643481181 39.83007306787634 122.59801033266129 39.60458822244623 121.80956332325269 39.15336854838709L122.22653529905914 38.360421841397844C122.90098996975806 38.72039764784946 123.56869509408601 38.90038555107527 124.22940068884408 38.90038555107527C124.78536332325268 38.90038555107527 125.24808222446237 38.7773938172043 125.61730740927419 38.531160366263435C125.99078230846774 38.28067720094086 126.17776974126343 37.95694895833333 126.17776974126343 37.56047560483871C126.17776974126343 37.18225102486559 126.00453138440861 36.893020463709675 125.65830465389783 36.692283954973114C125.31182794018817 36.48729773185484 124.8401096438172 36.3848046202957 124.24314976478493 36.3848046202957H123.47070168010752V35.42086940524194H124.13390710685483C124.70336883400536 35.42086940524194 125.15008881048387 35.31837629368279 125.47356706989247 35.11339007056451C125.80179501008064 34.90815386424731 125.96578398857525 34.62342300067204 125.96578398857525 34.258697513440865C125.96578398857525 33.98996557459677 125.81779393481182 33.759731048387096 125.52156384408602 33.56824391801075C125.2253337533602 33.372507073252685 124.87435734206989 33.27451365927419 124.46863461021505 33.27451365927419C123.76693177083332 33.27451365927419 123.12197511760752 33.38600616599462 122.53426461693549 33.60949114583333L122.10354356518816 32.802795362903225C122.35877641129032 32.67505394825269 122.71200267137095 32.568061139112906 123.16297236223117 32.48156695228494C123.61419203629032 32.39482278225806 124.03591369287635 32.35157568884408 124.4276373655914 32.35157568884408C125.26633099798386 32.35157568884408 125.92928644153224 32.524814045698925 126.4170036626344 32.871040776209675C126.9092205813172 33.212767809139784 127.15520404905912 33.67548671034946 127.15520404905912 34.258697513440865C127.15520404905912 34.59142515120968 127.01846323924731 34.91265356182795 126.74523160282257 35.222632728494624C126.47624968077957 35.52811219758065 126.13227279905914 35.72859872311828 125.71280099126344 35.82434228830645V35.837841381048385Z" fill="#322D29"></path><path d="M133.05480754368278 32.35157568884408C134.0344917002688 32.35157568884408 134.81368933131722 32.693302721774195 135.39265042002685 33.37700677083333C135.97136152553765 34.06046083669355 136.26084206989248 34.9606503360215 136.26084206989248 36.07707530241936C136.26084206989248 37.20274964717742 135.97136152553765 38.10968869287635 135.39265042002685 38.797892439516126C134.81368933131722 39.48609618615591 134.0344917002688 39.83007306787634 133.05480754368278 39.83007306787634C132.0703737063172 39.83007306787634 131.28867624327958 39.48834603494623 130.70996513776882 38.804641985887095C130.13575372983868 38.11643823924731 129.8485230342742 37.20724934475806 129.8485230342742 36.07707530241936C129.8485230342742 34.95615063844086 130.13800357862903 34.0559611391129 130.7167146841398 33.37700677083333C131.29567577284945 32.693302721774195 132.07487340389784 32.35157568884408 133.05480754368278 32.35157568884408ZM133.05480754368278 38.90038555107527C133.7017640625 38.90038555107527 134.21222975470428 38.62690393145161 134.58595463709676 38.08019067540322C134.95967951948924 37.53322743615591 135.146416969086 36.8700220094086 135.146416969086 36.09082437836021C135.146416969086 35.27062950268817 134.96192936827956 34.59592484879032 134.59270418346773 34.06746036626344C134.22372898185483 33.53874590053763 133.7110134408602 33.27451365927419 133.05480754368278 33.27451365927419C132.3938519657258 33.27451365927419 131.88113642473115 33.536496051747314 131.5166609206989 34.06046083669355C131.15193543346774 34.58017590725807 130.9696976814516 35.25688042674731 130.9696976814516 36.09082437836021C130.9696976814516 36.88377108534946 131.15418528225806 37.55147620967742 131.52341046706988 38.093689768145154C131.8926356518817 38.631403629032256 132.40310134408602 38.90038555107527 133.05480754368278 38.90038555107527Z" fill="#322D29"></path><path d="M144.1973086693548 39.645585467069886H143.11713126680107V34.12895623319893L139.95209398521504 39.645585467069886H138.7354257560484V32.5225641969086H139.8018540826613V38.066441599462365L142.98039045698926 32.5225641969086H144.1973086693548V39.645585467069886ZM143.84858210685482 29.6377580813172C143.60709833669353 30.776931518817204 142.80740208333333 31.346643229166663 141.44924336357528 31.346643229166663C140.82028563508064 31.346643229166663 140.29382101814514 31.198653175403223 139.87009949596774 30.902423084677416C139.45087767137096 30.60144331317204 139.17964590053762 30.17997163978494 139.05665416666668 29.6377580813172H140.0205893817204C140.22107590725807 30.157223168682794 140.69729390120966 30.416955712365592 141.44924336357528 30.416955712365592C141.95045967741936 30.416955712365592 142.28993686155914 30.34871029905914 142.46767491599462 30.21196948924731C142.6454129704301 30.070728981854835 142.7776540826613 29.879241851478493 142.86414826948925 29.6377580813172H143.84858210685482Z" fill="#322D29"></path><path d="M160.33697394153225 30.29396397849462C159.78101130712366 30.56744559811828 159.50302998991933 30.888674008736558 159.50302998991933 31.257899193548386C159.7400140625 31.285147362231182 159.93575090725804 31.383140776209675 160.09074049059137 31.55187943548387C160.2457300739247 31.715868413978495 160.32322486559138 31.907105561155912 160.32322486559138 32.12609084341398C160.32322486559138 32.358325235215055 160.24797992271505 32.55431206317204 160.09774002016127 32.71380134408602C159.9472501344086 32.873290625 159.7580128528226 32.95303526545699 159.53027815860213 32.95303526545699C159.2750453125 32.95303526545699 159.05406016465054 32.85054215389785 158.86707273185482 32.64555593077957C158.68033528225806 32.43582002688172 158.5868415658602 32.182837029569896 158.5868415658602 31.886606938844086C158.5868415658602 30.998166649865592 159.08355818212362 30.302963373655913 160.07724139784943 29.801747059811827L160.33697394153225 30.29396397849462ZM157.8348921034946 30.29396397849462C157.27442977150537 30.56744559811828 156.99419860551075 30.888674008736558 156.99419860551075 31.257899193548386C157.23568237567204 31.285147362231182 157.43391905241936 31.383140776209675 157.5889086357527 31.55187943548387C157.74389821908602 31.715868413978495 157.82139301075267 31.907105561155912 157.82139301075267 32.12609084341398C157.82139301075267 32.358325235215055 157.74389821908602 32.55431206317204 157.5889086357527 32.71380134408602C157.43841875 32.873290625 157.24943145161288 32.95303526545699 157.02144677419355 32.95303526545699C156.7662139280914 32.95303526545699 156.54522878024193 32.85054215389785 156.35849133064517 32.64555593077957C156.1760035954301 32.43582002688172 156.08500971102148 32.182837029569896 156.08500971102148 31.886606938844086C156.08500971102148 30.998166649865592 156.57947647849463 30.302963373655913 157.56841001344085 29.801747059811827L157.8348921034946 30.29396397849462Z" fill="#322D29"></path><path d="M169.4903587533602 30.977418044354838H165.36138625672044V39.645585467069886H164.240211609543V29.999983736559138H169.4903587533602V30.977418044354838Z" fill="#322D29"></path><path d="M175.09573202284943 32.35157568884408C176.07541617943548 32.35157568884408 176.8548637936828 32.693302721774195 177.43357489919356 33.37700677083333C178.0122860047043 34.06046083669355 178.30176654905912 34.9606503360215 178.30176654905912 36.07707530241936C178.30176654905912 37.20274964717742 178.0122860047043 38.10968869287635 177.43357489919356 38.797892439516126C176.8548637936828 39.48609618615591 176.07541617943548 39.83007306787634 175.09573202284943 39.83007306787634C174.11129818548386 39.83007306787634 173.32985070564516 39.48834603494623 172.75088961693547 38.804641985887095C172.1766782090054 38.11643823924731 171.88969749663977 37.20724934475806 171.88969749663977 36.07707530241936C171.88969749663977 34.95615063844086 172.17892805779567 34.0559611391129 172.75788914650536 33.37700677083333C173.33660025201613 32.693302721774195 174.11579788306452 32.35157568884408 175.09573202284943 32.35157568884408ZM175.09573202284943 38.90038555107527C175.7429385248656 38.90038555107527 176.25315423387096 38.62690393145161 176.6268791162634 38.08019067540322C177.0006039986559 37.53322743615591 177.1875914314516 36.8700220094086 177.1875914314516 36.09082437836021C177.1875914314516 35.27062950268817 177.00285384744623 34.59592484879032 176.6338786458333 34.06746036626344C176.26465346102148 33.53874590053763 175.75193792002685 33.27451365927419 175.09573202284943 33.27451365927419C174.43477644489246 33.27451365927419 173.92231088709676 33.536496051747314 173.5575853998656 34.06046083669355C173.19310989583332 34.58017590725807 173.01062216061828 35.25688042674731 173.01062216061828 36.09082437836021C173.01062216061828 36.88377108534946 173.19535974462363 37.55147620967742 173.56433494623656 38.093689768145154C173.93356013104835 38.631403629032256 174.44402582325267 38.90038555107527 175.09573202284943 38.90038555107527Z" fill="#322D29"></path><path d="M181.84277856182794 33.44525218413978C182.0797626344086 33.11727422715054 182.39874119623656 32.85279200268817 182.79971424731184 32.652305477150534C183.20543697916665 32.4518189516129 183.63140835013442 32.35157568884408 184.0781283266129 32.35157568884408C184.89832320228496 32.35157568884408 185.54103000672043 32.69105287298387 186.0057487735215 33.37000724126344C186.47521722110216 34.044711895161285 186.70995144489245 34.92415278897849 186.70995144489245 36.008829889112896C186.70995144489245 37.1025063844086 186.4639679771505 38.01394512768817 185.97175105846773 38.743146118951614C185.4840338373656 39.467847412634406 184.82557809139783 39.83007306787634 183.9961338373656 39.83007306787634C183.55391355846774 39.83007306787634 183.13944141465052 39.72058042674731 182.7519674563172 39.50184512768817C182.3692431787634 39.27861013104839 182.06601355846772 38.9846298891129 181.84277856182794 38.620154385080646V42.46189618615591H180.77635023521503V32.5225641969086H181.84277856182794V33.44525218413978ZM181.84277856182794 34.50493096438172V37.464732039650535C182.04326508736557 37.865955073924724 182.3144968581989 38.20093256048387 182.65622389112903 38.469664499327955C182.99795092405915 38.738646421370966 183.35117718413977 38.873137382392464 183.71590267137097 38.873137382392464C184.29011407930108 38.873137382392464 184.74583345094086 38.60415546034946 185.0830607862903 38.066441599462365C185.42478781922043 37.52872773857527 185.59577632728494 36.86102261424731 185.59577632728494 36.06357620967742C185.59577632728494 35.24313135080645 185.4340371975806 34.57317637768817 185.1103089549731 34.053711290322575C184.7868306955645 33.534246202956986 184.33561102150537 33.27451365927419 183.7568999159946 33.27451365927419C183.00495045362902 33.27451365927419 182.36674334677417 33.68448610551076 181.84277856182794 34.50493096438172Z" fill="#322D29"></path><path d="M190.94816659946238 35.20888365255376H191.693366515457C192.61405463709679 35.20888365255376 193.32025717405912 35.40487048051075 193.81247409274192 35.79684413642473C194.30919070900535 36.18431809475807 194.55767400873654 36.733281199596775 194.55767400873654 37.44423341733871C194.55767400873654 38.15993531586022 194.313690406586 38.706648571908595 193.8262231686828 39.084873151881716C193.34300564516127 39.45859803427419 192.63680310819893 39.645585467069886 191.70711559139784 39.645585467069886H189.88173827284945V32.5225641969086H190.94816659946238V35.20888365255376ZM190.94816659946238 38.72264749663979H191.693366515457C192.86003810483868 38.72264749663979 193.4432489079301 38.296426142473116 193.4432489079301 37.44423341733871C193.4432489079301 36.56929222110215 192.86003810483868 36.13182162298387 191.693366515457 36.13182162298387H190.94816659946238V38.72264749663979Z" fill="#322D29"></path><path d="M203.77930423387096 39.645585467069886H202.37789842069893L199.3563514952957 36.104573454301075L198.65914835349463 36.70603303091398V39.645585467069886H197.5927200268817V32.5225641969086H198.65914835349463V35.53036204637097L202.00192368951613 32.5225641969086H203.3623322580645L200.11530048723117 35.43461848118279L203.77930423387096 39.645585467069886Z" fill="#322D29"></path><path d="M208.72847160618278 32.35157568884408C209.70840574596772 32.35157568884408 210.48760337701611 32.693302721774195 211.06631448252688 33.37700677083333C211.64527557123657 34.06046083669355 211.93450613239244 34.9606503360215 211.93450613239244 36.07707530241936C211.93450613239244 37.20274964717742 211.64527557123657 38.10968869287635 211.06631448252688 38.797892439516126C210.48760337701611 39.48609618615591 209.70840574596772 39.83007306787634 208.72847160618278 39.83007306787634C207.7440377688172 39.83007306787634 206.96259028897848 39.48834603494623 206.38387918346774 38.804641985887095C205.80966777553763 38.11643823924731 205.52243707997312 37.20724934475806 205.52243707997312 36.07707530241936C205.52243707997312 34.95615063844086 205.81191762432795 34.0559611391129 206.3906287298387 33.37700677083333C206.96933983534944 32.693302721774195 207.74878744959676 32.35157568884408 208.72847160618278 32.35157568884408ZM208.72847160618278 38.90038555107527C209.3756781081989 38.90038555107527 209.8861438004032 38.62690393145161 210.25986868279568 38.08019067540322C210.63359356518816 37.53322743615591 210.82033101478493 36.8700220094086 210.82033101478493 36.09082437836021C210.82033101478493 35.27062950268817 210.63584341397848 34.59592484879032 210.26661822916668 34.06746036626344C209.89739304435483 33.53874590053763 209.38467750336022 33.27451365927419 208.72847160618278 33.27451365927419C208.0677660114247 33.27451365927419 207.55505047043007 33.536496051747314 207.1903249831989 34.06046083669355C206.82584947916666 34.58017590725807 206.64361172715053 35.25688042674731 206.64361172715053 36.09082437836021C206.64361172715053 36.88377108534946 206.828099327957 37.55147620967742 207.1973245127688 38.093689768145154C207.56629971438173 38.631403629032256 208.07676540658602 38.90038555107527 208.72847160618278 38.90038555107527Z" fill="#322D29"></path><path d="M217.64262249663977 33.137772849462365L217.3213940860215 36.74703027553763H216.7334336021505L216.41220519153225 33.137772849462365V29.999983736559138H217.64262249663977V33.137772849462365ZM217.05466201276883 38.08019067540322C217.2961457829301 38.08019067540322 217.49913214045696 38.16218516465053 217.6631211189516 38.32617414314516C217.82711009744622 38.49016312163978 217.90910458669356 38.693149479166664 217.90910458669356 38.93463324932795C217.90910458669356 39.17611701948925 217.82486024865588 39.3858529233871 217.65637157258064 39.56359097782258C217.4921326108871 39.741329032258065 217.29164608534947 39.83007306787634 217.05466201276883 39.83007306787634C216.8221776377688 39.83007306787634 216.62394096102148 39.743578881048386 216.4599519825269 39.57034052419355C216.29596300403225 39.39260246975806 216.21396851478494 39.18061671706989 216.21396851478494 38.93463324932795C216.21396851478494 38.688399798387096 216.2937131552419 38.48566342405914 216.4532024361559 38.32617414314516C216.61719141465053 38.16218516465053 216.81767794018816 38.08019067540322 217.05466201276883 38.08019067540322Z" fill="#322D29"></path><path d="M226.73426145833332 31.51063220766129C226.49727738575265 31.483384038978492 226.30154054099464 31.38764047379032 226.1465509576613 31.223651495295698C225.99156137432794 31.0549128360215 225.91406658266126 30.86142584005376 225.91406658266126 30.64269054099462C225.91406658266126 30.410206165994623 225.98931152553763 30.214219338037633 226.13955142809138 30.054730057123656C226.29454101142474 29.895240776209675 226.48377829301074 29.815496135752685 226.70701328965052 29.815496135752685C226.96224613575268 29.815496135752685 227.18323128360214 29.920239096102147 227.37021871639786 30.129974999999998C227.55695616599462 30.334961223118277 227.65044988239245 30.585694371639782 227.65044988239245 30.88192446236559C227.65044988239245 31.770614734543006 227.15598311491934 32.465568027553765 226.1670495799731 32.96678434139785L225.90031750672043 32.474567422715054C226.456280141129 32.201085803091395 226.73426145833332 31.879857392473117 226.73426145833332 31.51063220766129ZM224.2324296034946 31.51063220766129C223.9909458333333 31.483384038978492 223.792709156586 31.38764047379032 223.63771957325267 31.223651495295698C223.48272998991933 31.0549128360215 223.40523519825268 30.86142584005376 223.40523519825268 30.64269054099462C223.40523519825268 30.410206165994623 223.48048014112902 30.214219338037633 223.6309700268817 30.054730057123656C223.7857096270161 29.895240776209675 223.97719675739248 29.815496135752685 224.2051814348118 29.815496135752685C224.46016429771504 29.815496135752685 224.6791495799731 29.920239096102147 224.86138733198922 30.129974999999998C225.048124781586 30.334961223118277 225.14161849798384 30.585694371639782 225.14161849798384 30.88192446236559C225.14161849798384 31.770614734543006 224.64715173051073 32.465568027553765 223.6582181955645 32.96678434139785L223.39148612231182 32.474567422715054C223.9521984375 32.201085803091395 224.2324296034946 31.879857392473117 224.2324296034946 31.51063220766129Z" fill="#322D29"></path></svg> 