<?xml version="1.0" encoding="UTF-8"?> <svg xmlns="http://www.w3.org/2000/svg" viewBox="0 0 150.189453125 190.091796875" fill="none"><path fill-rule="evenodd" clip-rule="evenodd" d="M35.891031009515395 2.428306060797109C35.85704471063851 3.1436826662593593 36.17291737078827 3.081482741329555 38.43775433197275 1.9264658709767573C40.146315548304905 1.0551846163945506 40.94574326968073 0.8155612173720882 40.79555381655574 1.2192659691854721C40.67060418833194 1.5553254912710586 40.66710559874168 1.8710057289933444 40.78805683886231 1.921055552074667C40.90900807898294 1.97110537515599 42.80099534954763 1.6377972438838913 44.99261182859297 1.1805290854435317C50.001842424084856 0.13494709787723586 56.15236292377287 -0.26760461876689895 60.236466471895795 0.1818931721934796C64.46826048057923 0.6478188404742096 63.505898443999584 1.3285194251117929 59.02420517886855 1.039106098234713C57.06524490757592 0.9127045553309587 54.5182716858621 0.9027685608946027 53.3634872218178 1.0166151651544302C50.71605449901206 1.2785195818817594 43.4609792858257 2.9680034889767053 43.412498830074874 3.3343557989288684C43.36076968399022 3.7257730043027246 43.80933884931364 3.6931861412619593 49.504542903754164 2.8928337926372714C52.31141135217346 2.498560238762219 55.15701418534214 2.2411715015988976 55.828243588160355 2.321226728401882L57.048251758137475 2.4665281520707674L56.06414848624688 2.697887382682508C55.522866696781406 2.8252360437681987 53.20904948133319 3.312839472948731 50.921721587068426 3.7809007802750623C48.6346435920601 4.248937097675749 45.2222692452683 5.01380375188488 43.33877854942284 5.48076550248284C40.219536030444054 6.25355396312136 36.02997499610025 6.284716400400375 35.343251839382276 5.5402415255173665C35.02562988443739 5.196455118422421 27.240768247582153 9.211061683327266 26.140461821443427 10.286478143523814C25.532706829762894 10.879738978330385 25.823589564267884 10.897831684497191 27.84802344074979 10.39038625435472C29.190232347129783 10.054471673837874 31.523291805324458 9.290404697249375 33.03318311278078 8.693170464265288C34.54332431949356 8.095911241355553 35.9887416187864 7.688950302230657 36.24538815515807 7.788835035032758C36.50178479227329 7.888269949173252 37.367185917351286 7.7959071839902245 38.167863135009355 7.582818088017366C42.844727719425954 6.338619670016119 43.70113247127183 7.41825942764663 39.20869353811356 8.895039083623647C34.913675017548876 10.307069842255096 27.683339830750832 15.19072606138207 27.62661269953723 16.718160296641017C27.611868643406822 17.11347593041545 26.148958396162644 18.962255619540347 24.37569826233621 20.825954294275167C19.16050069968022 26.308394121776203 11.014584617109504 40.24952394121776 11.202009059445194 43.371515352017475C11.223450415648399 43.72862138948108 11.064639438175957 44.11121715110232 10.849276258969425 44.22167262245216C10.405480169444155 44.44933084507591 8.945018934913165 49.73994800332778 7.960465844360961 54.684704590656196C6.644246460651519 61.297288815515806 6.566127953086002 69.26082842073106 7.725535553374583 78.66753623193117C8.056427158836835 81.35270374246048 8.233930600691554 81.93072072262375 8.894514295185107 82.47475140391015C9.57563970855865 83.03552533537854 9.651159263857112 83.48009611259879 9.498370858465059 86.02357074472233C9.31394520720674 89.09558230423252 9.934595000519966 91.7500122062188 10.896007419925123 92.00041126117928C11.33185671309536 92.11386552360648 12.459502117889455 94.91823497946132 16.365477476016533 105.60292758813435C20.60484343217034 117.1992526843282 21.215672184705177 119.09848703332986 20.777898667260295 119.32564545744071C20.498586268328825 119.47058702618031 20.192684588511334 119.43884982061147 20.098647498310108 119.25567366563538C19.874287945871465 118.81834996685211 14.772719575122192 106.10822388467138 14.18398191685732 104.52011410994696C13.271049953202995 102.05760683691243 13.20207775842346 103.66520875363976 14.079074209000623 106.96387893874792C14.909589397878534 110.08911903988144 15.374277065242824 111.12170276752288 20.04886756642575 120.2335294561148C25.436495616030573 130.73529580906822 28.41254586106489 135.51012090201226 31.461316789725455 138.54489747231176C32.23575458545653 139.31608657770903 35.163324374740014 142.458319828281 37.966944132825496 145.5278323952267C40.77031399165453 148.59759486142886 43.395755579892885 151.31399977901413 43.80134207310732 151.56364913620527C44.20692856632176 151.81404819116574 46.68642898879472 153.99641839772255 49.311120879263726 156.41344400608358C52.969396094399954 159.78208598299707 54.60223783602849 161.03333156003015 56.305051369462355 161.77228366134568C57.52705873349105 162.30256988352744 59.65869939098897 163.50733419886126 61.041891775426365 164.44945439566865C64.47775665232425 166.78926113378745 71.64961541311355 170.49826589798252 76.43218738300747 172.40899561278076C78.61005940294821 173.27914482373126 81.67957196989393 174.50415097883734 83.25293768848793 175.1313981125208C86.2912128483777 176.34216001000937 86.87522741069571 176.9021842437084 84.76582778702162 176.5823131954555C82.85109968412021 176.29193025946338 82.71090620125311 176.60030594191971 84.34149884957363 177.51543701903077C86.15851634320404 178.53477608608048 88.05650119592346 178.63223679609504 87.56869784733776 177.68162002456842C87.35653337861376 177.26778685589122 87.46149106632176 177.03288155483048 87.86832705581843 177.01164011803243C88.2126882312032 176.99364737156822 93.00425657432923 176.74024952553034 98.51578467528077 176.44836719399956L108.5364949595726 175.91758117330488L114.35065106008214 173.18393320702475C120.91600432547315 170.09667779287125 124.30588773918468 167.75437206218803 126.79963241927517 164.5819010015859C127.7172624889507 163.41487147397567 128.8662992700967 162.10789836275478 129.3531030216566 161.67757184315204C130.72654933509253 160.46306145681675 129.77918125389974 161.85100192712665 127.14949137830178 164.90552053868552C125.88250214811252 166.37717725990538 124.80293736025894 167.82009556663374 124.75070841566139 168.11197789816453C124.6934814859349 168.4305994501352 125.99095842541077 167.80660100678554 127.99440076435107 166.5523566386751C130.99344174097857 164.6748635249844 131.48524347766744 164.1938074563228 132.8289517795861 161.8245126059432C133.6513702325551 160.37359752300853 134.252627843568 159.04613267275894 134.16416350678557 158.8737021858101C134.07594906925956 158.70177149737415 133.67536056117407 158.59806330594841 133.2737724560628 158.64379486987832C131.74263971180844 158.81672515534007 132.66076957999687 157.13640255498646 136.5417050326279 152.6624561668053C137.4270980982217 151.64161770421694 137.9983677984609 150.34763935433133 138.32723521994592 148.61858639897048C138.59287812954972 147.2199002606333 139.24436549110857 144.98630070650478 139.77415191477743 143.65483746815204C141.26080259138413 139.9193433827735 142.52079464239287 134.16516310381132 143.786034577787 125.3347229779794C144.42152838693323 120.89701198198316 145.0362805577943 117.3174550326279 145.15248371204243 117.37943004822691C145.2684369670341 117.44165496308236 145.48085133501456 119.24792678868552 145.62429350821546 121.39381170380095C145.76748578215992 123.53994651817283 145.99914239288685 125.35646421329034 146.1390859764975 125.43143399022462C146.76083532653908 125.76404990055636 146.70485789309484 117.46564529170134 146.02813070663476 108.92508830334857C145.45985979747294 101.75647823289309 144.85835228720362 99.30846511673252 143.03933559952162 96.76399088758319C141.90404327748024 95.17538131434588 141.72761440242823 94.72331355943219 141.5919191061772 93.0544863248752C141.4412298545393 91.20323263311147 138.3229869325863 81.79477552711626 136.96128588420342 79.08311869540348C136.34478441854722 77.85586344698939 135.36667872881134 77.00645587432403 134.86538082037748 77.2636022092086C134.73743240107632 77.32932571365433 134.92485684341202 77.95282435849106 135.28221278013206 78.64904368695403C136.29055627989806 80.61475123817075 138.47917396786605 87.45199489457674 139.59322485310938 92.11636451617096C141.00115726393508 98.01298737130823 142.88764675085793 110.62065475834547 143.08031907757902 115.42096957544717C143.5668729298825 127.54883039010502 140.93568365874583 140.22921846076852 136.14686420744073 148.83649855059275C134.37457868071445 152.02096477550435 127.99165187253016 161.16977655405051 127.66403394732737 160.99484707453723C127.16473523294508 160.72720497088187 128.03213555207466 158.56082831673774 129.88488863937707 155.4470835814008C132.5280730748232 151.00412470101912 133.34799253522772 149.05541029924083 133.83729527935213 146.05536972558755C134.33309540414413 143.01409577462042 135.039310702865 141.27254785643717 136.59093518614807 139.2661067264195C137.6197704249428 137.93514328657963 137.88791232711105 136.90680784629782 138.40470398944467 132.31290981502184C138.73856939605864 129.34760523801478 139.19488543833194 123.83982562590994 139.41929497062188 120.07334403273191C139.6437045029118 116.30661254029741 140.005058827735 112.17752712601393 140.22222128158796 110.89779303374583C140.74451072756344 107.82003379133735 139.96057676008735 101.80945687525997 138.80829128860753 100.0566634905366C138.21078216644136 99.14802979409318 137.7642121951695 97.67337428179596 137.2689118688904 94.97421241290557C136.26381705945818 89.49667061083089 134.2908624298045 82.67067242096505 132.06201096154845 76.96122410890702C129.36010020083714 70.03901470530886 123.72887035604721 59.683439417377286 119.14047010841306 53.19780401479305C114.50683809536189 46.64869420107112 113.4130290498908 45.38870215006239 110.26454831790764 42.974175534265804C107.56063836314475 40.90076140352018 105.5264584156614 38.72938676424708 103.63771983543053 35.900777080516846C102.46944081153806 34.15048268835795 96.06027458142678 29.92193737000832 84.344497640651 23.17098392685368C82.15138176606696 21.907093447444364 79.80557744579346 20.39802680753432 79.13209894966722 19.817885683691244C77.42078884151414 18.343380110947898 72.24837403156198 16.851606499584026 70.801207437474 17.415454191906715C70.12198125844945 17.680022534707778 68.17001816633736 17.557546909122816 65.9988934263207 17.11410067855657C55.96943666805324 15.064801826058131 48.0548773171017 16.112179589681258 39.18070482139143 20.663744686915035C35.050619810082146 22.78144096590318 28.67668937512999 27.31773721856801 27.208281344243964 29.18323516794925C26.950385311590058 29.511102992408485 26.546798012427203 29.381405278312187 25.952037782081945 28.779897768042844C25.420751962874377 28.242364467424082 25.188595553634567 27.836278175696755 25.36127593983985 27.74756393965786C25.517962773632487 27.667096379081737 25.743122003691763 27.79079651102329 25.86182415050437 28.02195332323731C26.23442394186772 28.74841046173045 28.276600665557403 27.364718278780156 30.822574290245424 24.660558424760815C33.962308548252906 21.32532797843438 39.713490036137685 17.826613438539933 44.80593708402662 16.15371284610285C51.71065353967346 13.885627194584547 60.95717592749064 13.421664235063956 70.38887366433548 14.871029942608672C85.17141428023605 17.142839093048046 99.68356390066035 26.43034495892263 113.34330715734193 42.36242215448211C118.3865240517107 48.24455085274543 119.08549227199458 48.99874680870424 118.93330362481801 48.39598980215266C118.8623322359869 48.114853138649124 117.3584385106853 46.07117701942076 115.59140086834442 43.85432071547421C112.50964323783278 39.98787941971713 111.27689020577682 38.00567851757487 113.51773683834234 40.519665037437605C114.56056643549813 41.689693356125204 114.58105817452683 41.692442247946126 114.25968773073524 40.611877863066766C113.9822995560784 39.679753636517255 114.61879296225041 40.183800436772046 118.21834185212147 43.746864035201746C120.81854361545861 46.3208263766119 122.97092591124168 48.75334573887271 123.68488808691244 49.92412375532965L124.86291318180636 51.85534520915661L123.08637936772045 49.95286216982113C121.99332002001871 48.78158435485129 121.28360613170756 48.25354722597754 121.24037356034212 48.57941585638518C121.17140136556259 49.10245500012999 125.5841224359141 56.379771247140184 129.5105395532186 62.218167575525165L131.36929022267574 64.98230325109192L130.27223248687082 62.35861095764871C129.66847588329347 60.91544275166389 128.61689981216202 58.586881480085275 127.935174640573 57.18394705438852C126.85885854305323 54.96933984375 126.80987828878952 54.76292305792429 127.56357444623544 55.618578112000826C128.08511419444156 56.21083934978161 128.54193003522775 56.43874747166181 128.70911263779118 56.18984781224001C128.86180108348066 55.96168979110337 129.1471860343438 55.90771155171069 129.34235735362935 56.069896169145174C129.53827837068425 56.232330685836104 132.10474373440098 61.004656786215676 135.046557781302 66.67512081426788C140.36641315255824 76.92873720556884 140.3976505596142 76.99945869514352 140.81698151193322 79.63889464174294C141.04888802191658 81.09855619865327 141.67638505485647 83.36789134645382 142.2114193629108 84.68211153611169C142.74595387245216 85.99583192725666 143.1700329106437 87.436501140677 143.15378945897461 87.88307111194882C143.12080275712356 88.76521548720882 143.66533323692283 91.52385337913373 144.67667552776624 95.59971025179388C145.26393878041804 97.96600631109608 145.32391460196547 98.09070604006344 145.36439828150998 97.03638107711106C145.3891383078983 96.40063736870839 145.39638538633528 95.44102422394967 145.3803918339226 94.90374082258734C145.31841681832364 92.79434119891326 146.30651847831737 96.6427897482061 147.2036568089642 102.00487809380199C149.5277198939268 115.89752745749271 149.3770306422889 114.4643552217658 149.32180290661398 122.16325151440307C149.30505965643198 124.50880593542013 149.3325485746412 127.10101092255094 149.3827783251872 127.92392917403285C149.46449538204556 129.27088616628535 149.50872755043676 129.36759717853056 149.82534990835586 128.89553748310107C150.12572881460585 128.4472182170341 150.17820765845985 128.58116421849002 150.18970302425643 129.82141422823938C150.2079456699771 131.8096127125364 149.27307255160667 137.8294359011023 148.5548620885763 140.348420406094C148.14127881915556 141.79908558977223 148.16626874480033 140.77674773164514 148.63807854097337 136.94204364145696C149.00867913828515 133.92850850795548 149.21984400998335 131.51023340331218 149.1071394453255 131.5679601315516C148.99418498141117 131.62593675904742 148.57660332388727 133.33424807612312 148.17851380836626 135.36417973624685C146.81381396890598 142.32387402831216 146.28452734375 144.16813054089536 145.26243938487937 145.51808632422524C144.6996662593594 146.26128671290036 144.02843685654116 147.95110548499895 143.7712905216566 149.2725727530938C143.44742108530053 150.9356523047525 142.0907180220466 153.8282361981333 139.36656622751144 158.66528620593283C137.20118917039306 162.50948646786603 135.13427242031509 165.96159479643302 134.772418296979 166.33619378184798C134.41081407289934 166.71129256577578 134.04521146071653 167.68814875922942 133.9599958142679 168.5073185218646C133.8178031373492 169.8747672531458 133.3639860876404 170.3683182846298 128.41548101146526 174.53913687474C123.1353596219842 178.98959273281508 121.64496045653078 180.5592099625624 123.28454947808339 179.94395799318843C126.0661781016015 178.8993791012375 118.46099403013207 183.12592522553555 114.52782963290349 184.8102462139923C106.86941701981073 188.089674156354 102.68435417208299 188.56423284434797 92.08437741134567 187.35572004016743C88.92415141430948 186.99536531237 85.87388109011023 186.77870265702995 85.30610997946131 186.87441407224935C84.64087815879783 186.98636893913786 83.89467897904534 186.69248741355554 83.20770592307092 186.0484970296901C82.58670627079867 185.46648166142364 81.33296170120113 184.9204517860857 80.20616595387895 184.7410241199563C79.14159512141222 184.5713425248284 77.65669373960067 184.16875482269134 76.90674607100145 183.8466346811304C76.1565485031458 183.5240147410566 74.64190910981696 183.1171787515599 73.54135278442179 182.94249917130304C72.36432728655366 182.75557452748023 69.74538307898294 181.63452646305635 67.18266620411293 180.22109626858878C64.78588243552412 178.89912920198105 61.217071154196134 176.94091862845775 59.25211330074875 175.86960051606695C49.881390982477114 170.76041021799605 47.90218887141223 169.34473093022046 41.02895972207778 162.831606609427C37.12978162372608 159.13659620359297 34.239696722909734 156.13805502547837 33.8498538828515 155.3831093717502C32.58811253704763 152.93884474443632 31.20067186525062 151.09383853408383 30.929031373492098 151.4986753295289C30.739357837848377 151.781811187084 29.978664501221918 150.78696224716617 28.15964781353993 147.876885405834C26.78020391794925 145.66977517288893 25.666402931962352 143.7527979766795 25.68439567842658 143.61710268042845C25.702138525634357 143.48115748492094 27.27325515092034 145.32541399750414 29.17523839174293 147.71495068765597C31.07672183405262 150.1044873778078 32.793779625103994 152.1019321345934 32.9902004406718 152.15316148216513C33.548975178088604 152.29860284941765 33.090659941763725 151.61088009567388 30.263299754315724 148.0638100496568C22.313004809692178 138.09008082557716 14.46791745203307 125.11131304271525 9.37424589778754 113.50499197626351C8.068447313071962 110.52994132825499 6.824298874922005 108.0014606515183 6.608935695715474 107.88625709429596C6.393597506434588 107.77105353707361 5.216047220127911 104.42665178803556 3.9913159542039307 100.45450310680117C2.7666596580568843 96.48160472779742 1.9745289949693219 93.53004460989497 2.230413338608829 93.89489752430843C2.486812474716618 94.26000033797837 3.5457205900322375 97.38099215175228 4.584476829307924 100.83110128626768C6.09459304609505 105.8483286579659 6.60623678374584 107.19028766508943 7.142220708974626 107.53789753080802C8.107431597077786 108.16389516820922 7.964789101497503 107.09607564540869 6.768821239990641 104.73902585859504C5.601666762752184 102.43895310225145 5.0652580087874375 100.74838463238352 5.542065790089434 100.87258456283797C5.951675661332674 100.97954144459754 2.7159051190723793 88.2389276531302 1.958130605761231 86.76202304752495C1.641255849593126 86.14427208558652 1.597166123778078 85.2751224716618 1.8423072983829034 84.47544485102954C2.0811959935914097 83.69425977537436 2.009502395909162 82.09190574303244 1.6604731024139454 80.41633122855137C1.343370937922473 78.89319526050332 1.0656703891950916 77.03694358361064 1.0439866307131342 76.29174400088394C1.0220879588706322 75.5462945189008 0.738154922687448 73.74951886504263 0.4125786744098377 72.29860378210793C0.05588696991342554 70.7077451155626 -0.08722633586600458 68.05906289647463 0.052533821690411805 65.62654353421381C0.17980426430883423 63.40768803621568 0.34855448490796587 59.169146747608146 0.4274951610271942 56.20759065944779C0.7189501648294508 45.28574365640599 1.206373666545341 42.09253095751871 3.6792667526778287 34.91417481606177C5.4691951669093175 29.717019979721297 6.308032001026934 27.88825722103785 7.495028479227329 26.594028971895796C8.331466280483049 25.68214658511855 9.040805319909525 24.658659190411814 9.071168079567908 24.320170647553557C9.110352282978889 23.879948117395486 9.003695280327058 23.87410047479461 8.696469134450394 24.299928807781303C8.412483619423357 24.693670076240117 8.293131734543987 24.70391594575447 8.344411061967033 24.330241587588393C8.43240059016223 23.6912991687032 13.211698879796693 18.40530514669561 13.541815797563956 18.582258810186147C13.659643296978993 18.645033503405784 12.799839915245423 20.31251128197795 11.630611274178452 22.286890337393405C9.626019398658485 25.67414980891223 8.98027971999792 27.123815395564684 9.624944831855762 26.7904497874636C9.776433761114287 26.711731521682612 10.712356456361793 25.29155404729097 11.704556464161293 23.63414720875364C16.689496851926474 15.306579356671172 25.248821274438434 7.091291240510607 33.17987397631551 3.0224565369566343C35.591401801034735 1.785370251793885 35.92526720764871 1.7123621840227226 35.891031009515395 2.428306060797109ZM21.178537155197066 14.958669611844842C21.083475478044406 15.755798260061356 12.677964047875935 27.4741741531042 12.333402953086 27.28974850184588C11.904200980137272 27.060091085170548 15.446298030951018 20.88652987403806 17.433496918222232 18.400607040674394C19.64555515644499 15.633597523658485 21.276922492460482 14.13435192452683 21.178537155197066 14.958669611844842ZM28.808886081790764 11.553442383787436C28.68193725951539 11.896928911774646 25.934544834130616 14.764322960105552 22.703847246776206 17.925398614613666C19.473099679570506 21.08644927919613 16.70706476965474 23.837040415063434 16.55760002437344 24.037984407172942C16.407860389910045 24.23910332876196 16.194271495424292 24.22545882935992 16.082966366602538 24.008496294912124C15.815924021162646 23.4879561437318 19.641356848936667 18.750291070221508 22.601763400517367 15.935026006785565C25.392763246152242 13.281645681676373 29.15124806312396 10.628440286046693 28.808886081790764 11.553442383787436ZM44.61776294392159 8.332141008475457C45.42468764299085 8.163608949927204 44.92988711522462 8.465262342385087 43.35777089291285 9.100706171680011C41.934094828930945 9.675474461509463 40.67860096453827 10.103901746763206 40.56814549318843 10.05229755030678C40.22728290739392 9.89308673402402 43.21108002937812 8.625672675098793 44.61776294392159 8.332141008475457ZM65.87469349586627 1.041122785234245C66.63413733621049 1.0143260879653702 72.01971621191244 2.6289401778286186 72.17365415388414 2.9291441545991055C72.22313420666077 3.025430338108361 71.55440379640703 3.1491804499012064 70.6872533765339 3.2046830747582153C69.01617704866888 3.311515006889559 67.24963920484089 2.8432287902324247 65.59180753756759 1.8544773921719009C64.55772441438747 1.2377060353187395 64.6109529560108 1.0850300845920862 65.87469349586627 1.041122785234245ZM41.90685580997816 13.463097531782966C44.64900035097754 12.50615830906822 50.881737706036816 11.26053546530522 51.891580601341516 11.468051807859297C52.35989180792429 11.56401312233517 52.4056233718542 11.7252731125208 52.13173378678764 12.309837453202995C51.88858181026414 12.828178490926579 51.252588202605025 13.091772226627494 49.88563926983672 13.241211981983152C47.7287587874376 13.47671704125936 36.15292543027246 19.015434181312393 32.18227614457675 21.711597259125416C30.50220344347962 22.852312395031717 30.062130852875413 23.03931200863145 30.582920903312186 22.391323236662853C30.977511829242925 21.899396550345777 31.28463801541701 21.269700403949148 31.265395772670548 20.992212269589746C31.245903630667637 20.714874074784213 31.190925794249164 20.510981271448625 31.14294513701123 20.539319847129782C31.09521437902974 20.568058261621257 29.807233611298876 21.703725432547316 28.280599053660566 23.063177387622193C26.753964496022252 24.422654332622713 25.303799110856904 25.626668950187188 25.05789824251248 25.73837391781926C23.96408919704139 26.234673841124167 29.029297225977537 20.389830111922837 30.830571066451746 19.076984368175438C33.316568869592345 17.265164779079136 38.40776642119904 14.684580107373128 41.90685580997816 13.463097531782966ZM42.27170872439164 14.149120970582883C42.88096311161085 13.95717335170549 43.59392569025582 13.911666697106385 43.855820111012896 14.048161670978056C44.42034253132799 14.342717924552828 40.130072096635814 16.619774959377597 35.90902375597961 18.265736411969634C34.08076079580906 18.9784740812838 33.18837055103473 19.16125039744956 33.446016684432195 18.769883171927C33.860599550878746 18.140187025530366 40.28625913191556 14.776243154638102 42.27170872439164 14.149120970582883ZM57.81294348286709 7.091266250584963C58.70483392912853 7.006450442946651 61.21157337055428 7.277216287307612 63.38369770759671 7.693098629887687C67.52527808470258 8.485854041116367 68.407672359219 8.337963661150685 65.93092082856697 7.265770901362313C65.120247640651 6.915237214343282 64.6024563812916 6.5536329902636234 64.78038465188227 6.462419761660254C65.5740646903598 6.055283893055844 69.41676555675437 7.0651017984349 71.55940178153598 8.244376389611064C74.27180831101809 9.73737450733153 79.86480356957155 11.546795063565932 83.18096670263103 12.004985350262581C84.7778229513311 12.225246554895485 85.73493710352537 12.622211523762479 86.35768605059276 13.320904854864288C86.84798839174292 13.871432916818323 88.4758321482425 15.006750228785357 89.97522768692804 15.844212616992511C93.9183880544145 18.046824663321544 100.59744548148919 22.63612454827891 105.02141201838081 26.18344449355241C112.90948204814892 32.5081447749844 116.86413778143198 36.77942286618656 126.02569442205697 48.86879919535149C130.66082583064684 54.98508349690619 132.8184560108153 58.44169001208922 134.50177740224626 62.44582579814891C136.14911330074875 66.36499583701642 135.06580002404846 65.21096107074148 132.54131773541494 60.35841730904222C130.23199870658277 55.91945681676373 126.43452960560523 50.21100810173149 123.34052691152765 46.52849265871984C120.85302971284838 43.56718646981593 119.6947466592138 42.55909286930636 120.91175603811355 44.414594848429694C122.09627851367512 46.220366875519964 120.67535134151414 44.88890363716722 117.46539539244488 41.18514675735752C109.60981226601497 32.12130072600353 104.24772392041909 27.0908286937136 97.97800147540556 22.90286701461106C83.21095461340474 13.039168433145278 69.64342418235232 8.120426358413061 58.14730868799396 8.462588420341097C56.542705562344004 8.510419138025165 55.21624030912022 8.352757697132384 55.199247159681775 8.112404592281093C55.159263278650165 7.541709660331738 55.8284934874168 7.280240068310627 57.81294348286709 7.091266250584963ZM29.655044964122297 23.77189167890755C29.5148514812552 23.99150314547369 29.187483455308858 24.15946043573211 28.92758822860337 24.145141208337666C28.66744310264143 24.131371759307406 28.78239676060732 23.951894113326745 29.18248547017991 23.74660187415505C29.582824079008944 23.54130963498336 29.79523844698939 23.55285498063124 29.655044964122297 23.77189167890755ZM77.03794318063643 4.5212523174266845C79.11235690840786 5.228367253470778 81.98794765235024 6.165439485297941 83.42861686577058 6.603887730735233C84.86903617993448 7.042460925800748 86.13952399971402 7.440200582362729 86.25147886660253 7.4883311791545335C86.3641834312604 7.536336826318115 86.42116046173045 7.838415047511958 86.3789274873908 8.159185733088082C86.28096697886335 8.899312360908903 82.21235718464018 7.710616567764663 80.06322357919093 6.313729704073939C79.22556127157861 5.769399143679804 77.99830602316452 5.339922281548981 77.33632289283486 5.358739695559484C76.17928933548252 5.392576054882487 73.16300531016014 4.020354247803141 73.23247730345257 3.4917673405652034C73.2514696469426 3.3508991297056987 74.96352945286502 3.8141373813825914 77.03794318063643 4.5212523174266845ZM72.80664897046589 11.686713657250936C75.30189304609505 12.29206961606957 79.40648833324667 14.161291064371879 79.76234487442804 14.854636551385711C79.86380397254575 15.05265672219478 78.3459158888831 14.593316898918468 76.38945461015494 13.833673139169091C69.30106220101912 11.082382285383735 68.61109035396734 10.668898975665556 72.80664897046589 11.686713657250936ZM14.151345073965265 40.44519505901622C14.33117257890495 41.15765783914829 10.673122273099521 52.9391582843698 10.32936085593022 52.754982532367926C9.856801361987833 52.50233438409941 10.104176635945299 51.40252775647359 11.790896657263934 46.2578517639871C13.981763438539932 39.57504584806572 13.951075809848168 39.651265121282236 14.151345073965265 40.44519505901622ZM85.39307492070506 20.98341581576279C92.52020171459027 24.352132762453202 94.38320067140702 25.456237657289932 94.27849288295549 26.248668199485234C94.2202663562032 26.691739581166804 93.00500627209858 26.085733884281407 87.45624318193636 22.846114893471817C82.4230222578255 19.907749456309794 81.66032972714747 19.21925201487105 85.39307492070506 20.98341581576279ZM99.85524468983985 30.27304582531718C104.0870386985233 33.571216211912436 110.19107793651206 39.27016875519967 110.1141089655262 39.85143442569675C110.0936172264975 40.00537236766847 107.22027557586313 37.69580343957986 103.72868316477745 34.7190034967762C100.2368408544353 31.742453453228993 96.80772325746152 28.82363013792117 96.10850513792117 28.23311819493552C95.40978681689371 27.64260625194987 94.97621160695715 27.08782990263623 95.14564330282862 27.00086496139247C95.31532489795653 26.91390002014871 97.43472049188851 28.386556338394342 99.85524468983985 30.27304582531718ZM122.63955949719217 52.744236864340685C123.34852368773399 53.68760655743032 124.64275193687604 55.646316929466515 125.51614983816035 57.096982113144755C126.38979763870111 58.547647296823 127.54808069233569 60.46312509749375 128.09036207882696 61.35326624896006C129.04822592879054 62.925132572015386 130.75178915999373 66.86704344321964 130.38943523814476 66.6731216202163C130.08855653338185 66.51218649906406 121.64820914686459 52.20695346297837 121.49452110414933 51.59694937798981C121.41555293911189 51.28432540817387 121.93109510516327 51.80061727199459 122.63955949719217 52.744236864340685ZM124.2534088953307 57.61677256655574C124.41884220309899 57.75396725834547 125.45542431884358 59.43279046316035 126.55698024126455 61.34801836457467C128.8867910091254 65.39763581530782 127.98440479409318 64.69791789725457 125.21377173785878 60.30618836444467C123.71012791181364 57.922649256447585 123.32628265391016 56.84758265521006 124.2534088953307 57.61677256655574ZM23.67658010249844 123.76285665492408C24.434524547303972 124.58602480566243 25.758115959078616 126.47651268068843 26.617519502001873 127.96366315580804C27.477422843438017 129.45106353018406 28.712674868058443 131.56271224716616 29.36241293482217 132.65652129263728C30.98250981437188 135.38242238196756 30.491207876195922 134.96034253782756 28.04619355111273 131.5249774594426C26.918398206764767 129.94061617356488 25.82808775088394 128.60065636049293 25.623170360596923 128.54767771812604C25.19534283355865 128.43572285123753 21.82810029248128 122.50436399945403 22.111261139962043 122.36117172550956C22.214194643692803 122.30894278091202 22.918635657692906 122.93968850418572 23.67658010249844 123.76285665492408ZM132.77447374168054 72.49402500064996C133.18955640663995 73.3034486922837 133.2995120794769 73.66505291636335 133.01887521448626 73.29795090864184C132.7379884502392 72.93109880017678 132.39812546147047 72.26861587133422 132.2639295607581 71.82654408667845C132.1294837607893 71.38447230202267 132.35914117746464 71.68460130901622 132.77447374168054 72.49402500064996ZM25.38701556325395 137.86567129328722C28.118164536969633 141.29478889026103 33.223356446937395 148.53811883839435 32.83851159200811 148.43815913581528C31.75020033017887 148.15452347974727 22.982434937863978 136.25582028325186 23.620627658979824 135.92820235804908C23.70794245918261 135.88347039114498 24.50257211483465 136.7553688968906 25.38701556325395 137.86567129328722ZM138.52240653923147 90.03770250103993C138.7598108328567 90.53450222285772 138.74181808639247 90.66969772059588 138.47717477381445 90.38206367642469C138.23727148762478 90.12166865120632 138.06159231034215 89.75356704645903 138.08658223598687 89.5643933093282C138.11157216163164 89.37521957219737 138.30749317868654 89.58813373869073 138.52240653923147 90.03770250103993ZM144.06667144277768 101.50457978239393C144.58596209767575 102.51667177100666 145.22820318674604 109.24246035903703 144.96031118383425 110.85705945494489C144.6881708935628 112.4961486779846 144.6032051463706 112.64258964226289 144.5222377872816 111.61300470569883C144.46676015235025 110.91103769433755 144.25959366875517 108.32882867746464 144.0611736591358 105.87431818063644C143.73405553244592 101.82370113287749 143.73530502872816 100.8585902044769 144.06667144277768 101.50457978239393ZM141.9485253451279 117.846241859271C142.06172970829866 125.79228851653494 141.95402312876973 127.80197833688644 141.3987469809432 128.08686348923666C140.82097990003638 128.38324400738352 140.8189807059848 128.3794955185368 140.91944020707675 127.13774611324874C140.9749178420081 126.45177265430013 141.15409560888105 123.49221576019134 141.3177796218542 120.55989788503535C141.48121373557092 117.62758000987935 141.68113314072897 115.19506064761855 141.76185060056156 115.15357737104824C141.84281795965057 115.11209409447795 141.92703400907342 116.3238555889923 141.9485253451279 117.846241859271ZM71.18705188942907 167.76986581608776C76.81153445429493 170.00971285162748 78.6273024516431 170.92434413022565 77.36980939319882 170.88386045068117C76.54988993279429 170.85762102875415 65.29017913503536 166.42915630524647 65.0745160767211 166.0480599391639C64.6491875422473 165.29686277428243 65.77598328956945 165.6144847292273 71.18705188942907 167.76986581608776ZM140.68353530899023 132.529072671849C139.96232605488248 136.88106822288373 138.57013729721297 141.79008921654014 137.28115693245633 144.527485671667C136.28205970517885 146.64838066113768 136.24207582414724 146.68536575109192 136.53195896162643 145.21670782094947C137.1297179830491 142.1901779261127 140.65754578631967 129.53003169522148 140.93743295354096 129.4055818655106C141.09411978733363 129.33610987221817 140.9796659278806 130.74179318973586 140.68353530899023 132.529072671849ZM145.9851480345258 130.91022528858153C146.01338665050434 132.6630186733049 145.61279814241888 134.42305913646527 145.12874328267992 134.6712090981177C144.76588956231802 134.85738404417117 145.030532874896 132.27217623622087 145.54982352979408 130.56011643029845L145.95765911631656 129.21465883358465L145.9851480345258 130.91022528858153ZM72.23737846427828 175.02644042481282C75.06998653611168 176.25694436356073 76.19253399607425 176.94191822548356 75.74971251364911 177.16907664959442C75.33238075538166 177.38324031237 69.23159020772671 174.89974150179387 68.98244064904846 174.41393734725978C68.53112259190412 173.53429196456426 69.01092916428348 173.62500539465472 72.23737846427828 175.02644042481282ZM73.84048219438955 174.12630330308858C75.27240493383424 174.82152303452577 76.05383990874584 175.3862953540973 75.78919659616784 175.53423571391428C75.29739485947898 175.81037439228888 71.34273912619592 173.77569464629264 71.40846263064164 173.2803943200135C71.43145336223482 173.10771393380824 72.5257622062188 173.4883105013779 73.84048219438955 174.12630330308858ZM147.0407224937604 136.27706172004991C146.94226218672003 137.24217264845052 146.73434600535563 138.0965782062448 146.57940846635813 138.17604616979514C146.19806220101913 138.37171728759358 146.408477374948 136.17660221895798 146.859045734323 135.25922204853887C147.1169417669769 134.7331841137167 147.16917071157445 135.0245666467346 147.0407224937604 136.27706172004991ZM79.80007966215162 176.15348607139143C80.13669396058651 176.24095081114808 80.387093015547 176.50184563487937 80.35635540700395 176.73325234634981C80.3261175969738 176.96440915856385 80.03498496321235 177.01114031951954 79.70986603057405 176.837210437032C78.94417470881864 176.427375656458 79.00764911995633 175.9470692855657 79.80007966215162 176.15348607139143ZM99.86998874597026 173.8564121061252C104.55135151700291 174.11630733283067 107.7640563578931 173.10046685537125 114.9516587718386 169.0880843938488C118.41251357438124 167.15636314150893 121.71268315502807 165.1999018627808 122.28570215006238 164.74033713017366C123.10087352459442 164.0858509775374 123.23132093646007 164.06610893627806 122.8854603655366 164.6481243045445C122.6423083890131 165.0572093873492 121.13041788750519 166.46314260412333 119.5255648625988 167.77261470790867C114.10300089694259 172.19608144628742 105.7538667390287 174.87125298655886 98.05347105085275 174.65134164088497C97.48944842905054 174.6353480884723 96.94216905743032 174.45592042234296 96.83796106749168 174.25300222610753C96.56382158316868 173.71846771656612 96.80947255225665 173.68648061174082 99.86998874597026 173.8564121061252ZM99.29422085911501 178.5532686310576C101.10674016612936 178.3800884463394 101.76922309497192 178.69196271838604 100.72614359855969 179.22724692569673C99.92146799279845 179.63983059809172 97.39173781977952 179.63158392262895 97.1783238547733 179.2155016606437C97.01364024477434 178.894631015365 97.58191115393615 178.71670274477432 99.29422085911501 178.5532686310576ZM143.352209468594 159.96626173499897C143.2812380797629 160.45881316945716 140.59956915882384 164.6133883078983 140.22996815853784 164.803061843542C139.7544098735181 165.04696351783483 140.37141113768718 162.56771299461835 140.9679206628276 161.8380071657914C142.16793689228888 160.3703488326747 143.4371752157862 159.3740004972182 143.352209468594 159.96626173499897ZM96.32991587913374 189.5433381311096C98.98034739301684 189.6730358452059 101.13547858062083 189.87770333623646 101.11973492746463 189.9981547778442C101.0917462107425 190.2098194480553 91.30219273866471 190.0263933938228 90.87861349898606 189.80623214889246C90.16165253223792 189.43338245827266 92.13660635594321 189.33817084156613 96.32991587913374 189.5433381311096ZM138.06908928803557 168.29915244124373C137.74197116134567 168.85642778312186 137.0122653325187 169.69109129965682 136.4477429122036 170.15440452111065C135.75327287853577 170.72417482581113 135.8957154547109 170.4137999493032 136.88681590578204 169.19679057040346C138.5786338719322 167.12012774932404 138.90925058821236 166.86847919808133 138.06908928803557 168.29915244124373ZM131.7191491817024 175.24610187123025C131.1826154781094 175.98655336808443 129.75494102602434 176.98340150205388 127.93017665544406 177.8925349970102L125.00210706764766 179.35069715838185L127.90243783797835 177.47970142535877C129.4975447918833 176.4511160858205 131.2026074186252 175.26034612884774 131.69141036423667 174.8337680980917C132.56855675436773 174.06782687707985 132.56905655288062 174.07332466072168 131.7191491817024 175.24610187123025Z" fill="#AA2929"></path></svg> 