<?xml version="1.0" encoding="UTF-8"?> <svg xmlns="http://www.w3.org/2000/svg" viewBox="0 0 131.8515625 18.4110107421875" fill="none"><path d="M2.9737521721117424 10.098556121271308C4.48677382368608 9.414975690991952 5.644320666133996 9.410405835700757 6.44641767134233 10.084896499171402C5.72635331439394 11.205984386837121 4.837678777521306 12.10831854580966 3.780394060724432 12.791923947975851L6.774548264382102 11.739184114583333C6.628712445253314 12.459248471531723 5.826615440044981 13.20208718927557 4.368282220643939 13.967700267814868C5.771927007871686 14.496355112156724 6.364385023082386 15.33945595555161 6.145631294389204 16.497002797999524C5.270641351503315 17.918877062618375 3.748504961233428 18.31992556522254 1.5792246207682292 17.70012333392519C-0.5900482281309185 16.788674436257104 -0.45332714769767996 15.585553900331439 1.989380370501894 14.0907617261482L0.881957099313447 14.200138590494792C0.10721854416725853 14.546473689038825 -0.15710438306403884 14.427982085996685 0.08898931649502842 13.844663781368372L1.251099022105824 13.27043524354877C0.8956292073567709 11.839446240234375 1.4698477564216381 10.7821615234375 2.9737521721117424 10.098556121271308ZM3.288198171164773 14.596617237807765L1.6749268798828125 15.813397395833334C1.4379486681758997 16.43319962713068 1.7660717696496213 16.838793013139203 2.659306173058712 17.03020252574574C3.552525593335701 17.21249729965672 4.199672040719697 17.034772381036934 4.600695571437027 16.497002797999524C5.001744074041193 15.959233214962122 4.728301913174716 15.421488603811554 3.780394060724432 14.883719020774148L3.288198171164773 14.596617237807765ZM3.2471943329782196 12.231380004142993C5.179493964547822 10.526948839962122 5.375448360558712 10.080326643880209 3.8350824928977274 10.891538387784092C2.294719122425426 11.702725159801137 1.9757082624585702 12.24049474283854 2.878059901751894 12.50482216500947L3.2471943329782196 12.231380004142993Z" fill="black"></path><path d="M14.006956073922822 10.809505739524148C14.872831278113164 10.727473091264205 15.465289293323863 11.21509912553267 15.784305147668087 12.272383842329544C15.547321941583808 12.946874505800189 15.132613816879735 13.530217782315342 14.540155801669036 14.022388699988165H14.77259412434896C15.811649363754734 13.229431405362217 16.417767001065343 13.115484685724432 16.590947036280777 13.680598484848485C14.558385279060134 14.819915849905303 13.482871084872158 15.69493076467803 13.364379481830019 16.30559328539299C13.24588787878788 16.907166039299245 13.569448616536459 17.084890957919033 14.335086666962594 16.838793013139203L17.79406757220644 15.444262964607008C18.13131290394176 15.54452509025805 18.208775696910514 15.735934602864583 18.02648092299953 16.01849150242661C15.948370444187974 17.15780886748343 14.39888983783144 17.727467550011838 13.378064075816761 17.727467550011838C12.43013125147964 17.618090685665244 12.275180693655303 16.952739732776987 12.91321240234375 15.731389719460228C9.950972270063922 17.06211659712358 8.014127755089962 17.727467550011838 7.102653885535037 17.727467550011838C6.473761887428977 17.499599082623106 6.241323564749053 16.9299404000947 6.40538886126894 16.01849150242661C8.501753789358428 12.600514435369318 11.035601202947444 10.864194171697443 14.006956073922822 10.809505739524148ZM9.139760526160039 14.104421348248106C7.681427306758996 15.480721919389206 7.075309669448391 16.337507356770832 7.32140761422822 16.67472771661932C7.567505559008049 17.01197304835464 8.574671698922822 16.79778917495265 10.342906033972538 16.032151124526514C12.120230135830965 15.257423307291667 13.359834598425662 14.254827022668088 14.061644506096117 13.02433729876894C14.717905692175663 12.213150526751894 14.499151963482483 11.78475780806108 13.405383320016572 11.739184114583333C12.019968010179925 11.930593627189868 10.59809374556108 12.71900603841146 9.139760526160039 14.104421348248106Z" fill="black"></path><path d="M25.327236786813447 12.668887461529355C25.30900730942235 12.231380004142993 25.190640565814395 11.916934005089963 24.971811921460702 11.725524492483428C24.908008750591858 11.251558080314867 26.106609375 10.914312748579546 28.567588822798296 10.713788497277461C29.251069365530302 10.768476929450758 29.570210079308712 10.914312748579546 29.52451152639678 11.151295954663826C29.333226873224433 11.379164422052558 28.79083749112216 11.543229718572443 27.897593098958332 11.643491844223485C27.004348706794506 11.743753969874527 26.589565666429923 11.939708365885418 26.653493696732955 12.231380004142993L26.40727089251894 13.051681514855588L25.327236786813447 12.668887461529355ZM23.960075926254735 15.211849613813921C22.720496435546877 16.387625933652938 21.30773690962358 17.18972293886127 19.72179734848485 17.618090685665244C19.25694567501184 17.745697027402937 18.933384937263256 17.75026688269413 18.751090163352274 17.63177527965199C18.57791012813684 17.5041689379143 18.491332596472535 17.24895625443892 18.491332596472535 16.866137229225853L19.72179734848485 14.801686372514206C20.633271218039773 13.4983037109375 21.116327397017045 12.74180537109375 21.171015829190342 12.532166381096117C21.22570426136364 12.313412652402937 21.0707537035393 12.217695410156251 20.70618912760417 12.245039626242898L18.491332596472535 13.393496701882103C18.199660958214963 13.466414611446496 18.012821300899624 13.484644088837594 17.930788652639677 13.448185134055397C17.848756004379734 13.4117261792732 17.807727194306345 13.284119837535512 17.807727194306345 13.06536610884233C18.67362737038352 12.04454034682765 20.131960589784565 11.319931106474906 22.182726852509468 10.891538387784092H22.31944793294271C22.720496435546877 10.882423649088542 22.939250164240057 10.98723065814394 22.97570911902225 11.205984386837121C23.0212828125 11.415623376834755 22.952909786339966 11.64803672762784 22.770639984315817 11.903249411103221C22.44250939127604 12.358986345880682 21.704215556936553 13.484644088837594 20.555783453184187 15.280197668087121C19.680793510298297 16.610924545750475 19.972440176669032 16.829678274443655 21.430798367956914 15.936458854166666C22.10526405954072 15.599213522431345 23.467905008581912 14.473555779474433 25.518771158854168 12.559510597182767L26.01096704841383 12.491137571022728C26.22972077710701 12.636973390151514 26.36631699810606 12.782809209280304 26.421005430279354 12.92864502840909L25.72379034978693 13.707942700935133C25.176906028053978 14.336834699041194 24.588992896247635 14.838145327296402 23.960075926254735 15.211849613813921Z" fill="black"></path><path d="M31.356449144767993 11.192324764737215C32.13132679332386 10.855079433001894 32.89246990411932 10.750247452059659 33.63987847715436 10.87785379379735C34.3872870501894 10.996345396839489 34.76536141690341 11.497656025094697 34.77460101503314 12.381760706676136C34.77460101503314 13.630454936079545 32.340840923887306 14.519129472952178 27.47382017933239 15.047784317294033C26.45296944543087 15.33945595555161 25.95153395774148 15.69493076467803 25.969763435132574 16.11418377278646C25.997232510653408 16.533461752781722 26.184022224195076 16.788674436257104 26.530382294625948 16.879821823212595C26.885981963186556 16.961854471472538 27.259561390269887 17.02108778705019 27.65137029474432 17.057546741832386C28.052418797348484 17.084890957919033 29.551980601917613 16.843362868430397 32.14955627071496 16.33293750147964C34.747131939512315 15.813397395833334 36.027690296519886 15.635672477213543 35.991231341737695 15.799737773733428C35.96401198508523 15.954688331557765 34.733397401751894 16.346622095466383 32.299887029474434 16.975514093572443C29.875366536458333 17.595316324869792 27.8883535008286 17.84595915305398 26.3390976414536 17.727467550011838C25.300017430160985 17.435795911754262 24.885209417909564 16.847907751834754 25.09474852035985 15.963803070253315L25.20412538470644 15.34857069424716H24.28820651929451C24.215288609730116 15.129816965553978 24.370239167554452 14.929292714251893 24.75305819276752 14.74699794034091C25.14494201290246 14.555588427734376 27.346213837594696 13.37069736919981 31.356449144767993 11.192324764737215ZM29.75699979285038 12.969648866595644C26.922440917968753 14.181909113103693 27.059037138967806 14.491785256865532 30.16703817471591 13.899352213541667C32.673716175426144 13.279549982244317 33.92680545691288 12.746350254498106 33.92680545691288 12.299728058416193C33.92680545691288 11.853130834221117 33.37992113517992 11.689065537701232 32.28615249171401 11.807557140743372L29.75699979285038 12.969648866595644Z" fill="black"></path><path d="M49.512758907433714 10.946226819957387C52.0648857421875 10.545178317353221 53.391142652107014 10.87785379379735 53.49127991832386 11.94427822117661C53.76472207919034 12.864841857540247 52.283639470880686 14.099876464843751 49.04803209339489 15.649357071200285C45.81217499704072 17.198837677556817 43.87086051432292 17.96902061138731 43.223838926373105 17.959905872691763C42.57656761955492 17.950791133996212 42.15728963955966 17.836844414358428 41.96600498638731 17.618090685665244C41.78371021247633 17.390222218276516 41.74275631806345 16.9299404000947 41.842893584280304 16.23724523111979C44.404010298295454 13.110939802320075 46.96063207267993 11.347275322561552 49.512758907433714 10.946226819957387ZM43.46981201171875 15.622012855113637C42.67695460464015 16.57903544625947 42.90020327296402 16.952739732776987 44.13980773555872 16.743100742779355C45.388402077414774 16.533461752781722 47.926794374408146 15.284767523378315 51.75498462653882 12.996993082682293L52.04216132516572 12.737235515802558C52.41574075224906 12.153892239287405 52.11957417436079 11.798442402047822 51.153411872632574 11.670836060310133C50.187249570904356 11.543229718572443 48.861242379853216 11.930593627189868 47.174890861742426 12.832927786162406C45.49777894176136 13.726172178326232 44.26291913766572 14.655850553385417 43.46981201171875 15.622012855113637Z" fill="black"></path><path d="M63.12992879971591 10.891538387784092C63.78618998579545 10.68189939778646 64.06412708629261 10.937112081261837 63.96398982007576 11.657151466323391C61.0290439601089 13.908466952237216 59.61188938210228 15.170820803740531 59.712026648319124 15.444262964607008C59.44782408558239 15.936458854166666 59.57543042732008 16.23724523111979 60.0948456735322 16.346622095466383C61.06100797526042 16.219015753728694 62.213959990530306 15.827081989820076 63.553951438210234 15.170820803740531C64.90268304628314 14.505469850852274 65.51799033794981 14.345949437736742 65.39962359434185 14.692309508167614C65.08048288056345 15.366800171638259 63.968484759706435 16.08683955669981 62.06362923177083 16.852477607125948C60.167763583096594 17.608975946969696 59.069500000000005 17.804955314867424 58.76858876361269 17.440365767045456C58.46792724609375 17.075776219223485 58.39950427616004 16.287363808001896 58.563569572679924 15.075128533380683L53.71003364701704 17.344648524798767C53.108460893110795 17.508713821318654 52.59803552616004 17.526943298709753 52.17875754616477 17.399336956972068C51.76871916429924 17.26264084842566 51.61838840553977 16.866137229225853 51.72776526988637 16.209901015033143C53.614391320430876 13.329693531013257 54.94963810961174 11.757413591974432 55.733505637428976 11.493086169803503C56.51737316524622 11.219668980823863 56.70416287878788 11.397393899443657 56.29412449692235 12.026310869436553C53.869604003906254 14.505469850852274 52.73038652639678 15.922774260179924 52.87622234552557 16.278249069306344C53.03104804391572 16.633723878432768 54.2751474461411 16.191671537642048 56.6085205522017 14.952092046934187C58.94189365826231 13.703372845643939 61.11569640743372 12.349871607185133 63.12992879971591 10.891538387784092Z" fill="black"></path><path d="M68.21595299183238 10.700128875177557C68.58054253965435 10.572522533439868 68.79480132871686 10.640870587713069 68.85847964015153 10.905198009883996C68.92240767045455 11.388279160748105 69.01804999704072 11.675380943714488 69.14565633877841 11.766528330669981C69.28225255977746 11.848560978929925 70.40798521839488 11.556889340672349 72.5226045957623 10.891538387784092C72.82326611328125 10.92799734256629 72.88719414358428 11.101177377781724 72.71388924893466 11.411053521543561C72.40398813328599 11.89413467240767 71.31945908794981 12.714461155007104 69.46005239405777 13.87200799745502L67.73749164003314 15.622012855113637L67.1906073183002 16.319277879379737C66.96261399147727 16.665612977923768 67.04926643880209 16.81601865234375 67.45031494140626 16.770444958866005C67.86035332327178 16.72487126538826 68.2843759617661 16.67929757191051 68.72188341915246 16.633723878432768C69.1683807558002 16.57903544625947 69.76545857007575 16.465113698508524 70.51286714311081 16.29193366329309L72.5635584901752 15.936458854166666C73.79417307350853 15.608328261126895 74.35454221413352 15.562754567649149 74.24516534978693 15.799737773733428C73.97172318892046 16.319277879379737 72.1852344045928 16.866137229225853 68.88594871567234 17.440365767045456C68.40274270537405 17.595316324869792 67.57342634351326 17.69100859522964 66.39750019235322 17.727467550011838C66.00569128787879 17.672779117838544 65.8096619762074 17.5041689379143 65.8096619762074 17.221612038352273C65.81890157433712 16.939055138790245 65.97372727272727 16.542576491477273 66.27463850911458 16.032151124526514C66.58453962476325 15.521750729462594 67.53696738873106 14.437096824692235 69.131921801018 12.778264325875947L68.43470672052558 12.996993082682293C67.9789697857481 13.170173117897727 67.75572111742424 13.069910992246687 67.76471099668561 12.696231677616005V12.190351194069603L66.23343489583334 13.502873566228693L65.05775846354167 14.391523131214488C64.59278193063446 14.464441040778883 64.40149727746213 14.291261005563447 64.48340506628787 13.87200799745502C66.60726404178503 11.885019933712123 67.85136344401042 10.827735216915245 68.21595299183238 10.700128875177557Z" fill="black"></path><path d="M94.12403586647729 2.6063657729640153L95.10842764559659 2.2645805522017044C96.01091163589015 2.1187472302616004 96.27061925899622 2.5334728352864584 95.88780023378315 3.5087249038233903C95.47776185191762 4.2287642888849435 95.18134555516099 4.7118454397490535 94.99905078124999 4.957943384528883C94.81675600733902 5.204041329308713 94.53881890684187 5.605064860026042 94.16523947975853 6.161063920454546C93.89179731889205 6.534768206972065 93.57715154474432 6.931246854285038 93.22180159505209 7.350524834280303C92.45616354462595 8.280203209339488 91.95947271543561 8.877206107954546 91.7314793886127 9.141533530125475C91.51272565991951 9.396746213600853 91.08895274029356 9.79779471620502 90.46016062973484 10.344654066051136C90.01341357421876 10.827735216915245 89.55318169981061 11.269787557705966 89.07921528764206 11.670836060310133C88.85147167968749 11.862245572916667 88.50960654888732 12.25872422022964 88.05386961410986 12.860272002249054C87.59813267933238 13.452730017459753 87.30196610144414 13.835549042672822 87.16512016157671 14.008729077888258C87.037513819839 14.181909113103693 86.64570491536459 14.856374804687501 85.98944372928504 16.032151124526514L85.78442453835227 16.68841231060606C85.60212976444129 17.107690290601326 85.40610045276989 17.417566434363163 85.19633660333807 17.618090685665244L85.00505195016572 17.973565494791668C84.77705862334281 18.1832044847893 84.46715750769414 18.329040303918088 84.0753486032197 18.41107295217803C83.77443736683239 18.22877817826705 83.8064013819839 17.672779117838544 84.17099092980587 16.743100742779355L84.59476384943181 15.881770421993371C83.15463513553505 16.866137229225853 81.91528039180871 17.45402538914536 80.87620018051611 17.645434901751894H79.85060478811553C79.57716262724905 17.572516992187502 79.32669460227272 17.476824721827654 79.09870127544981 17.358333118785513L78.75683614464963 16.497002797999524L78.77057068241004 15.84074161191998C78.91640650153883 15.175390659031724 79.21731773792614 14.519129472952178 79.6730546727036 13.87200799745502L80.00118526574337 13.366152485795455L80.67093127071497 12.627858651455966C81.91053573330967 11.32447598987926 83.23679264322917 10.454030930397728 84.64945228160511 10.016523473011363C85.43331980942234 9.688417851858429 86.11705007102273 9.542582032729639 86.70039334753788 9.579040987511837C87.43856232244319 9.688417851858429 88.08108897076231 9.5106679613518 88.62797329249527 9.045841259765625L89.54419182054924 7.432557482540246C89.95423020241476 6.867443683416193 90.25963637843276 6.425391342625473 90.46016062973484 6.10637548828125C90.66967476029829 5.778244895241477 91.24402815755208 5.080979870975379 92.18272138375947 4.014580415482954C92.64769791666666 3.531499264618845 93.29471950461648 3.0621027077414773 94.12403586647729 2.6063657729640153ZM88.75108469460227 10.153244553444603L89.38012652402936 9.920831202651517L90.4736454486269 9.291914232658618C94.99455584161932 3.996350938091856 96.10655396247633 2.109632491566051 93.80963981119793 3.6317613902698866C92.67042233368845 4.634382646780303 91.34416542376894 6.30232988429214 89.83111880030776 8.63567801846591L88.75108469460227 10.153244553444603ZM81.3271924567945 13.256775621448863C80.88069512014678 13.639569674775096 80.49787609493372 14.113536086943656 80.1787353811553 14.67864988606771C79.85984438624526 15.243738713304925 79.7095136274858 15.740504458155776 79.7277431048769 16.168872204959754C79.75496246152936 16.59726492365057 79.92352269767991 16.820563535748107 80.2334238133286 16.838793013139203C80.55256452710701 16.857022490530305 81.05375029592803 16.715756526692708 81.7374805575284 16.414970149739585C82.43020069839015 16.10506903409091 83.39636300011837 15.4670622972893 84.63596746271307 14.50089999556108L85.36040189985796 13.954040645714961C86.0348925633286 13.470959494850852 86.50885897549716 13.06536610884233 86.78230113636363 12.737235515802558C87.05574329723012 12.409104922762785 87.25177260890152 12.144777500591857 87.37013935250948 11.94427822117661C87.49774569424716 11.734639231178978 87.57066360381155 11.511315647194602 87.58889308120266 11.27435741299716C87.6163621567235 11.037374206912878 87.4887558149858 10.827735216915245 87.20607405598957 10.645440443004262C86.92364201586174 10.454030930397728 86.4269511866714 10.444916191702179 85.71600156841856 10.618096226917615L84.64945228160511 10.918882603870738C83.37338886422823 11.447512476325757 82.26613540187027 12.226810148851799 81.3271924567945 13.256775621448863Z" fill="black"></path><path d="M94.9443623490767 10.809505739524148C95.81038738458807 10.727473091264205 96.40272054036458 11.21509912553267 96.721861254143 12.272383842329544C96.48487804805872 12.946874505800189 96.07009500769414 13.530217782315342 95.47776185191762 14.022388699988165H95.71000039950285C96.74908061079546 13.229431405362217 97.35514830433239 13.115484685724432 97.528453198982 13.680598484848485C95.49599132930871 14.819915849905303 94.4204521632339 15.69493076467803 94.30183570075758 16.30559328539299C94.18346895714963 16.907166039299245 94.50685489169034 17.084890957919033 95.27249294211649 16.838793013139203L98.7315987067945 15.444262964607008C99.06871917909565 15.54452509025805 99.14638174715908 15.735934602864583 98.96408697324811 16.01849150242661C96.88592655066289 17.15780886748343 95.3364209724195 17.727467550011838 94.31557023851799 17.727467550011838C93.36763741418088 17.618090685665244 93.21256199692235 16.952739732776987 93.85059370561079 15.731389719460228C90.88842848899148 17.06211659712358 88.95160894590435 17.727467550011838 88.04013507634944 17.727467550011838C87.41134296579072 17.499599082623106 87.17885469933712 16.9299404000947 87.342919995857 16.01849150242661C89.43930989583335 12.600514435369318 91.97320725319602 10.864194171697443 94.9443623490767 10.809505739524148ZM90.07734160452178 14.104421348248106C88.6189834132339 15.480721919389206 88.01291571969696 16.337507356770832 88.25888880504262 16.67472771661932C88.50511160925663 17.01197304835464 89.51222780539773 16.79778917495265 91.28048711233428 16.032151124526514C93.05773629853219 15.257423307291667 94.29734076112689 14.254827022668088 94.99905078124999 13.02433729876894C95.65531196732955 12.213150526751894 95.43655823863637 11.78475780806108 94.34278959517046 11.739184114583333C92.95759903231534 11.930593627189868 91.53569979580966 12.71900603841146 90.07734160452178 14.104421348248106Z" fill="black"></path><path d="M105.17109916548296 13.776290755208334C106.07333343690814 14.870059398674242 105.98218604995266 16.041265863222065 104.89765700461648 17.289960092625474L104.15923831084281 16.67472771661932C104.92487636126894 15.982032547644414 104.98880439157197 15.111587488162879 104.35077268288352 14.063417510061553C104.00441261245265 12.778264325875947 104.27785477331913 12.682547083629261 105.17109916548296 13.776290755208334ZM101.0147783203125 17.727467550011838C100.3495272549716 17.873303369140626 99.77067891808711 17.795840576171873 99.27848302852746 17.49505419921875C98.7862871389678 17.185153083570075 98.6267167820786 16.51977715879498 98.80002167672822 15.498951396780305C99.13714214902936 14.232027689985795 100.20818637547349 12.10831854580966 102.01290463719225 9.127873908025569L100.2766093454072 8.594649208392518C99.1099227923769 8.248314109848485 97.91576716382576 8.116137912819603 96.69439217862217 8.198170561079545C96.55779595762311 6.821869989938447 98.6631757368608 6.821869989938447 103.01078123520361 8.198170561079545L109.313685472893 0.15911237248461174C110.28883765388258 -0.25104487556226324 110.55778487511837 0.13176865583570077 110.120277417732 1.3075504694898201L108.13775932173296 3.645445984256629L106.15549094460228 5.996998623934659L104.15923831084281 8.539960776219225L106.92112899502841 8.580989586292613C110.19319532729641 8.14348212890625 111.50571769945549 8.357690974195076 110.8584463926373 9.223566178385417L105.93673721590909 9.565356393525095C104.35077268288352 9.583585870916194 103.44379375295928 9.743106284031724 103.21605014500474 10.043867689098011L102.9560928030303 10.289965633877841C99.8663212446733 14.017843816583808 99.21929965672349 16.497002797999524 101.0147783203125 17.727467550011838ZM99.98943264678032 16.497002797999524C100.43592998342804 16.752215481474906 101.04199767696497 16.888936561908142 101.8076357273911 16.907166039299245C102.57327377781723 16.92539551669034 103.36638090376421 16.829678274443655 104.18670738636364 16.620039284446026L104.92487636126894 17.27630047052557C103.59412451171876 17.768496360085226 102.11304190340908 17.94167639530066 100.48162853633997 17.795840576171873L99.98943264678032 16.497002797999524Z" fill="black"></path><path d="M113.3056913026752 11.192324764737215C114.08056895123107 10.855079433001894 114.84171206202652 10.750247452059659 115.58887091619317 10.87785379379735C116.33627948922823 10.996345396839489 116.71460357481061 11.497656025094697 116.72384317294035 12.381760706676136C116.72384317294035 13.630454936079545 114.2900830817945 14.519129472952178 109.42306233723959 15.047784317294033C108.40221160333806 15.33945595555161 107.90077611564868 15.69493076467803 107.91900559303977 16.11418377278646C107.94647466856061 16.533461752781722 108.13326438210227 16.788674436257104 108.47962445253314 16.879821823212595C108.83497440222538 16.961854471472538 109.20880354817709 17.02108778705019 109.60061245265152 17.057546741832386C110.00166095525569 17.084890957919033 111.50122275982481 16.843362868430397 114.09879842862216 16.33293750147964C116.69637409741951 15.813397395833334 117.97693245442709 15.635672477213543 117.9404734996449 15.799737773733428C117.91325414299243 15.954688331557765 116.68263955965908 16.346622095466383 114.24912918738164 16.975514093572443C111.82460869436554 17.595316324869792 109.83759565873581 17.84595915305398 108.28809008049242 17.727467550011838C107.24925958806818 17.435795911754262 106.8344765477036 16.847907751834754 107.04399067826705 15.963803070253315L107.15336754261364 15.34857069424716H106.23739873342804C106.16448082386364 15.129816965553978 106.31955624112216 14.929292714251893 106.70237526633524 14.74699794034091C107.09418417080965 14.555588427734376 109.2954559955019 13.37069736919981 113.3056913026752 11.192324764737215ZM111.70624195075757 12.969648866595644C108.87143335700758 14.181909113103693 109.008279296875 14.491785256865532 112.11628033262312 13.899352213541667C114.62295833333333 13.279549982244317 115.87604761482008 12.746350254498106 115.87604761482008 12.299728058416193C115.87604761482008 11.853130834221117 115.32916329308712 11.689065537701232 114.23539464962121 11.807557140743372L111.70624195075757 12.969648866595644Z" fill="black"></path><path d="M131.66702025627367 0.6102854452237216C131.83108555279355 0.5829412291370739 131.88577398496685 0.7151024430338542 131.83108555279355 1.0067690869140624C130.79200534150092 2.583591412168561 129.16059197443184 4.812107565400095 126.9365957327178 7.692315049419981L123.80587027994792 11.233328602923768C123.44128073212596 11.433852854225853 123.3271592092803 11.370049683357008 123.46400514914772 11.041919090317235C128.3038065370502 3.8140561641808715 131.03822814571498 0.33684578154592804 131.66702025627367 0.6102854452237216ZM120.14174532433712 15.457947558593752C120.488105394768 15.375914910333806 120.70685912346117 15.439718081202653 120.79800651041667 15.649357071200285C120.89814377663353 15.84985635061553 120.87541935961174 16.123298511482005 120.72958354048295 16.469658581912878C120.5565283647017 17.18060820016572 120.39246306818183 17.567972108783145 120.2373876509233 17.63177527965199C120.08256195253314 17.69557845052083 119.91849665601326 17.65000475704309 119.74519176136363 17.49505419921875C119.58112646484375 17.340103641394414 119.50820855527937 17.025657642341383 119.52643803267046 16.55169123017282C119.59935594223485 15.895430044093278 119.80437513316762 15.530865468158144 120.14174532433712 15.457947558593752Z" fill="black"></path></svg> 