<?xml version="1.0" encoding="UTF-8"?> <svg xmlns="http://www.w3.org/2000/svg" viewBox="0 0 122.099609375 37.03466796875" fill="none"><path d="M13.8865958189545 16.119620392781826L14.34490631590299 16.02129150490478C14.995180370494632 16.13480169390657 15.258081553952582 16.491212700904267 15.133659804767383 17.09054949514315L15.820438895945168 16.893242519012016C16.988125651041667 16.842480043376153 17.606089502252683 16.97621532104742 17.674380388068762 17.29449829051636C17.842248624025437 17.61138298225013 17.74344532048824 17.895607901169477 17.37792053896664 18.14714807802914C17.10450730324962 17.679773745047292 16.690916724581417 17.505513382301253 16.13712383371677 17.624342020545757L15.831575179336017 17.68988628938203C14.914929216193762 17.88656903438139 13.308233190743225 19.646276594852377 11.011487102984407 22.96895903230445L10.468031479661937 23.555012188059177C11.011012687324259 23.758112029093176 11.220754347600332 24.19252695831736 11.097231491244889 24.858256975731724C11.196933687611835 25.323059476450666 10.822345070056876 26.47863614759075 9.97344066933474 28.325361527831035L9.868494931460889 28.627739088062373C10.040832662321064 28.62399370127173 10.518868863033614 28.338345535371932 11.302628502843813 27.770544897910277C12.091406960953476 27.195253486867333 12.907676558106468 26.62395715506774 13.751462263548058 26.056655902511505C14.601615126533742 25.48810618769172 15.054007912353017 25.331049634937372 15.10864062100588 25.585735936701177C13.302015848670758 27.065163719005625 11.807706396184816 28.23147716561222 10.625687294302788 29.08442658406825C10.279288954658742 29.331871804703475 10.01968371157656 29.487430202741564 9.846896534301509 29.551101778182517C9.674134326271728 29.61477335362347 9.469511361276203 29.545608544222905 9.233002670069657 29.34335765752812C9.001487827917305 29.13336630479934 9.189755937260353 28.303887976898007 9.797757059608257 26.854922673824134C10.404409842711528 25.399715059432516 10.537421012269938 24.592159728879093 10.196815537528758 24.432206743673312C9.862552251086402 24.270880449977636 8.734017272574771 25.248900817995914 6.811160663503323 27.366043124520708C6.3052088465778375 27.893892969548823 5.822453458509075 28.43697405419223 5.3628944992970355 28.995036685998212C4.90970269762909 29.551850855540643 4.528771891775307 30.026266515688906 4.220127050980956 30.418783051348417C3.9165010284860684 30.803559120973926 3.5345964220667176 30.978843222776074 3.074413231722904 30.94438566430215C2.3463275180933665 30.561357441845605 1.88056619835602 30.035255443986454 1.6771342663599182 29.366329363177403C1.5306022504872827 28.93186449546268 1.587524638931493 28.39028156553553 1.8478989347680215 27.741830265848673C2.1069074128882286 27.08688696239136 2.453061053928617 26.68313426635992 2.8863448763420245 26.53007279284893C3.3260283163183795 26.375762857074385 3.52815435678681 26.495615234375002 3.4927979054831293 26.88938023229806C2.5348777799079754 27.42122515656953 2.103559037097393 28.173049131678173 2.198851664749489 29.144602465171268C2.5409952449993614 29.8702087327454 2.8634730476738244 30.240502640113753 3.166300054320041 30.25548418727633C4.026066076735046 29.917899991212938 5.193303385416667 28.23572193730828 6.6680369496101735 25.209449410467794L9.508438414653629 21.22398332654333L9.428536829786553 20.851592002572215C9.03200024563842 20.710291043583847 8.50537389362858 20.443744350316333 7.848682743002301 20.051951922769685C7.191966623130752 19.66015949522303 6.3709528693762785 19.480106267574133 5.385616512493609 19.51174230133244C4.400255186365669 19.543378335090747 3.677295658790261 19.618585701846882 3.2167129605221114 19.737389370846117C2.7611241113081544 19.84845257381135 2.267589500055918 20.030927818251534 1.7361041329163471 20.284790134921394C1.2109834263963446 20.537304112346625 0.8332611685598799 21.05781299926508 0.6029348624824259 21.846341764922034C0.637642113409062 22.411520631630243 1.099023827525882 22.715371377332566 1.987077507908359 22.757894002029012C2.881500842759458 22.799018348990288 3.7092063542465494 22.451621239535406 4.470194042369632 21.715727642909638C4.734743196015465 21.459193616995783 4.7906992746676895 21.533751783374875 4.6380373090810325 21.93937717280164C4.485350374249106 22.345027531473672 4.190563464580139 22.677942478671394 3.75365161082886 22.938146983640085C3.3231318838669477 23.197003149364136 2.8220740390145704 23.344471511934437 2.2505180270641616 23.3805271021057C0.9687043426076815 23.395883187947344 0.2321885123897623 22.957972564385223 0.04097453148964724 22.066795231419352L0 21.875830443587038C0.30746629241756135 20.484793789541794 1.2982684170900434 19.60967168128515 2.9724138647910276 19.250464118817103L3.593049425246038 19.11730313378707C5.489962988480956 18.710279466625128 6.9327858572181755 18.79357686884906 7.921468092967153 19.3671454019683C8.91015032871613 19.94071393508755 9.596829542912834 20.146285731403374 9.981455797066719 19.983860790915774C11.636417373626024 17.61120819753323 12.93813903733704 16.32314471098543 13.8865958189545 16.119620392781826ZM11.47966045181493 18.913304399923312C11.076057571255113 19.545925198108385 11.05700603711337 19.7830581204467 11.42255578788024 19.624703166938268C12.648870330872956 19.474787818331414 13.755182681093432 18.64146422665836 14.741492838541667 17.124757361164367C14.589954488992204 16.697833205521473 14.364132634761631 16.52986509258372 14.06405224509522 16.62090296084164C13.768965704483001 16.704175393820297 13.36571239335698 16.950521967663597 12.854292311717153 17.359892743881005C12.347841109886247 17.76152305406442 11.88963048991884 18.27933526249361 11.47966045181493 18.913304399923312ZM9.4268638903534 22.240256578316718C8.598259486036556 23.436832750191716 8.340801598047674 24.02141272047546 8.654540164877302 23.994046427658485C9.507539521823876 23.811021859822343 10.725788998594071 22.4909228315919 12.309338533678426 20.03372437372188L12.003789879297674 20.099268642558155C11.351792946782336 20.225862716081927 10.964844552818253 20.31552727584995 10.842994635895963 20.368312260352763C10.727511876517765 20.41972393636567 10.255468294670246 21.043705375686987 9.4268638903534 22.240256578316718ZM6.9118366604358386 26.345550070296525L7.0645985030035785 26.312840358991565C8.042419117059689 25.37724273868865 8.51086712758819 24.81393656537577 8.469892596098545 24.622946808298188L8.31710578428553 24.655731427338957C7.305127242698748 25.432175078284764 6.836704201415517 25.99548125159765 6.9118366604358386 26.345550070296525Z" fill="white"></path><path d="M21.719572906681364 21.94983928657017C22.146472093078987 21.705090744424208 22.378860858815823 21.841672516056367 22.416739203891872 22.359584601466644C20.7043983016999 24.371656323891234 19.903709513595988 25.465633866947854 20.01472277807068 25.64166704610813C19.90385932906761 26.024944961017383 20.038069022399032 26.215959687340234 20.417276950329118 26.21446153262398C21.072919392654015 25.980499704435072 21.81942491851994 25.534049598990286 22.656818497172164 24.874961400818C23.49920592487858 24.20813273661171 23.90498112977697 24.00453351067229 23.87411914262206 24.264188692245014C23.752419041171397 24.78304960897559 23.083717683569787 25.452649859406957 21.8680400390625 26.272639874105316C20.65738121285468 27.085139115222393 19.919689830569403 27.386517905642894 19.654990861451946 27.17702593781953C19.390291892334485 26.96753396999617 19.22442119599949 26.427199502332567 19.157328833956417 25.55602253482873L16.10778497052339 27.868174646919734C15.712247156186095 28.07292245814162 15.35850785843239 28.16206266375895 15.046567077262269 28.13584495622444C14.739620145146345 28.10188678265593 14.575172695791796 27.84745017334484 14.55322472919862 27.372784820743867C15.43930833612922 25.078610565247956 16.136249910132285 23.78038459587487 16.644074420453094 23.478331635832056C17.150525622283997 23.169911518245144 17.307657082774156 23.266043112538345 17.11546880192357 23.766726418711656C15.79372180350524 25.861396404492588 15.210415264730319 27.02196692468686 15.365524216353528 27.24843797929448C15.527025294766105 27.47341087918584 16.329661684001152 26.97827074546268 17.773483322549207 25.763017578125C19.215956621852634 24.54119749928106 20.531311493481596 23.270188007253324 21.719572906681364 21.94983928657017Z" fill="white"></path><path d="M36.714528553968556 5.858084571510737C37.039628127396476 5.5419739263803685 37.51803886678809 5.662350657831672 38.15026015704882 6.219189796619376C38.3627484343047 6.526536236659638 38.32030071734407 6.685465482809304 38.02291700616692 6.69600250431365L37.071339068890595 6.450704638771728L30.854995766232108 16.533910110317613L27.83421647335123 21.446908748322468C28.986297450153373 21.199688250894685 29.608780734758437 21.245906323891234 29.701666327166414 21.585537998066844C29.81802301012909 21.78696489966769 29.794801612027097 22.03500938218942 29.63150274795501 22.3296964148773C29.468453576335637 22.624383447565183 29.294168244344327 22.898171221961274 29.108646751981087 23.151034768820296C28.92312525961784 23.40389831567932 28.8102642709931 23.591267532192614 28.769814093654144 23.713142418360174C30.993075692580522 22.343878946191207 31.90120714308538 21.999203484470858 31.49445813762142 22.679091063953862C29.480438814065696 24.123337179671523 28.325111835378323 24.930517971545886 28.028726894012017 25.1005835010864C27.738833956416155 25.2693755991181 27.45493363768533 25.39022674622955 27.17777501517766 25.463136942420757C26.90660901153502 25.534548983895707 26.776269551220604 25.392723670756645 26.786756634234408 25.03766100300358C28.59902445600077 22.870854867634844 29.07968242746677 21.945394760911938 28.228480856179704 22.261180805853783C26.758042002172804 22.57669218909765 25.503337427307002 23.618309224821065 24.464417070072855 25.385981974533486C23.42542180510289 27.153804539717537 22.727980846194402 28.278918731627044 22.372069224102123 28.761324550262014C22.014784293519938 29.23748805757924 20.769268400913855 30.66348165500384 18.63552154628387 33.03905565008308C17.67497964995527 34.0240923760225 16.651864824977633 34.82635422657848 15.566202040596243 35.445341816845605C14.475520437915389 36.07231956559944 13.67488158830202 36.48381272766488 13.164310461001406 36.679821303041926C12.648720515401331 36.88382003690568 12.167663036010993 37.00017671986836 11.721162992075666 37.02939073683538C11.269644129840874 37.06634521983641 10.90923804359982 36.90729112746038 10.639969702597776 36.552228459707315C10.370676392350461 36.19716579195425 10.324857827278246 35.70427289030547 10.502464068890593 35.073549754761C10.673728122204116 34.44432477393277 11.028466189768661 33.832078879888805 11.566678271584228 33.23731145753451C14.100906851115159 30.369593638164623 17.149926360397497 27.69788439417178 20.713711830185968 25.221934033103274L21.594801588062374 24.673359714500258C25.23691558026585 22.966312292305727 27.271159992491054 21.414548606451305 27.697385009266362 20.018018718446445L27.85194463749361 19.71514177330969C29.88194427802275 16.66944317364839 32.17936453540389 13.023658702390081 34.74420540963701 8.777838298025308L36.714528553968556 5.858084571510737ZM11.90366320576112 35.971443814704756C12.021917551364393 36.119261746708844 12.40636902080138 36.08006003163344 13.056992644826815 35.853838669478534L15.077653787624618 34.75119679831288C17.34176507181429 33.47976282911554 19.47378904852058 31.43752825840363 21.473750686988755 28.624493086177146C23.467345167912832 25.812956068666924 24.410708223495014 24.37545164917242 24.3038398537353 24.311830012222007C24.195598175485685 24.241816248482234 24.065333622907083 24.239818708860557 23.91302122675422 24.305787454866437C21.43737049662896 25.150022606722906 18.440062294302788 27.36454496980445 14.921121589020963 30.94937951335634C13.205010330793073 32.416322673025306 12.148187024699643 33.821591796875005 11.750676639985942 35.16543657735813C11.72802953452518 35.55645495830139 11.779041702613753 35.82512403741693 11.90366320576112 35.971443814704756Z" fill="white"></path><path d="M38.81094638691846 18.28263120286938C39.237920481051894 18.037882660723415 39.47038415452454 18.174464432355574 39.508337407336406 18.692376517765847C37.79594656665389 20.70444824019044 36.99518287081417 21.798450752492332 37.106296012269944 21.974409023916795C36.99543256326687 22.357761846561864 37.12951741037193 22.548676695903634 37.508800246037836 22.547228479677916C38.164492626853274 22.31334155922482 38.910823368002305 21.866841515289497 39.74829185439034 21.207753317117206C40.590754189832566 20.540924652910917 40.99650442548568 20.3373254269715 40.96554256134969 20.596980608544225C40.84394233688011 21.1158415252748 40.17526594852377 21.78534189872508 38.95951339628068 22.60550669814034C37.748754693091776 23.4179310315216 37.01116318778758 23.719359760432642 36.746489187915394 23.50981785411874C36.4818151880432 23.30027594780483 36.31576970699131 22.759891541650692 36.24885212966514 21.888689604901586L33.19935820472265 24.201016501709486C32.803595667177916 24.405739343686097 32.45003115414111 24.49495445703924 32.137915588254096 24.468661841768917C31.831043563873976 24.434628760464598 31.666745929991052 24.180267058889314 31.644772994152607 23.7055517677978C32.530681816366304 21.41132757381135 33.227823144331545 20.113176512174082 33.73544790069019 19.811123552131264C34.242073887237986 19.50270343454435 34.399130439992334 19.59881005959228 34.20686725140593 20.099493365765593C32.88524509921396 22.19423825928234 32.3019635296843 23.354808779476613 32.45702254281697 23.581204926348416C32.61857355972009 23.806252733975587 33.42108510272878 23.311087631007158 34.86505655674847 22.095734586688394C36.30752985605189 20.873989415580265 37.62266000447342 19.602954954307258 38.81094638691846 18.28263120286938Z" fill="white"></path><path d="M47.314472556396986 16.57795585897559C48.156934891839214 15.817917002172804 48.48627923696319 15.770525374648518 48.30275528422163 16.435805945648006C48.003623725875514 16.872867614870913 47.04780101690312 17.95690739830969 45.43478777239903 19.687975234454882C45.307194929064416 20.148158424798698 45.26724413663088 20.489662792369632 45.31518508755113 20.71243839867715C45.36162788375511 20.92887181668584 45.64802512701304 20.867422504074007 46.174376817324905 20.52806549159637C46.70597204914366 20.18099298233001 47.34917980732362 19.563553485269683 48.10424978431749 18.675747000415388C48.30075774459995 18.660241099102123 48.405378882285284 18.790955098095605 48.418113197373465 19.067864028150563C48.43584136151585 19.337032492171524 48.09625962583078 19.756141274044605 47.399367990318254 20.32516540452454C46.70747020385992 20.886449068970478 46.125686789046526 21.247654171060198 45.654267438330784 21.40875574154844C45.18784193666922 21.562116846002684 44.91667593302659 21.570356696942103 44.840519734950156 21.43352523285723C44.76960707838063 21.288928333493097 44.726659976514576 20.902004908774284 44.711428736899286 20.272680050964983L41.82148828923824 22.6306507281282C41.48764947996549 22.782164108432386 41.296135368737225 22.68013977225524 41.246446570648004 22.324552750351483C41.443953300741306 21.010396402495527 41.634718334611456 20.316925553585126 41.81874167225843 20.244115234375002C42.18878588717408 20.13807084970923 42.341347975779655 20.32174461792242 42.276677630527864 20.7951115697693C41.85994092695552 21.676900466513295 41.904136491085126 21.883770663583206 42.409763707822094 21.41574713022431C44.55736849357746 19.756390966497317 46.19235467391999 18.14380219916283 47.314472556396986 16.57795585897559Z" fill="white"></path><path d="M54.762299035819275 14.979949130879346C55.6045116788088 14.21991027407656 55.93410571638548 14.172518646552277 55.750581763643915 14.837824186797034C55.4514502052978 15.274860886774668 54.4953778038727 16.358925639458718 52.88261425182132 18.08996850635864C52.75502140848671 18.550151696702454 52.715070616053175 18.89165606427339 52.76276187452071 19.114456639826177C52.8092046707247 19.330865088589597 53.09560191398262 19.269415775977762 53.62220329674719 18.93005876350013C54.153548836113245 18.58298625423377 54.7967565942932 17.965546757173442 55.551826571287066 17.077765241564418C55.74833453156953 17.06223437100588 55.85295566925486 17.19294836999936 55.86568998434305 17.469857300054322C55.883667840938145 17.73902576407528 55.544086105253065 18.158134545948364 54.84719446974054 18.7271586764283C54.15529668328221 19.288467310119508 53.573513268468815 19.64964744296396 53.102093917753066 19.8107490134522C52.6354187236388 19.964110117906444 52.364252719996166 19.972349968845858 52.288346214372446 19.835518504760994C52.21743355780292 19.690921605396856 52.17423676348415 19.303998180678043 52.15900552386887 18.67467332286874L49.26906507620782 21.032644000031954C48.93547595938779 21.184157380336146 48.7437121557068 21.082133044159 48.69402335761759 20.726546022255242C48.89153008771089 19.412389674399286 49.08229512158103 18.71891882548888 49.26656815168073 18.646108506278757C49.636612366596374 18.540064121612986 49.789174455201945 18.723737889826175 49.72425441749744 19.197104841673056C49.30751771392511 20.07889373841705 49.351962970507415 20.285763935486962 49.85734049479167 19.81774040212807C52.00494528054704 18.158409207646347 53.63993146088958 16.54579547106659 54.762299035819275 14.979949130879346Z" fill="white"></path><path d="M67.64692898054065 12.095501917177915C68.07390307467408 11.850753375031953 68.30611705569402 11.987335146664112 68.34407030850589 12.505222262829117C66.63167946782337 14.517293985253708 65.83116546443635 15.611321466800868 65.94202891343943 15.78725476898006C65.83116546443635 16.170607591625128 65.96550000399412 16.361547410212168 66.34453314720731 16.36007422474118C67.00022552802275 16.126187304288088 67.7468059616245 15.679687260352761 68.58427444801254 15.020599062180471C69.42648709100204 14.353770397974182 69.83223732665516 14.150196141280036 69.80152515497188 14.409826353607489C69.6796752380496 14.928687270338063 69.01099884969325 15.598187643788345 67.79549598990288 16.418352443203606C66.58473728671396 17.230776776584868 65.84714578140978 17.53223047474118 65.58247178153758 17.322663599182007C65.31754808921268 17.1131216928681 65.1517523006135 16.57273728671396 65.08458503083462 15.701535349964852L62.03509110589213 18.01386224677275C61.6395782608001 18.21858508874936 61.28576405531059 18.307800202102506 60.97389818187628 18.281507586832184C60.667026157496174 18.247499474773132 60.50247883116053 17.993137773197855 60.48050589532209 17.518422482106338C61.3666644099885 15.224173318874616 62.063556045501024 13.926047226482618 62.571430494312374 13.623969297194531C63.07780678840747 13.315549179607618 63.235113033614525 13.41168077390082 63.04284984502812 13.912364080074132C61.72097800038343 16.007084004345604 61.13769643085379 17.167654524539877 61.29300513643916 17.394075640656954C61.454306460889576 17.619098479038854 62.25706769635097 17.123933376070426 63.70078945791794 15.908580331751661C65.14326275722138 14.686860129888805 66.4586425980956 13.415825668615797 67.64692898054065 12.095501917177915Z" fill="white"></path><path d="M84.37757177434816 0.9748118200009586C84.69468118928937 0.9001562735653119 84.874709447693 0.9480797460138677 84.91790624201175 1.1185822373466259C84.52963447804832 1.6679730502700025 84.0482274292242 2.3106015219596756 83.47368509553937 3.0464726462646987C81.79924750766872 5.017170329275307 80.97326487410531 6.179838266072342 80.9959868873019 6.534501425901074L81.41222420596883 6.425260977840619C82.74782913551253 5.792415456448109 85.33339448332056 3.6761970119983385 89.1689202493929 0.07662686834978912C89.38440483608129 -0.03619791486931237 89.59339741899923 -0.024431008219900307 89.79564830569402 0.11192738854406314L84.7476159892638 6.748363011646856C81.29312090602633 11.937496533103271 78.64288521296652 14.73010686269811 76.79690891008435 15.126194000431367L76.33847356690951 15.224522888308412C75.16192272974182 15.543579904380753 74.45404462631008 15.006316653885483 74.21483925661427 13.612683198332055C74.54917745079244 12.222570406361836 75.24781693347394 11.41344201335634 76.31100739711145 11.18537292705138C76.81388799686862 11.077455848990288 77.33499614567357 11.271941300405803 77.87433184352632 11.768779342807388C78.4136675413791 12.265642354454243 78.48033542625255 12.590966651089596 78.07383611324131 12.744777201958717C77.41240080601355 12.114253820376407 76.7070196271089 11.882788916714597 75.95719319162193 12.050307583237474C75.2702892542178 12.510665558298186 74.96266815247957 13.12595770026521 75.03482927131263 13.89620897838382C75.23408384857491 14.359513324386503 75.61511453140977 14.584036777862986 76.17817101226994 14.569779338813268C76.68779330825026 14.49372301771792 77.37969109470859 14.165452350140594 78.25411406409765 13.58501727457183C79.1332811900882 12.99684173296907 81.12432880799463 10.592053720922802 84.22700722536426 6.370628269187756C85.36011157576048 4.855694220108001 86.09171046219964 3.8897090283103273 86.42180388468175 3.4726477245494634C83.50964080872956 5.78879491588382 81.86566570008947 6.987168873418328 81.49012825121422 7.067744627907721L80.91708407224566 7.1906682223766625L80.38099437627812 6.926169007221371L80.3440398932771 6.754305692021345C80.24041752540262 6.270526564896473 80.79423538551252 5.345965351003323 82.00624255096497 3.980597081096626C83.21675156170117 2.608886622891104 83.40501967104423 2.1823170305310584 82.57054749408871 2.7008982917145965L80.64691683841386 4.022570382397111C79.860884997284 4.610720954754601 79.37872887110174 5.017120390784765 79.20069815231979 5.241793659732873C79.02741159013932 5.458726462646983 78.87385073172291 5.658180793871421 78.73976588461784 5.840081745670373C78.61067488656697 6.014267200680599 78.7045592487858 6.110648487426508 79.02141897127429 6.129200636662833C79.34327254281698 6.140037289110429 79.41718150881903 6.2507259533966 79.2423967919223 6.4613165680118865L78.85861949210762 6.673530183569786C78.37396644139827 6.710959082230956 78.0498656377812 6.597349016248083 77.8865667737091 6.332774893356979C78.08682012078222 5.217773245782208 80.00046307834867 3.58530895921204 83.62749564640849 1.4354020090426893L84.37757177434816 0.9748118200009586Z" fill="white"></path><path d="M90.79741442596499 7.248072517254601C91.63987676140722 6.488033660451816 91.96922110653118 6.4406420329275305 91.78569715378963 7.10592260392702C91.48681528789622 7.542984273149924 90.53074288647112 8.627024056588702 88.91797933441974 10.358066923488625C88.79013679863242 10.81827508307771 88.7504356986516 11.159779450648646 88.79812695711912 11.38255505695616C88.8445697533231 11.598988474964852 89.13096699658104 11.537539162353017 89.6575683793456 11.198182149875384C90.18891391871166 10.851109640609025 90.83212167689162 10.233670143548698 91.58719165388548 9.345863658694402C91.78369961416794 9.330357757381137 91.88832075185327 9.461071756374617 91.90105506694147 9.737980686429575C91.91878323108385 10.007149150450537 91.57920149539876 10.42625793232362 90.88230985988625 10.995282062803554C90.19041207342792 11.55656572724949 89.60887835106723 11.917770829339213 89.13720930789877 12.078872399827455C88.67078380623722 12.232208535036428 88.39961780259458 12.240473355221114 88.32371129697087 12.103641891136249C88.25254894794863 11.959044991772112 88.20960184608258 11.572096597808027 88.19437060646729 10.942796709243993L85.30443015880624 13.300767386407209C84.9708410419862 13.452280766711402 84.77907723830522 13.350256430534253 84.729388440216 12.994669408630497C84.92689517030931 11.68051306077454 85.11766020417944 10.987042211864136 85.30168354182643 10.914231892654014C85.6719774491948 10.808187507988242 85.82453953780036 10.991861276201432 85.75961950009587 11.465228228048314C85.34288279652351 12.347017124792307 85.38732805310583 12.55388732186222 85.89270557739009 12.085863788503323C88.04031036314547 10.42650762477633 89.67529654348799 8.813918857441847 90.79741442596499 7.248072517254601Z" fill="white"></path><path d="M95.58801382365158 5.8806317999904145C95.87615891407847 5.765498610046012 96.01773453476483 5.835037958125639 96.01224130080521 6.089224874984024C94.92033620510608 7.1758115214404405 94.28561799031826 7.941243735221754 94.107836963989 8.385546485573236C95.65792771041028 8.099573719484919 96.54633345715108 8.484924081751661 96.7730542042114 9.541597572373467C96.89465442868098 10.108149747571575 95.9233507876406 10.749310027639314 93.85964266599566 11.465103381821958C93.04864157959484 11.625830413631135 92.55000575153375 11.62960076966705 92.36398487426509 11.476414449929704C92.18295784605061 11.31551263340363 92.09132071590619 11.105446372939035 92.0888237913791 10.846265607026456C92.0865765593047 10.587084841113882 92.28982621581032 10.137338795293328 92.69832306844326 9.49700250031953C92.47959247986964 9.470684915803938 92.39394796859024 9.365888993401713 92.44113984215237 9.182639702358129C93.83067834148135 7.279758489503451 94.87963633531442 6.179089188714213 95.58801382365158 5.8806317999904145ZM94.63793404109151 8.90103655419223C93.94179148293712 8.97716778302339 93.46587766807261 9.22578655818635 93.20994290404525 9.64691784892638C92.96050014378835 10.066675831176509 92.8216711400818 10.366131989711146 92.7934558929256 10.545286324530291C92.77173264953987 10.723092320104806 92.8186748306493 10.849486639666411 92.93478182115926 10.924494252460379C93.05713112298697 10.998103587519171 93.2399059983704 11.012161272606724 93.48310644730955 10.96661736923249C93.73130074530292 10.91335796906953 94.11707558473927 10.787313218941717 94.64043096561862 10.588458149603783C95.1700286578157 10.388254741021218 95.57602858592152 10.1846555150818 95.85768167257797 9.977685441030802C96.13833598942357 9.764348209435711 96.17753770449899 9.512882940311862 95.9755365102569 9.223289633659254C95.77852916506903 8.92598083021792 95.33282813698236 8.818563137062245 94.63793404109151 8.90103655419223Z" fill="white"></path><path d="M101.85854038854805 4.754918346194402C102.571412341034 4.6019567496644935 103.09077264266999 4.756865947325537 103.41637160100333 5.219670908422802C103.69677622539622 5.998511606914621 103.4078820576112 6.669734858288599 102.5501884825537 7.233340662544735C101.6984875263612 7.795598127556238 100.95090832294862 8.252310592807389 100.30720117986324 8.603527996788728C99.64701433489904 8.878339510240925 99.4380217519811 9.129605025402608 99.6799737386567 9.357349511519043C99.92042757061606 9.578726840091385 100.27324300629473 9.609563858001023 100.73842004569273 9.449835596002684L103.1581896049016 8.39131438123083C104.74698268149285 7.417813446606595 105.57246593015083 6.997680925677404 105.6343896584228 7.130891849197981C105.70130723574898 7.256387275929831 105.24412035483769 7.624134320280547 104.26307870814162 8.2341579514954C103.28827937276328 8.842808274220348 102.09949360541285 9.430834000351481 100.69622202118482 9.998235129888805C99.67772650658232 10.309976157096754 99.07796523517383 10.105752700025562 98.89693820695936 9.38553978942996C97.76633078109025 10.16747667433538 97.07842807387526 10.51482384529972 96.83323008531443 10.42758130232298C96.46543310247316 10.419965682515338 96.32935071574641 10.189449610173824 96.42523261758691 9.736083023788984C96.51462251565695 9.284089745894043 96.89565319849183 8.77948626821319 97.56857435854423 8.222297559991691C97.75134923392767 8.049909890640977 97.92114010177019 8.096702256278757 98.07819665452455 8.362649687659765C98.00503676588062 8.518183116452581 97.83274897351099 8.70829894994568 97.56133327741564 8.93299718813906C97.2899175813203 9.157695426332438 97.12936533422801 9.371906581512015 97.07992622859152 9.575630653677786C97.03048712295502 9.779354725843557 97.0849200776457 9.847545734678553 97.24372447756902 9.78020368018277C98.04973171491565 9.440771759969326 98.64749544670246 8.76652722991756 99.03701567292946 7.757420151536938C99.43277821047418 6.746964733911683 99.84202414046524 6.016589340490798 100.2647534629026 5.5663189405195554C100.69247663439418 5.108308074514316 101.22382217376023 4.837841209739264 101.85854038854805 4.754918346194402ZM99.4360242123594 8.36092680973607C99.6589995726291 8.406345866883948 100.30795025722138 8.06401751421907 101.38312595858896 7.333916782496166C102.46329550901073 6.5961005539845345 102.96792395593687 6.061683797450153 102.89676160691462 5.730666512893022C102.77166568810712 5.364667315711273 102.39962393356979 5.244715061429575 101.78088603575537 5.3708347192932C100.85802273054064 5.568890772782464 100.07623566110685 6.56558813626342 99.4360242123594 8.36092680973607Z" fill="white"></path><path d="M112.05473169494505 2.607113806476866C112.3938140457247 2.3878638576016105 112.62428017957568 2.3750696163247698 112.74563071159254 2.568736076495399C112.86573278134587 2.7560553545181494 112.01053613081544 4.201350178537194 110.18029045245399 6.90459557930726C110.14857951095988 7.191067730300998 110.30938145050486 7.24310363744568 110.66319565599437 7.060678331496038C112.13987682131904 6.184507514938011 113.04875734918201 5.673187310279269 113.39033662448875 5.526667779029269C113.73041774507925 5.373806059480445 113.918935546875 5.38329437268341 113.95564033742332 5.555157687883436C113.93092078460508 5.873465626597649 113.30169580377684 6.401315471625767 112.06821508739137 7.138732192213062C110.83348590874233 7.8697817552562634 110.03347129026074 8.191235818874617 109.66842092439929 8.103119352313394C109.30187240382158 8.008635728208077 109.1827691038791 7.671276255352121 109.31136071702454 7.091040933745527L109.73933358096882 5.92050768468814L107.2164410387909 6.172172707774157C106.68509549942486 6.612480378882286 106.28433911282592 7.087969716577199 106.01442157144683 7.5986906593494385C105.74450403006774 8.109386632876406 105.51428758866948 8.401826433489903 105.32377224725205 8.476010061189928C105.13949921715236 8.54879541115478 105.03013392286555 8.395833814624872 104.99542667193892 8.017050363864392C105.40442290947725 7.130267618066207 106.06411036953605 6.12315807930726 106.97398966720988 4.99569677834228C107.8891125063906 3.860495011343303 108.56428089851738 3.206225877508308 108.99999422849565 3.0328644075920246C109.44194986979167 2.8581296291858385 109.49813067165132 3.0891201171875005 109.16853663407464 3.7257859331064673C108.96254036058922 3.976377278645834 108.71734237202837 4.24542089644044 108.43294266839213 4.5328668479997445L107.87163403470092 5.2225673408742335L108.928332494568 5.305515173664366C109.96131017142767 5.2170241684240795 111.00352646903758 4.317557046028246 112.05473169494505 2.607113806476866Z" fill="white"></path><path d="M118.47931850316334 1.1287522109454884C119.07183869344327 0.9417100915452454 119.558738976227 1.193487476234982 119.93976965906187 1.8840868619392255C119.87534900626278 2.3906479284493227 119.673098119568 2.8601771072980573 119.33326669143021 3.292694373881646L119.49556678569148 3.2578872459739263C120.10231944577582 2.5483611723542943 120.50856906633436 2.3779760364743097 120.71431564736709 2.7466918875415387C119.4653539989136 3.846961680406442 118.84536763883564 4.619210498146728 118.85410687468048 5.063463310007669C118.86159764826176 5.501348964324515 119.11428641040389 5.576980808250256 119.61192346865414 5.290383811030164L121.81870536570169 3.798121836656442C122.06939658822215 3.8176228172130626 122.15204479006901 3.9396724880975205 122.06714935614775 4.164320787800358C120.78647676620015 5.271432153869504 119.7897044949834 5.901456150546395 119.07683254249746 6.054442716321574C118.39841814848543 6.1200868621389315 118.19042433537832 5.678630605748339 118.45310079562884 4.7300489779045245C116.58365340219197 6.103307529316846 115.33069667449516 6.858227690839085 114.69423061253835 6.994809462471243C114.22081372220093 6.929914394012014 113.97311880911299 6.566886537017511 113.95114587327454 5.905750860733002C114.90297350300358 3.2045279688298827 116.41236437963319 1.6122017440327838 118.47931850316334 1.1287522109454884ZM115.5738971234343 4.1592270617650815C114.76164757476995 5.338973962327454 114.46676078811988 6.028150101051253 114.68923676348416 6.22680541642702C114.91146304639571 6.4254607318027865 115.58288605173186 6.124930895721499 116.70300639458718 5.325265846673696C117.82812058649668 4.517860331591897 118.54373915596243 3.6319015708876536 118.84936271807899 2.6673895645609664C119.18619783678426 2.0025109984103397 118.96921509537961 1.7361116236899286 118.19866418631774 1.8681814527016234C117.2595708716769 2.20946109706512 116.38489820983513 2.9731379729038854 115.5738971234343 4.1592270617650815Z" fill="white"></path></svg> 