<?xml version="1.0" encoding="UTF-8"?> <svg xmlns="http://www.w3.org/2000/svg" viewBox="0 0 132.626953125 20.8447265625" fill="none"><path d="M22.79520137049788 0.0008789070792505297C23.368119835805086 0.021712231114274366 23.097296097060383 0.7717115317134534 21.98270517743644 2.250879209149894L26.15448473914195 2.047752663201801L34.04516402939618 1.7977546030852753C37.982760858050845 1.7560882597325211 39.95143438824153 1.9279613016419492 39.95143438824153 2.3133787241790253C39.96192465572034 2.6883808097192796 39.62323887711864 2.8602463585805085 38.93587658898305 2.8290003475900423C38.24826453257415 2.7873389996027544 36.75365118511653 2.8238051675052964 34.45153701006356 2.938373874470339C32.159913102489405 3.0425522212658898 30.190989804025424 3.1623410851430083 28.54526665121822 3.2977654429290255L25.467122451006354 3.5321230137711868C22.30041042108051 3.5529536877648304 20.09730438956568 4.396720868644068 18.857704449152543 6.063374602754237C17.22229672603284 8.70921987552966 14.607697464247881 11.667550235037076 11.01395661745233 14.938390658103813C9.753550979872882 16.157134947695976 8.123338436837923 17.375879237288135 6.123343965174788 18.594623526880298C4.123324516684322 19.813367816472457 2.956656912076271 20.49046462857521 2.6233411513506355 20.62588898636123C2.3004182484772246 20.750873030323092 1.883752317266949 20.776923861228813 1.3733358646716103 20.704016502251058C0.8733347490730932 20.620668829449155 0.4514611493644068 20.105047206038137 0.10771007018008474 19.15712665519068V18.438368495100637C0.4514611493644068 17.490472921080507 0.9462520987817797 17.120666015624998 1.5920854161149365 17.32899773238877C2.2483340704449155 17.53732944915254 2.373335598185911 17.93316220868644 1.9670850039724577 18.516496010990465C1.5712522444385595 19.08941447629767 1.696251274496822 19.401924539856992 2.3420845918299786 19.4540012248411L4.810836665783898 17.84461935579979C8.717087576138772 15.82379421014301 12.982705078124999 11.662330078125 17.607714148569915 5.360251936573093L18.701449417372885 3.844633077330508L15.560838172007415 3.9227605932203393C5.415001142081568 4.13109230998411 0.8941679207494704 5.198801724708686 1.9983360103283898 7.1258888373940685C3.4879140293961868 8.490472821769067 3.6025077131885594 9.172764813956567 2.3420845918299786 9.172764813956567C1.7483354525291315 9.172764813956567 1.0035439453125 8.459201833951271 0.10771007018008474 7.032125827595339C-0.19437341681011652 6.240460308527542 0.13896007746292371 5.3863027674788135 1.1077098036943855 4.469628227621822C2.0868763655323095 3.5425383507680084 8.316034659692797 2.8550511784957626 19.795209663003178 2.407129245564089C21.232701006355935 0.7717115317134534 22.2326982421875 -0.03037107272907839 22.79520137049788 0.0008789070792505297ZM16.65457344081038 11.688380909030721C17.227491906117585 11.563371888241525 17.388967094809324 11.839415783898305 17.13894905323093 12.516512596001059C17.13894905323093 12.954006703522246 15.993137099443855 14.214412341101696 13.701463238215041 16.297754485566735C11.409789376986229 18.37068129303496 10.680615879899364 19.33943251787606 11.513967723781779 19.20400816009004C12.347294590836865 19.0581684653072 13.123324615995763 18.927964264433264 13.842082776085805 18.81337058064089C14.57125627317267 18.688386536679026 15.51395666710805 18.401927304025424 16.67020893471928 17.953992882680083L17.607714148569915 17.594626291048726C18.53480402542373 17.39670991128178 18.961882795948092 17.495668101165254 18.888950460143008 17.891500860699153C18.826458438162074 18.287333620233053 18.539999205508476 18.599843683792372 18.0295727621822 18.82900607454979C17.519171295683265 19.047753128310383 16.269180995100637 19.417535056938558 14.279576883606993 19.938376837261654C12.415006769729873 20.417557269597456 11.034787291445975 20.620668829449155 10.138968402409958 20.5477614704714C9.253539873543431 20.474829134666315 9.102504998675848 19.93318165717691 9.685838800979873 18.922744107521186C10.415012298066738 17.8185935017214 12.159793548066737 16.037346083818857 14.920207527807202 13.579001853813558C15.170200592558263 13.22483044226695 15.748339214777543 12.59464011189089 16.65457344081038 11.688380909030721Z" fill="#AA2929"></path><path d="M27.373353912870762 12.68837814486229C29.685958355402544 12.323791396318855 30.899332627118646 12.750870166843221 31.01397626456568 13.969639433262712C31.32643637447034 15.02171335407839 29.63375678628178 16.433178843352756 25.9359375 18.204010924258476C22.237918399099577 19.974843005164196 20.019176873675846 20.855051377118645 19.27958803959216 20.844636040121824C18.539999205508476 20.834220703125 18.06084375 20.704016502251058 17.84209669623941 20.453998460672672C17.633740002648302 20.193590058924787 17.586883474576272 19.724849940413137 17.701452181541313 19.047753128310383C17.816045865333685 18.37068129303496 18.878535123146186 17.235259699417373 20.888969908633474 15.641513324284958C22.899379717293435 14.03732663532839 25.060749470338983 13.05296489340572 27.373353912870762 12.68837814486229ZM19.560827115333687 18.172764913268008C18.654592889300847 19.266500182070974 18.909806110963984 19.693578952595338 20.32646678032309 19.4540012248411C21.753542786679024 19.214423497086866 24.654576304290256 17.787347490730934 29.02956733315678 15.172748228945975L29.357762844279662 14.875873659295552C29.784866591631356 14.20921716101695 29.446180813029663 13.802969064486229 28.34220504502119 13.65712936970339C27.237979508739407 13.511289674920551 25.722385626324154 13.954003939353814 23.795198606329446 14.985247186175847C21.87855180746822 16.00610007282839 20.467086318193857 17.06858933064089 19.560827115333687 18.172764913268008Z" fill="#AA2929"></path><path d="M36.560830078125 12.719624155852754C37.258682633739404 12.521707776085805 37.88385262182203 12.464410934189619 38.43584050582627 12.547758606991525C38.98782838983051 12.620665965969279 39.39420137049788 12.77692099774894 39.65470967955508 13.016498725503178C39.914968220338984 13.256076453257416 39.93070362155721 13.901927254369705 39.70141634666314 14.95400117518538L40.98272758871822 14.297760013903602L41.95157872086864 13.594637347722458C42.347211665783895 13.39672096795551 42.555518405720335 13.412331485037077 42.576498940677965 13.641493875794492C42.6077199748411 13.860265906382415 41.79522378177966 14.776915469412076 40.139010361493646 16.391492518538136C39.85777128575212 16.766494604078392 40.00363595736229 16.829011602886652 40.57635460805084 16.578993561308263C41.139082527807204 16.578993561308263 43.25362072960805 15.433181607521187 46.92021898172669 13.141507746292374C47.63905207229873 12.82899768273305 47.97748808262712 12.813387165651482 47.935776780985165 13.094626241393009C47.89406547934322 13.375890293961863 47.217193458686445 13.93317326536017 45.90466118246822 14.766500132415254C44.59212890625 15.59982699947034 43.659743942002116 16.302974642478816 43.10775605799788 16.87586813095869C41.753512480137715 18.30296911414195 42.23281779661017 18.688386536679026 44.54517247086864 18.032120398569916L51.29516005693856 16.20401645259534C51.680552502648304 16.19357613877119 51.75348483845339 16.38107718154131 51.51395706435382 16.766494604078392C50.128492452330505 17.40193006819386 47.253659626588984 18.22484159825212 42.88895905058263 19.23525417108051C42.10768389168432 19.360263191869706 41.60240267478813 19.27172033898305 41.37336516816737 18.96962561242055C41.16505842823093 18.469639482918435 41.27445693193856 17.823788681806143 41.70156067929026 17.032123162738348L40.68575311175848 17.407125248278604L40.029611857786016 17.563380280058265L39.5765322100106 17.672753806938562L37.73274281647246 18.29774895722987C37.44101347325212 18.29774895722987 37.71700741525424 17.756076502913135 38.56072464247881 16.67275657110699L36.85780455508475 17.344633226297667C36.399479773569915 17.625872302039195 35.961885758739406 17.875890343617584 35.54527227886652 18.09463739737818C32.711900986493646 19.750875794491527 30.961774695444916 20.579007481461865 30.295143173993647 20.579007481461865H29.85779892743644C29.149456104343223 20.433167786679025 29.019077065677966 19.985258342161014 29.467161347987286 19.23525417108051C29.914995862023307 18.47483466300318 30.644069451800846 18.276918283236228 31.654631885593222 18.641505031779662C34.94632795948093 17.693584480932206 37.40979243908898 16.24567780058263 39.04527509269068 14.297760013903602C39.04527509269068 13.78733357057733 38.81598781779661 13.464433146848517 38.357663036281785 13.329008789062499C37.89933825476695 13.193584431276484 37.2534375 13.323788632150423 36.42021054025424 13.719621391684322C36.56607521186441 14.355056855799788 36.42545567399364 14.849847805217163 35.99835192664195 15.20399423993644C35.581738446769066 15.54775031448623 35.18585573358051 15.709200526350635 34.81095355534958 15.688369852356992C34.44629187632415 15.657123841366525 34.25871590307204 15.500868809586864 34.24822563559322 15.21962973384534C34.24822563559322 14.927950344279662 34.46177750926907 14.485261056673728 34.88888125662076 13.891511917372883C35.31598500397246 13.297762778072034 35.873218021716106 12.907125198622882 36.560830078125 12.719624155852754Z" fill="#AA2929"></path><path d="M57.3732709878178 13.110261735301906C58.258699516684324 12.72484431276483 59.128642412605934 12.605055448887711 59.982600139036016 12.750870166843221C60.83680763373941 12.886294524629239 61.26915651483051 13.459212989936441 61.27964678230932 14.469625562764831C61.27964678230932 15.896701569120763 58.4982272907839 16.912334298861232 52.93588784427966 17.516498775158897C51.76922023967161 17.849839512711863 51.19625182070975 18.256087609242584 51.216982587394064 18.735243064751057C51.24845338983051 19.214423497086866 51.46175549523306 19.506077909825212 51.857638208421605 19.610256256620765C52.26401118908898 19.70399428959216 52.691114936440684 19.77170646848517 53.138949450476694 19.813367816472457C53.59727423199153 19.844638804290256 55.31093435513772 19.56859490863347 58.279680051641954 18.98526110632945C61.24842574814619 18.391511967028602 62.71181806144068 18.188375430349577 62.670106759798735 18.375876473119707C62.638885725635596 18.552962178893008 61.23269034692796 19.000871623411015 58.45152062367585 19.71962978350106C55.680591399629236 20.42797260659428 53.409698258739404 20.714431839247883 51.63884120100636 20.579007481461865C50.45144282971398 20.2456667439089 49.977382646980935 19.573790088718223 50.21716018935381 18.56337751588983L50.34204432600636 17.860254849708685H49.29526549258475C49.21184288930085 17.610261784957626 49.388928595074155 17.38109939420021 49.826522609904664 17.17274270060911C50.274357123940675 16.95399564684852 52.79002317266949 15.59982699947034 57.3732709878178 13.110261735301906ZM55.54521699549788 15.141502217955509C52.305722490730936 16.52691687632415 52.461827661546614 16.881088287870764 56.01403204449153 16.20401645259534C58.87862437102754 15.495673629502118 60.3107956501589 14.886288996292373 60.3107956501589 14.375887529793433C60.3107956501589 13.865461086467162 59.685875430349576 13.677960043697034 58.43578522245763 13.81338440148305L55.54521699549788 15.141502217955509Z" fill="#AA2929"></path><path d="M73.93590472722457 12.954006703522246C75.5086955442267 12.047747500662076 76.03995266154661 12.084213668564619 75.52967607918433 13.063380230402542C74.91499635858051 13.64671403270657 73.05572133209746 15.02171335407839 69.95135146318856 17.18837819451801C69.59718005164194 17.865475006620763 69.42009434586865 18.386291810116525 69.42009434586865 18.750878558659956C69.42009434586865 19.10504997020657 69.88890939486228 19.10504997020657 70.82653949284958 18.750878558659956C71.77441009004237 18.386291810116525 72.98803413003178 17.63628763903602 74.46716184454449 16.500891022245764C74.77962195444915 16.54255237023305 74.89926095736229 16.782130097987288 74.82657838983052 17.219624205508477C74.76388655323095 17.646702976032838 74.09200989804025 18.188375430349577 72.81094842425848 18.844641568458684C71.5398776814089 19.490467392743643 70.50883424920552 19.860249321371825 69.7170688228284 19.954012331170553C68.93579366393008 20.037335027145126 68.50868991657839 19.959207511255297 68.43575758077331 19.71962978350106C68.37331551244704 19.46963671875 68.43575758077331 18.849836748543435 68.62333355402542 17.860254849708685L63.310762380826276 20.579007481461865C62.73804373013771 20.704016502251058 62.4722902873411 20.48004929157839 62.51400158898306 19.907130826271185C63.26405571371822 17.917551691604874 63.79531283103814 16.896723781779663 64.1077729409428 16.84462211996822C64.7222028932733 16.80296077198093 64.89928859904661 17.141496689618645 64.6390300582627 17.860254849708685C63.691159461069915 19.099829813294495 63.691159461069915 19.438390707759535 64.6390300582627 18.875887579449152C68.55564635195974 17.00087715174788 71.65452131885594 15.026933510990466 73.93590472722457 12.954006703522246Z" fill="#AA2929"></path><path d="M83.38888456700212 12.67274265095339C84.37846646583687 12.57900461798199 85.05558825476696 13.136287589380297 85.42024993379238 14.344641518802966C85.14925135725636 15.115451387049788 84.67544094279661 15.78213286215572 83.99831915386653 16.344635990466102H84.26407259666314C85.4514709679555 15.438376787605932 86.14407838983051 15.30817258673199 86.34214463056145 15.953998411016949C84.01904992055084 17.256090373411016 82.78994024761653 18.256087609242584 82.65456584348517 18.95401509533898C82.5191914393538 19.64150226761123 82.88884848384534 19.844638804290256 83.76403651350635 19.563374751721398L87.71711897510593 17.969628376588982C88.10251142081569 18.084222060381354 88.19092938956568 18.30296911414195 87.98262264962923 18.625869537870763C85.6078259070445 19.92796150026483 83.83696884931143 20.579007481461865 82.6703012447034 20.579007481461865C81.58680647510593 20.453998460672672 81.40972076933262 19.693578952595338 82.13904412738347 18.29774895722987C78.75343518273304 19.818587973384535 76.5399887447034 20.579007481461865 75.49845504502119 20.579007481461865C74.77962195444915 20.318599079713984 74.51386851165255 19.66755309851695 74.70144448490467 18.625869537870763C77.09722176244703 14.71961862751589 79.99303512314619 12.735259649761653 83.38888456700212 12.67274265095339ZM77.82654512049788 16.4383740234375C76.15984143273306 18.01128972457627 75.46698424258476 18.990456286414197 75.74822331832627 19.37587370895127C76.02946239406779 19.761291131488345 77.18064436573094 19.516493246822034 79.20151946504238 18.641505031779662C81.23263506355933 17.756076502913135 82.64932070974577 16.61026454912606 83.45157640360169 15.20399423993644C84.20138076006356 14.276929339909957 83.95136271848517 13.78733357057733 82.70152227886652 13.73525688559322C81.11824119438559 13.954003939353814 79.4932488082627 14.855042985301907 77.82654512049788 16.4383740234375Z" fill="#AA2929"></path><path d="M100.59217392743645 12.82899768273305C101.19636338056144 12.599835291975635 101.56077529131356 12.657132133871823 101.68590919623941 13.00088820842161C101.81079333289195 13.334203969147245 99.98798447431143 15.30817258673199 96.21698308395128 18.922744107521186C96.07136818061441 19.360263191869706 96.30565082097458 19.49566257282839 96.9203305415784 19.328992204051907C99.5244145590572 18.454003989009536 101.11818591101695 17.95921303959216 101.70139482918432 17.84461935579979C102.284853515625 17.719635311837923 102.57658285884534 17.79776282772775 102.57658285884534 18.07900190346928C102.43071818723517 18.568597672801907 101.26929571636651 19.183177486096398 99.0920656779661 19.922766320180084C96.91508540783897 20.651914840439616 95.5555966962394 20.88629738810911 95.01384931144068 20.62588898636123C94.47235169491526 20.355040270789196 94.39941935911017 19.78734196239407 94.79530207229874 18.922744107521186L95.85781630693856 17.235259699417373L91.8265563757945 16.782130097987288C90.84721497616526 17.29255654131356 90.06094445180084 17.901916197695975 89.46699549788136 18.610259020789194C88.87329631223517 19.318576867055086 88.41497153072034 19.698799109507416 88.09202115333686 19.750875794491527C87.77956104343221 19.80295247947564 87.65992204051906 19.526908583818855 87.73260460805083 18.922744107521186C88.67023470603813 17.672753806938562 90.03996391684323 16.31858515956038 91.84204200873941 14.860263142213984C93.6546103681144 13.391500811043432 94.93067647643008 12.59464011189089 95.67024033368644 12.469631091101695C96.42029445842161 12.3446220703125 96.43053495762712 12.72484431276483 95.70146136784957 13.610247864804027C95.2950883871822 13.93317326536017 94.82127797272246 14.271709182997881 94.27953058792373 14.625880594544492L93.17030968617584 15.516504303495763L94.79530207229874 16.000879915916315C96.44102522510593 16.209211632680088 98.37323258739407 15.15191755495233 100.59217392743645 12.82899768273305Z" fill="#AA2929"></path><path d="M115.49834447828391 12.766505660752118C116.24839860301907 12.526927932997882 116.56610384666314 12.818582345736228 116.45146020921611 13.641493875794492C113.09732206700212 16.21443178959216 111.47757481461865 17.657118313029663 111.59196868379237 17.969628376588982C111.28999884136653 18.532131504899365 111.4358635129767 18.875887579449152 112.02956269862288 19.000871623411015C113.13378823490466 18.85505690545551 114.45156564486228 18.407122484110168 115.98264516022246 17.657118313029663C117.52446471133474 16.896723781779663 118.22756240068856 16.71441791909428 118.09218799655721 17.110250678628177C117.72752631753177 17.881085523702332 116.45670534295552 18.703997053760595 114.27947530455508 19.579010245630297C112.11298530190678 20.443583123675847 110.85764996027542 20.667550334348515 110.51396881620764 20.250886900820973C110.17028767213982 19.834223467293434 110.09211020259534 18.933159444518008 110.27968617584746 17.547744786149366L104.73283236228814 20.14151337394068C104.04522030587924 20.329014416710805 103.46176161943856 20.349845090704452 102.9827060712394 20.204005395921612C102.51389102224576 20.04775036414195 102.34205045021186 19.594620762711866 102.46718435513772 18.844641568458684C104.62343385858051 15.552970471398304 106.14926824020127 13.756087559586865 107.04518703654661 13.453992833024365C107.94110583289195 13.141507746292374 108.15465770656779 13.344619306144068 107.68584265757414 14.06337746623411C104.91491343352754 16.896723781779663 103.61287142478814 18.516496010990465 103.77946686308262 18.922744107521186C103.95655256885593 19.328992204051907 105.37848334878177 18.82378591763771 108.04525920286017 17.407125248278604C110.71178528866525 15.98004924192267 113.19623030323093 14.433159394862288 115.49834447828391 12.766505660752118Z" fill="#AA2929"></path><path d="M127.51394680217162 12.766505660752118C128.68061440677968 12.766505660752118 129.44115879899365 13.18316909427966 129.79533021054027 14.016495961334746C129.97216614804026 15.329003260725637 129.29529412738347 16.28211899165784 127.76396484374999 16.87586813095869C126.24312582759534 17.469617270259533 124.92010328389831 17.93316220868644 123.7951469809322 18.266502946239406C122.6701906779661 18.47483466300318 122.25882233183262 18.797760063559323 122.56079217425847 19.23525417108051C122.86301178495764 19.662332941604873 123.40450940148305 19.829003310381356 124.18578456038136 19.735265277409958L128.32644299523307 18.89149809653072C131.13908352092162 17.901916197695975 132.57125480005297 17.521718932070975 132.62345636917374 17.75088132282839C132.6858984375 17.969628376588982 131.84717657574154 18.391511967028602 130.1077903204449 19.016507117319914C128.3786445643538 19.64150226761123 126.32130329713983 20.162344047934322 123.93576651880296 20.579007481461865C122.23784179687499 20.7248471762447 121.3681486692267 20.204005395921612 121.32643736758475 19.016507117319914C119.2953217690678 19.860249321371825 118.10242849576272 20.172759384931144 117.7482570842161 19.954012331170553C117.17553843352755 19.818587973384535 117.03991426112287 19.412339876853814 117.34213387182203 18.735243064751057C117.63386321504237 18.058171229475636 118.39940297272246 17.39670991128178 119.6390029131356 16.750884086996823C119.98268405720339 16.54255237023305 120.23270209878179 16.67275657110699 120.38905703787076 17.141496689618645C120.22221183130296 17.360243743379236 119.88902095471398 17.599846447960804 119.38898487155721 17.860254849708685C118.88894878840043 18.120663251456566 118.56599841101695 18.401927304025424 118.42013373940678 18.703997053760595C118.27426906779661 19.006091780323093 118.33696090439618 19.131075824284956 118.60770971265889 19.078999139300848C119.98268405720339 18.818590737552967 121.14410652807204 17.96440821967691 122.09197712526483 16.516501539327333C123.05033798993645 15.068594858977754 123.93576651880296 14.06337746623411 124.74826271186441 13.50087433792373C125.57124917240466 12.927955872616526 126.49314386917374 12.683182964777544 127.51394680217162 12.766505660752118ZM122.51408550715043 17.594626291048726C122.84727638373941 17.740465985831566 123.97747782044492 17.422760742187503 125.90468981726696 16.641510560116522C127.8421423132945 15.849845041048729 128.81074367717162 15.183163565942797 128.81074367717162 14.64151608845339C128.73781134136652 14.026911298331568 128.1963137248411 13.714426211599577 127.18575129104872 13.704010874602755C125.67540254237288 13.704010874602755 124.11809735831568 15.000882680084745 122.51408550715043 17.594626291048726Z" fill="#AA2929"></path></svg> 