<?xml version="1.0" encoding="UTF-8"?> <svg xmlns="http://www.w3.org/2000/svg" viewBox="0 0 46.359375 18.783935546875" fill="none"><path d="M11.145740877016129 6.3200041078629035C11.20972179939516 6.832001033266129 10.76173072076613 9.008000428427419 10.441726411290322 9.711989969758065C10.377720564516128 9.711989969758065 10.377720564516128 9.775995816532257 10.377720564516128 9.84000166330645C10.377720564516128 9.84000166330645 10.313739642137095 10.096000126008065 10.18572794858871 10.351998588709677C10.057741179435483 10.672002898185484 9.865723639112902 11.055988130040323 9.737736869959678 11.248005670362904C9.673731023185484 11.439998286290322 9.481738407258065 11.760002595766128 9.353726713709676 11.951995211693548C9.22573994455645 12.144012752016128 9.097728251008064 12.336005367943548 9.097728251008064 12.336005367943548C9.097728251008064 13.039994909274192 5.64173654233871 16.879996774193547 4.87374115423387 16.879996774193547C4.809735307459677 16.879996774193547 4.809735307459677 16.879996774193547 4.745729460685484 16.879996774193547C4.745729460685484 16.94400262096774 4.617742691532258 17.008008467741934 4.489730997983871 17.008008467741934C4.361744228830645 17.072014314516128 4.233732535282258 17.135995236895162 4.169726688508065 17.135995236895162C3.977734072580645 17.32801277721774 3.465737147177419 17.391993699596775 3.3377254536290324 17.26400693044355C2.5697300655241935 17.26400693044355 1.6097320917338709 16.623998311491935 1.2257319052419353 15.983989692540323C1.097732673891129 15.920008770161289 1.0337318119959678 15.72799122983871 0.9057325806451613 15.664010307459677C0.84173171875 15.535998613911291 0.7777308568548387 15.471992767137095 0.7777308568548387 15.408011844758065C0.7777308568548387 15.344005997983869 0.7777308568548387 15.280000151209677 0.7137324873991935 15.215994304435483C0.6497316255040322 15.15201338205645 0.5857332560483871 15.024001688508065 0.5857332560483871 14.959995841733871C0.5857332560483871 14.895989994959676 0.5217323941532258 14.703997379032257 0.3937331628024193 14.576010609879031C0.20173207258064516 14.000007837701611 0.00973200425907258 13.232012449596773 0.00973200425907258 12.271999521169354C-0.05426788558467742 10.99200720766129 0.20173207258064516 9.455991507056451 0.6497316255040322 8.24000504032258C0.6497316255040322 8.175999193548385 0.7137324873991935 8.048012424395163 0.7777308568548387 7.920000730846774C0.7777308568548387 7.791989037298387 0.84173171875 7.664002268145161 0.9057325806451613 7.599996421370967C0.9057325806451613 7.472009652217742 0.9697309501008065 7.3439979586693545 1.161731043346774 6.896006880040322C1.2257319052419353 6.767995186491936 1.2897327671370966 6.640008417338709 1.2897327671370966 6.576002570564516C1.2897327671370966 6.576002570564516 1.161731043346774 6.447990877016129 1.0337318119959678 6.3200041078629035C0.9057325806451613 6.128011491935484 0.7777308568548387 5.999999798387097 0.7777308568548387 5.999999798387097C0.7777308568548387 5.935993951612903 0.7777308568548387 5.871988104838709 0.7137324873991935 5.871988104838709C0.6497316255040322 5.808007182459677 0.5217323941532258 5.488002872983871 0.5217323941532258 5.359991179435483C0.45773153225806446 5.232004410282258 0.45773153225806446 5.167998563508064 0.45773153225806446 5.167998563508064C0.3937331628024193 5.167998563508064 0.329732300907258 5.103992716733871 0.329732300907258 5.040011794354839C0.1377319584173387 4.784013331653226 0.20173207258064516 4.720007484879032 0.7137324873991935 4.335997328629032C0.84173171875 4.208010559475806 0.84173171875 4.208010559475806 0.9057325806451613 4.144004712701613C0.9697309501008065 4.144004712701613 1.0337318119959678 4.144004712701613 1.0337318119959678 4.144004712701613C1.097732673891129 4.079998865927419 1.4177319984879033 3.8880062499999997 1.5457312298387096 3.8240004032258064C1.6737329536290322 3.7599945564516126 1.865733046875 3.695988709677419 1.9937322782258062 3.5680019405241934C2.633735912298387 3.3120034778225804 3.0177211441532257 3.120010861895161 3.0177211441532257 3.120010861895161C3.0817269909274194 3.120010861895161 3.1457328377016127 3.056005015120968 3.2097386844758065 2.991999168346774C3.27374453125 2.927993321572581 3.465737147177419 2.800006552419355 3.6577297631048387 2.6719948588709674C3.8497223790322583 2.607989012096774 4.041739919354839 2.479999750504032 4.105720841733871 2.416001381048387C4.169726688508065 2.352000519153226 4.361744228830645 2.2239987953629035 4.553736844758064 2.160000425907258C4.809735307459677 2.0320011945564516 4.9377220766129035 2.0320011945564516 5.129739616935484 2.0320011945564516C5.321732232862903 2.0320011945564516 5.321732232862903 2.0320011945564516 5.321732232862903 2.160000425907258C5.321732232862903 2.2239987953629035 5.385738079637097 2.2879996572580645 5.513724848790322 2.2239987953629035C5.64173654233871 2.2239987953629035 5.769723311491935 2.2239987953629035 5.833729158266129 2.2879996572580645C5.897735005040323 2.352000519153226 6.089727620967742 2.352000519153226 6.793742086693548 2.352000519153226C7.689724243951613 2.352000519153226 8.073734400201612 2.416001381048387 8.39373870967742 2.5440080897177415C8.39373870967742 2.607989012096774 8.969741481854838 2.800006552419355 9.03372240423387 2.800006552419355C9.097728251008064 2.864012399193548 9.161734097782258 2.864012399193548 9.22573994455645 2.864012399193548C9.417732560483872 2.991999168346774 9.929729485887096 3.4399902469758064 10.18572794858871 3.695988709677419C10.505732258064516 4.079998865927419 10.56973810483871 4.208010559475806 10.76173072076613 4.527989944556451C10.953723336693548 4.976005947580646 11.017729183467742 5.359991179435483 11.081735030241935 5.744001335685484C11.081735030241935 5.935993951612903 11.145740877016129 6.191992414314516 11.145740877016129 6.3200041078629035ZM4.425725151209677 14.768003225806451C5.001727923387096 14.447998916330645 6.089727620967742 13.295993371975806 6.7297362399193545 12.400011214717741C6.793742086693548 12.20799367439516 6.9857347026209675 11.951995211693548 7.177727318548387 11.695996748991934C8.073734400201612 10.351998588709677 8.905735635080646 8.687996118951613 9.161734097782258 7.0879994959677415C9.417732560483872 5.615989642137096 9.417732560483872 4.912000100806451 9.097728251008064 4.208010559475806C8.841729788306452 3.7599945564516126 8.649737172379032 3.4399902469758064 8.457744556451612 3.376009324596774C8.265727016129032 3.247997631048387 7.625743321572581 3.1839917842741934 7.369719934475807 3.1839917842741934C7.2417331653225805 3.120010861895161 6.7297362399193545 3.247997631048387 6.537743623991935 3.3120034778225804C6.4737377772177425 3.3120034778225804 6.409731930443548 3.376009324596774 6.409731930443548 3.5680019405241934C6.345726083669355 3.695988709677419 6.281720236895161 3.8240004032258064 6.217739314516129 3.9520120967741934C5.961740851814516 4.464009022177419 5.769723311491935 4.784013331653226 5.705742389112903 4.847994254032258C5.705742389112903 4.912000100806451 5.64173654233871 4.976005947580646 5.577730695564516 5.040011794354839C5.577730695564516 5.103992716733871 5.513724848790322 5.167998563508064 5.513724848790322 5.167998563508064C5.449743926411291 5.296010257056452 5.449743926411291 5.359991179435483 5.385738079637097 5.423997026209678C5.257726386088709 5.488002872983871 5.001727923387096 5.935993951612903 4.809735307459677 6.25599826108871L4.6817236139112905 6.447990877016129H4.87374115423387C5.001727923387096 6.511996723790322 5.321732232862903 6.511996723790322 5.577730695564516 6.576002570564516C5.833729158266129 6.576002570564516 6.089727620967742 6.576002570564516 6.153733467741935 6.640008417338709C6.217739314516129 6.640008417338709 6.217739314516129 6.767995186491936 6.153733467741935 6.767995186491936C6.153733467741935 6.896006880040322 5.001727923387096 7.152005342741935 4.745729460685484 7.152005342741935L4.233732535282258 7.216011189516129L3.977734072580645 7.472009652217742C3.8497223790322583 7.599996421370967 3.7217356098790324 7.728008114919355 3.6577297631048387 7.728008114919355C3.6577297631048387 7.728008114919355 3.4017313004032257 7.984006577620967 3.27374453125 8.24000504032258C3.2097386844758065 8.304010887096775 3.0817269909274194 8.496003503024193 2.9537402217741935 8.560009349798387C2.8897343749999997 8.687996118951613 2.7617226814516127 8.8160078125 2.7617226814516127 8.943994581653227C2.6977417590725805 9.008000428427419 2.633735912298387 9.136012121975806 2.633735912298387 9.199993044354839C2.5697300655241935 9.263998891129031 2.5697300655241935 9.39201058467742 2.5697300655241935 9.39201058467742C2.5697300655241935 9.39201058467742 2.5697300655241935 9.455991507056451 2.50572421875 9.519997353830645C2.441730834173387 9.648009047379032 2.1857323714717745 10.543991204637097 2.057733140120968 11.055988130040323C1.9937322782258062 11.248005670362904 1.9937322782258062 11.439998286290322 1.9297314163306452 11.439998286290322C1.9297314163306452 11.504004133064516 1.9297314163306452 11.56800997983871 1.9297314163306452 11.631990902217742C1.9297314163306452 11.695996748991934 1.8017321849798387 12.336005367943548 1.7377313230846774 12.719990599798388C1.6737329536290322 13.039994909274192 1.6737329536290322 14.576010609879031 1.7377313230846774 14.959995841733871C1.865733046875 15.408011844758065 1.865733046875 15.408011844758065 2.121731509576613 15.408011844758065C2.2497332333669355 15.408011844758065 2.377732464717742 15.408011844758065 2.377732464717742 15.408011844758065C2.50572421875 15.471992767137095 2.9537402217741935 15.471992767137095 3.3377254536290324 15.344005997983869C3.5297429939516127 15.280000151209677 3.7857414566532257 15.215994304435483 3.8497223790322583 15.151988457661291C3.9137282258064516 15.088007535282257 4.041739919354839 15.024001688508065 4.041739919354839 15.024001688508065C4.169726688508065 14.895989994959676 4.297738382056451 14.832009072580645 4.425725151209677 14.768003225806451ZM2.3137316028225805 3.9520120967741934C2.1857323714717745 4.015993019153226 2.1857323714717745 4.015993019153226 2.441733326612903 3.9520120967741934C2.50572421875 3.9520120967741934 2.5697300655241935 3.8880062499999997 2.5697300655241935 3.8880062499999997C2.5697300655241935 3.8240004032258064 2.441733326612903 3.8240004032258064 2.3137316028225805 3.9520120967741934ZM10.18572794858871 6.896006880040322C10.313739642137095 6.3200041078629035 10.313739642137095 5.296010257056452 10.249733795362904 5.167998563508064C10.18572794858871 5.167998563508064 10.18572794858871 5.167998563508064 10.18572794858871 5.359991179435483C10.18572794858871 5.488002872983871 10.121722101814514 5.615989642137096 10.121722101814514 5.615989642137096C10.121722101814514 5.232004410282258 10.121722101814514 5.040011794354839 9.993735332661291 4.656001638104838C9.929729485887096 4.400003175403226 9.737736869959678 4.015993019153226 9.60972517641129 3.9520120967741934C9.545744254032257 3.8880062499999997 9.545744254032257 3.9520120967741934 9.673731023185484 4.144004712701613C9.737736869959678 4.335997328629032 9.80174271673387 4.720007484879032 9.737736869959678 4.656001638104838C9.673731023185484 4.527989944556451 9.673731023185484 4.464009022177419 9.60972517641129 4.400003175403226L9.481738407258065 4.271991481854839V4.464009022177419C9.545744254032257 4.912000100806451 9.545744254032257 5.615989642137096 9.545744254032257 5.871988104838709C9.481738407258065 5.999999798387097 9.481738407258065 6.25599826108871 9.481738407258065 6.511996723790322C9.417732560483872 6.640008417338709 9.353726713709676 6.896006880040322 9.353726713709676 7.023993649193549C9.353726713709676 8.048012424395163 7.8177359375 11.183999823588708 7.2417331653225805 11.951995211693548C6.9857347026209675 12.336005367943548 6.85772300907258 12.527997983870968 6.85772300907258 12.592003830645162C6.85772300907258 12.656009677419354 6.85772300907258 12.78399644657258 6.793742086693548 12.848002293346774C6.85772300907258 12.912008140120967 6.85772300907258 12.848002293346774 7.113721471774193 12.527997983870968C7.43372578125 12.080006905241936 7.625743321572581 11.887989364919354 7.625743321572581 11.951995211693548C7.625743321572581 12.016001058467742 7.177727318548387 12.719990599798388 6.7297362399193545 13.232012449596773C6.4737377772177425 13.551991834677418 6.409731930443548 13.680003528225807 6.4737377772177425 13.680003528225807C6.4737377772177425 13.680003528225807 6.7297362399193545 13.424005065524193 7.049740549395161 13.104000756048388C7.369719934475807 12.78399644657258 7.689724243951613 12.400011214717741 7.753730090725806 12.271999521169354C7.8177359375 12.20799367439516 7.881741784274193 12.080006905241936 7.945722706653226 12.016001058467742C8.073734400201612 11.951995211693548 8.329732862903226 11.504004133064516 8.521725478830644 11.055988130040323C8.649737172379032 10.79998966733871 8.777723941532257 10.543991204637097 8.841729788306452 10.41600443548387C8.969741481854838 10.224011819556452 9.417732560483872 9.39201058467742 9.481738407258065 9.136012121975806C9.545744254032257 9.072006275201613 9.60972517641129 8.943994581653227 9.673731023185484 8.8160078125C9.80174271673387 8.367991809475807 10.121722101814514 7.3439979586693545 10.18572794858871 6.896006880040322ZM2.057733140120968 4.015993019153226C2.057733140120968 4.015993019153226 2.057733140120968 4.015993019153226 2.121731509576613 4.079998865927419C2.121731509576613 4.015993019153226 2.121731509576613 4.015993019153226 2.057733140120968 4.015993019153226ZM9.993735332661291 6.191992414314516C9.993735332661291 6.128011491935484 9.993735332661291 5.999999798387097 10.121722101814514 5.935993951612903C10.121722101814514 5.935993951612903 10.121722101814514 6.06400564516129 10.057741179435483 6.128011491935484C9.993735332661291 6.3200041078629035 9.993735332661291 6.3200041078629035 9.993735332661291 6.191992414314516ZM9.929729485887096 6.511996723790322C10.057741179435483 6.384009954637096 10.057741179435483 6.511996723790322 9.993735332661291 6.703989339717742L9.929729485887096 6.896006880040322V6.703989339717742C9.929729485887096 6.640008417338709 9.929729485887096 6.511996723790322 9.929729485887096 6.511996723790322ZM9.673731023185484 7.599996421370967C9.80174271673387 7.408003805443548 9.737736869959678 7.728008114919355 9.60972517641129 7.920000730846774C9.60972517641129 8.048012424395163 9.545744254032257 8.175999193548385 9.481738407258065 8.24000504032258C9.481738407258065 8.175999193548385 9.60972517641129 7.728008114919355 9.673731023185484 7.599996421370967ZM9.161734097782258 8.943994581653227C9.289720866935484 8.687996118951613 9.353726713709676 8.62399027217742 9.353726713709676 8.8160078125C9.161734097782258 9.39201058467742 7.8177359375 11.887989364919354 7.753730090725806 11.760002595766128C7.689724243951613 11.760002595766128 7.8177359375 11.56800997983871 7.881741784274193 11.439998286290322C8.009728553427419 11.248005670362904 8.073734400201612 11.055988130040323 8.073734400201612 11.055988130040323C8.073734400201612 11.055988130040323 8.137740246975808 10.928001360887096 8.201721169354839 10.79998966733871C8.329732862903226 10.672002898185484 8.457744556451612 10.480010282258064 8.521725478830644 10.351998588709677C8.585731325604838 10.160005972782258 8.649737172379032 9.967988432459677 8.713743019153226 9.904007510080644C8.777723941532257 9.84000166330645 8.841729788306452 9.711989969758065 8.905735635080646 9.584003200604839C8.969741481854838 9.455991507056451 9.03372240423387 9.263998891129031 9.03372240423387 9.263998891129031C9.03372240423387 9.199993044354839 9.097728251008064 9.072006275201613 9.161734097782258 8.943994581653227ZM9.289720866935484 11.119993976814516C9.289720866935484 11.055988130040323 9.289720866935484 11.055988130040323 9.22573994455645 11.055988130040323C9.22573994455645 11.119993976814516 9.22573994455645 11.119993976814516 9.289720866935484 11.119993976814516ZM8.841729788306452 11.760002595766128C9.097728251008064 11.37599243951613 9.097728251008064 11.37599243951613 9.03372240423387 11.439998286290322C8.969741481854838 11.504004133064516 8.841729788306452 11.695996748991934 8.713743019153226 11.887989364919354C8.585731325604838 12.016001058467742 8.457744556451612 12.271999521169354 8.39373870967742 12.400011214717741C8.329732862903226 12.463992137096774 8.265727016129032 12.592003830645162 8.265727016129032 12.592003830645162C8.265727016129032 12.656009677419354 8.329732862903226 12.592003830645162 8.457744556451612 12.400011214717741C8.585731325604838 12.271999521169354 8.649737172379032 12.144012752016128 8.649737172379032 12.144012752016128C8.713743019153226 12.080006905241936 8.777723941532257 11.951995211693548 8.841729788306452 11.760002595766128Z" fill="#AA2929"></path><path d="M26.163636088709676 2.160000425907258C26.29174747983871 2.2879996572580645 26.29174747983871 2.479999750504032 26.163636088709676 2.5440080897177415C26.163636088709676 2.5440080897177415 26.09982963709677 2.607989012096774 26.09982963709677 2.6719948588709674C26.09982963709677 2.6719948588709674 26.03577394153226 2.800006552419355 25.97171824596774 2.864012399193548C25.907662550403224 2.927993321572581 25.907662550403224 3.056005015120968 25.907662550403224 3.1839917842741934C25.84360685483871 3.247997631048387 25.84385609879032 3.3120034778225804 25.84385609879032 3.376009324596774C25.779800403225806 3.376009324596774 25.779800403225806 3.4399902469758064 25.71574470766129 3.50399609375C25.71574470766129 3.632007787298387 25.651689012096774 3.695988709677419 25.651689012096774 3.7599945564516126C25.651689012096774 3.7599945564516126 25.523826864919354 3.9520120967741934 25.459771169354838 4.144004712701613C25.2678533266129 4.527989944556451 25.2678533266129 4.591995791330645 25.139741935483872 4.784013331653226C25.075686239919353 4.912000100806451 25.075686239919353 4.976005947580646 25.075686239919353 5.040011794354839V5.167998563508064L25.139741935483872 5.040011794354839C25.203797631048385 4.976005947580646 25.2678533266129 4.784013331653226 25.331659778225806 4.656001638104838C25.39571547379032 4.527989944556451 25.459771169354838 4.400003175403226 25.459771169354838 4.400003175403226C25.459771169354838 4.335997328629032 25.523826864919354 4.271991481854839 25.58763331653226 4.144004712701613L25.71574470766129 3.9520120967741934V4.079998865927419C25.71574470766129 4.208010559475806 25.651689012096774 4.335997328629032 25.58763331653226 4.400003175403226C25.523826864919354 4.527989944556451 25.523826864919354 4.656001638104838 25.523826864919354 4.720007484879032C25.459771169354838 4.720007484879032 25.459771169354838 4.847994254032258 25.331659778225806 4.976005947580646C25.203797631048385 5.296010257056452 25.075686239919353 5.615989642137096 25.075686239919353 5.744001335685484C25.075686239919353 5.808007182459677 25.011630544354837 6.06400564516129 24.883743472782257 6.3200041078629035C24.755731779233873 6.640008417338709 24.69172593245968 6.832001033266129 24.69172593245968 6.832001033266129C24.755731779233873 6.832001033266129 24.755731779233873 6.896006880040322 24.755731779233873 6.960012726814515C24.69172593245968 7.0879994959677415 24.56373916330645 7.3439979586693545 24.56373916330645 7.408003805443548C24.499733316532257 7.408003805443548 24.499733316532257 7.535990574596774 24.499733316532257 7.599996421370967C24.499733316532257 7.664002268145161 24.435727469758064 7.728008114919355 24.435727469758064 7.728008114919355C24.435727469758064 7.791989037298387 24.37172162298387 7.85599488407258 24.37172162298387 7.920000730846774C24.307740700604835 8.111993346774193 24.17972900705645 8.367991809475807 24.115723160282258 8.367991809475807C24.115723160282258 8.367991809475807 24.115723160282258 8.43199765625 24.115723160282258 8.496003503024193C24.115723160282258 8.496003503024193 23.987736391129033 8.752001965725805 23.987736391129033 8.8160078125C23.987736391129033 8.879988734879031 23.79574377520161 9.328004737903225 23.731737928427417 9.455991507056451C23.731737928427417 9.519997353830645 23.667732081653227 9.775995816532257 23.603726234879034 9.775995816532257C23.603726234879034 9.775995816532257 23.53972038810484 9.84000166330645 23.53972038810484 9.904007510080644C23.53972038810484 9.967988432459677 23.475739465725805 10.160005972782258 23.347727772177418 10.41600443548387C23.283721925403224 10.480010282258064 23.283721925403224 10.543991204637097 23.283721925403224 10.607997051411289L23.219741003024193 10.736008744959678C23.219741003024193 10.736008744959678 23.155735156249996 10.928001360887096 23.091729309475806 11.055988130040323C22.96374254032258 11.37599243951613 22.899736693548387 11.439998286290322 22.707744077620966 11.760002595766128C22.643738230846772 11.887989364919354 22.57973238407258 12.016001058467742 22.57973238407258 12.080006905241936C22.451720690524194 12.336005367943548 22.323733921370966 12.719990599798388 22.259728074596772 12.719990599798388C22.19572222782258 12.719990599798388 22.19572222782258 12.78399644657258 22.19572222782258 12.848002293346774C22.19572222782258 12.912008140120967 22.19572222782258 12.976013986895161 22.131741305443548 12.976013986895161C22.067735458669357 13.104000756048388 22.067735458669357 13.168006602822581 22.067735458669357 13.168006602822581C22.00372961189516 13.168006602822581 22.00372961189516 13.232012449596773 21.939723765120966 13.35999921875C21.939723765120966 13.424005065524193 21.875742842741936 13.488010912298385 21.875742842741936 13.551991834677418C21.811736995967742 13.551991834677418 21.747731149193548 13.680003528225807 21.683725302419354 13.807990297379034C21.61971945564516 13.93600199092742 21.427726839717742 14.256006300403227 21.299740070564518 14.447998916330645C21.107722530241933 14.703997379032257 20.85172406754032 15.024001688508065 20.78774314516129 15.215994304435483C20.659731451612902 15.408011844758065 20.53171975806452 15.600004460685485 20.339727142137097 15.791997076612903C20.275721295362903 16.047995539314517 19.699743447580644 16.55999246471774 19.507725907258063 16.623998311491935C19.315733291330645 16.879996774193547 18.93172313508064 17.071989390120965 18.86774221270161 17.071989390120965C18.80373636592742 17.071989390120965 18.739730519153227 17.072014314516128 18.675724672379033 17.135995236895162C18.547737903225805 17.200001083669356 17.971735131048387 17.32801277721774 17.907729284274193 17.32801277721774C17.907729284274193 17.32801277721774 17.715736668346775 17.32801277721774 17.587724974798387 17.26400693044355C17.45973820564516 17.26400693044355 17.26772066532258 17.200001083669356 17.26772066532258 17.200001083669356C17.26772066532258 17.200001083669356 17.20373974294355 17.135995236895162 17.139733896169357 17.135995236895162C17.07572804939516 17.135995236895162 17.011722202620966 17.135995236895162 17.011722202620966 17.135995236895162C16.88373543346774 17.072014314516128 16.755723739919357 17.008008467741934 16.62773697076613 16.879996774193547C16.499725277217742 16.752010005040322 16.30773266129032 16.68800415826613 16.30773266129032 16.68800415826613C16.179720967741936 16.68800415826613 15.987728351814518 16.432005695564516 15.731729889112904 16.11200138608871C15.667724042338708 16.047995539314517 15.539737273185482 15.920008770161289 15.47573142641129 15.856002923387097C15.28373881048387 15.72799122983871 15.091721270161289 15.535998613911291 14.963734501008064 15.280000151209677C14.89972865423387 15.151988457661291 14.835722807459677 15.024001688508065 14.771741885080644 14.959995841733871C14.771741885080644 14.895989994959676 14.707736038306452 14.832009072580645 14.707736038306452 14.832009072580645C14.643730191532258 14.576010609879031 14.643730191532258 14.576010609879031 14.643730191532258 14.383993069556452C14.515743422379032 14.063988760080646 14.515743422379032 13.93600199092742 14.451737575604838 13.295993371975806C14.451737575604838 11.887989364919354 14.515743422379032 10.543991204637097 14.643730191532258 9.136012121975806C14.771741885080644 7.85599488407258 14.89972865423387 6.703989339717742 14.89972865423387 6.384009954637096C14.89972865423387 5.103992716733871 15.219732963709678 3.695988709677419 15.603743119959677 2.479999750504032C15.667724042338708 2.352000519153226 15.731729889112904 2.0960020564516126 15.731729889112904 1.9680003326612903C15.795735735887096 1.7119993775201612 16.05173419858871 1.5200017767137095 16.179720967741936 1.5200017767137095C16.243726814516126 1.584000146169355 16.30773266129032 1.584000146169355 16.30773266129032 1.5200017767137095C16.30773266129032 1.5200017767137095 16.371738508064514 1.5200017767137095 16.435719430443548 1.5200017767137095C16.499725277217742 1.4560009148185482 16.62773697076613 1.392000052923387 16.88373543346774 1.392000052923387C17.07572804939516 1.4560009148185482 17.26772066532258 1.4560009148185482 17.26772066532258 1.4560009148185482C17.715736668346775 1.5200017767137095 17.971735131048387 1.7119993775201612 18.09972190020161 2.0960020564516126C18.22773359375 2.416001381048387 18.291739440524196 3.1839917842741934 18.22773359375 3.7599945564516126C18.163727746975805 4.208010559475806 17.971735131048387 5.359991179435483 17.907729284274193 5.679995488911291C17.8437234375 5.871988104838709 17.779742515120965 6.191992414314516 17.779742515120965 6.3200041078629035C17.779742515120965 6.511996723790322 17.715736668346775 6.703989339717742 17.715736668346775 6.703989339717742C17.65173082157258 6.767995186491936 17.20373974294355 9.136012121975806 17.20373974294355 9.519997353830645C16.947741280241935 10.160005972782258 16.88373543346774 12.463992137096774 16.88373543346774 13.232012449596773C16.88373543346774 14.000007837701611 16.88373543346774 14.256006300403227 16.88373543346774 14.320012147177419C16.88373543346774 14.383993069556452 16.947741280241935 14.512004763104839 16.947741280241935 14.576010609879031C16.947741280241935 14.703997379032257 16.947741280241935 14.895989994959676 16.947741280241935 15.024001688508065C17.011722202620966 15.151988457661291 17.011722202620966 15.280000151209677 17.011722202620966 15.344005997983869C17.07572804939516 15.535998613911291 17.139733896169357 15.72799122983871 17.20373974294355 15.791997076612903C17.331726512096772 15.791997076612903 17.971735131048387 15.344005997983869 18.419726209677417 14.832009072580645C18.547737903225805 14.703997379032257 18.675724672379033 14.576010609879031 18.675724672379033 14.576010609879031C18.86774221270161 14.320012147177419 18.93172313508064 14.256006300403227 18.93172313508064 14.192000453629031C18.995728981854835 14.192000453629031 19.059734828629033 14.063988760080646 19.123740675403226 13.93600199092742C19.187721597782257 13.871996144153226 19.315733291330645 13.680003528225807 19.379739138104835 13.615997681451612C19.443744984879032 13.488010912298385 19.507725907258063 13.35999921875 19.571731754032257 13.35999921875C19.571731754032257 13.295993371975806 19.63573760080645 13.232012449596773 19.63573760080645 13.232012449596773C19.699743447580644 13.104000756048388 19.699743447580644 13.039994909274192 19.76372436995968 13.039994909274192C19.76372436995968 12.912008140120967 19.955741910282256 12.592003830645162 20.019722832661287 12.592003830645162C20.14773452620968 12.336005367943548 20.339727142137097 12.016001058467742 20.40373298891129 12.016001058467742C20.40373298891129 11.824008442540324 20.46773883568548 11.824008442540324 20.59572560483871 11.56800997983871C20.59572560483871 11.504004133064516 20.659731451612902 11.439998286290322 20.659731451612902 11.439998286290322C20.659731451612902 11.37599243951613 20.659731451612902 11.312011517137096 20.723737298387096 11.312011517137096C20.78774314516129 11.248005670362904 20.78774314516129 11.248005670362904 20.78774314516129 11.183999823588708C20.85172406754032 11.119993976814516 20.915729914314518 11.055988130040323 20.915729914314518 10.99200720766129C20.915729914314518 10.928001360887096 21.043741607862902 10.672002898185484 21.23573422379032 10.351998588709677C21.23573422379032 10.287992741935485 21.491732686491936 9.775995816532257 21.555738533266126 9.775995816532257C21.555738533266126 9.775995816532257 21.555738533266126 9.711989969758065 21.555738533266126 9.648009047379032C21.61971945564516 9.584003200604839 21.683725302419354 9.519997353830645 21.683725302419354 9.455991507056451C21.683725302419354 9.455991507056451 21.747731149193548 9.263998891129031 21.811736995967742 9.136012121975806C21.875742842741936 9.008000428427419 21.939723765120966 8.943994581653227 21.939723765120966 8.879988734879031C21.939723765120966 8.879988734879031 22.00372961189516 8.8160078125 22.00372961189516 8.752001965725805C22.131741305443548 8.560009349798387 22.323733921370966 8.175999193548385 22.38773976814516 7.984006577620967C22.451720690524194 7.920000730846774 22.515726537298388 7.728008114919355 22.57973238407258 7.599996421370967C22.643738230846772 7.472009652217742 22.707744077620966 7.3439979586693545 22.707744077620966 7.3439979586693545C22.771725 7.216011189516129 22.899736693548387 6.960012726814515 22.96374254032258 6.896006880040322C22.96374254032258 6.896006880040322 23.027723462701612 6.832001033266129 23.027723462701612 6.767995186491936C23.027723462701612 6.703989339717742 23.027723462701612 6.640008417338709 23.091729309475806 6.640008417338709C23.091729309475806 6.576002570564516 23.155735156249996 6.447990877016129 23.283721925403224 6.25599826108871C23.475739465725805 5.871988104838709 23.5397453125 5.679995488911291 23.92373054435484 5.103992716733871C24.17972900705645 4.527989944556451 24.24373485383064 4.400003175403226 24.627745010080645 3.8240004032258064C25.331659778225806 2.5440080897177415 25.523826864919354 2.2239987953629035 25.523826864919354 2.2239987953629035C25.523826864919354 2.160000425907258 25.58763331653226 2.0960020564516126 25.651689012096774 1.9680003326612903C25.71574470766129 1.903999470766129 25.779800403225806 1.7760002394153225 25.84385609879032 1.6480010080645162C26.03577394153226 1.3279991910282256 26.09982963709677 1.2640008215725806 26.227691784274192 1.2640008215725806C26.29174747983871 1.2640008215725806 26.227691784274192 1.6480010080645162 26.163636088709676 1.6480010080645162C26.163636088709676 1.6480010080645162 26.09982963709677 1.7760002394153225 26.09982963709677 1.8400011013104838C26.09982963709677 1.9680003326612903 26.03577394153226 2.0320011945564516 26.03577394153226 2.0320011945564516C26.03577394153226 2.0320011945564516 25.97171824596774 2.0960020564516126 25.97171824596774 2.160000425907258C25.97171824596774 2.2239987953629035 25.97171824596774 2.2239987953629035 26.03577394153226 2.160000425907258C26.09982963709677 2.0960020564516126 26.163636088709676 2.0960020564516126 26.163636088709676 2.160000425907258ZM25.907662550403224 2.416001381048387C25.907662550403224 2.2879996572580645 25.907662550403224 2.2879996572580645 25.84385609879032 2.352000519153226C25.779800403225806 2.416001381048387 25.779800403225806 2.479999750504032 25.71574470766129 2.5440080897177415C25.71574470766129 2.607989012096774 25.71574470766129 2.6719948588709674 25.651689012096774 2.6719948588709674C25.58763331653226 2.800006552419355 25.58763331653226 2.864012399193548 25.58763331653226 2.864012399193548C25.523826864919354 2.927993321572581 25.459771169354838 3.056005015120968 25.139741935483872 3.5680019405241934C25.139741935483872 3.695988709677419 25.075686239919353 3.8240004032258064 25.075686239919353 3.8880062499999997C25.075686239919353 3.9520120967741934 25.011630544354837 4.015993019153226 25.011630544354837 4.015993019153226C24.947824092741932 4.079998865927419 24.883743472782257 4.144004712701613 24.883743472782257 4.208010559475806C24.755731779233873 4.271991481854839 24.627745010080645 4.591995791330645 24.627745010080645 4.720007484879032C24.627745010080645 4.784013331653226 24.24373485383064 5.359991179435483 24.17972900705645 5.423997026209678C24.115723160282258 5.423997026209678 24.115723160282258 5.488002872983871 24.115723160282258 5.615989642137096C24.115723160282258 5.744001335685484 24.115723160282258 5.808007182459677 24.051742237903227 5.808007182459677C24.051742237903227 5.808007182459677 23.987736391129033 5.871988104838709 23.987736391129033 5.999999798387097C23.92373054435484 6.128011491935484 23.859724697580642 6.191992414314516 23.731737928427417 6.25599826108871C23.731737928427417 6.3200041078629035 23.731737928427417 6.3200041078629035 23.859724697580642 6.25599826108871C23.987736391129033 6.128011491935484 24.115723160282258 6.128011491935484 24.051742237903227 6.25599826108871C24.051742237903227 6.3200041078629035 24.051742237903227 6.3200041078629035 24.051742237903227 6.384009954637096C24.115723160282258 6.511996723790322 24.24373485383064 6.447990877016129 24.24373485383064 6.191992414314516C24.307740700604835 6.06400564516129 24.307740700604835 5.935993951612903 24.307740700604835 5.935993951612903C24.24373485383064 5.871988104838709 24.24373485383064 5.871988104838709 24.307740700604835 5.808007182459677C24.37172162298387 5.744001335685484 24.37172162298387 5.744001335685484 24.37172162298387 5.679995488911291C24.37172162298387 5.679995488911291 24.37172162298387 5.5520087197580645 24.435727469758064 5.488002872983871C24.499733316532257 5.359991179435483 24.56373916330645 5.232004410282258 24.56373916330645 5.232004410282258C24.56373916330645 5.103992716733871 24.755731779233873 4.720007484879032 24.819737626008063 4.720007484879032C24.883743472782257 4.656001638104838 24.883743472782257 4.656001638104838 24.883743472782257 4.591995791330645C24.883743472782257 4.527989944556451 24.947824092741932 4.464009022177419 25.011630544354837 4.335997328629032C25.075686239919353 4.271991481854839 25.139741935483872 4.144004712701613 25.139741935483872 4.079998865927419C25.203797631048385 4.015993019153226 25.203797631048385 3.9520120967741934 25.203797631048385 3.8880062499999997C25.2678533266129 3.8240004032258064 25.779800403225806 2.800006552419355 25.779800403225806 2.6719948588709674C25.84360685483871 2.607989012096774 25.907662550403224 2.479999750504032 25.907662550403224 2.416001381048387ZM24.051742237903227 5.615989642137096L23.987736391129033 5.679995488911291C23.987736391129033 5.744001335685484 23.987736391129033 5.744001335685484 24.051742237903227 5.679995488911291H24.115723160282258L24.051742237903227 5.615989642137096ZM23.79574377520161 6.511996723790322C23.731737928427417 6.576002570564516 23.731737928427417 6.576002570564516 23.731737928427417 6.576002570564516C23.731737928427417 6.640008417338709 23.79574377520161 6.640008417338709 23.79574377520161 6.640008417338709C23.859724697580642 6.576002570564516 23.859724697580642 6.576002570564516 23.859724697580642 6.576002570564516C23.79574377520161 6.511996723790322 23.79574377520161 6.511996723790322 23.79574377520161 6.511996723790322ZM23.731737928427417 7.3439979586693545C23.987736391129033 6.960012726814515 24.115723160282258 6.576002570564516 24.051742237903227 6.576002570564516C23.987736391129033 6.576002570564516 23.731737928427417 6.960012726814515 23.667732081653227 7.152005342741935C23.667732081653227 7.216011189516129 23.603726234879034 7.279992111895162 23.603726234879034 7.279992111895162C23.603726234879034 7.279992111895162 23.53972038810484 7.3439979586693545 23.53972038810484 7.472009652217742C23.475739465725805 7.599996421370967 23.41173361895161 7.728008114919355 23.41173361895161 7.728008114919355C23.347727772177418 7.791989037298387 23.347727772177418 7.85599488407258 23.347727772177418 7.85599488407258C23.347727772177418 7.920000730846774 23.283721925403224 8.048012424395163 23.219741003024193 8.048012424395163C23.219741003024193 8.111993346774193 23.155735156249996 8.304010887096775 23.027723462701612 8.43199765625C22.96374254032258 8.62399027217742 22.515726537298388 9.519997353830645 22.515726537298388 9.648009047379032C22.515726537298388 9.711989969758065 22.643738230846772 9.648009047379032 22.643738230846772 9.584003200604839C22.643738230846772 9.519997353830645 22.643738230846772 9.455991507056451 22.707744077620966 9.39201058467742C22.835730846774194 9.199993044354839 23.027723462701612 8.8160078125 23.155735156249996 8.496003503024193C23.219741003024193 8.304010887096775 23.347727772177418 8.175999193548385 23.347727772177418 8.175999193548385C23.347727772177418 8.111993346774193 23.5397453125 7.728008114919355 23.603726234879034 7.728008114919355C23.603726234879034 7.599996421370967 23.667732081653227 7.472009652217742 23.731737928427417 7.3439979586693545ZM23.603726234879034 6.703989339717742C23.41173361895161 6.767995186491936 23.41173361895161 6.832001033266129 23.53972038810484 6.896006880040322C23.475739465725805 6.896006880040322 23.41173361895161 7.152005342741935 23.475739465725805 7.152005342741935C23.5397453125 7.152005342741935 23.603726234879034 7.0879994959677415 23.667732081653227 6.960012726814515C23.79574377520161 6.703989339717742 23.731737928427417 6.640008417338709 23.603726234879034 6.703989339717742ZM23.475739465725805 7.279992111895162C23.41173361895161 7.216011189516129 23.41173361895161 7.216011189516129 23.41173361895161 7.279992111895162C23.41173361895161 7.3439979586693545 23.41173361895161 7.3439979586693545 23.41173361895161 7.3439979586693545C23.475739465725805 7.279992111895162 23.475739465725805 7.279992111895162 23.475739465725805 7.279992111895162ZM23.283721925403224 7.3439979586693545C23.219741003024193 7.279992111895162 23.091729309475806 7.472009652217742 23.027723462701612 7.599996421370967C23.027723462701612 7.728008114919355 23.091729309475806 7.791989037298387 23.219741003024193 7.664002268145161C23.347727772177418 7.599996421370967 23.347727772177418 7.408003805443548 23.283721925403224 7.3439979586693545ZM22.96374254032258 7.791989037298387C22.96374254032258 7.791989037298387 22.899736693548387 7.920000730846774 22.96374254032258 7.984006577620967C22.96374254032258 8.111993346774193 23.091729309475806 8.111993346774193 23.027723462701612 7.984006577620967C23.027723462701612 7.920000730846774 23.027723462701612 7.85599488407258 22.96374254032258 7.791989037298387ZM22.835730846774194 8.24000504032258C22.835730846774194 8.304010887096775 22.835730846774194 8.367991809475807 22.771725 8.43199765625C22.771725 8.43199765625 22.835730846774194 8.43199765625 22.899736693548387 8.367991809475807C22.96374254032258 8.304010887096775 22.96374254032258 8.111993346774193 22.899736693548387 8.111993346774193C22.899736693548387 8.111993346774193 22.835730846774194 8.175999193548385 22.835730846774194 8.24000504032258ZM23.92373054435484 8.304010887096775V8.24000504032258C23.92373054435484 8.304010887096775 23.92373054435484 8.367991809475807 23.92373054435484 8.304010887096775ZM22.515726537298388 8.687996118951613C22.451720690524194 8.8160078125 22.451720690524194 8.943994581653227 22.451720690524194 8.943994581653227C22.451720690524194 9.072006275201613 22.57973238407258 9.008000428427419 22.57973238407258 8.879988734879031C22.643738230846772 8.8160078125 22.643738230846772 8.687996118951613 22.643738230846772 8.62399027217742C22.57973238407258 8.560009349798387 22.57973238407258 8.560009349798387 22.515726537298388 8.687996118951613ZM23.667732081653227 8.8160078125V8.752001965725805C23.667732081653227 8.752001965725805 23.603726234879034 8.752001965725805 23.603726234879034 8.8160078125C23.603726234879034 8.879988734879031 23.667732081653227 8.879988734879031 23.667732081653227 8.8160078125ZM22.131741305443548 9.455991507056451C22.131741305443548 9.584003200604839 22.259728074596772 9.519997353830645 22.323733921370966 9.39201058467742C22.38773976814516 9.199993044354839 22.38773976814516 9.072006275201613 22.323733921370966 9.136012121975806C22.323733921370966 9.136012121975806 22.259728074596772 9.199993044354839 22.259728074596772 9.263998891129031C22.259728074596772 9.328004737903225 22.259728074596772 9.39201058467742 22.131741305443548 9.455991507056451ZM15.155727116935484 9.39201058467742C15.155727116935484 9.455991507056451 15.219732963709678 9.263998891129031 15.219732963709678 9.136012121975806C15.219732963709678 9.072006275201613 15.219732963709678 9.072006275201613 15.155727116935484 9.199993044354839C15.155727116935484 9.263998891129031 15.155727116935484 9.328004737903225 15.155727116935484 9.39201058467742ZM23.091729309475806 9.263998891129031C23.155735156249996 9.263998891129031 23.155735156249996 9.263998891129031 23.155735156249996 9.199993044354839C23.155735156249996 9.199993044354839 23.091729309475806 9.199993044354839 23.091729309475806 9.263998891129031ZM22.96374254032258 9.648009047379032L23.027723462701612 9.584003200604839C23.027723462701612 9.519997353830645 23.027723462701612 9.455991507056451 22.96374254032258 9.519997353830645C22.899736693548387 9.519997353830645 22.899736693548387 9.648009047379032 22.96374254032258 9.648009047379032ZM22.067735458669357 9.711989969758065C22.067735458669357 9.711989969758065 22.067735458669357 9.775995816532257 22.131741305443548 9.775995816532257C22.131741305443548 9.711989969758065 22.131741305443548 9.711989969758065 22.067735458669357 9.648009047379032C22.067735458669357 9.584003200604839 22.067735458669357 9.584003200604839 22.067735458669357 9.711989969758065ZM22.259728074596772 10.224011819556452L22.323733921370966 10.096000126008065C22.38773976814516 10.03199427923387 22.451720690524194 9.904007510080644 22.451720690524194 9.84000166330645C22.38773976814516 9.84000166330645 22.323733921370966 9.967988432459677 22.323733921370966 10.03199427923387L22.259728074596772 10.224011819556452ZM22.835730846774194 9.904007510080644V9.84000166330645C22.835730846774194 9.775995816532257 22.835730846774194 9.84000166330645 22.835730846774194 9.904007510080644ZM22.00372961189516 10.03199427923387C22.00372961189516 9.967988432459677 22.00372961189516 9.84000166330645 21.939723765120966 9.904007510080644C21.875742842741936 9.904007510080644 21.875742842741936 10.096000126008065 21.939723765120966 10.096000126008065C21.939723765120966 10.096000126008065 21.939723765120966 10.03199427923387 22.00372961189516 10.03199427923387ZM21.683725302419354 10.672002898185484C21.683725302419354 10.607997051411289 21.747731149193548 10.480010282258064 21.811736995967742 10.41600443548387C21.875742842741936 10.351998588709677 21.875742842741936 10.287992741935485 21.875742842741936 10.224011819556452C21.875742842741936 10.160005972782258 21.811736995967742 10.160005972782258 21.747731149193548 10.351998588709677C21.683725302419354 10.480010282258064 21.61971945564516 10.607997051411289 21.555738533266126 10.607997051411289C21.555738533266126 10.672002898185484 21.491732686491936 10.736008744959678 21.491732686491936 10.79998966733871C21.491732686491936 10.79998966733871 21.491732686491936 10.863995514112903 21.427726839717742 10.928001360887096C21.36372099294355 10.928001360887096 21.36372099294355 11.119993976814516 21.427726839717742 11.119993976814516C21.491732686491936 11.055988130040323 21.61971945564516 10.736008744959678 21.683725302419354 10.672002898185484ZM22.899736693548387 10.480010282258064C22.899736693548387 10.480010282258064 22.96374254032258 10.41600443548387 22.899736693548387 10.351998588709677C22.835730846774194 10.41600443548387 22.835730846774194 10.480010282258064 22.771725 10.543991204637097C22.771725 10.607997051411289 22.707744077620966 10.672002898185484 22.707744077620966 10.672002898185484C22.707744077620966 10.736008744959678 22.707744077620966 10.79998966733871 22.707744077620966 10.79998966733871C22.643738230846772 10.79998966733871 22.643738230846772 10.863995514112903 22.643738230846772 10.928001360887096C22.57973238407258 10.99200720766129 22.643738230846772 10.99200720766129 22.707744077620966 10.863995514112903C22.771725 10.736008744959678 22.835730846774194 10.672002898185484 22.835730846774194 10.607997051411289C22.835730846774194 10.543991204637097 22.835730846774194 10.543991204637097 22.899736693548387 10.480010282258064ZM22.067735458669357 10.543991204637097V10.480010282258064C22.067735458669357 10.41600443548387 22.067735458669357 10.480010282258064 22.067735458669357 10.543991204637097ZM21.875742842741936 11.055988130040323C21.939723765120966 10.99200720766129 21.939723765120966 10.863995514112903 21.939723765120966 10.863995514112903C22.00372961189516 10.79998966733871 21.939723765120966 10.79998966733871 21.875742842741936 10.863995514112903C21.811736995967742 10.928001360887096 21.811736995967742 10.99200720766129 21.747731149193548 11.055988130040323V11.183999823588708L21.875742842741936 11.055988130040323ZM22.57973238407258 11.183999823588708C22.57973238407258 11.055988130040323 22.515726537298388 10.99200720766129 22.515726537298388 11.119993976814516C22.451720690524194 11.312011517137096 22.451720690524194 11.312011517137096 22.515726537298388 11.312011517137096C22.515726537298388 11.248005670362904 22.515726537298388 11.248005670362904 22.57973238407258 11.183999823588708ZM21.171728377016127 11.631990902217742C21.299740070564518 11.504004133064516 21.36372099294355 11.312011517137096 21.36372099294355 11.312011517137096C21.299740070564518 11.183999823588708 21.23573422379032 11.248005670362904 21.171728377016127 11.439998286290322C21.107722530241933 11.56800997983871 21.043741607862902 11.631990902217742 21.043741607862902 11.631990902217742C21.043741607862902 11.695996748991934 20.85172406754032 12.016001058467742 20.85172406754032 12.080006905241936C20.85172406754032 12.143987827620968 21.043741607862902 11.951995211693548 21.171728377016127 11.631990902217742ZM20.78774314516129 12.20799367439516C20.85172406754032 12.20799367439516 20.85172406754032 12.144012752016128 20.78774314516129 12.144012752016128C20.78774314516129 12.144012752016128 20.659731451612902 12.336005367943548 20.659731451612902 12.400011214717741C20.59572560483871 12.463992137096774 20.78774314516129 12.336005367943548 20.78774314516129 12.20799367439516Z" fill="#AA2929"></path><path d="M46.26316683467742 7.3439979586693545C46.391278225806445 7.279992111895162 46.391278225806445 7.408003805443548 46.26316683467742 7.535990574596774C46.1991111391129 7.599996421370967 46.1991111391129 7.664002268145161 46.1991111391129 7.728008114919355C46.1991111391129 7.728008114919355 46.135304687499996 7.85599488407258 46.007193296370964 7.920000730846774C45.94313760080645 8.048012424395163 45.87933114919355 8.175999193548385 45.87933114919355 8.175999193548385C45.94313760080645 8.304010887096775 45.751219758064515 8.496003503024193 45.11116129032258 9.136012121975806C43.767237903225805 10.41600443548387 42.67928805443549 11.439998286290322 42.48712096774194 11.695996748991934C42.103285282258064 11.951995211693548 41.783256048387095 12.271999521169354 41.463226814516126 12.592003830645162C41.20725327620968 12.78399644657258 41.01533543346774 12.976013986895161 40.95127973790322 12.976013986895161C40.88722404233871 13.039994909274192 40.823168346774196 13.104000756048388 40.759112651209676 13.168006602822581C40.63125050403226 13.295993371975806 39.99119203629032 13.680003528225807 39.99119203629032 13.680003528225807C39.92713634072581 13.680003528225807 39.863329889112904 13.807990297379034 39.799274193548385 13.871996144153226C39.67116280241935 13.93600199092742 39.479244959677416 14.127994606854838 39.351133568548384 14.192000453629031C39.22327142137097 14.256006300403227 39.095160030241935 14.383993069556452 39.095160030241935 14.383993069556452C39.095160030241935 14.447998916330645 39.03135357862903 14.447998916330645 38.96729788306452 14.447998916330645C38.9032421875 14.447998916330645 38.839186491935486 14.447998916330645 38.9032421875 14.512004763104839C38.9032421875 14.576010609879031 38.839186491935486 14.576010609879031 38.775130796370966 14.576010609879031C38.71132434475806 14.703997379032257 38.64726864919355 14.703997379032257 38.58321295362903 14.703997379032257C38.45535080645161 14.639991532258064 38.45535080645161 14.639991532258064 38.51915725806452 14.703997379032257C38.58321295362903 14.768003225806451 38.58321295362903 14.768003225806451 38.71132434475806 14.768003225806451C38.775130796370966 14.703997379032257 38.839186491935486 14.703997379032257 38.839186491935486 14.639991532258064C38.96729788306452 14.639991532258064 39.095160030241935 14.576010609879031 39.22327142137097 14.447998916330645C39.351133568548384 14.383993069556452 39.73521849798387 14.127994606854838 39.99119203629032 13.93600199092742C40.31122127016129 13.744009375 40.56719480846774 13.551991834677418 40.56719480846774 13.551991834677418C40.63125050403226 13.488010912298385 40.823168346774196 13.35999921875 40.95127973790322 13.295993371975806C41.39917111895161 12.976013986895161 41.527282510080646 12.912008140120967 41.783256048387095 12.656009677419354C41.91111819556451 12.527997983870968 42.03922958669355 12.463992137096774 42.103285282258064 12.400011214717741C42.16734097782258 12.271999521169354 42.23114742943549 12.20799367439516 42.35925882056451 12.144012752016128C42.48712096774194 12.080006905241936 42.87120589717742 11.824008442540324 43.063123739919355 11.631990902217742C43.063123739919355 11.56800997983871 43.2552908266129 11.439998286290322 43.447208669354836 11.248005670362904C44.02321144153226 10.736008744959678 44.85518775201613 9.904007510080644 45.55930191532258 9.072006275201613C45.815275453629035 8.752001965725805 45.94313760080645 8.687996118951613 45.87933114919355 8.943994581653227C45.815275453629035 9.072006275201613 45.87933114919355 9.072006275201613 46.007193296370964 9.008000428427419C46.071248991935484 8.943994581653227 46.135304687499996 8.943994581653227 46.135304687499996 8.943994581653227C46.071248991935484 9.008000428427419 46.007193296370964 9.136012121975806 46.007193296370964 9.199993044354839C45.94313760080645 9.328004737903225 45.815275453629035 9.519997353830645 45.751219758064515 9.648009047379032C45.687164062499996 9.775995816532257 45.55930191532258 10.096000126008065 45.431190524193546 10.287992741935485C45.30332837701613 10.672002898185484 45.1752169858871 10.736008744959678 44.47135206653226 11.504004133064516C44.34324067540322 11.631990902217742 44.27918497983871 11.760002595766128 44.21512928427419 11.824008442540324C44.151322832661286 12.016001058467742 44.151322832661286 12.080006905241936 44.02321144153226 12.016001058467742C43.95915574596774 12.271999521169354 43.831293598790324 12.336005367943548 43.63912651209677 12.463992137096774C43.447208669354836 12.656009677419354 43.383152973790324 12.656009677419354 43.31934652217742 12.656009677419354V12.719990599798388C43.447208669354836 12.719990599798388 43.31934652217742 12.912008140120967 43.127179435483875 13.039994909274192C43.063123739919355 13.104000756048388 42.93526159274194 13.232012449596773 42.8071502016129 13.295993371975806C42.743343749999994 13.424005065524193 42.55117666330645 13.615997681451612 42.35925882056451 13.807990297379034C42.23114742943549 13.93600199092742 42.03922958669355 14.127994606854838 41.97517389112903 14.192000453629031C40.37527696572581 15.72799122983871 40.50313911290322 15.664010307459677 39.799274193548385 16.176007232862904C39.543300655241936 16.36799984879032 39.28732711693549 16.55999246471774 39.28732711693549 16.623998311491935C39.22327142137097 16.68800415826613 39.095160030241935 16.752010005040322 39.095160030241935 16.752010005040322C39.095160030241935 16.752010005040322 39.03135357862903 16.752010005040322 38.96729788306452 16.815990927419357C38.839186491935486 16.94400262096774 37.431207409274194 17.647992162298387 36.91926033266129 17.903990625000002C36.47111970766129 18.09600816532258 35.767254788306445 18.352006628024196 35.511281249999996 18.416012474798386C34.743111391129034 18.608005090725804 34.42333140120967 18.672010937499998 34.29522001008065 18.735991859879032C34.16710861895161 18.799997706653226 32.31123815524194 18.799997706653226 32.05526461693549 18.735991859879032C31.6711796875 18.672010937499998 31.35115045362903 18.608005090725804 31.287344002016127 18.54399924395161C31.223288306451614 18.54399924395161 31.159232610887095 18.54399924395161 31.09517691532258 18.54399924395161C31.031121219758067 18.54399924395161 30.96731476814516 18.479993397177417 30.96731476814516 18.479993397177417C30.96731476814516 18.479993397177417 30.775147681451614 18.352006628024196 30.071282762096775 17.967996471774192C29.55933568548387 17.71199800907258 29.2393064516129 17.391993699596775 28.7911658266129 16.68800415826613C28.663303679435483 16.55999246471774 28.53519228830645 16.30399400201613 28.471136592741935 16.30399400201613C28.343274445564514 16.11200138608871 28.08730090725806 15.600004460685485 28.08730090725806 15.471992767137095C28.08730090725806 15.471992767137095 28.08730090725806 15.408011844758065 28.08730090725806 15.344005997983869C28.02324521169355 15.280000151209677 27.831327368951612 14.447998916330645 27.767271673387096 13.93600199092742C27.70321597782258 13.807990297379034 27.70321597782258 13.615997681451612 27.639160282258064 13.488010912298385C27.511298135080647 13.295993371975806 27.511298135080647 13.232012449596773 27.511298135080647 12.20799367439516C27.511298135080647 11.055988130040323 27.57535383064516 10.287992741935485 27.767271673387096 9.39201058467742C27.831327368951612 9.136012121975806 27.831327368951612 9.008000428427419 27.767271673387096 8.8160078125C27.767271673387096 8.752001965725805 27.70321597782258 8.62399027217742 27.70321597782258 8.560009349798387C27.639160282258064 8.560009349798387 27.639160282258064 8.367991809475807 27.57535383064516 8.175999193548385C27.57535383064516 7.984006577620967 27.511298135080647 7.791989037298387 27.511298135080647 7.728008114919355C27.511298135080647 7.535990574596774 27.57535383064516 7.279992111895162 27.70321597782258 7.216011189516129C27.831327368951612 7.152005342741935 28.08730090725806 7.0879994959677415 28.151107358870966 7.152005342741935C28.215163054435482 7.152005342741935 28.27921875 7.152005342741935 28.407330141129034 7.152005342741935C28.53519228830645 7.152005342741935 28.53519228830645 7.0879994959677415 28.599247983870967 6.896006880040322C28.85522152217742 6.3200041078629035 29.815309223790322 4.464009022177419 30.00722706653226 4.335997328629032C30.00722706653226 4.335997328629032 30.071282762096775 4.208010559475806 30.135338457661287 4.079998865927419C30.26320060483871 3.9520120967741934 30.327256300403228 3.8240004032258064 30.39131199596774 3.8240004032258064C30.39131199596774 3.7599945564516126 30.455118447580645 3.695988709677419 30.455118447580645 3.695988709677419C30.455118447580645 3.5680019405241934 30.839203377016126 3.1839917842741934 30.903259072580646 3.120010861895161C31.031121219758067 2.991999168346774 31.223288306451614 2.736000705645161 31.287344002016127 2.6719948588709674C31.415206149193548 2.479999750504032 32.759129536290324 1.135999097782258 32.887240927419356 1.0720007283266129C32.887240927419356 1.0079998664314516 33.01535231854838 0.9440014969758064 33.143214465725805 0.8800006350806451C33.65516154233871 0.4960004485887096 34.35927570564516 0.1760011239919355 34.9993341733871 0.1760011239919355C35.191252016129035 0.11200001285282259 35.31911416330645 0.11200001285282259 35.575336945564516 0.11200001285282259C35.767254788306445 0.1760011239919355 35.89511693548387 0.1760011239919355 35.89511693548387 0.11200001285282259C35.95917263104838 0.11200001285282259 35.89511693548387 0.048000895665322584 35.70319909274194 0.048000895665322584C35.575336945564516 0.048000895665322584 35.511281249999996 0.048000895665322584 35.511281249999996 0.048000895665322584C35.575336945564516 -0.016000265322580642 36.15133971774194 -0.016000265322580642 36.47111970766129 0.048000895665322584C36.59923109879033 0.11200001285282259 36.791148941532256 0.1760011239919355 36.91926033266129 0.3040003553427419C37.04712247983871 0.3680012172379032 37.23928956653226 0.4319995866935484 37.30334526209677 0.4960004485887096C37.367151713709674 0.4960004485887096 37.49526310483871 0.6240021723790322 37.62312525201613 0.6880005418346774C37.751236643145155 0.8800006350806451 38.00721018145161 1.2000024521169355 38.26318371975806 1.903999470766129C38.32723941532258 1.9680003326612903 38.32723941532258 2.0960020564516126 38.3912951108871 2.160000425907258C38.3912951108871 2.2239987953629035 38.45535080645161 2.5440080897177415 38.45535080645161 2.864012399193548C38.45535080645161 3.1839917842741934 38.51915725806452 3.50399609375 38.51915725806452 3.50399609375C38.58321295362903 3.695988709677419 38.3912951108871 4.527989944556451 38.07126587701613 5.296010257056452C37.62312525201613 6.3200041078629035 36.91926033266129 7.599996421370967 36.34325756048387 8.175999193548385C36.08728402217742 8.496003503024193 35.89511693548387 8.687996118951613 35.767254788306445 8.943994581653227C35.63914339717742 9.072006275201613 35.511281249999996 9.199993044354839 35.447225554435484 9.263998891129031C35.383169858870964 9.328004737903225 35.255307711693554 9.455991507056451 35.127196320564515 9.519997353830645C34.9993341733871 9.648009047379032 34.87122278225806 9.775995816532257 34.80716708669355 9.84000166330645C34.35927570564516 10.160005972782258 34.29522001008065 10.224011819556452 34.16710861895161 10.287992741935485C34.03924647177419 10.41600443548387 33.65516154233871 10.607997051411289 33.143214465725805 10.79998966733871C32.6312673891129 11.055988130040323 31.479261844758064 11.183999823588708 30.903259072580646 11.055988130040323C30.26320060483871 10.928001360887096 30.135338457661287 10.928001360887096 29.815309223790322 10.736008744959678C29.495279989919354 10.607997051411289 29.495279989919354 10.607997051411289 29.2393064516129 11.631990902217742C29.17525075604839 11.760002595766128 29.11119506048387 12.336005367943548 29.11119506048387 12.848002293346774C29.11119506048387 14.000007837701611 29.17525075604839 14.768003225806451 29.36716859879032 15.471992767137095C29.431224294354838 15.791997076612903 29.495279989919354 15.920008770161289 29.687197832661287 15.920008770161289C29.815309223790322 15.983989692540323 30.071282762096775 16.11200138608871 30.199144909274192 16.176007232862904C30.26320060483871 16.30399400201613 30.839203377016126 16.55999246471774 30.96731476814516 16.55999246471774C30.96731476814516 16.55999246471774 31.031121219758067 16.55999246471774 31.09517691532258 16.623998311491935C31.09517691532258 16.623998311491935 31.287344002016127 16.623998311491935 31.54331754032258 16.623998311491935C32.05526461693549 16.55999246471774 32.1831267641129 16.55999246471774 32.43934954637097 16.623998311491935C32.69532308467742 16.623998311491935 33.01535231854838 16.623998311491935 33.33513230846774 16.49601154233871C33.46324369959677 16.49601154233871 33.65516154233871 16.432005695564516 33.84732862903226 16.432005695564516C34.03924647177419 16.432005695564516 34.16710861895161 16.36799984879032 34.16710861895161 16.36799984879032C34.23116431451613 16.30399400201613 34.48713785282258 16.240013079637098 34.5511935483871 16.240013079637098C34.67930493951613 16.176007232862904 34.87122278225806 16.11200138608871 34.9993341733871 16.047995539314517C35.127196320564515 16.047995539314517 35.255307711693554 16.047995539314517 35.31911416330645 15.983989692540323C35.447225554435484 15.920008770161289 35.70319909274194 15.791997076612903 35.767254788306445 15.791997076612903C35.767254788306445 15.791997076612903 35.831310483870965 15.791997076612903 35.89511693548387 15.791997076612903C35.95917263104838 15.72799122983871 36.15133971774194 15.600004460685485 36.40731325604838 15.535998613911291C37.111178175403225 15.215994304435483 38.32723941532258 14.576010609879031 38.839186491935486 14.063988760080646C39.095160030241935 13.93600199092742 39.92713634072581 13.295993371975806 40.37527696572581 12.976013986895161C40.50313911290322 12.848002293346774 40.69530619959677 12.719990599798388 40.759112651209676 12.656009677419354C40.88722404233871 12.527997983870968 41.079141885080645 12.400011214717741 41.65514465725806 11.887989364919354C41.71920035282258 11.824008442540324 41.91111819556451 11.695996748991934 42.103285282258064 11.56800997983871C42.23114742943549 11.439998286290322 42.48712096774194 11.183999823588708 42.61523235887097 11.055988130040323C42.8071502016129 10.928001360887096 42.93526159274194 10.736008744959678 43.063123739919355 10.672002898185484C43.127179435483875 10.607997051411289 43.63912651209677 10.096000126008065 44.21512928427419 9.519997353830645C45.23927268145161 8.496003503024193 45.55930191532258 8.111993346774193 45.87933114919355 7.728008114919355C46.071248991935484 7.472009652217742 46.135304687499996 7.408003805443548 46.26316683467742 7.3439979586693545ZM34.48713785282258 2.736000705645161C33.71921723790322 3.3120034778225804 33.01535231854838 4.015993019153226 32.43934954637097 4.784013331653226C32.24718245967742 5.040011794354839 32.119320312499994 5.232004410282258 32.119320312499994 5.232004410282258C32.05526461693549 5.359991179435483 31.99120892137097 5.423997026209678 31.927153225806453 5.488002872983871C31.927153225806453 5.488002872983871 31.799291078629032 5.679995488911291 31.6711796875 5.871988104838709C31.60712399193548 5.999999798387097 31.415206149193548 6.384009954637096 31.223288306451614 6.640008417338709C30.839203377016126 7.279992111895162 30.071282762096775 8.8160078125 30.071282762096775 8.879988734879031C30.135338457661287 8.879988734879031 30.26320060483871 8.943994581653227 30.39131199596774 8.943994581653227C30.583229838709673 8.943994581653227 30.71134122983871 8.943994581653227 30.775147681451614 8.943994581653227C30.903259072580646 9.072006275201613 31.35115045362903 9.008000428427419 31.6711796875 8.8160078125C31.799291078629032 8.752001965725805 31.99120892137097 8.687996118951613 32.05526461693549 8.687996118951613C32.24718245967742 8.687996118951613 33.079158770161285 8.24000504032258 33.527299395161286 7.85599488407258C33.91113508064517 7.599996421370967 34.9993341733871 6.447990877016129 35.191252016129035 6.191992414314516C35.31911416330645 5.999999798387097 35.447225554435484 5.935993951612903 35.447225554435484 6.06400564516129C35.447225554435484 6.06400564516129 35.383169858870964 6.25599826108871 35.255307711693554 6.384009954637096C35.191252016129035 6.447990877016129 34.9993341733871 6.767995186491936 34.9993341733871 6.896006880040322C34.93527847782258 6.896006880040322 34.67930493951613 7.3439979586693545 34.67930493951613 7.408003805443548C34.67930493951613 7.599996421370967 35.447225554435484 6.832001033266129 35.767254788306445 6.3200041078629035C35.831310483870965 6.25599826108871 35.95917263104838 6.128011491935484 36.08728402217742 6.06400564516129C36.66328679435484 5.744001335685484 37.111178175403225 4.656001638104838 37.30334526209677 4.015993019153226C37.367151713709674 3.9520120967741934 37.367151713709674 3.8240004032258064 37.431207409274194 3.7599945564516126C37.431207409274194 3.695988709677419 37.49526310483871 3.4399902469758064 37.559318800403226 3.1839917842741934C37.559318800403226 2.927993321572581 37.62312525201613 2.6719948588709674 37.62312525201613 2.5440080897177415C37.68718094758064 2.416001381048387 37.62312525201613 2.0320011945564516 37.559318800403226 2.0320011945564516C37.559318800403226 2.0320011945564516 37.49526310483871 2.160000425907258 37.49526310483871 2.2879996572580645C37.49526310483871 2.479999750504032 37.49526310483871 2.6719948588709674 37.49526310483871 2.800006552419355C37.431207409274194 2.927993321572581 37.431207409274194 2.991999168346774 37.367151713709674 2.927993321572581C37.30334526209677 2.864012399193548 37.30334526209677 2.800006552419355 37.30334526209677 2.736000705645161C37.431207409274194 2.0320011945564516 37.431207409274194 1.903999470766129 37.367151713709674 1.7760002394153225C37.23928956653226 1.5200017767137095 37.17523387096774 1.584000146169355 37.17523387096774 1.903999470766129C37.111178175403225 2.2239987953629035 37.04712247983871 3.056005015120968 36.98331602822581 3.1839917842741934C36.91926033266129 3.247997631048387 36.85520463709677 3.5680019405241934 36.72734248991935 3.8240004032258064C36.66328679435484 4.144004712701613 36.53517540322581 4.464009022177419 36.47111970766129 4.464009022177419C36.40731325604838 4.591995791330645 36.27920186491935 4.591995791330645 36.21514616935484 4.527989944556451C36.21514616935484 4.464009022177419 36.34325756048387 3.9520120967741934 36.47111970766129 3.632007787298387C36.66328679435484 3.3120034778225804 36.72734248991935 2.736000705645161 36.72734248991935 2.0320011945564516C36.72734248991935 1.4560009148185482 36.72734248991935 1.392000052923387 36.40731325604838 1.5200017767137095C36.27920186491935 1.6480010080645162 36.08728402217742 1.6480010080645162 35.95917263104838 1.6480010080645162C35.95917263104838 1.7119993775201612 35.89511693548387 1.7119993775201612 35.831310483870965 1.7760002394153225C35.767254788306445 1.7760002394153225 35.70319909274194 1.7760002394153225 35.70319909274194 1.8400011013104838C35.70319909274194 1.8400011013104838 35.63914339717742 1.8400011013104838 35.575336945564516 1.903999470766129C35.447225554435484 1.9680003326612903 35.31911416330645 2.0320011945564516 34.9993341733871 2.2879996572580645C34.80716708669355 2.479999750504032 34.61524924395161 2.6719948588709674 34.48713785282258 2.736000705645161ZM29.2393064516129 7.023993649193549C29.17525075604839 7.0879994959677415 29.17525075604839 7.152005342741935 29.17525075604839 7.216011189516129C29.2393064516129 7.279992111895162 29.303112903225806 7.216011189516129 29.303112903225806 7.152005342741935C29.303112903225806 7.0879994959677415 29.36716859879032 7.023993649193549 29.55933568548387 6.896006880040322C29.687197832661287 6.832001033266129 29.815309223790322 6.767995186491936 29.815309223790322 6.703989339717742C29.815309223790322 6.640008417338709 29.879115675403227 6.640008417338709 29.94317137096774 6.640008417338709C29.94317137096774 6.576002570564516 30.071282762096775 6.447990877016129 30.199144909274192 6.25599826108871C30.51917414314516 5.935993951612903 30.775147681451614 5.615989642137096 30.775147681451614 5.488002872983871C30.839203377016126 5.359991179435483 31.287344002016127 4.847994254032258 31.799291078629032 4.144004712701613C32.05526461693549 3.8240004032258064 32.37529385080645 3.4399902469758064 32.43934954637097 3.3120034778225804C32.503155997983875 3.247997631048387 32.6312673891129 3.056005015120968 32.69532308467742 2.991999168346774C33.079158770161285 2.5440080897177415 33.143214465725805 2.479999750504032 33.143214465725805 2.416001381048387C33.079158770161285 2.416001381048387 32.823185231854836 2.607989012096774 32.69532308467742 2.6719948588709674C32.6312673891129 2.736000705645161 32.503155997983875 2.736000705645161 32.503155997983875 2.736000705645161C32.43934954637097 2.6719948588709674 32.43934954637097 2.736000705645161 32.43934954637097 2.800006552419355C32.43934954637097 2.864012399193548 32.37529385080645 2.991999168346774 32.24718245967742 3.056005015120968C32.119320312499994 3.1839917842741934 31.99120892137097 3.247997631048387 31.99120892137097 3.247997631048387C31.479261844758064 3.8240004032258064 31.159232610887095 4.144004712701613 31.159232610887095 4.144004712701613C31.159232610887095 4.208010559475806 31.09517691532258 4.271991481854839 30.839203377016126 4.527989944556451C30.839203377016126 4.591995791330645 30.775147681451614 4.656001638104838 30.775147681451614 4.720007484879032C30.775147681451614 4.720007484879032 30.71134122983871 4.847994254032258 30.583229838709673 4.976005947580646C30.00722706653226 5.679995488911291 29.815309223790322 6.06400564516129 29.815309223790322 6.128011491935484C29.815309223790322 6.191992414314516 29.687197832661287 6.25599826108871 29.55933568548387 6.25599826108871C29.687197832661287 6.3200041078629035 29.623142137096774 6.447990877016129 29.495279989919354 6.576002570564516C29.431224294354838 6.640008417338709 29.36716859879032 6.767995186491936 29.36716859879032 6.832001033266129C29.36716859879032 6.832001033266129 29.303112903225806 6.960012726814515 29.2393064516129 7.023993649193549ZM31.927153225806453 2.5440080897177415L31.479261844758064 2.991999168346774C31.479261844758064 3.120010861895161 31.60712399193548 3.056005015120968 31.799291078629032 2.800006552419355C31.86334677419355 2.6719948588709674 31.99120892137097 2.607989012096774 31.927153225806453 2.5440080897177415ZM31.35115045362903 3.247997631048387C31.223288306451614 3.3120034778225804 31.159232610887095 3.376009324596774 31.159232610887095 3.376009324596774C31.159232610887095 3.4399902469758064 31.223288306451614 3.4399902469758064 31.287344002016127 3.376009324596774C31.35115045362903 3.3120034778225804 31.35115045362903 3.3120034778225804 31.35115045362903 3.247997631048387ZM31.09517691532258 3.5680019405241934C31.031121219758067 3.5680019405241934 30.583229838709673 4.144004712701613 30.583229838709673 4.208010559475806C30.583229838709673 4.271991481854839 30.839203377016126 4.015993019153226 30.96731476814516 3.7599945564516126C31.09517691532258 3.632007787298387 31.09517691532258 3.5680019405241934 31.09517691532258 3.5680019405241934ZM30.455118447580645 4.400003175403226C30.39131199596774 4.400003175403226 30.327256300403228 4.464009022177419 30.327256300403228 4.527989944556451C30.327256300403228 4.591995791330645 30.39131199596774 4.591995791330645 30.455118447580645 4.527989944556451C30.455118447580645 4.464009022177419 30.51917414314516 4.464009022177419 30.51917414314516 4.400003175403226C30.51917414314516 4.335997328629032 30.455118447580645 4.335997328629032 30.455118447580645 4.400003175403226ZM29.047139364919353 7.472009652217742C29.11119506048387 7.472009652217742 29.11119506048387 7.408003805443548 29.11119506048387 7.408003805443548C29.11119506048387 7.3439979586693545 29.11119506048387 7.3439979586693545 29.047139364919353 7.3439979586693545C29.047139364919353 7.3439979586693545 29.047139364919353 7.3439979586693545 29.047139364919353 7.472009652217742ZM45.1752169858871 10.160005972782258C45.1752169858871 10.096000126008065 45.04735483870967 10.287992741935485 45.04735483870967 10.287992741935485C45.11116129032258 10.351998588709677 45.1752169858871 10.351998588709677 45.1752169858871 10.287992741935485C45.11116129032258 10.224011819556452 45.1752169858871 10.224011819556452 45.1752169858871 10.224011819556452C45.23927268145161 10.224011819556452 45.23927268145161 10.160005972782258 45.1752169858871 10.160005972782258ZM39.095160030241935 15.280000151209677C38.839186491935486 15.408011844758065 38.58321295362903 15.600004460685485 38.32723941532258 15.72799122983871C38.19912802419355 15.791997076612903 38.07126587701613 15.920008770161289 37.9431544858871 15.983989692540323C37.879348034274194 16.047995539314517 36.72734248991935 16.623998311491935 36.66328679435484 16.623998311491935C36.34325756048387 16.815990927419357 36.0232283266129 17.008008467741934 36.0232283266129 17.008008467741934C36.0232283266129 17.072014314516128 36.0232283266129 17.071989390120965 36.34325756048387 16.94400262096774C36.53517540322581 16.879996774193547 36.791148941532256 16.815990927419357 36.98331602822581 16.68800415826613C37.17523387096774 16.623998311491935 37.367151713709674 16.55999246471774 37.367151713709674 16.55999246471774C37.431207409274194 16.55999246471774 38.26318371975806 16.11200138608871 39.03135357862903 15.72799122983871C39.15921572580645 15.664010307459677 39.28732711693549 15.600004460685485 39.28732711693549 15.600004460685485C39.28732711693549 15.664010307459677 39.28732711693549 15.664010307459677 39.22327142137097 15.72799122983871C39.28732711693549 15.72799122983871 39.351133568548384 15.664010307459677 39.351133568548384 15.664010307459677C39.415189264112904 15.664010307459677 39.479244959677416 15.535998613911291 39.60710710685483 15.471992767137095C39.73521849798387 15.408011844758065 39.863329889112904 15.344005997983869 39.92713634072581 15.280000151209677C39.99119203629032 15.280000151209677 40.18335912298387 15.151988457661291 40.31122127016129 15.024001688508065C40.63125050403226 14.832009072580645 41.65514465725806 14.063988760080646 42.16734097782258 13.615997681451612C42.23114742943549 13.551991834677418 42.42331451612903 13.424005065524193 42.48712096774194 13.35999921875C42.55117666330645 13.35999921875 42.8071502016129 13.104000756048388 43.063123739919355 12.78399644657258C43.447208669354836 12.400011214717741 43.575320060483875 12.271999521169354 43.575320060483875 12.144012752016128C43.575320060483875 12.080006905241936 43.575320060483875 12.080006905241936 43.63912651209677 12.016001058467742C43.63912651209677 12.016001058467742 43.575320060483875 12.016001058467742 43.447208669354836 12.080006905241936C43.31934652217742 12.20799367439516 43.31934652217742 12.20799367439516 43.2552908266129 12.20799367439516C43.19123513104838 12.143987827620968 43.19123513104838 12.144012752016128 42.55117666330645 12.719990599798388C42.35925882056451 12.912008140120967 42.16734097782258 13.104000756048388 41.97517389112903 13.168006602822581C41.84731174395161 13.295993371975806 41.71920035282258 13.424005065524193 41.65514465725806 13.424005065524193C41.65514465725806 13.488010912298385 41.527282510080646 13.551991834677418 41.463226814516126 13.615997681451612C41.39917111895161 13.615997681451612 41.2713089717742 13.744009375 41.20725327620968 13.807990297379034C41.14319758064516 13.871996144153226 41.079141885080645 13.871996144153226 41.079141885080645 13.871996144153226C40.95127973790322 14.000007837701611 40.88722404233871 14.063988760080646 40.759112651209676 14.127994606854838C40.63125050403226 14.256006300403227 40.50313911290322 14.383993069556452 40.37527696572581 14.447998916330645C40.24716557459677 14.512004763104839 40.18310987903226 14.576010609879031 40.18310987903226 14.576010609879031C40.119303427419354 14.639991532258064 40.119303427419354 14.639991532258064 40.055247731854834 14.639991532258064C39.99119203629032 14.576010609879031 39.92713634072581 14.576010609879031 39.92713634072581 14.639991532258064C39.92713634072581 14.703997379032257 39.543300655241936 15.088007535282257 39.351133568548384 15.151988457661291C39.22327142137097 15.215994304435483 39.15921572580645 15.215994304435483 39.095160030241935 15.280000151209677ZM38.19912802419355 14.895989994959676C38.135321572580644 14.959995841733871 38.135321572580644 14.959995841733871 38.26318371975806 14.895989994959676C38.32723941532258 14.895989994959676 38.32723941532258 14.832009072580645 38.26318371975806 14.832009072580645C38.26318371975806 14.832009072580645 38.19912802419355 14.832009072580645 38.19912802419355 14.895989994959676ZM37.62312525201613 15.151988457661291C37.559318800403226 15.215994304435483 37.559318800403226 15.215994304435483 37.62312525201613 15.215994304435483C37.62312525201613 15.215994304435483 37.68718094758064 15.215994304435483 37.68718094758064 15.151988457661291C37.751236643145155 15.088007535282257 37.68718094758064 15.088007535282257 37.62312525201613 15.151988457661291ZM36.53517540322581 15.791997076612903C36.40731325604838 15.856002923387097 36.59923109879033 15.791997076612903 36.91926033266129 15.664010307459677C37.23928956653226 15.471992767137095 37.431207409274194 15.280000151209677 37.23928956653226 15.408011844758065C37.111178175403225 15.408011844758065 36.66328679435484 15.72799122983871 36.53517540322581 15.791997076612903ZM37.111178175403225 15.983989692540323C37.17523387096774 15.856002923387097 37.111178175403225 15.856002923387097 36.98331602822581 15.983989692540323C36.91926033266129 16.047995539314517 36.91926033266129 16.047995539314517 36.98331602822581 16.047995539314517C36.98331602822581 16.047995539314517 37.04712247983871 15.983989692540323 37.111178175403225 15.983989692540323Z" fill="#AA2929"></path></svg> 