<?xml version="1.0" standalone="no"?>
  <!DOCTYPE svg PUBLIC "-//W3C//DTD SVG 1.1//EN" "http://www.w3.org/Graphics/SVG/1.1/DTD/svg11.dtd" >
  <svg>
  <metadata>
  Created by font-carrier
  </metadata>
  <defs>
  <font id="Queensila" horiz-adv-x="9230" vert-adv-y="9230" >
    <font-face
      
      font-family="Queensila"
      
      font-weight="400"
      
      font-stretch="normal"
      
      units-per-em="2048"
      
      ascent="1730"
      
      descent="-485"
      
    />
      <missing-glyph />

      

      
      <glyph glyph-name="uni21" unicode="&#x21;" d="M123 1512L123 1507L81 189L71 184L57 184L47 189Q0 1314 0 1426Q39 1512 123 1512M66 127Q123 110 123 61Q123 13 57 4Q24 4 0 46L0 84Q23 127 66 127Z"  horiz-adv-x="173" vert-adv-y="2048"  />

      
      <glyph glyph-name="uni22" unicode="&#x22;" d="M52 1517Q72 1512 85 1493L52 1237L47 1237Q25 1237 0 1493Q27 1517 52 1517M147 1517Q156 1517 175 1493L142 1237L137 1237Q117 1237 90 1483Q101 1517 147 1517Z"  horiz-adv-x="225" vert-adv-y="2048"  />

      
      <glyph glyph-name="uni23" unicode="&#x23;" d="M531 1498L559 1498Q569 1496 569 1488Q465 1057 465 1047L901 1047Q1000 1486 1015 1498L1043 1498Q1053 1496 1053 1488L948 1047L1252 1047L1261 1042Q1241 947 1228 947L929 947Q920 947 834 582L1138 582Q1148 581 1148 573Q1129 483 1119 483L811 483L702 32L668 32Q659 32 659 42L763 483L327 483Q223 39 213 32L185 32Q175 32 175 42L280 483L9 483Q0 483 0 492Q17 582 28 582L299 582Q310 582 384 924Q389 924 393 947L118 947L109 952Q131 1047 142 1047L417 1047Q519 1498 531 1498M436 947Q436 931 351 582L782 582Q792 582 877 947L436 947Z"  horiz-adv-x="1311" vert-adv-y="2048"  />

      
      <glyph glyph-name="uni24" unicode="&#x24;" d="M465 1540Q465 1631 464 1725L473 1730L502 1730Q511 1730 511 1716L511 1539Q707 1530 873 1389L873 1170Q873 1161 864 1161L859 1170L859 1185Q859 1438 593 1512Q539 1518 511 1520Q512 1281 513 879Q544 867 579 857Q847 758 940 668Q1049 554 1049 411L1049 378Q1049 125 698 13Q588-6 551-6L515-6Q516-99 516-196L507-200L478-200Q469-200 469-191L469-6Q234-4 0 184L0 473Q2 483 10 483L15 473L15 464Q15 119 366 27Q416 21 469 16L469 374Q469 593 468 851Q159 973 105 1075Q62 1157 62 1223Q62 1432 313 1517Q404 1537 465 1540M513 834Q514 483 515 13Q741 14 878 179Q944 277 944 397Q944 695 513 834M468 895Q467 1184 465 1521Q243 1512 166 1332Q152 1281 152 1246L152 1213Q152 1018 468 895Z"  horiz-adv-x="1099" vert-adv-y="2048"  />

      
      <glyph glyph-name="uni25" unicode="&#x25;" d="M204 1507Q321 1507 375 1360Q384 1317 384 1298L384 1265Q362 1047 194 1047Q38 1047 9 1265L9 1279Q9 1443 142 1498Q164 1507 204 1507M754 1498L764 1493Q191 331 38 32L0 32Q36 124 721 1498L754 1498M85 1284L85 1270Q85 1061 204 1061Q308 1093 308 1260L308 1294Q308 1461 204 1488L190 1488Q85 1450 85 1284M583 483Q704 483 749 302Q749 272 754 255Q754 109 640 42Q605 23 560 23Q439 23 384 179Q384 190 375 250Q375 438 536 483L583 483M450 250Q466 46 541 46Q541 42 560 42L569 42Q660 42 678 245L678 255Q661 464 574 464L564 468Q450 435 450 250Z"  horiz-adv-x="814" vert-adv-y="2048"  />

      
      <glyph glyph-name="uni26" unicode="&#x26;" d="M565 1507Q645 1507 645 1474Q745 1317 745 1298L735 1298Q614 1469 517 1469L493 1469Q389 1469 356 1332Q356 1285 351 1284Q351 1151 546 938Q1113 238 1134 222Q1238 369 1238 540L1238 596Q1238 614 1086 634L1086 639L1096 644L1414 644Q1423 642 1423 634Q1252 614 1252 592L1257 582Q1257 335 1153 189Q1247 61 1319 61L1328 61Q1431 61 1523 208L1532 208Q1517 46 1442 46Q1382 18 1304 18Q1200 18 1101 136Q956-6 669-6L607-6Q237-6 43 326Q0 436 0 516L0 549Q0 850 384 1028L384 1033Q299 1146 299 1251L299 1294Q299 1408 446 1488Q506 1507 565 1507M90 516Q90 266 327 103Q465 18 640 18Q913 18 1077 165L1077 170Q475 918 422 976L418 976Q90 823 90 516Z"  horiz-adv-x="1582" vert-adv-y="2048"  />

      
      <glyph glyph-name="uni27" unicode="&#x27;" d="M52 1517Q80 1510 80 1493Q59 1237 42 1237Q26 1237 0 1483L0 1488Q15 1517 52 1517Z"  horiz-adv-x="130" vert-adv-y="2048"  />

      
      <glyph glyph-name="uni28" unicode="&#x28;" d="M370 1668L379 1664Q379 1655 289 1569Q99 1274 99 725Q114-4 375-196Q375-201 379-210L370-215L365-215Q257-176 175-44Q0 266 0 725Q0 1276 232 1573Q329 1668 370 1668Z"  horiz-adv-x="429" vert-adv-y="2048"  />

      
      <glyph glyph-name="uni29" unicode="&#x29;" d="M10 1668Q88 1668 228 1460Q380 1141 380 729Q380 223 176-87Q85-198 15-215L10-215L0-210Q0-203 95-110Q280 190 280 729Q280 1282 86 1573Q0 1655 0 1664L10 1668Z"  horiz-adv-x="430" vert-adv-y="2048"  />

      
      <glyph glyph-name="uni2a" unicode="&#x2a;" d="M171 1517L181 1517Q219 1513 219 1483Q209 1416 195 1351Q295 1445 318 1445L328 1445Q356 1429 356 1403Q356 1358 214 1332L214 1322Q361 1299 361 1256Q355 1213 318 1213Q296 1213 195 1303L195 1298Q228 1196 228 1156L204 1137L181 1137Q152 1137 143 1166Q143 1175 166 1303Q70 1204 43 1204L38 1204Q5 1225 5 1251Q5 1289 152 1322L152 1327Q0 1357 0 1393L0 1398Q0 1430 48 1441Q60 1441 166 1351L166 1355Q133 1462 133 1498Q153 1517 171 1517Z"  horiz-adv-x="411" vert-adv-y="2048"  />

      
      <glyph glyph-name="uni2b" unicode="&#x2b;" d="M384 1170L445 1170Q455 1169 455 1161L455 805L825 805Q834 804 834 796L834 739Q834 729 825 729L460 729L460 374Q460 364 450 364L388 364Q379 364 379 374L379 729Q172 725 61 725L9 725Q0 725 0 734L0 796Q1 805 9 805L379 805Q374 995 374 1090L374 1161Q376 1170 384 1170Z"  horiz-adv-x="884" vert-adv-y="2048"  />

      
      <glyph glyph-name="uni2c" unicode="&#x2c;" d="M81 155Q147 145 147 75Q147-27 29-110L5-115L0-105Q52-32 52 8Q19 79 19 94L19 98Q21 140 81 155Z"  horiz-adv-x="197" vert-adv-y="2048"  />

      
      <glyph glyph-name="uni2d" unicode="&#x2d;" d="M6 800L321 800Q326 799 326 791L326 739Q326 729 321 729L6 729Q0 729 0 739L0 791Q1 800 6 800Z"  horiz-adv-x="376" vert-adv-y="2048"  />

      
      <glyph glyph-name="uniad" unicode="&#xad;" d="M6 800L321 800Q326 799 326 791L326 739Q326 729 321 729L6 729Q0 729 0 739L0 791Q1 800 6 800Z"  horiz-adv-x="376" vert-adv-y="2048"  />

      
      <glyph glyph-name="uni2e" unicode="&#x2e;" d="M61 127Q128 113 128 65Q128 18 66 4Q0 18 0 61Q13 127 61 127Z"  horiz-adv-x="178" vert-adv-y="2048"  />

      
      <glyph glyph-name="uni2f" unicode="&#x2f;" d="M465 1498L474 1493Q71 114 43 32L9 32L0 37Q422 1479 432 1498L465 1498Z"  horiz-adv-x="524" vert-adv-y="2048"  />

      
      <glyph glyph-name="uni36" unicode="&#x36;" d="M622 1434L663 1434Q735 1434 735 1421L735 1412Q682 1416 658 1416L649 1416Q334 1416 159 963Q100 787 100 609Q100 204 322 46Q404 1 467 1Q674 1 771 255Q785 305 794 386L790 409L790 432Q790 667 626 836Q541 899 454 899L436 899Q369 899 250 858L245 867Q373 931 481 931L499 931Q823 931 885 482L885 427Q885 131 599 5Q535-13 467-17Q206-17 64 287Q5 432 5 600L5 636Q5 646 0 654Q0 882 141 1144Q337 1434 622 1434Z"  horiz-adv-x="935" vert-adv-y="2048"  />

      
      <glyph glyph-name="uni3a" unicode="&#x3a;" d="M62 887Q124 870 124 831L124 821Q124 771 57 764Q0 777 0 821L0 831Q0 874 62 887M67 116Q124 101 124 59L124 49Q124 5 62-8Q0 4 0 49L0 59Q0 107 67 116Z"  horiz-adv-x="174" vert-adv-y="2048"  />

      
      <glyph glyph-name="uni3b" unicode="&#x3b;" d="M76 887Q142 873 142 826Q142 771 71 764Q14 779 14 831Q35 887 76 887M85 116Q141 116 147 35Q147-85 9-155L5-155L0-145Q52-81 52-27Q19 44 19 59Q19 104 85 116Z"  horiz-adv-x="197" vert-adv-y="2048"  />

      
      <glyph glyph-name="uni037E" unicode="&#x037E;" d="M76 887Q142 873 142 826Q142 771 71 764Q14 779 14 831Q35 887 76 887M85 116Q141 116 147 35Q147-85 9-155L5-155L0-145Q52-81 52-27Q19 44 19 59Q19 104 85 116Z"  horiz-adv-x="197" vert-adv-y="2048"  />

      
      <glyph glyph-name="uni3c" unicode="&#x3c;" d="M313 1031L318 1031Q369 991 370 983Q221 840 109 722Q370 474 370 471L370 466Q370 460 323 419L318 419L0 722L0 732Q8 732 214 936L313 1031Z"  horiz-adv-x="420" vert-adv-y="2048"  />

      
      <glyph glyph-name="uni3d" unicode="&#x3d;" d="M10 879L574 879Q583 877 583 869L583 817Q583 808 574 808L10 808Q0 808 0 817L0 869Q2 879 10 879M10 647L574 647Q583 645 583 637L583 585Q583 575 574 575L10 575Q0 575 0 585L0 637Q2 647 10 647Z"  horiz-adv-x="633" vert-adv-y="2048"  />

      
      <glyph glyph-name="uni3e" unicode="&#x3e;" d="M52 1031L56 1031Q254 844 369 722L52 419L47 419Q41 419 0 466L0 471L260 727L0 983Q28 1020 52 1031Z"  horiz-adv-x="419" vert-adv-y="2048"  />

      
      <glyph glyph-name="uni3f" unicode="&#x3f;" d="M398 1517L464 1517Q704 1517 792 1303Q811 1251 811 1194Q811 889 388 596Q256 474 256 359Q256 291 308 189L298 184Q218 184 218 236Q183 303 180 369L180 411Q180 583 479 786Q739 1006 739 1218L739 1227Q739 1454 431 1493L379 1493Q104 1493 18 1232L9 1156L0 1156L0 1379Q204 1517 398 1517M284 127Q346 115 346 70L346 61Q346 10 279 4Q222 18 222 61L222 70Q222 115 284 127Z"  horiz-adv-x="861" vert-adv-y="2048"  />

      
      <glyph glyph-name="uni40" unicode="&#x40;" d="M873 1385Q1315 1385 1608 1006Q1750 777 1750 579L1750 503Q1750 170 1527-42Q1449-85 1399-85Q1267-85 1167 133L1162 133Q1096 16 944-38Q898-52 830-61Q542-61 436 162Q428 189 422 228Q422 465 849 565Q1105 650 1105 712Q1110 712 1110 716Q1098 806 1005 901Q909 968 787 968L773 968Q465 925 465 697L455 697L450 745L450 807Q450 899 541 930Q696 1001 849 1001Q1057 1001 1167 830Q1224 732 1224 574L1224 418Q1224 42 1347-38Q1383-52 1399-52L1413-52Q1634 4 1660 451L1660 470Q1660 475 1665 475L1660 484L1660 517Q1660 918 1342 1186Q1125 1347 901 1347L849 1347Q577 1347 332 1124Q90 869 90 541L90 531Q90 115 446-147Q637-280 906-280Q934-291 934-299Q931-313 896-313L849-313Q462-313 166 33Q0 273 0 527L0 541Q0 938 346 1210Q592 1385 873 1385M1110 669Q1040 601 711 479Q526 385 526 204L526 199Q526 30 763-28Q766-28 825-33Q1048-33 1152 171Q1124 259 1124 361L1124 475Q1124 545 1119 664L1110 669Z"  horiz-adv-x="1800" vert-adv-y="2048"  />

      
      <glyph glyph-name="uni41" unicode="&#x41;" d="M531 1434L645 1434Q658 1434 841 936L1198 24Q1250 8 1250 2L1242-3L1050-3Q1041-3 1041 6Q1098 18 1098 33L924 496L248 496Q90 86 83 47Q83 15 144 6L144 2L135-3L9-3Q0-3 0 6Q53 6 109 192Q510 1212 575 1393Q575 1414 531 1425L531 1434M584 1362Q584 1354 261 518L910 518L588 1362L584 1362Z"  horiz-adv-x="1300" vert-adv-y="2048"  />

      
      <glyph glyph-name="uni42" unicode="&#x42;" d="M8 1434L461 1434Q643 1434 727 1271Q758 1210 758 1135Q758 954 588 868L583 868L583 863Q908 863 1019 573Q1041 499 1041 428Q1041 151 775 29Q689-3 579-3L8-3Q0-3 0 6Q45 6 48 42L48 1402Q48 1415 0 1425L0 1430L8 1434M143 863L405 863Q615 863 666 1099L666 1135Q666 1333 483 1402Q425 1416 318 1416L191 1416Q143 1416 143 1393L143 863M143 840L143 33Q148 20 170 20L531 20Q830 20 923 305Q936 369 941 428Q941 694 697 813Q617 840 479 840L143 840Z"  horiz-adv-x="1091" vert-adv-y="2048"  />

      
      <glyph glyph-name="uni43" unicode="&#x43;" d="M636 1439L684 1439Q918 1439 1111 1298L1111 1085L1102 1085L1102 1090Q1102 1368 745 1421L640 1421Q366 1421 192 1121Q100 935 100 700Q100 361 314 138Q467 2 653 2L667 2Q960 2 1080 169Q1128 248 1128 324L1128 337Q1130 346 1137 346L1141 337L1141 206Q1141 107 1067 79Q877-16 667-16L662-16Q227-16 48 423Q0 577 0 709Q0 1148 349 1366Q510 1439 636 1439Z"  horiz-adv-x="1191" vert-adv-y="2048"  />

      
      <glyph glyph-name="uni44" unicode="&#x44;" d="M9 1434L475 1434Q704 1434 867 1158Q967 962 967 732L967 704Q967 324 736 106Q620-3 410-3L9-3Q0-3 0 6Q48 19 48 33L48 1389Q48 1425 0 1425L0 1430L9 1434M140 1384L140 61Q140 26 157 20L301 20Q670 20 802 364Q871 517 871 718Q871 1155 575 1353Q466 1412 357 1412L153 1412Q140 1407 140 1384Z"  horiz-adv-x="1017" vert-adv-y="2048"  />

      
      <glyph glyph-name="uni45" unicode="&#x45;" d="M4 1434L788 1434Q796 1434 827 1321L819 1316Q775 1407 618 1407L170 1407Q143 1407 143 1380L143 863L583 863Q640 863 644 931L649 931L653 922L653 781Q653 772 644 772Q644 840 562 840L143 840L143 42Q143 36 156 29L718 29Q826 29 875 120L880 120Q880 115 884 115Q852-3 845-3L8-3Q0-3 0 6Q52 12 52 47L52 1384Q52 1419 4 1425L4 1434Z"  horiz-adv-x="934" vert-adv-y="2048"  />

      
      <glyph glyph-name="uni46" unicode="&#x46;" d="M4 1434L789 1434Q796 1434 828 1321L819 1316Q775 1407 619 1407L170 1407Q144 1407 144 1380L144 772L518 772Q636 772 636 804Q640 840 649 840L653 831L653 695Q653 686 645 686Q645 750 588 750L144 750L144 47Q144 14 192 6L192 2L183-3L9-3Q0-3 0 6Q52 6 52 56L52 1375Q52 1425 4 1425L4 1434Z"  horiz-adv-x="878" vert-adv-y="2048"  />

      
      <glyph glyph-name="uni47" unicode="&#x47;" d="M632 1439L684 1439Q913 1439 1111 1298L1111 1090Q1111 1081 1102 1081L1098 1090L1098 1099Q1098 1311 867 1393Q783 1421 693 1421L636 1421Q395 1421 222 1176Q100 975 100 727L100 695Q100 346 322 129Q468 2 662 2L666 2Q903 2 1045 124L1045 691Q1045 703 997 713L997 718L1006 722L1180 722Q1189 721 1189 713Q1141 713 1141 677L1141 224Q1141 94 1041 65Q855-16 666-16L653-16Q305-16 109 292Q0 474 0 713L0 718Q0 1136 327 1353Q487 1439 632 1439Z"  horiz-adv-x="1239" vert-adv-y="2048"  />

      
      <glyph glyph-name="uni48" unicode="&#x48;" d="M4 1434L187 1434L187 1430L148 1407Q144 1399 144 1389L144 727L1011 727L1011 1402Q1011 1415 967 1425L967 1434L1150 1434L1150 1430Q1150 1424 1111 1412L1106 1402L1106 42Q1106 14 1154 6L1154 2L1146-3L971-3Q963-3 963 6Q1011 19 1011 29L1011 704L144 704L144 33Q144 19 192 6L192 2L183-3L9-3Q0-3 0 6Q52 6 52 56L52 1375Q52 1425 4 1425L4 1434Z"  horiz-adv-x="1204" vert-adv-y="2048"  />

      
      <glyph glyph-name="uni49" unicode="&#x49;" d="M4 1434L187 1434L187 1430L148 1407Q140 1407 139 1362L139 70Q139 11 178 11Q191 11 191 2L183-3L9-3Q0-3 0 6Q48 19 48 33L48 1389Q48 1425 4 1425L4 1434Z"  horiz-adv-x="241" vert-adv-y="2048"  />

      
      <glyph glyph-name="uni4a" unicode="&#x4a;" d="M727 1434L902 1434Q910 1433 910 1425Q862 1417 862 1402L862 695Q862 322 814 233Q713-3 401-3Q159-3 30 251Q0 331 0 414L17 428L22 428Q37 428 52 292Q159 33 388 33L436 33Q762 33 762 473Q767 1014 767 1357L767 1402Q767 1415 719 1425L719 1430L727 1434Z"  horiz-adv-x="960" vert-adv-y="2048"  />

      
      <glyph glyph-name="uni4b" unicode="&#x4b;" d="M9 1434L183 1434Q192 1433 192 1425Q144 1415 144 1402L144 518Q528 1100 697 1375L702 1402Q702 1417 649 1425L649 1430L658 1434L793 1434Q802 1433 802 1425Q742 1425 632 1230Q477 997 388 849Q420 794 937 24Q972 7 972 2L963-3L789-3Q780-3 780 6Q824 16 824 29L824 38Q824 59 571 432Q344 776 340 777L336 777Q331 763 144 473L144 42Q147 6 192 6L192 2L183-3L9-3Q0-3 0 6Q45 6 48 42L48 1402Q48 1415 0 1425L0 1430L9 1434Z"  horiz-adv-x="1022" vert-adv-y="2048"  />

      
      <glyph glyph-name="uni4c" unicode="&#x4c;" d="M4 1434L187 1434L187 1430L148 1407Q141 1407 139 1375L139 65Q139 32 152 29L745 29Q826 29 862 79L867 79L867 74Q854-3 840-3L8-3Q0-3 0 6Q48 19 48 33L48 1389Q48 1425 4 1425L4 1434Z"  horiz-adv-x="917" vert-adv-y="2048"  />

      
      <glyph glyph-name="uni4d" unicode="&#x4d;" d="M344 1434L483 1434Q491 1433 553 1217Q570 1143 832 210L836 210Q1089 1295 1124 1434L1259 1434Q1267 1433 1267 1425Q1241 1425 1233 1380Q1285 1159 1590 29Q1604 14 1642 6L1642-3L1459-3Q1450-3 1450 6Q1494 14 1494 33Q1167 1264 1145 1357Q1135 1357 1050 958Q862 166 819-3L797-3Q781-3 701 319Q692 333 427 1307L422 1307L96 38L96 24Q96 16 135 6L135 2L126-3L9-3Q0-3 0 6Q61 6 74 97Q405 1371 405 1384Q405 1413 344 1425L344 1434Z"  horiz-adv-x="1692" vert-adv-y="2048"  />

      
      <glyph glyph-name="uni4e" unicode="&#x4e;" d="M8 1434L135 1434Q146 1427 936 183L941 183L941 1384Q941 1418 893 1425L893 1430L901 1434L1019 1434Q1028 1433 1028 1425Q975 1419 975 1384L975 6Q975-3 967-3L945-3L100 1307L100 33Q100 19 148 6L148 2L139-3L21-3Q13-3 13 6Q65 6 65 65L65 1357Q65 1421 17 1421Q0 1421 0 1430L8 1434Z"  horiz-adv-x="1078" vert-adv-y="2048"  />

      
      <glyph glyph-name="uni4f" unicode="&#x4f;" d="M666 1466L736 1466Q971 1466 1193 1257Q1407 1020 1407 732L1407 691Q1407 389 1150 133Q940-35 701-35Q312-35 78 369Q0 555 0 713Q0 1131 366 1375Q533 1466 666 1466M113 745L113 691Q113 330 405 88Q559-7 706-7Q1063-7 1246 410Q1298 583 1298 718Q1298 1108 1015 1339Q870 1439 732 1439L684 1439Q425 1439 226 1153Q113 940 113 745Z"  horiz-adv-x="1457" vert-adv-y="2048"  />

      
      <glyph glyph-name="uni50" unicode="&#x50;" d="M5 1434L588 1434Q875 1434 994 1149Q1015 1076 1015 1017L1015 994Q1015 732 758 605Q673 573 584 573L144 573L144 33Q144 19 192 6L192 2L183-3L9-3Q0-3 0 6Q53 6 53 65L53 1375Q53 1425 5 1425L5 1434M148 1412L144 1389L144 596L527 596Q803 596 898 881Q915 946 915 1004Q901 1294 671 1384Q604 1412 536 1412L148 1412Z"  horiz-adv-x="1065" vert-adv-y="2048"  />

      
      <glyph glyph-name="uni51" unicode="&#x51;" d="M670 1466L740 1466Q921 1466 1119 1321Q1407 1077 1407 709Q1407 354 1102 97Q1246 26 1516-130Q1707-234 1860-234Q2019-234 2152-112L2156-112L2169-130Q2111-197 2064-216Q1930-293 1807-293L1759-293Q1546-293 1119-21Q1009 38 1001 38Q855-35 710-35Q292-35 69 387Q0 556 0 677L0 750Q0 1038 248 1294Q462 1466 670 1466M108 704Q108 351 370 115Q456 48 509 33Q702 156 836 156L858 156Q946 156 1041 120Q1293 344 1293 713L1293 736Q1293 1059 1067 1294Q901 1439 727 1439L683 1439Q406 1439 209 1126Q108 931 108 704M540 24L540 20Q639-7 710-7Q822-7 954 56Q954 69 849 92Q807 101 762 101Q663 101 540 24Z"  horiz-adv-x="2219" vert-adv-y="2048"  />

      
      <glyph glyph-name="uni52" unicode="&#x52;" d="M4 1434L579 1434Q890 1434 997 1130Q1015 1069 1015 1008L1015 999Q1015 700 706 586Q688 586 688 582Q1022 72 1067 15Q1093 11 1093 2L1085-3L910-3Q902-3 902 6Q945 16 945 29L945 38Q945 62 753 342Q607 567 597 573L144 573L144 42Q144 14 191 6L191 2L183-3L9-3Q0-3 0 6Q48 14 48 42L48 1402Q48 1415 4 1425L4 1434M144 1402L144 596L527 596Q817 596 906 913Q915 996 915 1004Q915 1241 719 1362Q633 1412 527 1412L152 1412Q144 1410 144 1402Z"  horiz-adv-x="1143" vert-adv-y="2048"  />

      
      <glyph glyph-name="uni53" unicode="&#x53;" d="M431 1457L448 1457Q635 1457 797 1316L797 1099L788 1099L788 1108Q788 1330 601 1412Q530 1439 440 1439L435 1439Q238 1439 156 1271Q139 1222 139 1180L139 1162Q139 1158 135 1158Q135 942 461 831Q789 711 879 605Q962 499 962 373L962 346Q962 156 753 42Q607-26 466-26Q217-26 0 160L0 437Q1 446 8 446L13 437L13 423Q13 107 318 15Q404-3 474-3Q713-3 836 206Q866 302 866 369Q866 657 435 795Q158 909 100 1004Q56 1084 56 1162Q56 1354 287 1434Q363 1457 431 1457Z"  horiz-adv-x="1012" vert-adv-y="2048"  />

      
      <glyph glyph-name="uni54" unicode="&#x54;" d="M40 1434L1137 1434Q1146 1434 1177 1321L1168 1316Q1125 1407 968 1407L632 1407L632 70Q632 11 671 11Q684 11 684 2L676-3L501-3Q493-3 493 6Q538 6 541 42L541 1407L210 1407Q65 1407 27 1344Q11 1316 5 1316Q5 1321 0 1321Q27 1434 40 1434Z"  horiz-adv-x="1227" vert-adv-y="2048"  />

      
      <glyph glyph-name="uni55" unicode="&#x55;" d="M0 1434L183 1434L183 1425Q135 1425 135 1389L135 577Q135 138 348 52Q396 34 448 29Q670 29 788 265Q814 336 814 482L814 1375Q814 1425 766 1425L766 1434L888 1434Q897 1433 897 1425Q849 1425 849 1389L849 428Q849 127 566 15Q491-3 444-3Q167-3 69 292Q43 392 43 523L43 1393Q43 1425 0 1425L0 1434Z"  horiz-adv-x="947" vert-adv-y="2048"  />

      
      <glyph glyph-name="uni56" unicode="&#x56;" d="M0 1434L174 1434Q183 1433 183 1425Q148 1419 148 1402Q623 166 636 156L1115 1402Q1115 1425 1058 1425L1058 1434L1185 1434L1185 1430Q1185 1424 1141 1412Q639 135 605 2L601 2Q592 6 318 727L52 1402Q38 1417 0 1425L0 1434Z"  horiz-adv-x="1235" vert-adv-y="2048"  />

      
      <glyph glyph-name="uni57" unicode="&#x57;" d="M0 1434L179 1434L179 1430Q179 1421 149 1416L149 1407Q149 1391 506 469Q515 461 628 156Q641 167 907 854Q911 854 911 858L697 1402Q675 1419 645 1425L645 1434L819 1434Q828 1433 828 1425Q793 1419 793 1402Q859 1223 1277 156L1281 156L1760 1402Q1760 1425 1704 1425L1704 1434L1830 1434L1830 1430Q1830 1424 1787 1412Q1286 139 1251 2L1246 2Q1237 7 972 704Q930 813 915 831Q641 125 602 2L593 2Q445 399 53 1402Q30 1419 0 1425L0 1434Z"  horiz-adv-x="1880" vert-adv-y="2048"  />

      
      <glyph glyph-name="uni58" unicode="&#x58;" d="M4 1434L179 1434Q187 1433 187 1425Q152 1416 152 1407Q158 1374 488 804L492 804L828 1412Q819 1421 771 1425L771 1434L893 1434Q902 1433 902 1425Q853 1425 832 1375Q501 786 501 777Q902 56 928 24Q940 14 976 6L976 2L967-3L797-3Q788-3 788 6Q823 16 823 33Q492 634 449 695L83 33L83 20Q118 11 118 2L109-3L9-3Q0-3 0 6Q59 6 126 160Q136 169 440 718Q99 1331 44 1416Q4 1420 4 1430L4 1434Z"  horiz-adv-x="1026" vert-adv-y="2048"  />

      
      <glyph glyph-name="uni59" unicode="&#x59;" d="M0 1434L179 1434L179 1430L144 1407L144 1402L562 722Q587 749 998 1384Q1006 1386 1011 1412Q1003 1419 959 1425L959 1434L1076 1434Q1085 1433 1085 1425Q1032 1425 994 1339Q958 1288 584 713L584 33Q584 18 632 6L632 2L623-3L449-3Q440-3 440 6Q493 6 493 56L493 677Q493 694 240 1094Q64 1388 27 1421Q0 1421 0 1430L0 1434Z"  horiz-adv-x="1135" vert-adv-y="2048"  />

      
      <glyph glyph-name="uni5a" unicode="&#x5a;" d="M96 1434L945 1434Q945 1416 501 686Q497 674 109 29L780 29Q898 29 950 120L954 110Q928-3 915-3L9-3L0 2L841 1407L266 1407Q121 1407 83 1344Q68 1316 61 1316Q61 1321 57 1321Q83 1434 96 1434Z"  horiz-adv-x="1004" vert-adv-y="2048"  />

      
      <glyph glyph-name="uni5b" unicode="&#x5b;" d="M9 1638L280 1638Q290 1637 290 1629L290 1602Q290 1593 280 1593L72 1593Q77 1478 77 1425L77-160L280-160Q290-161 290-169L290-201Q290-210 280-210L13-210L4-205Q0 672 0 1154L0 1629Q1 1638 9 1638Z"  horiz-adv-x="340" vert-adv-y="2048"  />

      
      <glyph glyph-name="uni5c" unicode="&#x5c;" d="M9 1416L36 1416Q49 1416 154 1027Q186 934 449 21L440 17L412 17Q402 17 286 442Q272 470 0 1412L9 1416Z"  horiz-adv-x="499" vert-adv-y="2048"  />

      
      <glyph glyph-name="uni5d" unicode="&#x5d;" d="M9 1638L285 1638Q294 1637 294 1629Q290 238 290-205L281-210L9-210Q0-210 0-201L0-169Q1-160 9-160L213-160Q217 345 217 619L217 1593L9 1593Q0 1593 0 1602L0 1629Q1 1638 9 1638Z"  horiz-adv-x="344" vert-adv-y="2048"  />

      
      <glyph glyph-name="uni5e" unicode="&#x5e;" d="M177 1434L200 1434Q213 1426 376 1185L367 1181L313 1181Q287 1200 190 1353L186 1353Q90 1200 64 1181L9 1181Q0 1181 0 1190Q172 1434 177 1434Z"  horiz-adv-x="426" vert-adv-y="2048"  />

      
      <glyph glyph-name="uni5f" unicode="&#x5f;" d="M9-54L775-54Q784-55 784-63L784-113Q784-122 775-122L9-122Q0-122 0-113L0-63Q1-54 9-54Z"  horiz-adv-x="834" vert-adv-y="2048"  />

      
      <glyph glyph-name="uni60" unicode="&#x60;" d="M27 1430L45 1430Q75 1430 231 1253Q222 1249 217 1249Q0 1362 0 1394L0 1403Q0 1409 27 1430Z"  horiz-adv-x="281" vert-adv-y="2048"  />

      
      <glyph glyph-name="uni61" unicode="&#x61;" d="M439 1038Q667 1038 758 866Q795 785 795 726Q796 726 799 682Q798 535 798 450L798 44Q803 11 840 11Q850 11 850 8L850 3Q850 0 847 0L705 0Q702 0 702 3L702 141Q564 3 372 3Q204 3 79 109Q0 186 0 272Q0 482 309 574Q510 635 576 664Q674 708 693 757Q695 760 695 761Q695 800 655 880Q563 1011 400 1011L394 1011Q246 1011 138 915Q85 865 66 783Q60 749 60 743L50 743Q52 761 52 769L52 847Q52 923 102 947Q201 1007 350 1030Q396 1038 439 1038M96 249Q96 128 231 61Q308 26 392 26Q586 26 702 176L702 561Q702 567 701 578Q702 579 702 590L702 620Q702 645 704 669L701 720Q631 666 576 643Q527 622 318 541Q96 443 96 249Z"  horiz-adv-x="900" vert-adv-y="2048"  />

      
      <glyph glyph-name="uni62" unicode="&#x62;" d="M9 1434L141 1434Q150 1433 150 1425L150 914Q264 977 381 977L403 977Q655 977 816 719Q874 607 874 497L874 456Q874 208 634 44Q518-24 403-24L372-24Q266-24 150 39Q150-1 141-1L9-1Q0-1 0 8Q55 8 55 67L55 1362Q55 1421 14 1421Q0 1421 0 1430L9 1434M150 864L150 89Q250-6 367-6L412-6Q617-6 734 243Q779 345 779 483Q779 762 575 909Q492 963 385 963Q249 963 150 864Z"  horiz-adv-x="924" vert-adv-y="2048"  />

      
      <glyph glyph-name="uni63" unicode="&#x63;" d="M514 1025Q754 1008 788 916Q798 894 798 869Q793 764 793 755L784 751L779 760L779 774Q779 923 623 977Q566 991 519 991L500 991Q311 991 170 760Q103 641 103 500L103 481Q103 139 377 28Q439 4 510 4Q732 4 939 236L949 236Q958 234 958 226Q958 187 793 61Q644-24 510-24L486-24Q210-24 56 245Q0 369 0 491Q0 806 340 987Q437 1025 514 1025Z"  horiz-adv-x="1008" vert-adv-y="2048"  />

      
      <glyph glyph-name="uni64" unicode="&#x64;" d="M684 1434L816 1434Q825 1433 825 1425L825 44Q828 8 875 8L875 3L866-1L739-1Q730-1 730 39Q614-24 499-24L481-24Q192-24 37 284Q0 388 0 474L0 479Q0 755 259 918Q371 977 476 977L499 977Q619 977 725 914L730 914L730 1385Q730 1419 675 1425L675 1430L684 1434M100 506L100 483Q100 479 96 479L100 470L100 447Q100 238 250 85Q350-6 476-6L499-6Q629-6 730 89L730 864Q628 963 490 963Q219 963 118 637Q100 568 100 506Z"  horiz-adv-x="925" vert-adv-y="2048"  />

      
      <glyph glyph-name="uni65" unicode="&#x65;" d="M510 1030L520 1030Q805 1030 973 739Q1025 616 1025 529L1016 524L105 524L105 520Q105 124 405 19Q476 5 510 5Q745 5 949 238L958 238Q965 238 973 224L973 219Q767-24 520-24L491-24Q210-24 57 253Q0 385 0 501Q0 827 329 997Q431 1030 510 1030M105 558L920 558L920 563Q920 758 749 930Q646 1011 524 1011L491 1011Q268 1011 143 729Q119 660 105 558Z"  horiz-adv-x="1075" vert-adv-y="2048"  />

      
      <glyph glyph-name="uni66" unicode="&#x66;" d="M507 1439Q650 1439 733 1321L733 1299Q718 1271 693 1271L684 1271Q653 1271 607 1348Q543 1403 480 1403Q300 1403 235 1145Q226 1085 226 1031L226 1015L448 1015Q457 1014 457 1006L457 993Q457 984 448 984L226 984L226 44Q226 8 276 8L276 3L267-1L86-1Q77-1 77 8Q123 8 126 44L126 984L9 984Q0 984 0 993L0 1006Q1 1015 9 1015L126 1015L126 1020Q126 1280 280 1367Q384 1439 507 1439Z"  horiz-adv-x="783" vert-adv-y="2048"  />

      
      <glyph glyph-name="uni67" unicode="&#x67;" d="M500 1022L504 1022Q707 1022 864 863L864 1005Q865 1015 873 1015L1008 1015Q1018 1013 1018 1005Q966 1005 966 968L966 158Q966-274 826-365Q709-482 514-482L467-482Q460-482 453-468L453-463Q453-456 467-449L495-449Q750-449 826-234Q859-112 859 27L859 144Q709-10 495-10L490-10Q203-10 37 308Q0 429 0 508Q0 808 294 975Q396 1022 500 1022M103 508L103 504Q103 142 397 18Q467 4 509 4Q742 4 859 270Q864 311 864 340L864 718Q832 846 719 933Q626 1003 514 1003L481 1003Q266 1003 140 732Q103 620 103 508Z"  horiz-adv-x="1068" vert-adv-y="2048"  />

      
      <glyph glyph-name="uni68" unicode="&#x68;" d="M9 1434L141 1434Q150 1433 150 1425L150 739L154 739Q203 877 358 970Q454 1011 535 1011Q736 1011 802 780Q811 701 811 612L811 26Q811 11 856 8L856-1L666-1L666 8Q711 13 711 26L711 707Q711 893 562 961Q521 970 503 970L476 970Q281 970 172 703Q150 611 150 535L150 44Q150 8 199 8L199 3L190-1L9-1Q0-1 0 8Q55 8 55 67L55 1362Q55 1421 14 1421Q0 1421 0 1430L9 1434Z"  horiz-adv-x="906" vert-adv-y="2048"  />

      
      <glyph glyph-name="uni69" unicode="&#x69;" d="M101 1343L116 1343Q170 1343 183 1265Q183 1209 101 1198Q34 1217 34 1265L34 1275Q53 1343 101 1343M9 1015L150 1015Q159 1013 159 1005L159 47Q163 8 213 8L213 3L203-1L9-1Q0-1 0 8Q58 8 58 61L58 952Q58 1005 0 1005L0 1010L9 1015Z"  horiz-adv-x="263" vert-adv-y="2048"  />

      
      <glyph glyph-name="uni6a" unicode="&#x6a;" d="M438 1327L443 1327Q518 1317 518 1251Q518 1196 438 1185Q372 1202 372 1256Q384 1327 438 1327M372 1015L504 1015Q513 1014 513 1006L513 46Q513-345 249-449Q141-482 61-482L14-482Q7-482 0-467L0-463Q0-456 14-449L42-449Q410-449 410-1Q414 628 414 982L362 1011L372 1015Z"  horiz-adv-x="568" vert-adv-y="2048"  />

      
      <glyph glyph-name="uni6b" unicode="&#x6b;" d="M9 1434L140 1434Q149 1433 149 1425L149 515Q460 948 460 978Q451 1005 410 1005L410 1014L555 1014Q564 1013 564 1005Q519 1024 383.50 821.50Q248 619 245 619Q626 55 670 12Q693 12 693 3L684-1L503-1Q494-1 494 8Q539 16 539 30L539 35Q539 60 272 438Q204 534 204 542L199 542Q149 482 149 461L149 44Q149 8 199 8L199 3L190-1L9-1Q0-1 0 8Q50 18 50 30L50 1403Q50 1415 0 1425L0 1430L9 1434Z"  horiz-adv-x="743" vert-adv-y="2048"  />

      
      <glyph glyph-name="uni6c" unicode="&#x6c;" d="M9 1434L140 1434Q149 1433 149 1425L149 44Q152 8 199 8L199 3L190-1L9-1Q0-1 0 8Q54 8 54 48L54 1385Q54 1419 0 1425L0 1430L9 1434Z"  horiz-adv-x="249" vert-adv-y="2048"  />

      
      <glyph glyph-name="uni6d" unicode="&#x6d;" d="M566 1024Q724 1024 822 884Q837 854 837 835Q993 1024 1194 1024Q1396 1024 1475 855Q1485 821 1485 797L1485 47Q1485 8 1538 8L1538-1L1335-1L1335 8Q1383 8 1383 42L1383 753Q1383 920 1243 961Q1243 975 1141 980L1132 980Q965 980 846 782L846 28Q846 14 895 8L895-1L692-1L692 8Q745 8 745 47L745 294Q745 419 740 506Q745 550 745 695Q745 892 658 937Q587 980 513 980L488 980Q296 980 179 729Q155 659 155 627L155 52Q155 8 213 8L213 3L203-1L10-1Q0-1 0 8Q53 21 53 37L53 976Q53 993 0 1005L0 1010L10 1015L145 1015Q155 1014 155 1005L155 763L160 763Q295 1024 566 1024Z"  horiz-adv-x="1588" vert-adv-y="2048"  />

      
      <glyph glyph-name="uni6e" unicode="&#x6e;" d="M556 1024Q846 991 846 782L846 42Q846 8 894 8L894-1L691-1L691 8Q744 8 744 47L744 710Q744 920 614 961Q561 980 503 980L483 980Q317 980 198 768Q154 680 154 622L154 61Q154 8 212 8L212 3L203-1L9-1Q0-1 0 8Q50 8 53 47L53 967Q50 1005 0 1005L0 1010L9 1015L145 1015Q154 1014 154 1005L154 763Q307 1024 556 1024Z"  horiz-adv-x="944" vert-adv-y="2048"  />

      
      <glyph glyph-name="uni6f" unicode="&#x6f;" d="M501 1029L515 1029Q828 1029 987 700Q1025 593 1025 500Q1025 211 753 38Q635-24 525-24L506-24Q207-24 43 291Q0 401 0 500Q0 804 281 972Q393 1029 501 1029M105 534L105 472Q105 188 343 28Q440-10 515-10Q793-10 901 333Q920 414 920 491L920 515Q920 862 629 996Q560 1010 534 1010L501 1010Q226 1010 119 658Q105 582 105 534Z"  horiz-adv-x="1075" vert-adv-y="2048"  />

      
      <glyph glyph-name="uni70" unicode="&#x70;" d="M421 1023L435 1023Q706 1023 869 729Q910 615 910 529L910 516Q910 231 629 67Q526 22 430 22L412 22Q284 22 149 108L149-386Q149-420 199-426L199-431L190-436L9-436Q0-436 0-426Q54-426 54-377L54 956Q54 1006 0 1006L0 1011L9 1015L140 1015Q149 1014 149 1006L149 937Q281 1023 421 1023M149 873L149 171Q258 36 435 36Q633 36 752 253Q815 386 815 520Q815 799 616 950Q530 1005 435 1005L403 1005Q266 1005 149 873Z"  horiz-adv-x="960" vert-adv-y="2048"  />

      
      <glyph glyph-name="uni71" unicode="&#x71;" d="M485 1027L494 1027Q634 1027 761 941L766 941L766 995Q767 1004 775 1004L902 1004Q911 1003 911 995Q864 995 861 959L861-395Q861-411 911-422L911-427L902-432L720-432Q711-432 711-422Q766-422 766-373L766 112L761 112Q634 26 498 26L476 26Q219 26 59 293Q6 399 0 524Q0 834 313 995Q410 1027 485 1027M100 520Q100 230 317 85Q397 40 494 40Q649 40 766 175L766 873Q658 1009 498 1009L467 1009Q262 1009 145 760Q100 658 100 520Z"  horiz-adv-x="961" vert-adv-y="2048"  />

      
      <glyph glyph-name="uni72" unicode="&#x72;" d="M553 1019Q738 1019 808 889L808 879Q808 852 755 846L741 846Q717 869 656.50 922.50Q596 976 500 976L491 976Q270 976 158 663L158 47Q158 8 211 8L211 3L202-1L9-1Q0-1 0 8Q57 8 57 71L57 937Q57 1000 14 1000Q0 1000 0 1009L9 1014L149 1014Q158 1013 158 1004L158 764L163 764Q305 1019 553 1019Z"  horiz-adv-x="858" vert-adv-y="2048"  />

      
      <glyph glyph-name="uni73" unicode="&#x73;" d="M332 1035Q485 1035 602 930L602 785Q602 775 592 775L587 785L587 804Q587 929 472 982Q422 1007 351 1007L342 1007Q337 1007 337 1011L327 1007L313 1007Q197 1007 154 910Q139 865 139 828L139 814Q139 651 443 559Q722 453 722 260Q722 80 520 5Q434-24 361-24L347-24Q151-24 0 111L0 303Q1 313 9 313L14 303Q14 5 356 5Q522 5 587 130Q611 176 611 231L611 265Q611 469 279 573Q43 668 43 819Q43 986 274 1031Q299 1035 332 1035Z"  horiz-adv-x="772" vert-adv-y="2048"  />

      
      <glyph glyph-name="uni74" unicode="&#x74;" d="M80 1282L165 1282Q174 1281 174 1273L174 1015L367 1015Q376 1014 376 1006L376 992Q376 982 367 982L174 982L174 379Q174 114 362 35Q442 24 442 12Q442 5 428-2L419-2Q169-2 89 261Q70 338 70 520L70 982L9 982Q0 982 0 992L0 1006L56 1039Q70 1056 70 1072L70 1273Q72 1282 80 1282Z"  horiz-adv-x="492" vert-adv-y="2048"  />

      
      <glyph glyph-name="uni75" unicode="&#x75;" d="M10 1018L198 1018Q207 1017 207 1008Q154 1008 154 970L154 282Q154 110 284 56Q374 37 395 37Q620 37 731 335L736 369L736 970Q736 1000 683 1008L683 1013L693 1018L885 1018Q895 1017 895 1008Q842 1000 842 970L842 37Q842 25 895 8L895 3L885-1L746-1Q736-1 736 8L736 253L731 253Q679 125 529 42Q445-1 347-1L342-1Q122-1 58 186Q53 211 53 234L53 970Q53 1008 0 1008L0 1013L10 1018Z"  horiz-adv-x="945" vert-adv-y="2048"  />

      
      <glyph glyph-name="uni76" unicode="&#x76;" d="M921 1002L875 1002Q872 1003 809 850Q516 146 472-7L468-7Q458-4 93 919Q62 1006 0 1006L0 1012L10 1016L199 1016Q210 1015 210 1006Q170 993 170 983L501 154L507 154Q833 967 854 999Q794 1000 799 1012L801 1016L921 1016L921 1002Z"  horiz-adv-x="971" vert-adv-y="2048"  />

      
      <glyph glyph-name="uni77" unicode="&#x77;" d="M0 1016L200 1016Q210 1015 210 1006Q170 996 170 987L170 982Q170 963 477 207Q497 168 497 154L501 154Q799 890 813 909Q787 1006 720 1006L720 1011L730 1016L921 1016Q930 1015 930 1006Q891 998 891 987Q891 972 1217 159L1227 159Q1545 944 1554 987L1554 992Q1554 1004 1490 1011L1490 1016L1500 1021L1631 1021Q1641 1019 1641 1011Q1582 1011 1564 943Q1194 34 1194-7L1188-7Q1173 3 940 602Q828 875 818 884Q511 126 468-7L458-7Q277 459 58 982Q32 1002 4 1002L0 1002L0 1016Z"  horiz-adv-x="1691" vert-adv-y="2048"  />

      
      <glyph glyph-name="uni78" unicode="&#x78;" d="M10 1016L199 1016Q208 1014 208 1006Q170 988 170 977Q374 615 397 589Q620 980 620 991Q620 1000 562 1005L562 1015L698 1015Q708 1014 708 1005Q645 1005 616 928L407 570L407 565Q701 56 737 13Q785 1 785-7L775-11L586-11Q577-11 577-2Q616 8 616 18L616 22Q616 31 359 478Q307 407 92 27L92 18Q92 8 131-2L131-7L121-11L10-11Q0-11 0-2Q69-2 131 144L344 497Q97 923 58 982Q0 1007 0 1011L10 1016Z"  horiz-adv-x="835" vert-adv-y="2048"  />

      
      <glyph glyph-name="uni79" unicode="&#x79;" d="M180 1015L365 1015Q374 1014 374 1006Q337 996 337 987L337 982Q644 202 663 186Q971 942 980 987L980 996Q919 1001 919 1011L928 1015L1051 1015Q1061 1014 1061 1006Q1008 1006 990 930Q573-125 521-235Q400-482 171-482L161-482Q49-482 0-444L0-429Q2-420 10-420L15-420Q107-444 157-444L180-444Q437-444 554-103Q611 25 611 49Q261 918 228 987Q171 1005 171 1011L180 1015Z"  horiz-adv-x="1111" vert-adv-y="2048"  />

      
      <glyph glyph-name="uni7a" unicode="&#x7a;" d="M135 1015L746 1015L746 1010L111 13L573 13Q721 13 775 110L780 110L780 105Q760-6 746-6L0-6L0 4L640 1000L390 1000Q202 1000 145 943L96 885L92 895Q123 1015 135 1015Z"  horiz-adv-x="830" vert-adv-y="2048"  />

      
      <glyph glyph-name="uni7b" unicode="&#x7b;" d="M453 1620L489 1620Q496 1620 503 1607Q503 1592 362 1579Q231 1542 231 1448Q222 1410 222 1348L222 981Q222 957 226 918Q226 789 172 750Q102 719 86 719L86 714Q222 684 222 578Q222 519 226 519Q222 474 222 452L222 85Q222-78 285-115Q345-150 489-164Q503-164 503-174L503-178Q503-182 489-192L457-187L430-187Q209-187 154-74Q122-2 122 175L122 193Q122 333 127 569Q127 678 72 678Q6 701 0 714L0 719Q10 732 100 764Q127 786 127 864Q122 1100 122 1240L122 1258Q122 1483 177 1543Q245 1620 453 1620Z"  horiz-adv-x="553" vert-adv-y="2048"  />

      
      <glyph glyph-name="uni7c" unicode="&#x7c;" d="M9 1638L68 1638Q77 1637 77 1628L77-392Q77-407 9-407L5-397Q0 1018 0 1578L0 1628Q2 1638 9 1638Z"  horiz-adv-x="127" vert-adv-y="2048"  />

      
      <glyph glyph-name="uni7d" unicode="&#x7d;" d="M9 1620L59 1620Q286 1620 344 1511Q376 1439 376 1321L376 914L371 886Q371 755 426 755Q492 732 498 719L498 710Q497 703 398 669Q371 643 371 551L376 519L376 112Q376-107 262-155Q179-187 63-187L36-187Q26-187 18-192Q0-185 0-178L0-174Q0-157 118-151Q240-118 240-87Q273-79 281 125Q276 247 276 343L276 538Q285 683 339 683Q340 694 412 714L412 719Q276 752 276 855L276 1090Q276 1186 281 1308Q281 1497 226 1539Q226 1567 9 1598Q0 1598 0 1607L0 1611Q1 1620 9 1620Z"  horiz-adv-x="548" vert-adv-y="2048"  />

      
      <glyph glyph-name="uni7e" unicode="&#x7e;" d="M9 616Q1 616 0 625L0 634Q0 692 112 795Q208 854 288 854L319 854Q670 782 741 782Q862 782 916 849Q961 930 966 930L970 930L979 926L979 912Q899 696 678 696L642 696Q316 764 243 764L207 764Q130 764 67 705Q15 616 9 616Z"  horiz-adv-x="1029" vert-adv-y="2048"  />

      
      <glyph glyph-name="unia1" unicode="&#xa1;" d="M67 1434Q121 1418 121 1371Q110 1317 58 1317Q4 1329 4 1367L4 1393Q26 1434 67 1434M54 1263L67 1263Q76 1262 76 1254L121 91Q86 1 4 1Q4 5 0 5Q0 9 4 41Q4 109 45 1259L54 1263Z"  horiz-adv-x="171" vert-adv-y="2048"  />

      
      <glyph glyph-name="unia2" unicode="&#xa2;" d="M593 1422L602 1417L543 995Q655 995 746 909Q759 869 759 856Q755 789 755 743L746 739Q746 905 588 954Q550 963 539 963L539 959Q427 92 418 51L471 47L498 47Q692 47 732 204Q744 276 750 276Q755 267 755 263Q755 230 759 159Q759 47 548 20Q534 16 494 16L480 16Q458 16 413 20Q364-411 350-411L287-411L287-407Q287-367 346 42Q267 60 144 177Q0 335 0 510Q0 755 274 941Q399 999 471 999Q521 1422 530 1422L593 1422M99 519L99 514Q99 510 94 510L99 501L99 487Q99 283 283 119L346 78L350 78Q454 894 467 968L463 968Q322 968 179 784Q99 648 99 519Z"  horiz-adv-x="809" vert-adv-y="2048"  />

      
      <glyph glyph-name="unia3" unicode="&#xa3;" d="M570 1429Q737 1429 835 1277L835 1173L826 1173Q769 1299 647 1371Q598 1398 557 1398L525 1398Q330 1398 292 1106Q287 1054 287 1007L287 953Q287 805 296 684L606 684Q615 682 615 675L615 621Q615 612 606 612L296 612Q296 332 143 50Q148 32 170 32L709 32Q824 32 867 82Q896 122 903 122Q903 118 907 118Q874 1 867 1L9 1Q0 1 0 10Q54 22 54 64Q197 371 197 612L49 612Q40 612 40 621L40 675Q41 684 49 684L193 684L193 890Q193 1302 355 1380Q436 1429 570 1429Z"  horiz-adv-x="957" vert-adv-y="2048"  />

      
      <glyph glyph-name="unia4" unicode="&#xa4;" d="M49 963L54 963L202 824L206 824Q272 869 350 869Q416 869 485 824Q527 860 638 963L642 963Q648 963 687 918L687 914Q543 772 543 770L543 765Q584 706 584 649L584 613Q580 559 539 500Q613 435 692 357Q692 351 642 307L638 307Q630 315 485 451Q431 406 364 406L328 406Q266 406 202 451Q202 446 54 307L49 307Q43 307 0 357Q148 496 148 505Q108 567 108 622L108 649Q108 706 148 765L148 770L4 914L4 918Q4 924 49 963M179 622Q179 526 305 478L350 473Q463 473 512 604L512 653Q512 749 377 797L328 797Q232 797 179 671L179 622Z"  horiz-adv-x="742" vert-adv-y="2048"  />

      
      <glyph glyph-name="unia5" unicode="&#xa5;" d="M9 1429L184 1429Q193 1428 193 1420Q163 1407 157 1407L157 1402Q157 1379 593 720L1047 1393L1047 1411Q988 1415 988 1425L997 1429L1119 1429Q1128 1428 1128 1420Q1074 1420 1042 1349Q917 1169 710 859L840 859Q849 858 849 850L849 792Q849 783 840 783L660 783Q654 783 611 715L611 711L840 711Q849 709 849 702L849 648Q849 639 840 639L607 639L607 64Q607 14 656 14L660 5L651 1L472 1Q463 1 463 10Q512 26 512 37L512 639L283 639Q274 639 274 648L274 702Q275 711 283 711L499 711Q458 780 449 783L283 783Q274 783 274 792L274 850Q275 859 283 859L404 859L54 1398Q31 1415 0 1420L0 1425L9 1429Z"  horiz-adv-x="1178" vert-adv-y="2048"  />

      
      <glyph glyph-name="unia6" unicode="&#xa6;" d="M9 1510L67 1510Q76 1509 76 1499L76 846Q76 835 67 835L9 835Q0 835 0 846L0 1499Q1 1510 9 1510M9 258L67 258Q76 256 76 247L76-406Q76-417 67-417L9-417Q0-417 0-406L0 247Q1 258 9 258Z"  horiz-adv-x="126" vert-adv-y="2048"  />

      
      <glyph glyph-name="unia7" unicode="&#xa7;" d="M316 1429L351 1429Q508 1429 650 1289L650 1090Q650 1078 638 1078L632 1090L632 1113Q632 1354 386 1394L316 1394Q173 1394 123 1248Q111 1204 111 1166L111 1113Q111 918 415 803Q644 677 644 516L644 458Q644 290 433 212Q406 200 374 200Q560 96 585 42Q644-25 644-110L644-157Q644-397 316-432Q135-432 0-292L0-81L11-81L11-87Q11-397 316-397Q532-376 532-186Q532-181 538-140Q538 88 222 200Q0 320 0 504L0 522Q0 711 216 791Q269 796 269 809Q0 920 0 1131Q0 1340 199 1406Q199 1418 316 1429M111 493Q111 320 316 229L328 229Q464 229 521 364Q532 414 538 487Q538 668 339 774Q145 774 111 575L111 493Z"  horiz-adv-x="700" vert-adv-y="2048"  />

      
      <glyph glyph-name="unia8" unicode="&#xa8;" d="M41 1425L81 1425Q121 1404 121 1367Q106 1313 68 1313L63 1313Q0 1322 0 1371Q0 1401 41 1425M216 1425L256 1425Q297 1402 297 1371Q285 1313 243 1313L229 1313Q193 1313 175 1367Q175 1402 216 1425Z"  horiz-adv-x="347" vert-adv-y="2048"  />

      
      <glyph glyph-name="unia9" unicode="&#xa9;" d="M418 1101L431 1101Q685 1101 818 859Q840 807 849 720Q849 466 553 347Q479 333 445 333L405 333Q194 333 54 531Q5 619 0 715Q0 892 166 1021Q281 1101 418 1101M418 1084L414 1084Q187 1084 95 832Q81 786 77 715Q77 462 328 360Q372 351 427 347Q661 347 750 598Q768 652 768 720Q768 959 553 1061Q507 1084 440 1084L431 1084Q427 1084 427 1088L418 1084M423 940L463 940Q549 940 575 890L575 827L566 827L566 836Q566 926 445 926Q333 926 292 787Q283 769 283 738L283 702Q283 562 409 513Q433 509 449 509Q566 509 566 598L566 607L575 607L575 553Q575 503 454 491Q280 491 216 661Q207 718 207 724Q207 875 373 935Q404 940 423 940Z"  horiz-adv-x="899" vert-adv-y="2048"  />

      
      <glyph glyph-name="uniaa" unicode="&#xaa;" d="M202 1407Q359 1407 404 1299Q426 1255 426 1106L426 1057Q426 894 530 868L543 868L543 859L530 859Q432 859 386 953L381 953Q305 859 202 859L193 859Q44 859 0 994L0 1030Q0 1132 283 1205Q350 1235 350 1268Q310 1389 197 1389L188 1389Q47 1389 22 1263L22 1254L13 1254L13 1322Q13 1383 202 1407M62 998Q62 891 215 872Q315 872 372 976Q359 1033 359 1084L359 1178L354 1232L350 1232Q278 1185 139 1128Q62 1076 62 998Z"  horiz-adv-x="593" vert-adv-y="2048"  />

      
      <glyph glyph-name="uniab" unicode="&#xab;" d="M256 707L351 707L351 703L108 460Q108 455 355 218L355 213L256 213Q96 360 0 460L0 465Q250 707 256 707M409 707L508 707L508 703Q508 699 261 460Q507 226 508 218L508 213L414 213Q406 213 153 460Q153 464 409 707Z"  horiz-adv-x="558" vert-adv-y="2048"  />

      
      <glyph glyph-name="uniac" unicode="&#xac;" d="M9 774L616 774Q625 773 625 765L625 585Q625 576 616 576L602 576Q593 576 593 585L593 702L9 702Q0 702 0 711L0 765Q2 774 9 774Z"  horiz-adv-x="675" vert-adv-y="2048"  />

      
      <glyph glyph-name="uniae" unicode="&#xae;" d="M422 1101Q697 1101 826 836Q844 764 844 720L844 715Q844 488 597 365Q498 329 422 329Q148 329 17 598Q0 669 0 715L0 729Q0 933 233 1061Q328 1101 422 1101M76 720L76 706Q76 469 309 365Q370 347 431 347Q657 347 750 598Q763 655 763 697L763 733Q763 968 530 1070Q473 1084 431 1084L417 1084Q176 1084 89 818Q76 785 76 720M229 944L462 944Q592 920 592 805Q592 711 494 675L485 675Q603 495 615 495L615 486L525 486L525 495L534 495L534 509Q464 606 426 670L305 670L305 504Q305 495 318 495L318 486L229 486L229 495Q242 495 242 504L242 926Q242 935 229 935L229 944M305 935L305 679L408 679Q499 679 539 792L543 823Q543 935 413 935L305 935Z"  horiz-adv-x="894" vert-adv-y="2048"  />

      
      <glyph glyph-name="uniaf" unicode="&#xaf;" d="M9 1075L355 1075Q364 1073 364 1066L364 1012Q364 1003 355 1003L9 1003Q0 1003 0 1012L0 1066Q1 1075 9 1075Z"  horiz-adv-x="414" vert-adv-y="2048"  />

      
      <glyph glyph-name="unib0" unicode="&#xb0;" d="M130 1443Q260 1421 260 1313L260 1304Q260 1232 162 1191L130 1187Q0 1208 0 1317Q0 1418 130 1443M58 1322L58 1313Q65 1245 126 1245L144 1245Q188 1245 207 1313Q194 1385 135 1385L121 1385Q58 1370 58 1322Z"  horiz-adv-x="310" vert-adv-y="2048"  />

      
      <glyph glyph-name="unib1" unicode="&#xb1;" d="M257 976L315 976Q324 974 324 967L324 751L562 751Q571 750 571 742L571 688Q571 679 562 679L324 679L324 468Q324 459 315 459L257 459Q248 459 248 468L248 679L9 679Q0 679 0 688L0 742Q2 751 9 751L248 751L248 967Q249 976 257 976M9 428L562 428Q571 426 571 419L571 365Q571 356 562 356L9 356Q0 356 0 365L0 419Q2 428 9 428Z"  horiz-adv-x="621" vert-adv-y="2048"  />

      
      <glyph glyph-name="unib2" unicode="&#xb2;" d="M229 1393Q404 1372 404 1245L404 1241Q404 1115 207 1043Q54 961 54 832L54 810L310 810Q369 810 395 841L400 841L400 836Q391 796 382 796L0 796L0 805Q18 805 18 814L18 854Q18 942 112 1030Q149 1058 332 1151Q377 1187 377 1245Q377 1331 292 1371Q237 1385 211 1385Q64 1385 31 1277L31 1254L22 1254L22 1331Q92 1393 229 1393Z"  horiz-adv-x="454" vert-adv-y="2048"  />

      
      <glyph glyph-name="unib3" unicode="&#xb3;" d="M63 1393L238 1393Q276 1393 359 1389L364 1380Q164 1204 161 1196Q344 1196 395 1057Q404 1025 404 1003L404 989Q404 854 242 801Q213 801 197 796Q85 796 0 859L0 944L9 944L9 931Q29 810 170 810L202 810Q339 810 359 985L359 1003Q359 1129 229 1169Q139 1185 139 1191L139 1196L337 1376L121 1376Q71 1376 45 1344L40 1344Q49 1393 63 1393Z"  horiz-adv-x="454" vert-adv-y="2048"  />

      
      <glyph glyph-name="unib4" unicode="&#xb4;" d="M189 1402Q229 1392 229 1362Q229 1337 18 1223L0 1223L0 1227Q162 1402 184 1402L189 1402Z"  horiz-adv-x="279" vert-adv-y="2048"  />

      
      <glyph glyph-name="unib5" unicode="&#xb5;" d="M9 1012L89 1012Q98 1010 98 1003L98 234Q98 76 283 41L314 41Q532 41 633 311Q642 342 642 365L642 1003Q643 1012 651 1012L727 1012Q736 1010 736 1003L736 55Q736 14 790 14L790 10L781 5L651 5Q642 5 642 14L642 243L637 243Q602 149 471 59Q375 1 292 1L251 1Q178 1 98 50L98-345Q98-354 89-354L9-354Q0-354 0-345L0 1003Q1 1012 9 1012Z"  horiz-adv-x="840" vert-adv-y="2048"  />

      
      <glyph glyph-name="unib6" unicode="&#xb6;" d="M369 1493L718 1493Q731 1491 731 1481L718 1475L662 1475L662-18Q662-31 650-31L581-31Q568-31 568-18L568 1475L469 1475L469-18Q469-31 456-31L387-31Q375-31 375-18L375 762L369 762Q139 762 19 1012Q0 1063 0 1106L0 1143Q0 1378 281 1481Q328 1493 369 1493Z"  horiz-adv-x="781" vert-adv-y="2048"  />

      
      <glyph glyph-name="unib7" unicode="&#xb7;" d="M59 524Q122 517 122 465Q107 407 63 407Q0 421 0 465Q0 510 59 524Z"  horiz-adv-x="172" vert-adv-y="2048"  />

      
      <glyph glyph-name="uni2219" unicode="&#x2219;" d="M59 524Q122 517 122 465Q107 407 63 407Q0 421 0 465Q0 510 59 524Z"  horiz-adv-x="172" vert-adv-y="2048"  />

      
      <glyph glyph-name="unib8" unicode="&#xb8;" d="M0-290Q85-342 152-342Q218-342 246.50-320.50Q275-299 275-254Q275-209 226-190Q186-174 124-174Q108-174 90-176L138 0L201 0L164-104Q196-100 226-99Q312-99 360-139.50Q408-180 408-253Q408-329 349.50-373.50Q291-418 189-418Q80-418 0-386L0-290M7307-1L7268-64L7268-69Q7345-142 7345-230L7345-248Q7345-328 7264-424Q7190-419 7152-419L7044-419Q7035-419 7035-410L7044-406Q7322-383 7322-248Q7322-160 7214-91L7214-82L7266-1L7307-1Z"  horiz-adv-x="7395" vert-adv-y="2048"  />

      
      <glyph glyph-name="unib9" unicode="&#xb9;" d="M54 1429L76 1429Q85 1428 85 1420L85 854Q85 844 126 841L126 832L0 832L0 841Q40 844 40 854L40 1393L36 1393Q17 1371 13 1371L13 1376Q37 1421 54 1429Z"  horiz-adv-x="176" vert-adv-y="2048"  />

      
      <glyph glyph-name="uniba" unicode="&#xba;" d="M233 1429L260 1429Q409 1429 476 1232Q485 1184 489 1128Q489 922 318 841L242 827Q82 827 13 1021Q0 1075 0 1106L0 1133Q0 1334 152 1411Q184 1429 233 1429M40 1133Q40 930 175 854Q205 841 224 841L260 841Q373 841 431 1021Q444 1071 444 1128Q444 1371 269 1420L238 1420Q71 1420 44 1155Q44 1140 40 1133Z"  horiz-adv-x="539" vert-adv-y="2048"  />

      
      <glyph glyph-name="unibb" unicode="&#xbb;" d="M14 176L0 176L0 213L205 479L0 745L0 782L14 782L356 479L14 176M327 176L313 176L313 213L518 479L313 745L313 782L327 782L669 479L327 176M8673 702L8767 702Q8809 669 9019 464L9023 464L9023 455Q9010 436 8767 208L8668 208L8668 213L8915 455L8673 698L8673 702M8826 702L8924 702Q9093 549 9180 455L8924 208L8826 208L8826 213Q8826 217 9073 455Q9073 459 8826 698L8826 702Z"  horiz-adv-x="9230" vert-adv-y="2048"  />

      
      <glyph glyph-name="unibc" unicode="&#xbc;" d="M45 1434L67 1434Q76 1433 76 1425L76 863Q76 857 90 850L112 850L112 841L0 841L0 850Q36 850 36 863L36 1407Q32 1407 4 1376L4 1380Q28 1425 45 1434M512 1411Q521 1410 521 1402Q135 86 112 23L76 23L76 28Q471 1406 480 1411L512 1411M651 594L674 594Q683 592 683 585L683 230Q710 244 710 257L719 257Q719 208 687 208L683 208L683 23Q683 10 714 10L714 1L611 1L611 10Q639 10 642 23L642 208L413 208L404 212Q631 575 651 594M638 562Q622 529 431 230L431 226L642 226L642 562L638 562Z"  horiz-adv-x="769" vert-adv-y="2048"  />

      
      <glyph glyph-name="unibd" unicode="&#xbd;" d="M45 1434L67 1434Q76 1433 76 1425L76 863Q76 850 112 850L112 841L0 841L0 850Q36 850 36 863L36 1402L31 1402Q8 1376 4 1376L4 1380Q14 1405 45 1434M530 1411L539 1407L134 23L103 23Q94 23 94 32Q467 1315 498 1411L530 1411M723 594Q898 577 898 446Q898 313 705 248Q548 166 548 28L548 10L777 10Q870 10 894 46L898 46Q884-4 876-4L498-4L498 5Q512 5 512 14L512 32Q512 226 763 315Q871 363 871 446Q856 580 745 580Q745 585 714 585L705 585Q577 585 534 504L525 473L525 450L516 450L516 531Q546 570 664 594L723 594Z"  horiz-adv-x="948" vert-adv-y="2048"  />

      
      <glyph glyph-name="unibe" unicode="&#xbe;" d="M184 1434L216 1434Q368 1434 400 1317L404 1286Q404 1157 193 1079Q54 997 54 881L54 859L50 850L279 850Q377 850 395 886L400 886L400 881Q391 836 382 836L0 836L0 845Q23 845 23 935Q37 996 103 1066Q156 1106 337 1196Q371 1229 377 1277Q377 1377 288 1416Q245 1425 220 1425L211 1425Q66 1425 32 1326Q32 1315 27 1290L18 1290L18 1371Q18 1401 184 1434M732 1411L732 1407Q678 1203 328 23L297 23Q288 23 288 32L692 1411L732 1411M719 594L1011 594Q1020 592 1020 585L1020 580L818 396Q1002 396 1051 266Q1065 234 1065 194Q1065 66 921 10Q901 1 863 1L822 1Q747 1 661 59L661 140L669 140L669 127Q669 40 809 10L858 10Q970 10 1011 131Q1020 165 1020 194Q1020 334 890 369Q873 378 804 387L800 396L997 580L836 580Q710 580 710 544L701 544Q708 594 719 594Z"  horiz-adv-x="1115" vert-adv-y="2048"  />

      
      <glyph glyph-name="unibf" unicode="&#xbf;" d="M494 1434L503 1434Q557 1422 557 1385L557 1371Q557 1333 498 1317Q450 1317 440 1380Q451 1434 494 1434M480 1263L534 1263Q602 1162 602 1057Q602 891 337 711Q67 493 67 279Q67 100 269 37Q332 23 382 23L422 23Q627 23 728 208Q759 277 759 342L768 342L768 131Q683 56 476 5Q382-4 359-4Q83-4 9 226L0 306Q0 592 400 872Q525 986 525 1097Q525 1151 480 1259L480 1263Z"  horiz-adv-x="818" vert-adv-y="2048"  />

      
      <glyph glyph-name="uni0131" unicode="&#x0131;" d="M65 951L101 951Q116 948 116 936L116 36Q116 15 173 15L173 0L0 0L0 15Q51 15 51 36L51 900L8 864L8 871Q29 917 65 951Z"  horiz-adv-x="223" vert-adv-y="2048"  />

      
      <glyph glyph-name="uni02C6" unicode="&#x02C6;" d="M171 1415L193 1415Q217 1395 368 1168L359 1164L305 1164Q283 1181 189 1330L184 1330L63 1164L0 1164L0 1173Q162 1411 171 1415Z"  horiz-adv-x="418" vert-adv-y="2048"  />

      
      <glyph glyph-name="uni02C7" unicode="&#x02C7;" d="M0 1415L62 1415L183 1249L188 1249Q263 1373 304 1415L358 1415Q367 1413 367 1406Q197 1164 192 1164L170 1164Q161 1168 0 1406L0 1415Z"  horiz-adv-x="417" vert-adv-y="2048"  />

      
      <glyph glyph-name="uni02C9" unicode="&#x02C9;" d="M9 1276L292 1276Q301 1274 301 1267L301 1213Q301 1204 292 1204L9 1204Q0 1204 0 1213L0 1267Q2 1276 9 1276Z"  horiz-adv-x="351" vert-adv-y="2048"  />

      
      <glyph glyph-name="uni02D8" unicode="&#x02D8;" d="M24 1437Q153 1269 361 1269Q550 1269 699 1437L711 1437L711 1425Q604 1136 361 1136L325 1136Q129 1136 0 1425L24 1437Z"  horiz-adv-x="761" vert-adv-y="2048"  />

      
      <glyph glyph-name="uni02D9" unicode="&#x02D9;" d="M58 1442Q116 1426 116 1388L116 1379Q116 1331 53 1325Q22 1325 0 1366L0 1388Q0 1429 58 1442Z"  horiz-adv-x="166" vert-adv-y="2048"  />

      
      <glyph glyph-name="uni02DA" unicode="&#x02DA;" d="M99 1482Q206 1474 206 1379L206 1375Q187 1285 117 1285L94 1285Q21 1285 0 1383Q23 1482 99 1482M50 1379Q58 1330 108 1330Q162 1340 162 1383Q146 1437 108 1437Q50 1429 50 1379Z"  horiz-adv-x="256" vert-adv-y="2048"  />

      
      <glyph glyph-name="uni02DB" unicode="&#x02DB;" d="M202 30Q220-4 220-10Q63-114 63-243L63-261Q88-405 278-405L278-414L247-418L59-418Q0-364 0-279Q0-109 193 30L202 30Z"  horiz-adv-x="328" vert-adv-y="2048"  />

      
      <glyph glyph-name="uni02DC" unicode="&#x02DC;" d="M609 1446L614 1437L614 1424Q540 1321 435 1321Q390 1321 161 1392Q93 1392 13 1312L9 1312Q0 1312 0 1321L0 1330Q91 1442 201 1442Q244 1442 466 1375L488 1375Q539 1375 600 1446L609 1446Z"  horiz-adv-x="664" vert-adv-y="2048"  />

      
      <glyph glyph-name="uni02DD" unicode="&#x02DD;" d="M67 1500L90 1500Q106 1492 112 1473Q37 1285 14 1285L0 1303Q48 1500 67 1500M197 1500Q224 1500 229 1464Q152 1320 121 1289Q103 1296 103 1303L103 1307Q167 1496 184 1496Q189 1496 197 1500Z"  horiz-adv-x="279" vert-adv-y="2048"  />

      
      <glyph glyph-name="uni2013" unicode="&#x2013;" d="M9 488L542 488Q551 487 551 479L551 430Q551 421 542 421L9 421Q0 421 0 430L0 479Q1 488 9 488Z"  horiz-adv-x="601" vert-adv-y="2048"  />

      
      <glyph glyph-name="uni2014" unicode="&#x2014;" d="M15 486L1562 486Q1577 485 1577 477L1577 430Q1577 421 1562 421L15 421Q0 421 0 430L0 477Q2 486 15 486Z"  horiz-adv-x="1627" vert-adv-y="2048"  />

      
      <glyph glyph-name="uni2018" unicode="&#x2018;" d="M135 1522L139 1513Q90 1444 90 1406Q121 1339 121 1312Q102 1267 59 1267Q8 1267 0 1343Q0 1437 108 1513Q116 1513 135 1522Z"  horiz-adv-x="189" vert-adv-y="2048"  />

      
      <glyph glyph-name="uni2019" unicode="&#x2019;" d="M85 1522Q128 1522 139 1455L139 1451Q139 1323 4 1267Q4 1271 0 1271Q49 1346 49 1370L49 1379Q49 1390 18 1464Q18 1513 85 1522Z"  horiz-adv-x="189" vert-adv-y="2048"  />

      
      <glyph glyph-name="uni201A" unicode="&#x201A;" d="M71 131L85 131Q129 131 139 59Q139-32 40-106Q18-120 4-120L0-111Q44-53 49-8Q18 60 18 82Q18 119 71 131Z"  horiz-adv-x="189" vert-adv-y="2048"  />

      
      <glyph glyph-name="uni201C" unicode="&#x201C;" d="M134 1522Q134 1518 139 1518Q89 1443 89 1419L89 1415Q89 1401 121 1321Q121 1278 53 1267Q15 1267 0 1325L0 1352Q0 1440 107 1513L134 1522M286 1522L291 1513Q242 1446 242 1406Q273 1331 273 1321Q273 1277 210 1267Q159 1267 152 1343Q152 1440 260 1513Q267 1513 286 1522Z"  horiz-adv-x="341" vert-adv-y="2048"  />

      
      <glyph glyph-name="uni201D" unicode="&#x201D;" d="M81 1522Q122 1522 139 1460Q139 1331 13 1271L4 1267L0 1276Q49 1348 49 1383Q18 1450 18 1464L18 1482Q39 1522 81 1522M233 1522Q284 1522 291 1446Q291 1350 184 1276L157 1267L152 1276Q202 1343 202 1383Q170 1451 170 1478Q190 1522 233 1522Z"  horiz-adv-x="341" vert-adv-y="2048"  />

      
      <glyph glyph-name="uni201E" unicode="&#x201E;" d="M71 131L85 131Q131 131 139 64L139 50Q139-37 40-106Q21-120 4-120L0-111Q49-55 49-8Q18 72 18 82Q35 131 71 131M224 131L233 131Q291 131 291 68L291 37Q265-64 210-97Q178-120 157-120L157-111Q201-50 201-17L201-8Q201 3 170 77Q189 131 224 131Z"  horiz-adv-x="341" vert-adv-y="2048"  />

      
      <glyph glyph-name="uni2020" unicode="&#x2020;" d="M381 1537Q494 1522 494 1451L494 1424Q494 1376 440 1198Q621 1247 671 1247L677 1247Q779 1229 779 1145Q756 1037 677 1037Q591 1048 419 1091L424 1080Q424 1009 467 683Q403 244 403-160L392-166L381-166Q371-166 371-155L371-85Q371 302 306 688Q355 997 355 1091L349 1091Q148 1037 91 1037Q0 1068 0 1139L0 1150Q24 1247 91 1247L107 1247Q161 1247 333 1198L333 1204Q279 1396 279 1445Q307 1537 381 1537Z"  horiz-adv-x="829" vert-adv-y="2048"  />

      
      <glyph glyph-name="uni2021" unicode="&#x2021;" d="M387 1457L392 1457Q475 1457 499 1360Q494 1305 446 1118Q618 1167 671 1167L687 1167Q758 1167 779 1065L779 1059Q779 980 677 957Q620 963 424 1011Q424 905 473 608Q424 305 424 200L430 200Q617 254 687 254Q756 254 779 152L779 146Q761 44 677 44Q630 44 446 93Q499-114 499-154Q465-246 392-246L387-246Q279-223 279-144Q279-129 333 93L328 93Q162 44 91 44Q23 44 0 146L0 152Q0 235 107 254Q150 254 354 200L354 205Q354 267 311 608Q354 932 354 1011L349 1011Q148 957 91 957Q0 995 0 1054L0 1065Q16 1167 102 1167L107 1167Q163 1167 333 1118L333 1124Q285 1311 279 1360Q279 1432 387 1457Z"  horiz-adv-x="829" vert-adv-y="2048"  />

      
      <glyph glyph-name="uni2022" unicode="&#x2022;" d="M161 895L202 895Q304 895 363 756Q363 724 367 720Q367 597 224 545Q200 541 184 541Q62 541 9 662Q0 678 0 697L0 738Q0 830 125 886Q142 895 161 895Z"  horiz-adv-x="417" vert-adv-y="2048"  />

      
      <glyph glyph-name="uni2026" unicode="&#x2026;" d="M49 118L81 118Q117 92 117 68L117 55Q117 18 63 6L54 6Q0 16 0 59Q8 118 49 118M224 118L265 118Q305 94 305 64Q305 21 251 6L238 6Q196 6 184 64Q184 95 224 118M408 118L448 118Q489 97 489 59Q475 6 435 6L421 6Q383 6 368 64Q368 94 408 118Z"  horiz-adv-x="539" vert-adv-y="2048"  />

      
      <glyph glyph-name="uni2039" unicode="&#x2039;" d="M251 666L255 657L255 603Q203 559 85 491L85 482Q231 395 255 370L255 317Q255 308 246 308L0 473L0 500Q38 530 251 666Z"  horiz-adv-x="305" vert-adv-y="2048"  />

      
      <glyph glyph-name="uni203A" unicode="&#x203A;" d="M9 666L256 500L256 473Q201 432 5 308L0 317L0 370Q24 395 171 482L171 491Q56 556 0 603L0 657Q2 666 9 666Z"  horiz-adv-x="306" vert-adv-y="2048"  />

      
      <glyph glyph-name="uni2044" unicode="&#x2044;" d="M1087 1433L1123 1433L1123 1428Q150 131 36-6L9-6Q0-6 0 3L1087 1433Z"  horiz-adv-x="1173" vert-adv-y="2048"  />

      
      <glyph glyph-name="uni2215" unicode="&#x2215;" d="M1087 1433L1123 1433L1123 1428Q150 131 36-6L9-6Q0-6 0 3L1087 1433Z"  horiz-adv-x="1173" vert-adv-y="2048"  />

      
      <glyph glyph-name="uni222B" unicode="&#x222B;" d="M489 1634L502 1634Q527 1634 556 1603Q544 1482 534 1482Q509 1558 493 1558L484 1558Q425 1558 323 563Q213-230 63-230Q18-220 0-189Q13-73 23-73Q79-153 85-154L90-154Q129-154 215 442Q334 1634 489 1634Z"  horiz-adv-x="606" vert-adv-y="2048"  />

      
      <glyph glyph-name="uni2248" unicode="&#x2248;" d="M963 913L968 913Q977 913 977 900Q935 775 838 720Q765 680 681 680L677 680Q632 680 282 747L206 747Q74 747 22 608L9 599Q0 599 0 608L0 613Q0 688 125 787Q213 837 291 837Q327 837 681 770Q702 765 744 765Q895 765 946 886Q946 904 963 913M963 675L968 675Q977 675 977 662Q897 442 686 442L663 442Q631 442 300 505Q287 510 238 510L215 510Q73 510 18 366L9 362Q0 362 0 371L0 380Q79 595 287 595L318 595Q345 595 677 532Q690 528 739 528L753 528Q899 528 946 653Q954 673 963 675Z"  horiz-adv-x="1027" vert-adv-y="2048"  />

      
      <glyph glyph-name="uni2264" unicode="&#x2264;" d="M421 976L421 917Q408 904 85 702Q348 538 421 483L421 429L417 420Q6 683 0 693L0 716Q42 754 417 976L421 976M9 281L412 281Q421 280 421 272L421 241Q421 232 412 232L9 232Q0 232 0 241L0 272Q1 281 9 281Z"  horiz-adv-x="471" vert-adv-y="2048"  />

      
      <glyph glyph-name="uni2265" unicode="&#x2265;" d="M0 976Q35 964 421 720L421 693Q415 683 4 420L0 429L0 483L336 707Q23 893 0 917L0 976M9 281L412 281Q421 280 421 272L421 241Q421 232 412 232L9 232Q0 232 0 241L0 272Q1 281 9 281Z"  horiz-adv-x="471" vert-adv-y="2048"  />

      

  </font>
</defs>
</svg>
